{"markers": [], "height": 720, "tick_pixels": 100, "duration": 300, "channels": 2, "layers": [{"label": "", "lock": false, "number": 0, "id": "L0", "y": 0}, {"label": "", "lock": false, "number": 1, "id": "L1", "y": 0}], "channel_layout": 3, "id": "T0", "effects": [], "progress": [], "profile": "HDV 720 24p", "import_path": "/home/avishai/Documents/workspace/adaptive_hand_model/matlab/video", "scale": 14, "export_path": "", "sample_rate": 44100, "fps": {"num": 24, "den": 1}, "settings": {}, "width": 1280, "history": {"undo": [{"value": {"time": {"Points": [{"interpolation": 2, "co": {"X": 1, "Y": 1}}]}, "display": 0, "perspective_c2_x": {"Points": [{"interpolation": 2, "co": {"X": 1, "Y": -1}}]}, "duration": 86400.0, "end": 10, "scale_x": {"Points": [{"interpolation": 2, "co": {"X": 1, "Y": 1}}]}, "effects": [], "has_audio": {"Points": [{"interpolation": 2, "co": {"X": 1, "Y": -1}}]}, "scale": 1, "perspective_c3_y": {"Points": [{"interpolation": 2, "co": {"X": 1, "Y": -1}}]}, "alpha": {"Points": [{"interpolation": 2, "co": {"X": 1, "Y": 1}}]}, "start": 0, "wave_color": {"blue": {"Points": [{"interpolation": 0, "handle_type": 0, "handle_left": {"X": 0.5, "Y": 1}, "handle_right": {"X": 0.5, "Y": 0}, "co": {"X": 1, "Y": 255}}]}, "green": {"Points": [{"interpolation": 0, "handle_type": 0, "handle_left": {"X": 0.5, "Y": 1}, "handle_right": {"X": 0.5, "Y": 0}, "co": {"X": 1, "Y": 123}}]}, "red": {"Points": [{"interpolation": 0, "handle_type": 0, "handle_left": {"X": 0.5, "Y": 1}, "handle_right": {"X": 0.5, "Y": 0}, "co": {"X": 1, "Y": 0}}]}, "alpha": {"Points": [{"interpolation": 0, "handle_type": 0, "handle_left": {"X": 0.5, "Y": 1}, "handle_right": {"X": 0.5, "Y": 0}, "co": {"X": 1, "Y": 255}}]}}, "crop_x": {"Points": [{"interpolation": 2, "co": {"X": 1, "Y": 0}}]}, "image": "/home/avishai/.openshot_qt/thumbnail/700EU1BLAQ.png", "layer": 0, "perspective_c1_x": {"Points": [{"interpolation": 2, "co": {"X": 1, "Y": -1}}]}, "shear_y": {"Points": [{"interpolation": 2, "co": {"X": 1, "Y": 0}}]}, "rotation": {"Points": [{"interpolation": 2, "co": {"X": 1, "Y": 0}}]}, "mixing": 0, "waveform": false, "crop_width": {"Points": [{"interpolation": 2, "co": {"X": 1, "Y": -1}}]}, "crop_height": {"Points": [{"interpolation": 2, "co": {"X": 1, "Y": -1}}]}, "crop_y": {"Points": [{"interpolation": 2, "co": {"X": 1, "Y": 0}}]}, "volume": {"Points": [{"interpolation": 2, "co": {"X": 1, "Y": 1}}]}, "channel_mapping": {"Points": [{"interpolation": 2, "co": {"X": 1, "Y": -1}}]}, "title": "opening8.png", "has_video": {"Points": [{"interpolation": 2, "co": {"X": 1, "Y": -1}}]}, "perspective_c4_y": {"Points": [{"interpolation": 2, "co": {"X": 1, "Y": -1}}]}, "perspective_c2_y": {"Points": [{"interpolation": 2, "co": {"X": 1, "Y": -1}}]}, "reader": {"type": "QtImageReader", "height": 720, "video_timebase": {"num": 1, "den": 30}, "audio_stream_index": -1, "video_length": "2592000", "interlaced_frame": false, "duration": 86400.0, "channels": 0, "sample_rate": 0, "video_bit_rate": 0, "channel_layout": 4, "path": "/home/avishai/Documents/workspace/adaptive_hand_model/matlab/video/slides/opening8.png", "metadata": {}, "audio_bit_rate": 0, "has_video": true, "has_audio": false, "pixel_format": -1, "acodec": "", "video_stream_index": -1, "display_ratio": {"num": 4, "den": 3}, "fps": {"num": 30, "den": 1}, "width": 960, "file_size": "2764800", "top_field_first": true, "audio_timebase": {"num": 1, "den": 1}, "pixel_ratio": {"num": 1, "den": 1}, "vcodec": "", "has_single_image": true}, "position": 93.44166647593183, "perspective_c3_x": {"Points": [{"interpolation": 2, "co": {"X": 1, "Y": -1}}]}, "gravity": 4, "id": "891QVU4B22", "anchor": 0, "location_x": {"Points": [{"interpolation": 2, "co": {"X": 1, "Y": 0}}]}, "perspective_c1_y": {"Points": [{"interpolation": 2, "co": {"X": 1, "Y": -1}}]}, "file_id": "700EU1BLAQ", "channel_filter": {"Points": [{"interpolation": 2, "co": {"X": 1, "Y": -1}}]}, "location_y": {"Points": [{"interpolation": 2, "co": {"X": 1, "Y": 0}}]}, "scale_y": {"Points": [{"interpolation": 2, "co": {"X": 1, "Y": 1}}]}, "shear_x": {"Points": [{"interpolation": 2, "co": {"X": 1, "Y": 0}}]}, "perspective_c4_x": {"Points": [{"interpolation": 2, "co": {"X": 1, "Y": -1}}]}}, "type": "insert", "old_values": [{"time": {"Points": [{"interpolation": 2, "co": {"X": 1, "Y": 1}}]}, "display": 0, "perspective_c2_x": {"Points": [{"interpolation": 2, "co": {"X": 1, "Y": -1}}]}, "duration": 10.866666793823242, "end": 10.875, "scale_x": {"Points": [{"interpolation": 2, "co": {"X": 1, "Y": 1}}]}, "channel_filter": {"Points": [{"interpolation": 2, "co": {"X": 1, "Y": -1}}]}, "effects": [], "has_audio": {"Points": [{"interpolation": 2, "co": {"X": 1, "Y": -1}}]}, "scale": 1, "perspective_c3_y": {"Points": [{"interpolation": 2, "co": {"X": 1, "Y": -1}}]}, "alpha": {"Points": [{"interpolation": 2, "co": {"X": 1, "Y": 1}}]}, "shear_x": {"Points": [{"interpolation": 2, "co": {"X": 1, "Y": 0}}]}, "wave_color": {"blue": {"Points": [{"interpolation": 0, "handle_type": 0, "handle_left": {"X": 0.5, "Y": 1}, "handle_right": {"X": 0.5, "Y": 0}, "co": {"X": 1, "Y": 255}}]}, "red": {"Points": [{"interpolation": 0, "handle_type": 0, "handle_left": {"X": 0.5, "Y": 1}, "handle_right": {"X": 0.5, "Y": 0}, "co": {"X": 1, "Y": 0}}]}, "green": {"Points": [{"interpolation": 0, "handle_type": 0, "handle_left": {"X": 0.5, "Y": 1}, "handle_right": {"X": 0.5, "Y": 0}, "co": {"X": 1, "Y": 123}}]}, "alpha": {"Points": [{"interpolation": 0, "handle_type": 0, "handle_left": {"X": 0.5, "Y": 1}, "handle_right": {"X": 0.5, "Y": 0}, "co": {"X": 1, "Y": 255}}]}}, "crop_x": {"Points": [{"interpolation": 2, "co": {"X": 1, "Y": 0}}]}, "image": "/home/avishai/.openshot_qt/thumbnail/VLL3NDOT0B.png", "layer": 0, "perspective_c1_x": {"Points": [{"interpolation": 2, "co": {"X": 1, "Y": -1}}]}, "shear_y": {"Points": [{"interpolation": 2, "co": {"X": 1, "Y": 0}}]}, "rotation": {"Points": [{"interpolation": 2, "co": {"X": 1, "Y": 0}}]}, "gravity": 4, "waveform": false, "crop_width": {"Points": [{"interpolation": 2, "co": {"X": 1, "Y": -1}}]}, "crop_height": {"Points": [{"interpolation": 2, "co": {"X": 1, "Y": -1}}]}, "crop_y": {"Points": [{"interpolation": 2, "co": {"X": 1, "Y": 0}}]}, "volume": {"Points": [{"interpolation": 2, "co": {"X": 1, "Y": 1}}]}, "channel_mapping": {"Points": [{"interpolation": 2, "co": {"X": 1, "Y": -1}}]}, "title": "rec.avi", "has_video": {"Points": [{"interpolation": 2, "co": {"X": 1, "Y": -1}}]}, "perspective_c4_y": {"Points": [{"interpolation": 2, "co": {"X": 1, "Y": -1}}]}, "perspective_c2_y": {"Points": [{"interpolation": 2, "co": {"X": 1, "Y": -1}}]}, "reader": {"type": "FFmpegReader", "height": 451, "video_timebase": {"num": 1, "den": 60}, "audio_stream_index": -1, "video_length": "652", "interlaced_frame": false, "audio_bit_rate": 0, "channels": 0, "sample_rate": 0, "video_bit_rate": 13375086, "channel_layout": 4, "path": "/home/avishai/Documents/workspace/adaptive_hand_model/matlab/video/rec.avi", "metadata": {}, "vcodec": "mjpeg", "has_video": true, "has_audio": false, "pixel_format": 12, "acodec": "", "video_stream_index": 0, "display_ratio": {"num": 531, "den": 451}, "file_size": "18167826", "fps": {"num": 60, "den": 1}, "width": 531, "top_field_first": true, "audio_timebase": {"num": 1, "den": 1}, "pixel_ratio": {"num": 1, "den": 1}, "duration": 10.866666793823242, "has_single_image": false}, "perspective_c3_x": {"Points": [{"interpolation": 2, "co": {"X": 1, "Y": -1}}]}, "id": "S1HEPYMO0Q", "anchor": 0, "location_x": {"Points": [{"interpolation": 2, "co": {"X": 1, "Y": 0}}]}, "mixing": 0, "perspective_c1_y": {"Points": [{"interpolation": 2, "co": {"X": 1, "Y": -1}}]}, "file_id": "VLL3NDOT0B", "position": 10, "location_y": {"Points": [{"interpolation": 2, "co": {"X": 1, "Y": 0}}]}, "scale_y": {"Points": [{"interpolation": 2, "co": {"X": 1, "Y": 1}}]}, "start": 0, "perspective_c4_x": {"Points": [{"interpolation": 2, "co": {"X": 1, "Y": -1}}]}}, {"time": {"Points": [{"interpolation": 2, "co": {"X": 1, "Y": 1}}]}, "display": 0, "perspective_c2_x": {"Points": [{"interpolation": 2, "co": {"X": 1, "Y": -1}}]}, "duration": 86400.0, "end": 10, "scale_x": {"Points": [{"interpolation": 2, "co": {"X": 1, "Y": 1}}]}, "channel_filter": {"Points": [{"interpolation": 2, "co": {"X": 1, "Y": -1}}]}, "effects": [], "has_audio": {"Points": [{"interpolation": 2, "co": {"X": 1, "Y": -1}}]}, "scale": 1, "perspective_c3_y": {"Points": [{"interpolation": 2, "co": {"X": 1, "Y": -1}}]}, "alpha": {"Points": [{"interpolation": 2, "co": {"X": 1, "Y": 1}}, {"interpolation": 0, "handle_type": 0, "handle_right": {"X": 0.5, "Y": 0}, "handle_left": {"X": 0.5, "Y": 1}, "co": {"X": 1, "Y": 0}}, {"interpolation": 0, "handle_type": 0, "handle_right": {"X": 0.5, "Y": 0}, "handle_left": {"X": 0.5, "Y": 1}, "co": {"X": 73, "Y": 1}}]}, "shear_x": {"Points": [{"interpolation": 2, "co": {"X": 1, "Y": 0}}]}, "wave_color": {"blue": {"Points": [{"interpolation": 0, "handle_type": 0, "handle_right": {"X": 0.5, "Y": 0}, "handle_left": {"X": 0.5, "Y": 1}, "co": {"X": 1, "Y": 255}}]}, "green": {"Points": [{"interpolation": 0, "handle_type": 0, "handle_right": {"X": 0.5, "Y": 0}, "handle_left": {"X": 0.5, "Y": 1}, "co": {"X": 1, "Y": 123}}]}, "red": {"Points": [{"interpolation": 0, "handle_type": 0, "handle_right": {"X": 0.5, "Y": 0}, "handle_left": {"X": 0.5, "Y": 1}, "co": {"X": 1, "Y": 0}}]}, "alpha": {"Points": [{"interpolation": 0, "handle_type": 0, "handle_right": {"X": 0.5, "Y": 0}, "handle_left": {"X": 0.5, "Y": 1}, "co": {"X": 1, "Y": 255}}]}}, "crop_x": {"Points": [{"interpolation": 2, "co": {"X": 1, "Y": 0}}]}, "image": "/home/avishai/.openshot_qt/thumbnail/SM8I51NPAK.png", "layer": 1, "perspective_c1_x": {"Points": [{"interpolation": 2, "co": {"X": 1, "Y": -1}}]}, "position": 10.946666793823242, "rotation": {"Points": [{"interpolation": 2, "co": {"X": 1, "Y": 0}}]}, "gravity": 4, "waveform": false, "crop_width": {"Points": [{"interpolation": 2, "co": {"X": 1, "Y": -1}}]}, "crop_height": {"Points": [{"interpolation": 2, "co": {"X": 1, "Y": -1}}]}, "crop_y": {"Points": [{"interpolation": 2, "co": {"X": 1, "Y": 0}}]}, "volume": {"Points": [{"interpolation": 2, "co": {"X": 1, "Y": 1}}]}, "channel_mapping": {"Points": [{"interpolation": 2, "co": {"X": 1, "Y": -1}}]}, "title": "TitleFileName-2.svg", "has_video": {"Points": [{"interpolation": 2, "co": {"X": 1, "Y": -1}}]}, "perspective_c4_y": {"Points": [{"interpolation": 2, "co": {"X": 1, "Y": -1}}]}, "perspective_c2_y": {"Points": [{"interpolation": 2, "co": {"X": 1, "Y": -1}}]}, "reader": {"type": "QtImageReader", "interlaced_frame": false, "video_timebase": {"num": 1, "den": 30}, "audio_stream_index": -1, "video_length": "2592000", "channels": 0, "audio_bit_rate": 0, "sample_rate": 0, "video_bit_rate": 0, "channel_layout": 4, "path": "/home/avishai/Documents/workspace/adaptive_hand_model/matlab/video/assets/TitleFileName-2.svg", "metadata": {}, "vcodec": "", "has_video": true, "has_audio": false, "pixel_format": -1, "height": 1080, "acodec": "", "video_stream_index": -1, "display_ratio": {"num": 16, "den": 9}, "file_size": "8294400", "fps": {"num": 30, "den": 1}, "width": 1920, "top_field_first": true, "audio_timebase": {"num": 1, "den": 1}, "pixel_ratio": {"num": 1, "den": 1}, "duration": 86400.0, "has_single_image": true}, "perspective_c3_x": {"Points": [{"interpolation": 2, "co": {"X": 1, "Y": -1}}]}, "id": "838ILRLA3L", "anchor": 0, "location_x": {"Points": [{"interpolation": 2, "co": {"X": 1, "Y": 0}}]}, "mixing": 0, "perspective_c1_y": {"Points": [{"interpolation": 2, "co": {"X": 1, "Y": -1}}]}, "file_id": "SM8I51NPAK", "shear_y": {"Points": [{"interpolation": 2, "co": {"X": 1, "Y": 0}}]}, "location_y": {"Points": [{"interpolation": 2, "co": {"X": 1, "Y": 0}}]}, "scale_y": {"Points": [{"interpolation": 2, "co": {"X": 1, "Y": 1}}]}, "start": 0, "perspective_c4_x": {"Points": [{"interpolation": 2, "co": {"X": 1, "Y": -1}}]}}, {"time": {"Points": [{"interpolation": 2, "co": {"X": 1, "Y": 1}}]}, "display": 0, "perspective_c2_x": {"Points": [{"interpolation": 2, "co": {"X": 1, "Y": -1}}]}, "duration": 86400.0, "end": 10, "scale_x": {"Points": [{"interpolation": 2, "co": {"X": 1, "Y": 1}}]}, "channel_filter": {"Points": [{"interpolation": 2, "co": {"X": 1, "Y": -1}}]}, "effects": [], "has_audio": {"Points": [{"interpolation": 2, "co": {"X": 1, "Y": -1}}]}, "scale": 1, "perspective_c3_y": {"Points": [{"interpolation": 2, "co": {"X": 1, "Y": -1}}]}, "alpha": {"Points": [{"interpolation": 2, "co": {"X": 1, "Y": 1}}, {"interpolation": 0, "handle_type": 0, "handle_right": {"X": 0.5, "Y": 0}, "handle_left": {"X": 0.5, "Y": 1}, "co": {"X": 169, "Y": 1}}, {"interpolation": 0, "handle_type": 0, "handle_right": {"X": 0.5, "Y": 0}, "handle_left": {"X": 0.5, "Y": 1}, "co": {"X": 241, "Y": 0}}]}, "shear_x": {"Points": [{"interpolation": 2, "co": {"X": 1, "Y": 0}}]}, "wave_color": {"blue": {"Points": [{"interpolation": 0, "handle_type": 0, "handle_right": {"X": 0.5, "Y": 0}, "handle_left": {"X": 0.5, "Y": 1}, "co": {"X": 1, "Y": 255}}]}, "green": {"Points": [{"interpolation": 0, "handle_type": 0, "handle_right": {"X": 0.5, "Y": 0}, "handle_left": {"X": 0.5, "Y": 1}, "co": {"X": 1, "Y": 123}}]}, "red": {"Points": [{"interpolation": 0, "handle_type": 0, "handle_right": {"X": 0.5, "Y": 0}, "handle_left": {"X": 0.5, "Y": 1}, "co": {"X": 1, "Y": 0}}]}, "alpha": {"Points": [{"interpolation": 0, "handle_type": 0, "handle_right": {"X": 0.5, "Y": 0}, "handle_left": {"X": 0.5, "Y": 1}, "co": {"X": 1, "Y": 255}}]}}, "crop_x": {"Points": [{"interpolation": 2, "co": {"X": 1, "Y": 0}}]}, "image": "/home/avishai/.openshot_qt/thumbnail/722P7PCEWK.png", "layer": 0, "perspective_c1_x": {"Points": [{"interpolation": 2, "co": {"X": 1, "Y": -1}}]}, "position": 30.94666679382324, "rotation": {"Points": [{"interpolation": 2, "co": {"X": 1, "Y": 0}}]}, "gravity": 4, "waveform": false, "crop_width": {"Points": [{"interpolation": 2, "co": {"X": 1, "Y": -1}}]}, "crop_height": {"Points": [{"interpolation": 2, "co": {"X": 1, "Y": -1}}]}, "crop_y": {"Points": [{"interpolation": 2, "co": {"X": 1, "Y": 0}}]}, "volume": {"Points": [{"interpolation": 2, "co": {"X": 1, "Y": 1}}]}, "channel_mapping": {"Points": [{"interpolation": 2, "co": {"X": 1, "Y": -1}}]}, "title": "opening2.png", "has_video": {"Points": [{"interpolation": 2, "co": {"X": 1, "Y": -1}}]}, "perspective_c4_y": {"Points": [{"interpolation": 2, "co": {"X": 1, "Y": -1}}]}, "perspective_c2_y": {"Points": [{"interpolation": 2, "co": {"X": 1, "Y": -1}}]}, "reader": {"type": "QtImageReader", "interlaced_frame": false, "video_timebase": {"num": 1, "den": 30}, "audio_stream_index": -1, "video_length": "2592000", "channels": 0, "audio_bit_rate": 0, "sample_rate": 0, "video_bit_rate": 0, "channel_layout": 4, "path": "/home/avishai/Documents/workspace/adaptive_hand_model/matlab/video/slides/opening2.png", "metadata": {}, "vcodec": "", "has_video": true, "has_audio": false, "pixel_format": -1, "height": 720, "acodec": "", "video_stream_index": -1, "display_ratio": {"num": 4, "den": 3}, "file_size": "2764800", "fps": {"num": 30, "den": 1}, "width": 960, "top_field_first": true, "audio_timebase": {"num": 1, "den": 1}, "pixel_ratio": {"num": 1, "den": 1}, "duration": 86400.0, "has_single_image": true}, "perspective_c3_x": {"Points": [{"interpolation": 2, "co": {"X": 1, "Y": -1}}]}, "id": "T71MOBYYIW", "anchor": 0, "location_x": {"Points": [{"interpolation": 2, "co": {"X": 1, "Y": 0}}]}, "mixing": 0, "perspective_c1_y": {"Points": [{"interpolation": 2, "co": {"X": 1, "Y": -1}}]}, "file_id": "722P7PCEWK", "shear_y": {"Points": [{"interpolation": 2, "co": {"X": 1, "Y": 0}}]}, "location_y": {"Points": [{"interpolation": 2, "co": {"X": 1, "Y": 0}}]}, "scale_y": {"Points": [{"interpolation": 2, "co": {"X": 1, "Y": 1}}]}, "start": 0, "perspective_c4_x": {"Points": [{"interpolation": 2, "co": {"X": 1, "Y": -1}}]}}, {"time": {"Points": [{"interpolation": 2, "co": {"X": 1, "Y": 1}}]}, "display": 0, "perspective_c2_x": {"Points": [{"interpolation": 2, "co": {"X": 1, "Y": -1}}]}, "duration": 86400.0, "end": 10, "scale_x": {"Points": [{"interpolation": 2, "co": {"X": 1, "Y": 1}}]}, "effects": [], "has_audio": {"Points": [{"interpolation": 2, "co": {"X": 1, "Y": -1}}]}, "scale": 1, "perspective_c3_y": {"Points": [{"interpolation": 2, "co": {"X": 1, "Y": -1}}]}, "alpha": {"Points": [{"interpolation": 2, "co": {"X": 1, "Y": 1}}]}, "start": 0, "wave_color": {"blue": {"Points": [{"interpolation": 0, "handle_type": 0, "co": {"X": 1, "Y": 255}, "handle_left": {"X": 0.5, "Y": 1}, "handle_right": {"X": 0.5, "Y": 0}}]}, "green": {"Points": [{"interpolation": 0, "handle_type": 0, "co": {"X": 1, "Y": 123}, "handle_left": {"X": 0.5, "Y": 1}, "handle_right": {"X": 0.5, "Y": 0}}]}, "red": {"Points": [{"interpolation": 0, "handle_type": 0, "co": {"X": 1, "Y": 0}, "handle_left": {"X": 0.5, "Y": 1}, "handle_right": {"X": 0.5, "Y": 0}}]}, "alpha": {"Points": [{"interpolation": 0, "handle_type": 0, "co": {"X": 1, "Y": 255}, "handle_left": {"X": 0.5, "Y": 1}, "handle_right": {"X": 0.5, "Y": 0}}]}}, "crop_x": {"Points": [{"interpolation": 2, "co": {"X": 1, "Y": 0}}]}, "image": "/home/avishai/.openshot_qt/thumbnail/FG71JWWOKG.png", "layer": 0, "perspective_c1_x": {"Points": [{"interpolation": 2, "co": {"X": 1, "Y": -1}}]}, "position": 0, "rotation": {"Points": [{"interpolation": 2, "co": {"X": 1, "Y": 0}}]}, "mixing": 0, "waveform": false, "crop_width": {"Points": [{"interpolation": 2, "co": {"X": 1, "Y": -1}}]}, "crop_height": {"Points": [{"interpolation": 2, "co": {"X": 1, "Y": -1}}]}, "crop_y": {"Points": [{"interpolation": 2, "co": {"X": 1, "Y": 0}}]}, "volume": {"Points": [{"interpolation": 2, "co": {"X": 1, "Y": 1}}]}, "channel_mapping": {"Points": [{"interpolation": 2, "co": {"X": 1, "Y": -1}}]}, "title": "opening.png", "has_video": {"Points": [{"interpolation": 2, "co": {"X": 1, "Y": -1}}]}, "perspective_c4_y": {"Points": [{"interpolation": 2, "co": {"X": 1, "Y": -1}}]}, "perspective_c2_y": {"Points": [{"interpolation": 2, "co": {"X": 1, "Y": -1}}]}, "reader": {"type": "QtImageReader", "height": 720, "video_timebase": {"num": 1, "den": 30}, "audio_stream_index": -1, "video_length": "2592000", "interlaced_frame": false, "duration": 86400.0, "channels": 0, "sample_rate": 0, "video_bit_rate": 0, "channel_layout": 4, "path": "/home/avishai/Documents/workspace/adaptive_hand_model/matlab/video/slides/opening.png", "metadata": {}, "audio_bit_rate": 0, "has_video": true, "has_audio": false, "pixel_format": -1, "acodec": "", "video_stream_index": -1, "display_ratio": {"num": 4, "den": 3}, "file_size": "2764800", "fps": {"num": 30, "den": 1}, "width": 960, "top_field_first": true, "audio_timebase": {"num": 1, "den": 1}, "pixel_ratio": {"num": 1, "den": 1}, "vcodec": "", "has_single_image": true}, "perspective_c3_x": {"Points": [{"interpolation": 2, "co": {"X": 1, "Y": -1}}]}, "gravity": 4, "id": "VUZXRGBOF5", "anchor": 0, "location_x": {"Points": [{"interpolation": 2, "co": {"X": 1, "Y": 0}}]}, "perspective_c1_y": {"Points": [{"interpolation": 2, "co": {"X": 1, "Y": -1}}]}, "file_id": "FG71JWWOKG", "shear_y": {"Points": [{"interpolation": 2, "co": {"X": 1, "Y": 0}}]}, "location_y": {"Points": [{"interpolation": 2, "co": {"X": 1, "Y": 0}}]}, "scale_y": {"Points": [{"interpolation": 2, "co": {"X": 1, "Y": 1}}]}, "perspective_c4_x": {"Points": [{"interpolation": 2, "co": {"X": 1, "Y": -1}}]}, "shear_x": {"Points": [{"interpolation": 2, "co": {"X": 1, "Y": 0}}]}, "channel_filter": {"Points": [{"interpolation": 2, "co": {"X": 1, "Y": -1}}]}}, {"time": {"Points": [{"interpolation": 2, "co": {"X": 1, "Y": 1}}]}, "display": 0, "perspective_c2_x": {"Points": [{"interpolation": 2, "co": {"X": 1, "Y": -1}}]}, "duration": 86400.0, "end": 10, "scale_x": {"Points": [{"interpolation": 2, "co": {"X": 1, "Y": 1}}]}, "effects": [], "has_audio": {"Points": [{"interpolation": 2, "co": {"X": 1, "Y": -1}}]}, "scale": 1, "perspective_c3_y": {"Points": [{"interpolation": 2, "co": {"X": 1, "Y": -1}}]}, "alpha": {"Points": [{"interpolation": 2, "co": {"X": 1, "Y": 1}}]}, "start": 0, "wave_color": {"blue": {"Points": [{"interpolation": 0, "handle_type": 0, "co": {"X": 1, "Y": 255}, "handle_left": {"X": 0.5, "Y": 1}, "handle_right": {"X": 0.5, "Y": 0}}]}, "green": {"Points": [{"interpolation": 0, "handle_type": 0, "co": {"X": 1, "Y": 123}, "handle_left": {"X": 0.5, "Y": 1}, "handle_right": {"X": 0.5, "Y": 0}}]}, "red": {"Points": [{"interpolation": 0, "handle_type": 0, "co": {"X": 1, "Y": 0}, "handle_left": {"X": 0.5, "Y": 1}, "handle_right": {"X": 0.5, "Y": 0}}]}, "alpha": {"Points": [{"interpolation": 0, "handle_type": 0, "co": {"X": 1, "Y": 255}, "handle_left": {"X": 0.5, "Y": 1}, "handle_right": {"X": 0.5, "Y": 0}}]}}, "crop_x": {"Points": [{"interpolation": 2, "co": {"X": 1, "Y": 0}}]}, "image": "/home/avishai/.openshot_qt/thumbnail/YIV9WP4V5Q.png", "layer": 0, "perspective_c1_x": {"Points": [{"interpolation": 2, "co": {"X": 1, "Y": -1}}]}, "position": 21.026666793823242, "rotation": {"Points": [{"interpolation": 2, "co": {"X": 1, "Y": 0}}]}, "mixing": 0, "waveform": false, "crop_width": {"Points": [{"interpolation": 2, "co": {"X": 1, "Y": -1}}]}, "crop_height": {"Points": [{"interpolation": 2, "co": {"X": 1, "Y": -1}}]}, "crop_y": {"Points": [{"interpolation": 2, "co": {"X": 1, "Y": 0}}]}, "volume": {"Points": [{"interpolation": 2, "co": {"X": 1, "Y": 1}}]}, "channel_mapping": {"Points": [{"interpolation": 2, "co": {"X": 1, "Y": -1}}]}, "title": "opening1.png", "has_video": {"Points": [{"interpolation": 2, "co": {"X": 1, "Y": -1}}]}, "perspective_c4_y": {"Points": [{"interpolation": 2, "co": {"X": 1, "Y": -1}}]}, "perspective_c2_y": {"Points": [{"interpolation": 2, "co": {"X": 1, "Y": -1}}]}, "reader": {"type": "QtImageReader", "height": 720, "video_timebase": {"num": 1, "den": 30}, "audio_stream_index": -1, "video_length": "2592000", "interlaced_frame": false, "duration": 86400.0, "channels": 0, "sample_rate": 0, "video_bit_rate": 0, "channel_layout": 4, "path": "/home/avishai/Documents/workspace/adaptive_hand_model/matlab/video/slides/opening1.png", "metadata": {}, "audio_bit_rate": 0, "has_video": true, "has_audio": false, "pixel_format": -1, "acodec": "", "video_stream_index": -1, "display_ratio": {"num": 4, "den": 3}, "file_size": "2764800", "fps": {"num": 30, "den": 1}, "width": 960, "top_field_first": true, "audio_timebase": {"num": 1, "den": 1}, "pixel_ratio": {"num": 1, "den": 1}, "vcodec": "", "has_single_image": true}, "perspective_c3_x": {"Points": [{"interpolation": 2, "co": {"X": 1, "Y": -1}}]}, "gravity": 4, "id": "3A3QKZGMJB", "anchor": 0, "location_x": {"Points": [{"interpolation": 2, "co": {"X": 1, "Y": 0}}]}, "perspective_c1_y": {"Points": [{"interpolation": 2, "co": {"X": 1, "Y": -1}}]}, "file_id": "YIV9WP4V5Q", "shear_y": {"Points": [{"interpolation": 2, "co": {"X": 1, "Y": 0}}]}, "location_y": {"Points": [{"interpolation": 2, "co": {"X": 1, "Y": 0}}]}, "scale_y": {"Points": [{"interpolation": 2, "co": {"X": 1, "Y": 1}}]}, "perspective_c4_x": {"Points": [{"interpolation": 2, "co": {"X": 1, "Y": -1}}]}, "shear_x": {"Points": [{"interpolation": 2, "co": {"X": 1, "Y": 0}}]}, "channel_filter": {"Points": [{"interpolation": 2, "co": {"X": 1, "Y": -1}}]}}, {"time": {"Points": [{"interpolation": 2, "co": {"X": 1, "Y": 1}}]}, "display": 0, "perspective_c2_x": {"Points": [{"interpolation": 2, "co": {"X": 1, "Y": -1}}]}, "duration": 86400.0, "end": 10, "scale_x": {"Points": [{"interpolation": 2, "co": {"X": 1, "Y": 1}}]}, "effects": [], "has_audio": {"Points": [{"interpolation": 2, "co": {"X": 1, "Y": -1}}]}, "scale": 1, "perspective_c3_y": {"Points": [{"interpolation": 2, "co": {"X": 1, "Y": -1}}]}, "alpha": {"Points": [{"interpolation": 2, "co": {"X": 1, "Y": 1}}]}, "start": 0, "wave_color": {"blue": {"Points": [{"interpolation": 0, "handle_type": 0, "co": {"X": 1, "Y": 255}, "handle_left": {"X": 0.5, "Y": 1}, "handle_right": {"X": 0.5, "Y": 0}}]}, "green": {"Points": [{"interpolation": 0, "handle_type": 0, "co": {"X": 1, "Y": 123}, "handle_left": {"X": 0.5, "Y": 1}, "handle_right": {"X": 0.5, "Y": 0}}]}, "red": {"Points": [{"interpolation": 0, "handle_type": 0, "co": {"X": 1, "Y": 0}, "handle_left": {"X": 0.5, "Y": 1}, "handle_right": {"X": 0.5, "Y": 0}}]}, "alpha": {"Points": [{"interpolation": 0, "handle_type": 0, "co": {"X": 1, "Y": 255}, "handle_left": {"X": 0.5, "Y": 1}, "handle_right": {"X": 0.5, "Y": 0}}]}}, "crop_x": {"Points": [{"interpolation": 2, "co": {"X": 1, "Y": 0}}]}, "image": "/home/avishai/.openshot_qt/thumbnail/LMEK33J1LA.png", "layer": 0, "perspective_c1_x": {"Points": [{"interpolation": 2, "co": {"X": 1, "Y": -1}}]}, "position": 40.94666679382324, "rotation": {"Points": [{"interpolation": 2, "co": {"X": 1, "Y": 0}}]}, "mixing": 0, "waveform": false, "crop_width": {"Points": [{"interpolation": 2, "co": {"X": 1, "Y": -1}}]}, "crop_height": {"Points": [{"interpolation": 2, "co": {"X": 1, "Y": -1}}]}, "crop_y": {"Points": [{"interpolation": 2, "co": {"X": 1, "Y": 0}}]}, "volume": {"Points": [{"interpolation": 2, "co": {"X": 1, "Y": 1}}]}, "channel_mapping": {"Points": [{"interpolation": 2, "co": {"X": 1, "Y": -1}}]}, "title": "opening3.png", "has_video": {"Points": [{"interpolation": 2, "co": {"X": 1, "Y": -1}}]}, "perspective_c4_y": {"Points": [{"interpolation": 2, "co": {"X": 1, "Y": -1}}]}, "perspective_c2_y": {"Points": [{"interpolation": 2, "co": {"X": 1, "Y": -1}}]}, "reader": {"type": "QtImageReader", "height": 720, "video_timebase": {"num": 1, "den": 30}, "audio_stream_index": -1, "video_length": "2592000", "interlaced_frame": false, "duration": 86400.0, "channels": 0, "sample_rate": 0, "video_bit_rate": 0, "channel_layout": 4, "path": "/home/avishai/Documents/workspace/adaptive_hand_model/matlab/video/slides/opening3.png", "metadata": {}, "audio_bit_rate": 0, "has_video": true, "has_audio": false, "pixel_format": -1, "acodec": "", "video_stream_index": -1, "display_ratio": {"num": 4, "den": 3}, "file_size": "2764800", "fps": {"num": 30, "den": 1}, "width": 960, "top_field_first": true, "audio_timebase": {"num": 1, "den": 1}, "pixel_ratio": {"num": 1, "den": 1}, "vcodec": "", "has_single_image": true}, "perspective_c3_x": {"Points": [{"interpolation": 2, "co": {"X": 1, "Y": -1}}]}, "gravity": 4, "id": "X5HE8XP5XU", "anchor": 0, "location_x": {"Points": [{"interpolation": 2, "co": {"X": 1, "Y": 0}}]}, "perspective_c1_y": {"Points": [{"interpolation": 2, "co": {"X": 1, "Y": -1}}]}, "file_id": "LMEK33J1LA", "shear_y": {"Points": [{"interpolation": 2, "co": {"X": 1, "Y": 0}}]}, "location_y": {"Points": [{"interpolation": 2, "co": {"X": 1, "Y": 0}}]}, "scale_y": {"Points": [{"interpolation": 2, "co": {"X": 1, "Y": 1}}]}, "perspective_c4_x": {"Points": [{"interpolation": 2, "co": {"X": 1, "Y": -1}}]}, "shear_x": {"Points": [{"interpolation": 2, "co": {"X": 1, "Y": 0}}]}, "channel_filter": {"Points": [{"interpolation": 2, "co": {"X": 1, "Y": -1}}]}}, {"time": {"Points": [{"interpolation": 2, "co": {"X": 1, "Y": 1}}]}, "display": 0, "perspective_c2_x": {"Points": [{"interpolation": 2, "co": {"X": 1, "Y": -1}}]}, "duration": 86400.0, "end": 10, "scale_x": {"Points": [{"interpolation": 2, "co": {"X": 1, "Y": 1}}]}, "effects": [], "has_audio": {"Points": [{"interpolation": 2, "co": {"X": 1, "Y": -1}}]}, "scale": 1, "perspective_c3_y": {"Points": [{"interpolation": 2, "co": {"X": 1, "Y": -1}}]}, "alpha": {"Points": [{"interpolation": 2, "co": {"X": 1, "Y": 1}}]}, "start": 0, "wave_color": {"blue": {"Points": [{"interpolation": 0, "handle_type": 0, "co": {"X": 1, "Y": 255}, "handle_left": {"X": 0.5, "Y": 1}, "handle_right": {"X": 0.5, "Y": 0}}]}, "green": {"Points": [{"interpolation": 0, "handle_type": 0, "co": {"X": 1, "Y": 123}, "handle_left": {"X": 0.5, "Y": 1}, "handle_right": {"X": 0.5, "Y": 0}}]}, "red": {"Points": [{"interpolation": 0, "handle_type": 0, "co": {"X": 1, "Y": 0}, "handle_left": {"X": 0.5, "Y": 1}, "handle_right": {"X": 0.5, "Y": 0}}]}, "alpha": {"Points": [{"interpolation": 0, "handle_type": 0, "co": {"X": 1, "Y": 255}, "handle_left": {"X": 0.5, "Y": 1}, "handle_right": {"X": 0.5, "Y": 0}}]}}, "crop_x": {"Points": [{"interpolation": 2, "co": {"X": 1, "Y": 0}}]}, "image": "/home/avishai/.openshot_qt/thumbnail/RHRWX2BT8P.png", "layer": 0, "perspective_c1_x": {"Points": [{"interpolation": 2, "co": {"X": 1, "Y": -1}}]}, "position": 50.94666679382324, "rotation": {"Points": [{"interpolation": 2, "co": {"X": 1, "Y": 0}}]}, "mixing": 0, "waveform": false, "crop_width": {"Points": [{"interpolation": 2, "co": {"X": 1, "Y": -1}}]}, "crop_height": {"Points": [{"interpolation": 2, "co": {"X": 1, "Y": -1}}]}, "crop_y": {"Points": [{"interpolation": 2, "co": {"X": 1, "Y": 0}}]}, "volume": {"Points": [{"interpolation": 2, "co": {"X": 1, "Y": 1}}]}, "channel_mapping": {"Points": [{"interpolation": 2, "co": {"X": 1, "Y": -1}}]}, "title": "opening4.png", "has_video": {"Points": [{"interpolation": 2, "co": {"X": 1, "Y": -1}}]}, "perspective_c4_y": {"Points": [{"interpolation": 2, "co": {"X": 1, "Y": -1}}]}, "perspective_c2_y": {"Points": [{"interpolation": 2, "co": {"X": 1, "Y": -1}}]}, "reader": {"type": "QtImageReader", "height": 720, "video_timebase": {"num": 1, "den": 30}, "audio_stream_index": -1, "video_length": "2592000", "interlaced_frame": false, "duration": 86400.0, "channels": 0, "sample_rate": 0, "video_bit_rate": 0, "channel_layout": 4, "path": "/home/avishai/Documents/workspace/adaptive_hand_model/matlab/video/slides/opening4.png", "metadata": {}, "audio_bit_rate": 0, "has_video": true, "has_audio": false, "pixel_format": -1, "acodec": "", "video_stream_index": -1, "display_ratio": {"num": 4, "den": 3}, "file_size": "2764800", "fps": {"num": 30, "den": 1}, "width": 960, "top_field_first": true, "audio_timebase": {"num": 1, "den": 1}, "pixel_ratio": {"num": 1, "den": 1}, "vcodec": "", "has_single_image": true}, "perspective_c3_x": {"Points": [{"interpolation": 2, "co": {"X": 1, "Y": -1}}]}, "gravity": 4, "id": "LYT59N8TPM", "anchor": 0, "location_x": {"Points": [{"interpolation": 2, "co": {"X": 1, "Y": 0}}]}, "perspective_c1_y": {"Points": [{"interpolation": 2, "co": {"X": 1, "Y": -1}}]}, "file_id": "RHRWX2BT8P", "shear_y": {"Points": [{"interpolation": 2, "co": {"X": 1, "Y": 0}}]}, "location_y": {"Points": [{"interpolation": 2, "co": {"X": 1, "Y": 0}}]}, "scale_y": {"Points": [{"interpolation": 2, "co": {"X": 1, "Y": 1}}]}, "perspective_c4_x": {"Points": [{"interpolation": 2, "co": {"X": 1, "Y": -1}}]}, "shear_x": {"Points": [{"interpolation": 2, "co": {"X": 1, "Y": 0}}]}, "channel_filter": {"Points": [{"interpolation": 2, "co": {"X": 1, "Y": -1}}]}}, {"time": {"Points": [{"interpolation": 2, "co": {"X": 1, "Y": 1}}]}, "display": 0, "perspective_c2_x": {"Points": [{"interpolation": 2, "co": {"X": 1, "Y": -1}}]}, "duration": 86400.0, "end": 10, "scale_x": {"Points": [{"interpolation": 2, "co": {"X": 1, "Y": 1}}]}, "effects": [], "has_audio": {"Points": [{"interpolation": 2, "co": {"X": 1, "Y": -1}}]}, "scale": 1, "perspective_c3_y": {"Points": [{"interpolation": 2, "co": {"X": 1, "Y": -1}}]}, "alpha": {"Points": [{"interpolation": 2, "co": {"X": 1, "Y": 1}}, {"interpolation": 0, "handle_type": 0, "co": {"X": 169, "Y": 1}, "handle_left": {"X": 0.5, "Y": 1}, "handle_right": {"X": 0.5, "Y": 0}}, {"interpolation": 0, "handle_type": 0, "co": {"X": 241, "Y": 0}, "handle_left": {"X": 0.5, "Y": 1}, "handle_right": {"X": 0.5, "Y": 0}}, {"interpolation": 0, "handle_type": 0, "handle_left": {"X": 0.5, "Y": 1}, "handle_right": {"X": 0.5, "Y": 0}, "co": {"X": 217, "Y": 1}}, {"interpolation": 0, "handle_type": 0, "handle_left": {"X": 0.5, "Y": 1}, "handle_right": {"X": 0.5, "Y": 0}, "co": {"X": 241, "Y": 0}}]}, "start": 0, "wave_color": {"blue": {"Points": [{"interpolation": 0, "handle_type": 0, "co": {"X": 1, "Y": 255}, "handle_right": {"X": 0.5, "Y": 0}, "handle_left": {"X": 0.5, "Y": 1}}]}, "green": {"Points": [{"interpolation": 0, "handle_type": 0, "co": {"X": 1, "Y": 123}, "handle_right": {"X": 0.5, "Y": 0}, "handle_left": {"X": 0.5, "Y": 1}}]}, "red": {"Points": [{"interpolation": 0, "handle_type": 0, "co": {"X": 1, "Y": 0}, "handle_right": {"X": 0.5, "Y": 0}, "handle_left": {"X": 0.5, "Y": 1}}]}, "alpha": {"Points": [{"interpolation": 0, "handle_type": 0, "co": {"X": 1, "Y": 255}, "handle_right": {"X": 0.5, "Y": 0}, "handle_left": {"X": 0.5, "Y": 1}}]}}, "crop_x": {"Points": [{"interpolation": 2, "co": {"X": 1, "Y": 0}}]}, "image": "/home/avishai/.openshot_qt/thumbnail/0S38URN00T.png", "layer": 0, "perspective_c1_x": {"Points": [{"interpolation": 2, "co": {"X": 1, "Y": -1}}]}, "position": 60.95833333333334, "rotation": {"Points": [{"interpolation": 2, "co": {"X": 1, "Y": 0}}]}, "mixing": 0, "waveform": false, "crop_width": {"Points": [{"interpolation": 2, "co": {"X": 1, "Y": -1}}]}, "crop_height": {"Points": [{"interpolation": 2, "co": {"X": 1, "Y": -1}}]}, "crop_y": {"Points": [{"interpolation": 2, "co": {"X": 1, "Y": 0}}]}, "volume": {"Points": [{"interpolation": 2, "co": {"X": 1, "Y": 1}}]}, "channel_mapping": {"Points": [{"interpolation": 2, "co": {"X": 1, "Y": -1}}]}, "title": "opening5.png", "has_video": {"Points": [{"interpolation": 2, "co": {"X": 1, "Y": -1}}]}, "perspective_c4_y": {"Points": [{"interpolation": 2, "co": {"X": 1, "Y": -1}}]}, "perspective_c2_y": {"Points": [{"interpolation": 2, "co": {"X": 1, "Y": -1}}]}, "reader": {"type": "QtImageReader", "height": 720, "video_timebase": {"num": 1, "den": 30}, "audio_stream_index": -1, "video_length": "2592000", "interlaced_frame": false, "duration": 86400.0, "channels": 0, "sample_rate": 0, "video_bit_rate": 0, "channel_layout": 4, "path": "/home/avishai/Documents/workspace/adaptive_hand_model/matlab/video/slides/opening5.png", "metadata": {}, "audio_bit_rate": 0, "has_video": true, "has_audio": false, "pixel_format": -1, "acodec": "", "video_stream_index": -1, "display_ratio": {"num": 4, "den": 3}, "file_size": "2764800", "fps": {"num": 30, "den": 1}, "width": 960, "top_field_first": true, "audio_timebase": {"num": 1, "den": 1}, "pixel_ratio": {"num": 1, "den": 1}, "vcodec": "", "has_single_image": true}, "perspective_c3_x": {"Points": [{"interpolation": 2, "co": {"X": 1, "Y": -1}}]}, "gravity": 4, "id": "J4SOLGGXHP", "anchor": 0, "location_x": {"Points": [{"interpolation": 2, "co": {"X": 1, "Y": 0}}]}, "perspective_c1_y": {"Points": [{"interpolation": 2, "co": {"X": 1, "Y": -1}}]}, "file_id": "0S38URN00T", "shear_y": {"Points": [{"interpolation": 2, "co": {"X": 1, "Y": 0}}]}, "location_y": {"Points": [{"interpolation": 2, "co": {"X": 1, "Y": 0}}]}, "scale_y": {"Points": [{"interpolation": 2, "co": {"X": 1, "Y": 1}}]}, "perspective_c4_x": {"Points": [{"interpolation": 2, "co": {"X": 1, "Y": -1}}]}, "shear_x": {"Points": [{"interpolation": 2, "co": {"X": 1, "Y": 0}}]}, "channel_filter": {"Points": [{"interpolation": 2, "co": {"X": 1, "Y": -1}}]}}, {"time": {"Points": [{"interpolation": 2, "co": {"X": 1, "Y": 1}}]}, "display": 0, "perspective_c2_x": {"Points": [{"interpolation": 2, "co": {"X": 1, "Y": -1}}]}, "duration": 86400.0, "end": 10, "scale_x": {"Points": [{"interpolation": 2, "co": {"X": 1, "Y": 1}}]}, "effects": [], "has_audio": {"Points": [{"interpolation": 2, "co": {"X": 1, "Y": -1}}]}, "scale": 1, "perspective_c3_y": {"Points": [{"interpolation": 2, "co": {"X": 1, "Y": -1}}]}, "alpha": {"Points": [{"interpolation": 2, "co": {"X": 1, "Y": 1}}, {"interpolation": 0, "handle_type": 0, "co": {"X": 169, "Y": 1}, "handle_left": {"X": 0.5, "Y": 1}, "handle_right": {"X": 0.5, "Y": 0}}, {"interpolation": 0, "handle_type": 0, "co": {"X": 241, "Y": 0}, "handle_left": {"X": 0.5, "Y": 1}, "handle_right": {"X": 0.5, "Y": 0}}, {"interpolation": 0, "handle_type": 0, "handle_left": {"X": 0.5, "Y": 1}, "handle_right": {"X": 0.5, "Y": 0}, "co": {"X": 217, "Y": 1}}, {"interpolation": 0, "handle_type": 0, "handle_left": {"X": 0.5, "Y": 1}, "handle_right": {"X": 0.5, "Y": 0}, "co": {"X": 241, "Y": 0}}]}, "start": 0, "wave_color": {"blue": {"Points": [{"interpolation": 0, "handle_type": 0, "co": {"X": 1, "Y": 255}, "handle_right": {"X": 0.5, "Y": 0}, "handle_left": {"X": 0.5, "Y": 1}}]}, "green": {"Points": [{"interpolation": 0, "handle_type": 0, "co": {"X": 1, "Y": 123}, "handle_right": {"X": 0.5, "Y": 0}, "handle_left": {"X": 0.5, "Y": 1}}]}, "red": {"Points": [{"interpolation": 0, "handle_type": 0, "co": {"X": 1, "Y": 0}, "handle_right": {"X": 0.5, "Y": 0}, "handle_left": {"X": 0.5, "Y": 1}}]}, "alpha": {"Points": [{"interpolation": 0, "handle_type": 0, "co": {"X": 1, "Y": 255}, "handle_right": {"X": 0.5, "Y": 0}, "handle_left": {"X": 0.5, "Y": 1}}]}}, "crop_x": {"Points": [{"interpolation": 2, "co": {"X": 1, "Y": 0}}]}, "image": "/home/avishai/.openshot_qt/thumbnail/YA8O4MECE1.png", "layer": 0, "perspective_c1_x": {"Points": [{"interpolation": 2, "co": {"X": 1, "Y": -1}}]}, "position": 70.95833333333334, "rotation": {"Points": [{"interpolation": 2, "co": {"X": 1, "Y": 0}}]}, "mixing": 0, "waveform": false, "crop_width": {"Points": [{"interpolation": 2, "co": {"X": 1, "Y": -1}}]}, "crop_height": {"Points": [{"interpolation": 2, "co": {"X": 1, "Y": -1}}]}, "crop_y": {"Points": [{"interpolation": 2, "co": {"X": 1, "Y": 0}}]}, "volume": {"Points": [{"interpolation": 2, "co": {"X": 1, "Y": 1}}]}, "channel_mapping": {"Points": [{"interpolation": 2, "co": {"X": 1, "Y": -1}}]}, "title": "opening6.png", "has_video": {"Points": [{"interpolation": 2, "co": {"X": 1, "Y": -1}}]}, "perspective_c4_y": {"Points": [{"interpolation": 2, "co": {"X": 1, "Y": -1}}]}, "perspective_c2_y": {"Points": [{"interpolation": 2, "co": {"X": 1, "Y": -1}}]}, "reader": {"type": "QtImageReader", "height": 720, "video_timebase": {"num": 1, "den": 30}, "audio_stream_index": -1, "video_length": "2592000", "interlaced_frame": false, "duration": 86400.0, "channels": 0, "sample_rate": 0, "video_bit_rate": 0, "channel_layout": 4, "path": "/home/avishai/Documents/workspace/adaptive_hand_model/matlab/video/slides/opening6.png", "metadata": {}, "audio_bit_rate": 0, "has_video": true, "has_audio": false, "pixel_format": -1, "acodec": "", "video_stream_index": -1, "display_ratio": {"num": 4, "den": 3}, "file_size": "2764800", "fps": {"num": 30, "den": 1}, "width": 960, "top_field_first": true, "audio_timebase": {"num": 1, "den": 1}, "pixel_ratio": {"num": 1, "den": 1}, "vcodec": "", "has_single_image": true}, "perspective_c3_x": {"Points": [{"interpolation": 2, "co": {"X": 1, "Y": -1}}]}, "gravity": 4, "id": "LYWGXV5N3L", "anchor": 0, "location_x": {"Points": [{"interpolation": 2, "co": {"X": 1, "Y": 0}}]}, "perspective_c1_y": {"Points": [{"interpolation": 2, "co": {"X": 1, "Y": -1}}]}, "file_id": "YA8O4MECE1", "shear_y": {"Points": [{"interpolation": 2, "co": {"X": 1, "Y": 0}}]}, "location_y": {"Points": [{"interpolation": 2, "co": {"X": 1, "Y": 0}}]}, "scale_y": {"Points": [{"interpolation": 2, "co": {"X": 1, "Y": 1}}]}, "perspective_c4_x": {"Points": [{"interpolation": 2, "co": {"X": 1, "Y": -1}}]}, "shear_x": {"Points": [{"interpolation": 2, "co": {"X": 1, "Y": 0}}]}, "channel_filter": {"Points": [{"interpolation": 2, "co": {"X": 1, "Y": -1}}]}}, {"time": {"Points": [{"interpolation": 2, "co": {"X": 1, "Y": 1}}]}, "display": 0, "perspective_c2_x": {"Points": [{"interpolation": 2, "co": {"X": 1, "Y": -1}}]}, "duration": 86400.0, "end": 5.333333333333333, "scale_x": {"Points": [{"interpolation": 2, "co": {"X": 1, "Y": 1}}]}, "effects": [], "has_audio": {"Points": [{"interpolation": 2, "co": {"X": 1, "Y": -1}}]}, "scale": 1, "perspective_c3_y": {"Points": [{"interpolation": 2, "co": {"X": 1, "Y": -1}}]}, "alpha": {"Points": [{"interpolation": 2, "co": {"X": 1, "Y": 1}}]}, "start": 0, "wave_color": {"blue": {"Points": [{"interpolation": 0, "handle_type": 0, "co": {"X": 1, "Y": 255}, "handle_left": {"X": 0.5, "Y": 1}, "handle_right": {"X": 0.5, "Y": 0}}]}, "green": {"Points": [{"interpolation": 0, "handle_type": 0, "co": {"X": 1, "Y": 123}, "handle_left": {"X": 0.5, "Y": 1}, "handle_right": {"X": 0.5, "Y": 0}}]}, "red": {"Points": [{"interpolation": 0, "handle_type": 0, "co": {"X": 1, "Y": 0}, "handle_left": {"X": 0.5, "Y": 1}, "handle_right": {"X": 0.5, "Y": 0}}]}, "alpha": {"Points": [{"interpolation": 0, "handle_type": 0, "co": {"X": 1, "Y": 255}, "handle_left": {"X": 0.5, "Y": 1}, "handle_right": {"X": 0.5, "Y": 0}}]}}, "crop_x": {"Points": [{"interpolation": 2, "co": {"X": 1, "Y": 0}}]}, "image": "/home/avishai/.openshot_qt/thumbnail/ULNSBVNSH3.png", "layer": 0, "perspective_c1_x": {"Points": [{"interpolation": 2, "co": {"X": 1, "Y": -1}}]}, "position": 80.95833333333334, "rotation": {"Points": [{"interpolation": 2, "co": {"X": 1, "Y": 0}}]}, "mixing": 0, "waveform": false, "crop_width": {"Points": [{"interpolation": 2, "co": {"X": 1, "Y": -1}}]}, "crop_height": {"Points": [{"interpolation": 2, "co": {"X": 1, "Y": -1}}]}, "crop_y": {"Points": [{"interpolation": 2, "co": {"X": 1, "Y": 0}}]}, "volume": {"Points": [{"interpolation": 2, "co": {"X": 1, "Y": 1}}]}, "channel_mapping": {"Points": [{"interpolation": 2, "co": {"X": 1, "Y": -1}}]}, "title": "opening7.png", "has_video": {"Points": [{"interpolation": 2, "co": {"X": 1, "Y": -1}}]}, "perspective_c4_y": {"Points": [{"interpolation": 2, "co": {"X": 1, "Y": -1}}]}, "perspective_c2_y": {"Points": [{"interpolation": 2, "co": {"X": 1, "Y": -1}}]}, "reader": {"type": "QtImageReader", "height": 720, "video_timebase": {"num": 1, "den": 30}, "audio_stream_index": -1, "video_length": "2592000", "interlaced_frame": false, "duration": 86400.0, "channels": 0, "sample_rate": 0, "video_bit_rate": 0, "channel_layout": 4, "path": "/home/avishai/Documents/workspace/adaptive_hand_model/matlab/video/slides/opening7.png", "metadata": {}, "audio_bit_rate": 0, "has_video": true, "has_audio": false, "pixel_format": -1, "acodec": "", "video_stream_index": -1, "display_ratio": {"num": 4, "den": 3}, "file_size": "2764800", "fps": {"num": 30, "den": 1}, "width": 960, "top_field_first": true, "audio_timebase": {"num": 1, "den": 1}, "pixel_ratio": {"num": 1, "den": 1}, "vcodec": "", "has_single_image": true}, "perspective_c3_x": {"Points": [{"interpolation": 2, "co": {"X": 1, "Y": -1}}]}, "gravity": 4, "id": "XC8281YBWR", "anchor": 0, "location_x": {"Points": [{"interpolation": 2, "co": {"X": 1, "Y": 0}}]}, "perspective_c1_y": {"Points": [{"interpolation": 2, "co": {"X": 1, "Y": -1}}]}, "file_id": "ULNSBVNSH3", "shear_y": {"Points": [{"interpolation": 2, "co": {"X": 1, "Y": 0}}]}, "location_y": {"Points": [{"interpolation": 2, "co": {"X": 1, "Y": 0}}]}, "scale_y": {"Points": [{"interpolation": 2, "co": {"X": 1, "Y": 1}}]}, "perspective_c4_x": {"Points": [{"interpolation": 2, "co": {"X": 1, "Y": -1}}]}, "shear_x": {"Points": [{"interpolation": 2, "co": {"X": 1, "Y": 0}}]}, "channel_filter": {"Points": [{"interpolation": 2, "co": {"X": 1, "Y": -1}}]}}, {"time": {"Points": [{"interpolation": 2, "co": {"X": 1, "Y": 1}}]}, "display": 0, "perspective_c2_x": {"Points": [{"interpolation": 2, "co": {"X": 1, "Y": -1}}]}, "duration": 6.949999809265137, "end": 6.949999809265137, "scale_x": {"Points": [{"interpolation": 2, "co": {"X": 1, "Y": 1}}]}, "effects": [], "has_audio": {"Points": [{"interpolation": 2, "co": {"X": 1, "Y": -1}}]}, "scale": 1, "perspective_c3_y": {"Points": [{"interpolation": 2, "co": {"X": 1, "Y": -1}}]}, "alpha": {"Points": [{"interpolation": 2, "co": {"X": 1, "Y": 1}}]}, "start": 0, "wave_color": {"blue": {"Points": [{"interpolation": 0, "handle_type": 0, "co": {"X": 1, "Y": 255}, "handle_left": {"X": 0.5, "Y": 1}, "handle_right": {"X": 0.5, "Y": 0}}]}, "green": {"Points": [{"interpolation": 0, "handle_type": 0, "co": {"X": 1, "Y": 123}, "handle_left": {"X": 0.5, "Y": 1}, "handle_right": {"X": 0.5, "Y": 0}}]}, "red": {"Points": [{"interpolation": 0, "handle_type": 0, "co": {"X": 1, "Y": 0}, "handle_left": {"X": 0.5, "Y": 1}, "handle_right": {"X": 0.5, "Y": 0}}]}, "alpha": {"Points": [{"interpolation": 0, "handle_type": 0, "co": {"X": 1, "Y": 255}, "handle_left": {"X": 0.5, "Y": 1}, "handle_right": {"X": 0.5, "Y": 0}}]}}, "crop_x": {"Points": [{"interpolation": 2, "co": {"X": 1, "Y": 0}}]}, "image": "/home/avishai/.openshot_qt/thumbnail/FC16UD9ZFT.png", "layer": 0, "perspective_c1_x": {"Points": [{"interpolation": 2, "co": {"X": 1, "Y": -1}}]}, "position": 86.29166666666669, "rotation": {"Points": [{"interpolation": 2, "co": {"X": 1, "Y": 0}}]}, "mixing": 0, "waveform": false, "crop_width": {"Points": [{"interpolation": 2, "co": {"X": 1, "Y": -1}}]}, "crop_height": {"Points": [{"interpolation": 2, "co": {"X": 1, "Y": -1}}]}, "crop_y": {"Points": [{"interpolation": 2, "co": {"X": 1, "Y": 0}}]}, "volume": {"Points": [{"interpolation": 2, "co": {"X": 1, "Y": 1}}]}, "channel_mapping": {"Points": [{"interpolation": 2, "co": {"X": 1, "Y": -1}}]}, "title": "trajs.avi", "has_video": {"Points": [{"interpolation": 2, "co": {"X": 1, "Y": -1}}]}, "perspective_c4_y": {"Points": [{"interpolation": 2, "co": {"X": 1, "Y": -1}}]}, "perspective_c2_y": {"Points": [{"interpolation": 2, "co": {"X": 1, "Y": -1}}]}, "reader": {"type": "FFmpegReader", "height": 1503, "video_timebase": {"num": 1, "den": 60}, "audio_stream_index": -1, "video_length": "417", "interlaced_frame": false, "duration": 6.949999809265137, "channels": 0, "sample_rate": 0, "video_bit_rate": 70132622, "channel_layout": 4, "path": "/home/avishai/Documents/workspace/adaptive_hand_model/matlab/video/trajs.avi", "metadata": {}, "audio_bit_rate": 0, "has_video": true, "has_audio": false, "pixel_format": 12, "acodec": "", "video_stream_index": 0, "display_ratio": {"num": 1502, "den": 1503}, "file_size": "60927716", "fps": {"num": 60, "den": 1}, "width": 1502, "top_field_first": true, "audio_timebase": {"num": 1, "den": 1}, "pixel_ratio": {"num": 1, "den": 1}, "vcodec": "mjpeg", "has_single_image": false}, "perspective_c3_x": {"Points": [{"interpolation": 2, "co": {"X": 1, "Y": -1}}]}, "gravity": 4, "id": "UL3TS2PDR4", "anchor": 0, "location_x": {"Points": [{"interpolation": 2, "co": {"X": 1, "Y": 0}}]}, "perspective_c1_y": {"Points": [{"interpolation": 2, "co": {"X": 1, "Y": -1}}]}, "file_id": "FC16UD9ZFT", "shear_y": {"Points": [{"interpolation": 2, "co": {"X": 1, "Y": 0}}]}, "location_y": {"Points": [{"interpolation": 2, "co": {"X": 1, "Y": 0}}]}, "scale_y": {"Points": [{"interpolation": 2, "co": {"X": 1, "Y": 1}}]}, "perspective_c4_x": {"Points": [{"interpolation": 2, "co": {"X": 1, "Y": -1}}]}, "shear_x": {"Points": [{"interpolation": 2, "co": {"X": 1, "Y": 0}}]}, "channel_filter": {"Points": [{"interpolation": 2, "co": {"X": 1, "Y": -1}}]}}, {"time": {"Points": [{"interpolation": 2, "co": {"X": 1, "Y": 1}}]}, "display": 0, "perspective_c2_x": {"Points": [{"interpolation": 2, "co": {"X": 1, "Y": -1}}]}, "duration": 86400.0, "end": 4, "scale_x": {"Points": [{"interpolation": 2, "co": {"X": 1, "Y": 1}}]}, "effects": [], "has_audio": {"Points": [{"interpolation": 2, "co": {"X": 1, "Y": -1}}]}, "scale": 1, "perspective_c3_y": {"Points": [{"interpolation": 2, "co": {"X": 1, "Y": -1}}]}, "alpha": {"Points": [{"interpolation": 2, "co": {"X": 1, "Y": 1}}]}, "start": 0, "wave_color": {"blue": {"Points": [{"interpolation": 0, "handle_type": 0, "co": {"X": 1, "Y": 255}, "handle_left": {"X": 0.5, "Y": 1}, "handle_right": {"X": 0.5, "Y": 0}}]}, "green": {"Points": [{"interpolation": 0, "handle_type": 0, "co": {"X": 1, "Y": 123}, "handle_left": {"X": 0.5, "Y": 1}, "handle_right": {"X": 0.5, "Y": 0}}]}, "red": {"Points": [{"interpolation": 0, "handle_type": 0, "co": {"X": 1, "Y": 0}, "handle_left": {"X": 0.5, "Y": 1}, "handle_right": {"X": 0.5, "Y": 0}}]}, "alpha": {"Points": [{"interpolation": 0, "handle_type": 0, "co": {"X": 1, "Y": 255}, "handle_left": {"X": 0.5, "Y": 1}, "handle_right": {"X": 0.5, "Y": 0}}]}}, "crop_x": {"Points": [{"interpolation": 2, "co": {"X": 1, "Y": 0}}]}, "image": "/home/avishai/.openshot_qt/thumbnail/EWEUFI7OUN.png", "layer": 0, "perspective_c1_x": {"Points": [{"interpolation": 2, "co": {"X": 1, "Y": -1}}]}, "position": 103.24166647593182, "rotation": {"Points": [{"interpolation": 2, "co": {"X": 1, "Y": 0}}]}, "mixing": 0, "waveform": false, "crop_width": {"Points": [{"interpolation": 2, "co": {"X": 1, "Y": -1}}]}, "crop_height": {"Points": [{"interpolation": 2, "co": {"X": 1, "Y": -1}}]}, "crop_y": {"Points": [{"interpolation": 2, "co": {"X": 1, "Y": 0}}]}, "volume": {"Points": [{"interpolation": 2, "co": {"X": 1, "Y": 1}}]}, "channel_mapping": {"Points": [{"interpolation": 2, "co": {"X": 1, "Y": -1}}]}, "title": "opening8b.png", "has_video": {"Points": [{"interpolation": 2, "co": {"X": 1, "Y": -1}}]}, "perspective_c4_y": {"Points": [{"interpolation": 2, "co": {"X": 1, "Y": -1}}]}, "perspective_c2_y": {"Points": [{"interpolation": 2, "co": {"X": 1, "Y": -1}}]}, "reader": {"type": "QtImageReader", "height": 720, "video_timebase": {"num": 1, "den": 30}, "audio_stream_index": -1, "video_length": "2592000", "interlaced_frame": false, "duration": 86400.0, "channels": 0, "sample_rate": 0, "video_bit_rate": 0, "channel_layout": 4, "path": "/home/avishai/Documents/workspace/adaptive_hand_model/matlab/video/slides/opening8b.png", "metadata": {}, "audio_bit_rate": 0, "has_video": true, "has_audio": false, "pixel_format": -1, "acodec": "", "video_stream_index": -1, "display_ratio": {"num": 4, "den": 3}, "file_size": "2764800", "fps": {"num": 30, "den": 1}, "width": 960, "top_field_first": true, "audio_timebase": {"num": 1, "den": 1}, "pixel_ratio": {"num": 1, "den": 1}, "vcodec": "", "has_single_image": true}, "perspective_c3_x": {"Points": [{"interpolation": 2, "co": {"X": 1, "Y": -1}}]}, "gravity": 4, "id": "K1HDHMF9R0", "anchor": 0, "location_x": {"Points": [{"interpolation": 2, "co": {"X": 1, "Y": 0}}]}, "perspective_c1_y": {"Points": [{"interpolation": 2, "co": {"X": 1, "Y": -1}}]}, "file_id": "EWEUFI7OUN", "shear_y": {"Points": [{"interpolation": 2, "co": {"X": 1, "Y": 0}}]}, "location_y": {"Points": [{"interpolation": 2, "co": {"X": 1, "Y": 0}}]}, "scale_y": {"Points": [{"interpolation": 2, "co": {"X": 1, "Y": 1}}]}, "perspective_c4_x": {"Points": [{"interpolation": 2, "co": {"X": 1, "Y": -1}}]}, "shear_x": {"Points": [{"interpolation": 2, "co": {"X": 1, "Y": 0}}]}, "channel_filter": {"Points": [{"interpolation": 2, "co": {"X": 1, "Y": -1}}]}}, {"time": {"Points": [{"interpolation": 2, "co": {"X": 1, "Y": 1}}]}, "display": 0, "perspective_c2_x": {"Points": [{"interpolation": 2, "co": {"X": 1, "Y": -1}}]}, "duration": 4.75, "end": 4.75, "scale_x": {"Points": [{"interpolation": 2, "co": {"X": 1, "Y": 1}}]}, "effects": [], "has_audio": {"Points": [{"interpolation": 2, "co": {"X": 1, "Y": -1}}]}, "scale": 1, "perspective_c3_y": {"Points": [{"interpolation": 2, "co": {"X": 1, "Y": -1}}]}, "alpha": {"Points": [{"interpolation": 2, "co": {"X": 1, "Y": 1}}]}, "start": 0, "wave_color": {"blue": {"Points": [{"interpolation": 0, "handle_type": 0, "co": {"X": 1, "Y": 255}, "handle_left": {"X": 0.5, "Y": 1}, "handle_right": {"X": 0.5, "Y": 0}}]}, "green": {"Points": [{"interpolation": 0, "handle_type": 0, "co": {"X": 1, "Y": 123}, "handle_left": {"X": 0.5, "Y": 1}, "handle_right": {"X": 0.5, "Y": 0}}]}, "red": {"Points": [{"interpolation": 0, "handle_type": 0, "co": {"X": 1, "Y": 0}, "handle_left": {"X": 0.5, "Y": 1}, "handle_right": {"X": 0.5, "Y": 0}}]}, "alpha": {"Points": [{"interpolation": 0, "handle_type": 0, "co": {"X": 1, "Y": 255}, "handle_left": {"X": 0.5, "Y": 1}, "handle_right": {"X": 0.5, "Y": 0}}]}}, "crop_x": {"Points": [{"interpolation": 2, "co": {"X": 1, "Y": 0}}]}, "image": "/home/avishai/.openshot_qt/thumbnail/KZLNLAEG7J.png", "layer": 0, "perspective_c1_x": {"Points": [{"interpolation": 2, "co": {"X": 1, "Y": -1}}]}, "position": 107.24166647593182, "rotation": {"Points": [{"interpolation": 2, "co": {"X": 1, "Y": 0}}]}, "mixing": 0, "waveform": false, "crop_width": {"Points": [{"interpolation": 2, "co": {"X": 1, "Y": -1}}]}, "crop_height": {"Points": [{"interpolation": 2, "co": {"X": 1, "Y": -1}}]}, "crop_y": {"Points": [{"interpolation": 2, "co": {"X": 1, "Y": 0}}]}, "volume": {"Points": [{"interpolation": 2, "co": {"X": 1, "Y": 1}}]}, "channel_mapping": {"Points": [{"interpolation": 2, "co": {"X": 1, "Y": -1}}]}, "title": "trajs_fc_1.avi", "has_video": {"Points": [{"interpolation": 2, "co": {"X": 1, "Y": -1}}]}, "perspective_c4_y": {"Points": [{"interpolation": 2, "co": {"X": 1, "Y": -1}}]}, "perspective_c2_y": {"Points": [{"interpolation": 2, "co": {"X": 1, "Y": -1}}]}, "reader": {"type": "FFmpegReader", "height": 1002, "video_timebase": {"num": 1, "den": 60}, "audio_stream_index": -1, "video_length": "285", "interlaced_frame": false, "duration": 4.75, "channels": 0, "sample_rate": 0, "video_bit_rate": 79206750, "channel_layout": 4, "path": "/home/avishai/Documents/workspace/adaptive_hand_model/matlab/video/trajs_fc_1.avi", "metadata": {}, "audio_bit_rate": 0, "has_video": true, "has_audio": false, "pixel_format": 12, "acodec": "", "video_stream_index": 0, "display_ratio": {"num": 2, "den": 1}, "file_size": "47029008", "fps": {"num": 60, "den": 1}, "width": 2004, "top_field_first": true, "audio_timebase": {"num": 1, "den": 1}, "pixel_ratio": {"num": 1, "den": 1}, "vcodec": "mjpeg", "has_single_image": false}, "perspective_c3_x": {"Points": [{"interpolation": 2, "co": {"X": 1, "Y": -1}}]}, "gravity": 4, "id": "E30S9MIQFA", "anchor": 0, "location_x": {"Points": [{"interpolation": 2, "co": {"X": 1, "Y": 0}}]}, "perspective_c1_y": {"Points": [{"interpolation": 2, "co": {"X": 1, "Y": -1}}]}, "file_id": "KZLNLAEG7J", "shear_y": {"Points": [{"interpolation": 2, "co": {"X": 1, "Y": 0}}]}, "location_y": {"Points": [{"interpolation": 2, "co": {"X": 1, "Y": 0}}]}, "scale_y": {"Points": [{"interpolation": 2, "co": {"X": 1, "Y": 1}}]}, "perspective_c4_x": {"Points": [{"interpolation": 2, "co": {"X": 1, "Y": -1}}]}, "shear_x": {"Points": [{"interpolation": 2, "co": {"X": 1, "Y": 0}}]}, "channel_filter": {"Points": [{"interpolation": 2, "co": {"X": 1, "Y": -1}}]}}, {"time": {"Points": [{"interpolation": 2, "co": {"X": 1, "Y": 1}}]}, "display": 0, "perspective_c2_x": {"Points": [{"interpolation": 2, "co": {"X": 1, "Y": -1}}]}, "duration": 4.366666793823242, "end": 4.366666793823242, "scale_x": {"Points": [{"interpolation": 2, "co": {"X": 1, "Y": 1}}]}, "effects": [], "has_audio": {"Points": [{"interpolation": 2, "co": {"X": 1, "Y": -1}}]}, "scale": 1, "perspective_c3_y": {"Points": [{"interpolation": 2, "co": {"X": 1, "Y": -1}}]}, "alpha": {"Points": [{"interpolation": 2, "co": {"X": 1, "Y": 1}}]}, "start": 0, "wave_color": {"blue": {"Points": [{"interpolation": 0, "handle_type": 0, "co": {"X": 1, "Y": 255}, "handle_left": {"X": 0.5, "Y": 1}, "handle_right": {"X": 0.5, "Y": 0}}]}, "green": {"Points": [{"interpolation": 0, "handle_type": 0, "co": {"X": 1, "Y": 123}, "handle_left": {"X": 0.5, "Y": 1}, "handle_right": {"X": 0.5, "Y": 0}}]}, "red": {"Points": [{"interpolation": 0, "handle_type": 0, "co": {"X": 1, "Y": 0}, "handle_left": {"X": 0.5, "Y": 1}, "handle_right": {"X": 0.5, "Y": 0}}]}, "alpha": {"Points": [{"interpolation": 0, "handle_type": 0, "co": {"X": 1, "Y": 255}, "handle_left": {"X": 0.5, "Y": 1}, "handle_right": {"X": 0.5, "Y": 0}}]}}, "crop_x": {"Points": [{"interpolation": 2, "co": {"X": 1, "Y": 0}}]}, "image": "/home/avishai/.openshot_qt/thumbnail/D1DPZWUXYA.png", "layer": 0, "perspective_c1_x": {"Points": [{"interpolation": 2, "co": {"X": 1, "Y": -1}}]}, "position": 111.99166647593182, "rotation": {"Points": [{"interpolation": 2, "co": {"X": 1, "Y": 0}}]}, "mixing": 0, "waveform": false, "crop_width": {"Points": [{"interpolation": 2, "co": {"X": 1, "Y": -1}}]}, "crop_height": {"Points": [{"interpolation": 2, "co": {"X": 1, "Y": -1}}]}, "crop_y": {"Points": [{"interpolation": 2, "co": {"X": 1, "Y": 0}}]}, "volume": {"Points": [{"interpolation": 2, "co": {"X": 1, "Y": 1}}]}, "channel_mapping": {"Points": [{"interpolation": 2, "co": {"X": 1, "Y": -1}}]}, "title": "trajs_fc_2.avi", "has_video": {"Points": [{"interpolation": 2, "co": {"X": 1, "Y": -1}}]}, "perspective_c4_y": {"Points": [{"interpolation": 2, "co": {"X": 1, "Y": -1}}]}, "perspective_c2_y": {"Points": [{"interpolation": 2, "co": {"X": 1, "Y": -1}}]}, "reader": {"type": "FFmpegReader", "height": 1002, "video_timebase": {"num": 1, "den": 60}, "audio_stream_index": -1, "video_length": "262", "interlaced_frame": false, "duration": 4.366666793823242, "channels": 0, "sample_rate": 0, "video_bit_rate": 78925778, "channel_layout": 4, "path": "/home/avishai/Documents/workspace/adaptive_hand_model/matlab/video/trajs_fc_2.avi", "metadata": {}, "audio_bit_rate": 0, "has_video": true, "has_audio": false, "pixel_format": 12, "acodec": "", "video_stream_index": 0, "display_ratio": {"num": 2, "den": 1}, "file_size": "43080324", "fps": {"num": 60, "den": 1}, "width": 2004, "top_field_first": true, "audio_timebase": {"num": 1, "den": 1}, "pixel_ratio": {"num": 1, "den": 1}, "vcodec": "mjpeg", "has_single_image": false}, "perspective_c3_x": {"Points": [{"interpolation": 2, "co": {"X": 1, "Y": -1}}]}, "gravity": 4, "id": "56I4I8MV7U", "anchor": 0, "location_x": {"Points": [{"interpolation": 2, "co": {"X": 1, "Y": 0}}]}, "perspective_c1_y": {"Points": [{"interpolation": 2, "co": {"X": 1, "Y": -1}}]}, "file_id": "D1DPZWUXYA", "shear_y": {"Points": [{"interpolation": 2, "co": {"X": 1, "Y": 0}}]}, "location_y": {"Points": [{"interpolation": 2, "co": {"X": 1, "Y": 0}}]}, "scale_y": {"Points": [{"interpolation": 2, "co": {"X": 1, "Y": 1}}]}, "perspective_c4_x": {"Points": [{"interpolation": 2, "co": {"X": 1, "Y": -1}}]}, "shear_x": {"Points": [{"interpolation": 2, "co": {"X": 1, "Y": 0}}]}, "channel_filter": {"Points": [{"interpolation": 2, "co": {"X": 1, "Y": -1}}]}}, {"time": {"Points": [{"interpolation": 2, "co": {"X": 1, "Y": 1}}]}, "display": 0, "perspective_c2_x": {"Points": [{"interpolation": 2, "co": {"X": 1, "Y": -1}}]}, "duration": 6.949999809265137, "end": 6.949999809265137, "scale_x": {"Points": [{"interpolation": 2, "co": {"X": 1, "Y": 1}}]}, "effects": [], "has_audio": {"Points": [{"interpolation": 2, "co": {"X": 1, "Y": -1}}]}, "scale": 1, "perspective_c3_y": {"Points": [{"interpolation": 2, "co": {"X": 1, "Y": -1}}]}, "alpha": {"Points": [{"interpolation": 2, "co": {"X": 1, "Y": 1}}]}, "start": 0, "wave_color": {"blue": {"Points": [{"interpolation": 0, "handle_type": 0, "co": {"X": 1, "Y": 255}, "handle_left": {"X": 0.5, "Y": 1}, "handle_right": {"X": 0.5, "Y": 0}}]}, "green": {"Points": [{"interpolation": 0, "handle_type": 0, "co": {"X": 1, "Y": 123}, "handle_left": {"X": 0.5, "Y": 1}, "handle_right": {"X": 0.5, "Y": 0}}]}, "red": {"Points": [{"interpolation": 0, "handle_type": 0, "co": {"X": 1, "Y": 0}, "handle_left": {"X": 0.5, "Y": 1}, "handle_right": {"X": 0.5, "Y": 0}}]}, "alpha": {"Points": [{"interpolation": 0, "handle_type": 0, "co": {"X": 1, "Y": 255}, "handle_left": {"X": 0.5, "Y": 1}, "handle_right": {"X": 0.5, "Y": 0}}]}}, "crop_x": {"Points": [{"interpolation": 2, "co": {"X": 1, "Y": 0}}]}, "image": "/home/avishai/.openshot_qt/thumbnail/NNI1FVOBKE.png", "layer": 0, "perspective_c1_x": {"Points": [{"interpolation": 2, "co": {"X": 1, "Y": -1}}]}, "position": 116.35833326975506, "rotation": {"Points": [{"interpolation": 2, "co": {"X": 1, "Y": 0}}]}, "mixing": 0, "waveform": false, "crop_width": {"Points": [{"interpolation": 2, "co": {"X": 1, "Y": -1}}]}, "crop_height": {"Points": [{"interpolation": 2, "co": {"X": 1, "Y": -1}}]}, "crop_y": {"Points": [{"interpolation": 2, "co": {"X": 1, "Y": 0}}]}, "volume": {"Points": [{"interpolation": 2, "co": {"X": 1, "Y": 1}}]}, "channel_mapping": {"Points": [{"interpolation": 2, "co": {"X": 1, "Y": -1}}]}, "title": "trajs_fc_3.avi", "has_video": {"Points": [{"interpolation": 2, "co": {"X": 1, "Y": -1}}]}, "perspective_c4_y": {"Points": [{"interpolation": 2, "co": {"X": 1, "Y": -1}}]}, "perspective_c2_y": {"Points": [{"interpolation": 2, "co": {"X": 1, "Y": -1}}]}, "reader": {"type": "FFmpegReader", "height": 1002, "video_timebase": {"num": 1, "den": 60}, "audio_stream_index": -1, "video_length": "417", "interlaced_frame": false, "duration": 6.949999809265137, "channels": 0, "sample_rate": 0, "video_bit_rate": 79792890, "channel_layout": 4, "path": "/home/avishai/Documents/workspace/adaptive_hand_model/matlab/video/trajs_fc_3.avi", "metadata": {}, "audio_bit_rate": 0, "has_video": true, "has_audio": false, "pixel_format": 12, "acodec": "", "video_stream_index": 0, "display_ratio": {"num": 2, "den": 1}, "file_size": "69320074", "fps": {"num": 60, "den": 1}, "width": 2004, "top_field_first": true, "audio_timebase": {"num": 1, "den": 1}, "pixel_ratio": {"num": 1, "den": 1}, "vcodec": "mjpeg", "has_single_image": false}, "perspective_c3_x": {"Points": [{"interpolation": 2, "co": {"X": 1, "Y": -1}}]}, "gravity": 4, "id": "O2H2SXKGGU", "anchor": 0, "location_x": {"Points": [{"interpolation": 2, "co": {"X": 1, "Y": 0}}]}, "perspective_c1_y": {"Points": [{"interpolation": 2, "co": {"X": 1, "Y": -1}}]}, "file_id": "NNI1FVOBKE", "shear_y": {"Points": [{"interpolation": 2, "co": {"X": 1, "Y": 0}}]}, "location_y": {"Points": [{"interpolation": 2, "co": {"X": 1, "Y": 0}}]}, "scale_y": {"Points": [{"interpolation": 2, "co": {"X": 1, "Y": 1}}]}, "perspective_c4_x": {"Points": [{"interpolation": 2, "co": {"X": 1, "Y": -1}}]}, "shear_x": {"Points": [{"interpolation": 2, "co": {"X": 1, "Y": 0}}]}, "channel_filter": {"Points": [{"interpolation": 2, "co": {"X": 1, "Y": -1}}]}}], "key": ["clips"], "partial": false}, {"value": {"position": 93.44166647593183, "image": "/home/avishai/.openshot_qt/thumbnail/700EU1BLAQ.png", "layer": 0, "start": 0, "id": "891QVU4B22", "end": 10}, "type": "update", "old_values": {"time": {"Points": [{"interpolation": 2, "co": {"X": 1, "Y": 1}}]}, "display": 0, "perspective_c2_x": {"Points": [{"interpolation": 2, "co": {"X": 1, "Y": -1}}]}, "duration": 86400.0, "end": 10.0, "scale_x": {"Points": [{"interpolation": 2, "co": {"X": 1, "Y": 1}}]}, "effects": [], "has_audio": {"Points": [{"interpolation": 2, "co": {"X": 1, "Y": -1}}]}, "scale": 1, "perspective_c3_y": {"Points": [{"interpolation": 2, "co": {"X": 1, "Y": -1}}]}, "alpha": {"Points": [{"interpolation": 2, "co": {"X": 1, "Y": 1}}]}, "start": 0, "wave_color": {"blue": {"Points": [{"interpolation": 0, "handle_type": 0, "co": {"X": 1, "Y": 255}, "handle_left": {"X": 0.5, "Y": 1}, "handle_right": {"X": 0.5, "Y": 0}}]}, "green": {"Points": [{"interpolation": 0, "handle_type": 0, "co": {"X": 1, "Y": 123}, "handle_left": {"X": 0.5, "Y": 1}, "handle_right": {"X": 0.5, "Y": 0}}]}, "red": {"Points": [{"interpolation": 0, "handle_type": 0, "co": {"X": 1, "Y": 0}, "handle_left": {"X": 0.5, "Y": 1}, "handle_right": {"X": 0.5, "Y": 0}}]}, "alpha": {"Points": [{"interpolation": 0, "handle_type": 0, "co": {"X": 1, "Y": 255}, "handle_left": {"X": 0.5, "Y": 1}, "handle_right": {"X": 0.5, "Y": 0}}]}}, "crop_x": {"Points": [{"interpolation": 2, "co": {"X": 1, "Y": 0}}]}, "image": "/home/avishai/.openshot_qt/thumbnail/700EU1BLAQ.png", "layer": 0, "perspective_c1_x": {"Points": [{"interpolation": 2, "co": {"X": 1, "Y": -1}}]}, "position": 112.41999999999999, "rotation": {"Points": [{"interpolation": 2, "co": {"X": 1, "Y": 0}}]}, "mixing": 0, "waveform": false, "crop_width": {"Points": [{"interpolation": 2, "co": {"X": 1, "Y": -1}}]}, "crop_height": {"Points": [{"interpolation": 2, "co": {"X": 1, "Y": -1}}]}, "crop_y": {"Points": [{"interpolation": 2, "co": {"X": 1, "Y": 0}}]}, "volume": {"Points": [{"interpolation": 2, "co": {"X": 1, "Y": 1}}]}, "channel_mapping": {"Points": [{"interpolation": 2, "co": {"X": 1, "Y": -1}}]}, "title": "opening8.png", "has_video": {"Points": [{"interpolation": 2, "co": {"X": 1, "Y": -1}}]}, "perspective_c4_y": {"Points": [{"interpolation": 2, "co": {"X": 1, "Y": -1}}]}, "perspective_c2_y": {"Points": [{"interpolation": 2, "co": {"X": 1, "Y": -1}}]}, "reader": {"type": "QtImageReader", "height": 720, "video_timebase": {"num": 1, "den": 30}, "audio_stream_index": -1, "video_length": "2592000", "interlaced_frame": false, "duration": 86400.0, "channels": 0, "sample_rate": 0, "video_bit_rate": 0, "channel_layout": 4, "path": "/home/avishai/Documents/workspace/adaptive_hand_model/matlab/video/slides/opening8.png", "metadata": {}, "audio_bit_rate": 0, "has_video": true, "has_audio": false, "pixel_format": -1, "acodec": "", "video_stream_index": -1, "display_ratio": {"num": 4, "den": 3}, "file_size": "2764800", "fps": {"num": 30, "den": 1}, "width": 960, "top_field_first": true, "audio_timebase": {"num": 1, "den": 1}, "pixel_ratio": {"num": 1, "den": 1}, "vcodec": "", "has_single_image": true}, "perspective_c3_x": {"Points": [{"interpolation": 2, "co": {"X": 1, "Y": -1}}]}, "gravity": 4, "id": "891QVU4B22", "anchor": 0, "location_x": {"Points": [{"interpolation": 2, "co": {"X": 1, "Y": 0}}]}, "perspective_c1_y": {"Points": [{"interpolation": 2, "co": {"X": 1, "Y": -1}}]}, "file_id": "700EU1BLAQ", "shear_y": {"Points": [{"interpolation": 2, "co": {"X": 1, "Y": 0}}]}, "location_y": {"Points": [{"interpolation": 2, "co": {"X": 1, "Y": 0}}]}, "scale_y": {"Points": [{"interpolation": 2, "co": {"X": 1, "Y": 1}}]}, "perspective_c4_x": {"Points": [{"interpolation": 2, "co": {"X": 1, "Y": -1}}]}, "shear_x": {"Points": [{"interpolation": 2, "co": {"X": 1, "Y": 0}}]}, "channel_filter": {"Points": [{"interpolation": 2, "co": {"X": 1, "Y": -1}}]}}, "key": ["clips", {"id": "891QVU4B22"}], "partial": false}, {"value": null, "type": "delete", "old_values": {"time": {"Points": [{"interpolation": 2, "co": {"X": 1, "Y": 1}}]}, "display": 0, "perspective_c2_x": {"Points": [{"interpolation": 2, "co": {"X": 1, "Y": -1}}]}, "duration": 86400.0, "end": 10, "scale_x": {"Points": [{"interpolation": 2, "co": {"X": 1, "Y": 1}}]}, "effects": [], "has_audio": {"Points": [{"interpolation": 2, "co": {"X": 1, "Y": -1}}]}, "scale": 1, "perspective_c3_y": {"Points": [{"interpolation": 2, "co": {"X": 1, "Y": -1}}]}, "alpha": {"Points": [{"interpolation": 2, "co": {"X": 1, "Y": 1}}, {"interpolation": 0, "handle_type": 0, "co": {"X": 169, "Y": 1}, "handle_left": {"X": 0.5, "Y": 1}, "handle_right": {"X": 0.5, "Y": 0}}, {"interpolation": 0, "handle_type": 0, "co": {"X": 241, "Y": 0}, "handle_left": {"X": 0.5, "Y": 1}, "handle_right": {"X": 0.5, "Y": 0}}, {"interpolation": 0, "handle_type": 0, "handle_left": {"X": 0.5, "Y": 1}, "handle_right": {"X": 0.5, "Y": 0}, "co": {"X": 217, "Y": 1}}, {"interpolation": 0, "handle_type": 0, "handle_left": {"X": 0.5, "Y": 1}, "handle_right": {"X": 0.5, "Y": 0}, "co": {"X": 241, "Y": 0}}]}, "start": 0, "wave_color": {"blue": {"Points": [{"interpolation": 0, "handle_type": 0, "co": {"X": 1, "Y": 255}, "handle_right": {"X": 0.5, "Y": 0}, "handle_left": {"X": 0.5, "Y": 1}}]}, "green": {"Points": [{"interpolation": 0, "handle_type": 0, "co": {"X": 1, "Y": 123}, "handle_right": {"X": 0.5, "Y": 0}, "handle_left": {"X": 0.5, "Y": 1}}]}, "red": {"Points": [{"interpolation": 0, "handle_type": 0, "co": {"X": 1, "Y": 0}, "handle_right": {"X": 0.5, "Y": 0}, "handle_left": {"X": 0.5, "Y": 1}}]}, "alpha": {"Points": [{"interpolation": 0, "handle_type": 0, "co": {"X": 1, "Y": 255}, "handle_right": {"X": 0.5, "Y": 0}, "handle_left": {"X": 0.5, "Y": 1}}]}}, "crop_x": {"Points": [{"interpolation": 2, "co": {"X": 1, "Y": 0}}]}, "image": "/home/avishai/.openshot_qt/thumbnail/0S38URN00T.png", "layer": 0, "perspective_c1_x": {"Points": [{"interpolation": 2, "co": {"X": 1, "Y": -1}}]}, "position": 60.95833333333334, "rotation": {"Points": [{"interpolation": 2, "co": {"X": 1, "Y": 0}}]}, "mixing": 0, "waveform": false, "crop_width": {"Points": [{"interpolation": 2, "co": {"X": 1, "Y": -1}}]}, "crop_height": {"Points": [{"interpolation": 2, "co": {"X": 1, "Y": -1}}]}, "crop_y": {"Points": [{"interpolation": 2, "co": {"X": 1, "Y": 0}}]}, "volume": {"Points": [{"interpolation": 2, "co": {"X": 1, "Y": 1}}]}, "channel_mapping": {"Points": [{"interpolation": 2, "co": {"X": 1, "Y": -1}}]}, "title": "opening5.png", "has_video": {"Points": [{"interpolation": 2, "co": {"X": 1, "Y": -1}}]}, "perspective_c4_y": {"Points": [{"interpolation": 2, "co": {"X": 1, "Y": -1}}]}, "perspective_c2_y": {"Points": [{"interpolation": 2, "co": {"X": 1, "Y": -1}}]}, "reader": {"type": "QtImageReader", "height": 720, "video_timebase": {"num": 1, "den": 30}, "audio_stream_index": -1, "video_length": "2592000", "interlaced_frame": false, "duration": 86400.0, "channels": 0, "sample_rate": 0, "video_bit_rate": 0, "channel_layout": 4, "path": "/home/avishai/Documents/workspace/adaptive_hand_model/matlab/video/slides/opening5.png", "metadata": {}, "audio_bit_rate": 0, "has_video": true, "has_audio": false, "pixel_format": -1, "acodec": "", "video_stream_index": -1, "display_ratio": {"num": 4, "den": 3}, "file_size": "2764800", "fps": {"num": 30, "den": 1}, "width": 960, "top_field_first": true, "audio_timebase": {"num": 1, "den": 1}, "pixel_ratio": {"num": 1, "den": 1}, "vcodec": "", "has_single_image": true}, "perspective_c3_x": {"Points": [{"interpolation": 2, "co": {"X": 1, "Y": -1}}]}, "gravity": 4, "id": "J4SOLGGXHP", "anchor": 0, "location_x": {"Points": [{"interpolation": 2, "co": {"X": 1, "Y": 0}}]}, "perspective_c1_y": {"Points": [{"interpolation": 2, "co": {"X": 1, "Y": -1}}]}, "file_id": "0S38URN00T", "shear_y": {"Points": [{"interpolation": 2, "co": {"X": 1, "Y": 0}}]}, "location_y": {"Points": [{"interpolation": 2, "co": {"X": 1, "Y": 0}}]}, "scale_y": {"Points": [{"interpolation": 2, "co": {"X": 1, "Y": 1}}]}, "perspective_c4_x": {"Points": [{"interpolation": 2, "co": {"X": 1, "Y": -1}}]}, "shear_x": {"Points": [{"interpolation": 2, "co": {"X": 1, "Y": 0}}]}, "channel_filter": {"Points": [{"interpolation": 2, "co": {"X": 1, "Y": -1}}]}}, "key": ["clips", {"id": "J4SOLGGXHP"}], "partial": false}, {"value": {"time": {"Points": [{"interpolation": 2, "co": {"X": 1, "Y": 1}}]}, "display": 0, "perspective_c2_x": {"Points": [{"interpolation": 2, "co": {"X": 1, "Y": -1}}]}, "duration": 86400.0, "end": 10, "scale_x": {"Points": [{"interpolation": 2, "co": {"X": 1, "Y": 1}}]}, "effects": [], "has_audio": {"Points": [{"interpolation": 2, "co": {"X": 1, "Y": -1}}]}, "scale": 1, "perspective_c3_y": {"Points": [{"interpolation": 2, "co": {"X": 1, "Y": -1}}]}, "alpha": {"Points": [{"interpolation": 2, "co": {"X": 1, "Y": 1}}]}, "start": 0, "wave_color": {"blue": {"Points": [{"interpolation": 0, "handle_type": 0, "handle_left": {"X": 0.5, "Y": 1}, "handle_right": {"X": 0.5, "Y": 0}, "co": {"X": 1, "Y": 255}}]}, "green": {"Points": [{"interpolation": 0, "handle_type": 0, "handle_left": {"X": 0.5, "Y": 1}, "handle_right": {"X": 0.5, "Y": 0}, "co": {"X": 1, "Y": 123}}]}, "red": {"Points": [{"interpolation": 0, "handle_type": 0, "handle_left": {"X": 0.5, "Y": 1}, "handle_right": {"X": 0.5, "Y": 0}, "co": {"X": 1, "Y": 0}}]}, "alpha": {"Points": [{"interpolation": 0, "handle_type": 0, "handle_left": {"X": 0.5, "Y": 1}, "handle_right": {"X": 0.5, "Y": 0}, "co": {"X": 1, "Y": 255}}]}}, "crop_x": {"Points": [{"interpolation": 2, "co": {"X": 1, "Y": 0}}]}, "image": "/home/avishai/.openshot_qt/thumbnail/0S38URN00T.png", "layer": 0, "perspective_c1_x": {"Points": [{"interpolation": 2, "co": {"X": 1, "Y": -1}}]}, "shear_y": {"Points": [{"interpolation": 2, "co": {"X": 1, "Y": 0}}]}, "rotation": {"Points": [{"interpolation": 2, "co": {"X": 1, "Y": 0}}]}, "mixing": 0, "waveform": false, "crop_width": {"Points": [{"interpolation": 2, "co": {"X": 1, "Y": -1}}]}, "crop_height": {"Points": [{"interpolation": 2, "co": {"X": 1, "Y": -1}}]}, "crop_y": {"Points": [{"interpolation": 2, "co": {"X": 1, "Y": 0}}]}, "volume": {"Points": [{"interpolation": 2, "co": {"X": 1, "Y": 1}}]}, "channel_mapping": {"Points": [{"interpolation": 2, "co": {"X": 1, "Y": -1}}]}, "title": "opening5.png", "has_video": {"Points": [{"interpolation": 2, "co": {"X": 1, "Y": -1}}]}, "perspective_c4_y": {"Points": [{"interpolation": 2, "co": {"X": 1, "Y": -1}}]}, "perspective_c2_y": {"Points": [{"interpolation": 2, "co": {"X": 1, "Y": -1}}]}, "reader": {"type": "QtImageReader", "height": 720, "video_timebase": {"num": 1, "den": 30}, "audio_stream_index": -1, "video_length": "2592000", "interlaced_frame": false, "duration": 86400.0, "channels": 0, "sample_rate": 0, "video_bit_rate": 0, "channel_layout": 4, "path": "/home/avishai/Documents/workspace/adaptive_hand_model/matlab/video/slides/opening5.png", "metadata": {}, "audio_bit_rate": 0, "has_video": true, "has_audio": false, "pixel_format": -1, "acodec": "", "video_stream_index": -1, "display_ratio": {"num": 4, "den": 3}, "fps": {"num": 30, "den": 1}, "width": 960, "file_size": "2764800", "top_field_first": true, "audio_timebase": {"num": 1, "den": 1}, "pixel_ratio": {"num": 1, "den": 1}, "vcodec": "", "has_single_image": true}, "position": 61.158333333333346, "perspective_c3_x": {"Points": [{"interpolation": 2, "co": {"X": 1, "Y": -1}}]}, "gravity": 4, "id": "XKMPBP80N8", "anchor": 0, "location_x": {"Points": [{"interpolation": 2, "co": {"X": 1, "Y": 0}}]}, "perspective_c1_y": {"Points": [{"interpolation": 2, "co": {"X": 1, "Y": -1}}]}, "file_id": "0S38URN00T", "channel_filter": {"Points": [{"interpolation": 2, "co": {"X": 1, "Y": -1}}]}, "location_y": {"Points": [{"interpolation": 2, "co": {"X": 1, "Y": 0}}]}, "scale_y": {"Points": [{"interpolation": 2, "co": {"X": 1, "Y": 1}}]}, "shear_x": {"Points": [{"interpolation": 2, "co": {"X": 1, "Y": 0}}]}, "perspective_c4_x": {"Points": [{"interpolation": 2, "co": {"X": 1, "Y": -1}}]}}, "type": "insert", "old_values": [{"time": {"Points": [{"interpolation": 2, "co": {"X": 1, "Y": 1}}]}, "display": 0, "perspective_c2_x": {"Points": [{"interpolation": 2, "co": {"X": 1, "Y": -1}}]}, "duration": 10.866666793823242, "end": 10.875, "scale_x": {"Points": [{"interpolation": 2, "co": {"X": 1, "Y": 1}}]}, "channel_filter": {"Points": [{"interpolation": 2, "co": {"X": 1, "Y": -1}}]}, "effects": [], "has_audio": {"Points": [{"interpolation": 2, "co": {"X": 1, "Y": -1}}]}, "scale": 1, "perspective_c3_y": {"Points": [{"interpolation": 2, "co": {"X": 1, "Y": -1}}]}, "alpha": {"Points": [{"interpolation": 2, "co": {"X": 1, "Y": 1}}]}, "shear_x": {"Points": [{"interpolation": 2, "co": {"X": 1, "Y": 0}}]}, "wave_color": {"blue": {"Points": [{"interpolation": 0, "handle_type": 0, "handle_left": {"X": 0.5, "Y": 1}, "handle_right": {"X": 0.5, "Y": 0}, "co": {"X": 1, "Y": 255}}]}, "red": {"Points": [{"interpolation": 0, "handle_type": 0, "handle_left": {"X": 0.5, "Y": 1}, "handle_right": {"X": 0.5, "Y": 0}, "co": {"X": 1, "Y": 0}}]}, "green": {"Points": [{"interpolation": 0, "handle_type": 0, "handle_left": {"X": 0.5, "Y": 1}, "handle_right": {"X": 0.5, "Y": 0}, "co": {"X": 1, "Y": 123}}]}, "alpha": {"Points": [{"interpolation": 0, "handle_type": 0, "handle_left": {"X": 0.5, "Y": 1}, "handle_right": {"X": 0.5, "Y": 0}, "co": {"X": 1, "Y": 255}}]}}, "crop_x": {"Points": [{"interpolation": 2, "co": {"X": 1, "Y": 0}}]}, "image": "/home/avishai/.openshot_qt/thumbnail/VLL3NDOT0B.png", "layer": 0, "perspective_c1_x": {"Points": [{"interpolation": 2, "co": {"X": 1, "Y": -1}}]}, "shear_y": {"Points": [{"interpolation": 2, "co": {"X": 1, "Y": 0}}]}, "rotation": {"Points": [{"interpolation": 2, "co": {"X": 1, "Y": 0}}]}, "gravity": 4, "waveform": false, "crop_width": {"Points": [{"interpolation": 2, "co": {"X": 1, "Y": -1}}]}, "crop_height": {"Points": [{"interpolation": 2, "co": {"X": 1, "Y": -1}}]}, "crop_y": {"Points": [{"interpolation": 2, "co": {"X": 1, "Y": 0}}]}, "volume": {"Points": [{"interpolation": 2, "co": {"X": 1, "Y": 1}}]}, "channel_mapping": {"Points": [{"interpolation": 2, "co": {"X": 1, "Y": -1}}]}, "title": "rec.avi", "has_video": {"Points": [{"interpolation": 2, "co": {"X": 1, "Y": -1}}]}, "perspective_c4_y": {"Points": [{"interpolation": 2, "co": {"X": 1, "Y": -1}}]}, "perspective_c2_y": {"Points": [{"interpolation": 2, "co": {"X": 1, "Y": -1}}]}, "reader": {"type": "FFmpegReader", "height": 451, "video_timebase": {"num": 1, "den": 60}, "audio_stream_index": -1, "video_length": "652", "interlaced_frame": false, "audio_bit_rate": 0, "channels": 0, "sample_rate": 0, "video_bit_rate": 13375086, "channel_layout": 4, "path": "/home/avishai/Documents/workspace/adaptive_hand_model/matlab/video/rec.avi", "metadata": {}, "vcodec": "mjpeg", "has_video": true, "has_audio": false, "pixel_format": 12, "acodec": "", "video_stream_index": 0, "display_ratio": {"num": 531, "den": 451}, "file_size": "18167826", "fps": {"num": 60, "den": 1}, "width": 531, "top_field_first": true, "audio_timebase": {"num": 1, "den": 1}, "pixel_ratio": {"num": 1, "den": 1}, "duration": 10.866666793823242, "has_single_image": false}, "perspective_c3_x": {"Points": [{"interpolation": 2, "co": {"X": 1, "Y": -1}}]}, "id": "S1HEPYMO0Q", "anchor": 0, "location_x": {"Points": [{"interpolation": 2, "co": {"X": 1, "Y": 0}}]}, "mixing": 0, "perspective_c1_y": {"Points": [{"interpolation": 2, "co": {"X": 1, "Y": -1}}]}, "file_id": "VLL3NDOT0B", "position": 10, "location_y": {"Points": [{"interpolation": 2, "co": {"X": 1, "Y": 0}}]}, "scale_y": {"Points": [{"interpolation": 2, "co": {"X": 1, "Y": 1}}]}, "start": 0, "perspective_c4_x": {"Points": [{"interpolation": 2, "co": {"X": 1, "Y": -1}}]}}, {"time": {"Points": [{"interpolation": 2, "co": {"X": 1, "Y": 1}}]}, "display": 0, "perspective_c2_x": {"Points": [{"interpolation": 2, "co": {"X": 1, "Y": -1}}]}, "duration": 86400.0, "end": 10, "scale_x": {"Points": [{"interpolation": 2, "co": {"X": 1, "Y": 1}}]}, "channel_filter": {"Points": [{"interpolation": 2, "co": {"X": 1, "Y": -1}}]}, "effects": [], "has_audio": {"Points": [{"interpolation": 2, "co": {"X": 1, "Y": -1}}]}, "scale": 1, "perspective_c3_y": {"Points": [{"interpolation": 2, "co": {"X": 1, "Y": -1}}]}, "alpha": {"Points": [{"interpolation": 2, "co": {"X": 1, "Y": 1}}, {"interpolation": 0, "handle_type": 0, "handle_right": {"X": 0.5, "Y": 0}, "handle_left": {"X": 0.5, "Y": 1}, "co": {"X": 1, "Y": 0}}, {"interpolation": 0, "handle_type": 0, "handle_right": {"X": 0.5, "Y": 0}, "handle_left": {"X": 0.5, "Y": 1}, "co": {"X": 73, "Y": 1}}]}, "shear_x": {"Points": [{"interpolation": 2, "co": {"X": 1, "Y": 0}}]}, "wave_color": {"blue": {"Points": [{"interpolation": 0, "handle_type": 0, "handle_right": {"X": 0.5, "Y": 0}, "handle_left": {"X": 0.5, "Y": 1}, "co": {"X": 1, "Y": 255}}]}, "green": {"Points": [{"interpolation": 0, "handle_type": 0, "handle_right": {"X": 0.5, "Y": 0}, "handle_left": {"X": 0.5, "Y": 1}, "co": {"X": 1, "Y": 123}}]}, "red": {"Points": [{"interpolation": 0, "handle_type": 0, "handle_right": {"X": 0.5, "Y": 0}, "handle_left": {"X": 0.5, "Y": 1}, "co": {"X": 1, "Y": 0}}]}, "alpha": {"Points": [{"interpolation": 0, "handle_type": 0, "handle_right": {"X": 0.5, "Y": 0}, "handle_left": {"X": 0.5, "Y": 1}, "co": {"X": 1, "Y": 255}}]}}, "crop_x": {"Points": [{"interpolation": 2, "co": {"X": 1, "Y": 0}}]}, "image": "/home/avishai/.openshot_qt/thumbnail/SM8I51NPAK.png", "layer": 1, "perspective_c1_x": {"Points": [{"interpolation": 2, "co": {"X": 1, "Y": -1}}]}, "position": 10.946666793823242, "rotation": {"Points": [{"interpolation": 2, "co": {"X": 1, "Y": 0}}]}, "gravity": 4, "waveform": false, "crop_width": {"Points": [{"interpolation": 2, "co": {"X": 1, "Y": -1}}]}, "crop_height": {"Points": [{"interpolation": 2, "co": {"X": 1, "Y": -1}}]}, "crop_y": {"Points": [{"interpolation": 2, "co": {"X": 1, "Y": 0}}]}, "volume": {"Points": [{"interpolation": 2, "co": {"X": 1, "Y": 1}}]}, "channel_mapping": {"Points": [{"interpolation": 2, "co": {"X": 1, "Y": -1}}]}, "title": "TitleFileName-2.svg", "has_video": {"Points": [{"interpolation": 2, "co": {"X": 1, "Y": -1}}]}, "perspective_c4_y": {"Points": [{"interpolation": 2, "co": {"X": 1, "Y": -1}}]}, "perspective_c2_y": {"Points": [{"interpolation": 2, "co": {"X": 1, "Y": -1}}]}, "reader": {"type": "QtImageReader", "interlaced_frame": false, "video_timebase": {"num": 1, "den": 30}, "audio_stream_index": -1, "video_length": "2592000", "channels": 0, "audio_bit_rate": 0, "sample_rate": 0, "video_bit_rate": 0, "channel_layout": 4, "path": "/home/avishai/Documents/workspace/adaptive_hand_model/matlab/video/assets/TitleFileName-2.svg", "metadata": {}, "vcodec": "", "has_video": true, "has_audio": false, "pixel_format": -1, "height": 1080, "acodec": "", "video_stream_index": -1, "display_ratio": {"num": 16, "den": 9}, "file_size": "8294400", "fps": {"num": 30, "den": 1}, "width": 1920, "top_field_first": true, "audio_timebase": {"num": 1, "den": 1}, "pixel_ratio": {"num": 1, "den": 1}, "duration": 86400.0, "has_single_image": true}, "perspective_c3_x": {"Points": [{"interpolation": 2, "co": {"X": 1, "Y": -1}}]}, "id": "838ILRLA3L", "anchor": 0, "location_x": {"Points": [{"interpolation": 2, "co": {"X": 1, "Y": 0}}]}, "mixing": 0, "perspective_c1_y": {"Points": [{"interpolation": 2, "co": {"X": 1, "Y": -1}}]}, "file_id": "SM8I51NPAK", "shear_y": {"Points": [{"interpolation": 2, "co": {"X": 1, "Y": 0}}]}, "location_y": {"Points": [{"interpolation": 2, "co": {"X": 1, "Y": 0}}]}, "scale_y": {"Points": [{"interpolation": 2, "co": {"X": 1, "Y": 1}}]}, "start": 0, "perspective_c4_x": {"Points": [{"interpolation": 2, "co": {"X": 1, "Y": -1}}]}}, {"time": {"Points": [{"interpolation": 2, "co": {"X": 1, "Y": 1}}]}, "display": 0, "perspective_c2_x": {"Points": [{"interpolation": 2, "co": {"X": 1, "Y": -1}}]}, "duration": 86400.0, "end": 10, "scale_x": {"Points": [{"interpolation": 2, "co": {"X": 1, "Y": 1}}]}, "channel_filter": {"Points": [{"interpolation": 2, "co": {"X": 1, "Y": -1}}]}, "effects": [], "has_audio": {"Points": [{"interpolation": 2, "co": {"X": 1, "Y": -1}}]}, "scale": 1, "perspective_c3_y": {"Points": [{"interpolation": 2, "co": {"X": 1, "Y": -1}}]}, "alpha": {"Points": [{"interpolation": 2, "co": {"X": 1, "Y": 1}}, {"interpolation": 0, "handle_type": 0, "handle_right": {"X": 0.5, "Y": 0}, "handle_left": {"X": 0.5, "Y": 1}, "co": {"X": 169, "Y": 1}}, {"interpolation": 0, "handle_type": 0, "handle_right": {"X": 0.5, "Y": 0}, "handle_left": {"X": 0.5, "Y": 1}, "co": {"X": 241, "Y": 0}}]}, "shear_x": {"Points": [{"interpolation": 2, "co": {"X": 1, "Y": 0}}]}, "wave_color": {"blue": {"Points": [{"interpolation": 0, "handle_type": 0, "handle_right": {"X": 0.5, "Y": 0}, "handle_left": {"X": 0.5, "Y": 1}, "co": {"X": 1, "Y": 255}}]}, "green": {"Points": [{"interpolation": 0, "handle_type": 0, "handle_right": {"X": 0.5, "Y": 0}, "handle_left": {"X": 0.5, "Y": 1}, "co": {"X": 1, "Y": 123}}]}, "red": {"Points": [{"interpolation": 0, "handle_type": 0, "handle_right": {"X": 0.5, "Y": 0}, "handle_left": {"X": 0.5, "Y": 1}, "co": {"X": 1, "Y": 0}}]}, "alpha": {"Points": [{"interpolation": 0, "handle_type": 0, "handle_right": {"X": 0.5, "Y": 0}, "handle_left": {"X": 0.5, "Y": 1}, "co": {"X": 1, "Y": 255}}]}}, "crop_x": {"Points": [{"interpolation": 2, "co": {"X": 1, "Y": 0}}]}, "image": "/home/avishai/.openshot_qt/thumbnail/722P7PCEWK.png", "layer": 0, "perspective_c1_x": {"Points": [{"interpolation": 2, "co": {"X": 1, "Y": -1}}]}, "position": 30.94666679382324, "rotation": {"Points": [{"interpolation": 2, "co": {"X": 1, "Y": 0}}]}, "gravity": 4, "waveform": false, "crop_width": {"Points": [{"interpolation": 2, "co": {"X": 1, "Y": -1}}]}, "crop_height": {"Points": [{"interpolation": 2, "co": {"X": 1, "Y": -1}}]}, "crop_y": {"Points": [{"interpolation": 2, "co": {"X": 1, "Y": 0}}]}, "volume": {"Points": [{"interpolation": 2, "co": {"X": 1, "Y": 1}}]}, "channel_mapping": {"Points": [{"interpolation": 2, "co": {"X": 1, "Y": -1}}]}, "title": "opening2.png", "has_video": {"Points": [{"interpolation": 2, "co": {"X": 1, "Y": -1}}]}, "perspective_c4_y": {"Points": [{"interpolation": 2, "co": {"X": 1, "Y": -1}}]}, "perspective_c2_y": {"Points": [{"interpolation": 2, "co": {"X": 1, "Y": -1}}]}, "reader": {"type": "QtImageReader", "interlaced_frame": false, "video_timebase": {"num": 1, "den": 30}, "audio_stream_index": -1, "video_length": "2592000", "channels": 0, "audio_bit_rate": 0, "sample_rate": 0, "video_bit_rate": 0, "channel_layout": 4, "path": "/home/avishai/Documents/workspace/adaptive_hand_model/matlab/video/slides/opening2.png", "metadata": {}, "vcodec": "", "has_video": true, "has_audio": false, "pixel_format": -1, "height": 720, "acodec": "", "video_stream_index": -1, "display_ratio": {"num": 4, "den": 3}, "file_size": "2764800", "fps": {"num": 30, "den": 1}, "width": 960, "top_field_first": true, "audio_timebase": {"num": 1, "den": 1}, "pixel_ratio": {"num": 1, "den": 1}, "duration": 86400.0, "has_single_image": true}, "perspective_c3_x": {"Points": [{"interpolation": 2, "co": {"X": 1, "Y": -1}}]}, "id": "T71MOBYYIW", "anchor": 0, "location_x": {"Points": [{"interpolation": 2, "co": {"X": 1, "Y": 0}}]}, "mixing": 0, "perspective_c1_y": {"Points": [{"interpolation": 2, "co": {"X": 1, "Y": -1}}]}, "file_id": "722P7PCEWK", "shear_y": {"Points": [{"interpolation": 2, "co": {"X": 1, "Y": 0}}]}, "location_y": {"Points": [{"interpolation": 2, "co": {"X": 1, "Y": 0}}]}, "scale_y": {"Points": [{"interpolation": 2, "co": {"X": 1, "Y": 1}}]}, "start": 0, "perspective_c4_x": {"Points": [{"interpolation": 2, "co": {"X": 1, "Y": -1}}]}}, {"time": {"Points": [{"interpolation": 2, "co": {"X": 1, "Y": 1}}]}, "display": 0, "perspective_c2_x": {"Points": [{"interpolation": 2, "co": {"X": 1, "Y": -1}}]}, "duration": 86400.0, "end": 10, "scale_x": {"Points": [{"interpolation": 2, "co": {"X": 1, "Y": 1}}]}, "effects": [], "has_audio": {"Points": [{"interpolation": 2, "co": {"X": 1, "Y": -1}}]}, "scale": 1, "perspective_c3_y": {"Points": [{"interpolation": 2, "co": {"X": 1, "Y": -1}}]}, "alpha": {"Points": [{"interpolation": 2, "co": {"X": 1, "Y": 1}}]}, "start": 0, "wave_color": {"blue": {"Points": [{"interpolation": 0, "handle_type": 0, "co": {"X": 1, "Y": 255}, "handle_left": {"X": 0.5, "Y": 1}, "handle_right": {"X": 0.5, "Y": 0}}]}, "green": {"Points": [{"interpolation": 0, "handle_type": 0, "co": {"X": 1, "Y": 123}, "handle_left": {"X": 0.5, "Y": 1}, "handle_right": {"X": 0.5, "Y": 0}}]}, "red": {"Points": [{"interpolation": 0, "handle_type": 0, "co": {"X": 1, "Y": 0}, "handle_left": {"X": 0.5, "Y": 1}, "handle_right": {"X": 0.5, "Y": 0}}]}, "alpha": {"Points": [{"interpolation": 0, "handle_type": 0, "co": {"X": 1, "Y": 255}, "handle_left": {"X": 0.5, "Y": 1}, "handle_right": {"X": 0.5, "Y": 0}}]}}, "crop_x": {"Points": [{"interpolation": 2, "co": {"X": 1, "Y": 0}}]}, "image": "/home/avishai/.openshot_qt/thumbnail/FG71JWWOKG.png", "layer": 0, "perspective_c1_x": {"Points": [{"interpolation": 2, "co": {"X": 1, "Y": -1}}]}, "position": 0, "rotation": {"Points": [{"interpolation": 2, "co": {"X": 1, "Y": 0}}]}, "mixing": 0, "waveform": false, "crop_width": {"Points": [{"interpolation": 2, "co": {"X": 1, "Y": -1}}]}, "crop_height": {"Points": [{"interpolation": 2, "co": {"X": 1, "Y": -1}}]}, "crop_y": {"Points": [{"interpolation": 2, "co": {"X": 1, "Y": 0}}]}, "volume": {"Points": [{"interpolation": 2, "co": {"X": 1, "Y": 1}}]}, "channel_mapping": {"Points": [{"interpolation": 2, "co": {"X": 1, "Y": -1}}]}, "title": "opening.png", "has_video": {"Points": [{"interpolation": 2, "co": {"X": 1, "Y": -1}}]}, "perspective_c4_y": {"Points": [{"interpolation": 2, "co": {"X": 1, "Y": -1}}]}, "perspective_c2_y": {"Points": [{"interpolation": 2, "co": {"X": 1, "Y": -1}}]}, "reader": {"type": "QtImageReader", "height": 720, "video_timebase": {"num": 1, "den": 30}, "audio_stream_index": -1, "video_length": "2592000", "interlaced_frame": false, "duration": 86400.0, "channels": 0, "sample_rate": 0, "video_bit_rate": 0, "channel_layout": 4, "path": "/home/avishai/Documents/workspace/adaptive_hand_model/matlab/video/slides/opening.png", "metadata": {}, "audio_bit_rate": 0, "has_video": true, "has_audio": false, "pixel_format": -1, "acodec": "", "video_stream_index": -1, "display_ratio": {"num": 4, "den": 3}, "file_size": "2764800", "fps": {"num": 30, "den": 1}, "width": 960, "top_field_first": true, "audio_timebase": {"num": 1, "den": 1}, "pixel_ratio": {"num": 1, "den": 1}, "vcodec": "", "has_single_image": true}, "perspective_c3_x": {"Points": [{"interpolation": 2, "co": {"X": 1, "Y": -1}}]}, "gravity": 4, "id": "VUZXRGBOF5", "anchor": 0, "location_x": {"Points": [{"interpolation": 2, "co": {"X": 1, "Y": 0}}]}, "perspective_c1_y": {"Points": [{"interpolation": 2, "co": {"X": 1, "Y": -1}}]}, "file_id": "FG71JWWOKG", "shear_y": {"Points": [{"interpolation": 2, "co": {"X": 1, "Y": 0}}]}, "location_y": {"Points": [{"interpolation": 2, "co": {"X": 1, "Y": 0}}]}, "scale_y": {"Points": [{"interpolation": 2, "co": {"X": 1, "Y": 1}}]}, "perspective_c4_x": {"Points": [{"interpolation": 2, "co": {"X": 1, "Y": -1}}]}, "shear_x": {"Points": [{"interpolation": 2, "co": {"X": 1, "Y": 0}}]}, "channel_filter": {"Points": [{"interpolation": 2, "co": {"X": 1, "Y": -1}}]}}, {"time": {"Points": [{"interpolation": 2, "co": {"X": 1, "Y": 1}}]}, "display": 0, "perspective_c2_x": {"Points": [{"interpolation": 2, "co": {"X": 1, "Y": -1}}]}, "duration": 86400.0, "end": 10, "scale_x": {"Points": [{"interpolation": 2, "co": {"X": 1, "Y": 1}}]}, "effects": [], "has_audio": {"Points": [{"interpolation": 2, "co": {"X": 1, "Y": -1}}]}, "scale": 1, "perspective_c3_y": {"Points": [{"interpolation": 2, "co": {"X": 1, "Y": -1}}]}, "alpha": {"Points": [{"interpolation": 2, "co": {"X": 1, "Y": 1}}]}, "start": 0, "wave_color": {"blue": {"Points": [{"interpolation": 0, "handle_type": 0, "co": {"X": 1, "Y": 255}, "handle_left": {"X": 0.5, "Y": 1}, "handle_right": {"X": 0.5, "Y": 0}}]}, "green": {"Points": [{"interpolation": 0, "handle_type": 0, "co": {"X": 1, "Y": 123}, "handle_left": {"X": 0.5, "Y": 1}, "handle_right": {"X": 0.5, "Y": 0}}]}, "red": {"Points": [{"interpolation": 0, "handle_type": 0, "co": {"X": 1, "Y": 0}, "handle_left": {"X": 0.5, "Y": 1}, "handle_right": {"X": 0.5, "Y": 0}}]}, "alpha": {"Points": [{"interpolation": 0, "handle_type": 0, "co": {"X": 1, "Y": 255}, "handle_left": {"X": 0.5, "Y": 1}, "handle_right": {"X": 0.5, "Y": 0}}]}}, "crop_x": {"Points": [{"interpolation": 2, "co": {"X": 1, "Y": 0}}]}, "image": "/home/avishai/.openshot_qt/thumbnail/YIV9WP4V5Q.png", "layer": 0, "perspective_c1_x": {"Points": [{"interpolation": 2, "co": {"X": 1, "Y": -1}}]}, "position": 21.026666793823242, "rotation": {"Points": [{"interpolation": 2, "co": {"X": 1, "Y": 0}}]}, "mixing": 0, "waveform": false, "crop_width": {"Points": [{"interpolation": 2, "co": {"X": 1, "Y": -1}}]}, "crop_height": {"Points": [{"interpolation": 2, "co": {"X": 1, "Y": -1}}]}, "crop_y": {"Points": [{"interpolation": 2, "co": {"X": 1, "Y": 0}}]}, "volume": {"Points": [{"interpolation": 2, "co": {"X": 1, "Y": 1}}]}, "channel_mapping": {"Points": [{"interpolation": 2, "co": {"X": 1, "Y": -1}}]}, "title": "opening1.png", "has_video": {"Points": [{"interpolation": 2, "co": {"X": 1, "Y": -1}}]}, "perspective_c4_y": {"Points": [{"interpolation": 2, "co": {"X": 1, "Y": -1}}]}, "perspective_c2_y": {"Points": [{"interpolation": 2, "co": {"X": 1, "Y": -1}}]}, "reader": {"type": "QtImageReader", "height": 720, "video_timebase": {"num": 1, "den": 30}, "audio_stream_index": -1, "video_length": "2592000", "interlaced_frame": false, "duration": 86400.0, "channels": 0, "sample_rate": 0, "video_bit_rate": 0, "channel_layout": 4, "path": "/home/avishai/Documents/workspace/adaptive_hand_model/matlab/video/slides/opening1.png", "metadata": {}, "audio_bit_rate": 0, "has_video": true, "has_audio": false, "pixel_format": -1, "acodec": "", "video_stream_index": -1, "display_ratio": {"num": 4, "den": 3}, "file_size": "2764800", "fps": {"num": 30, "den": 1}, "width": 960, "top_field_first": true, "audio_timebase": {"num": 1, "den": 1}, "pixel_ratio": {"num": 1, "den": 1}, "vcodec": "", "has_single_image": true}, "perspective_c3_x": {"Points": [{"interpolation": 2, "co": {"X": 1, "Y": -1}}]}, "gravity": 4, "id": "3A3QKZGMJB", "anchor": 0, "location_x": {"Points": [{"interpolation": 2, "co": {"X": 1, "Y": 0}}]}, "perspective_c1_y": {"Points": [{"interpolation": 2, "co": {"X": 1, "Y": -1}}]}, "file_id": "YIV9WP4V5Q", "shear_y": {"Points": [{"interpolation": 2, "co": {"X": 1, "Y": 0}}]}, "location_y": {"Points": [{"interpolation": 2, "co": {"X": 1, "Y": 0}}]}, "scale_y": {"Points": [{"interpolation": 2, "co": {"X": 1, "Y": 1}}]}, "perspective_c4_x": {"Points": [{"interpolation": 2, "co": {"X": 1, "Y": -1}}]}, "shear_x": {"Points": [{"interpolation": 2, "co": {"X": 1, "Y": 0}}]}, "channel_filter": {"Points": [{"interpolation": 2, "co": {"X": 1, "Y": -1}}]}}, {"time": {"Points": [{"interpolation": 2, "co": {"X": 1, "Y": 1}}]}, "display": 0, "perspective_c2_x": {"Points": [{"interpolation": 2, "co": {"X": 1, "Y": -1}}]}, "duration": 86400.0, "end": 10, "scale_x": {"Points": [{"interpolation": 2, "co": {"X": 1, "Y": 1}}]}, "effects": [], "has_audio": {"Points": [{"interpolation": 2, "co": {"X": 1, "Y": -1}}]}, "scale": 1, "perspective_c3_y": {"Points": [{"interpolation": 2, "co": {"X": 1, "Y": -1}}]}, "alpha": {"Points": [{"interpolation": 2, "co": {"X": 1, "Y": 1}}]}, "start": 0, "wave_color": {"blue": {"Points": [{"interpolation": 0, "handle_type": 0, "co": {"X": 1, "Y": 255}, "handle_left": {"X": 0.5, "Y": 1}, "handle_right": {"X": 0.5, "Y": 0}}]}, "green": {"Points": [{"interpolation": 0, "handle_type": 0, "co": {"X": 1, "Y": 123}, "handle_left": {"X": 0.5, "Y": 1}, "handle_right": {"X": 0.5, "Y": 0}}]}, "red": {"Points": [{"interpolation": 0, "handle_type": 0, "co": {"X": 1, "Y": 0}, "handle_left": {"X": 0.5, "Y": 1}, "handle_right": {"X": 0.5, "Y": 0}}]}, "alpha": {"Points": [{"interpolation": 0, "handle_type": 0, "co": {"X": 1, "Y": 255}, "handle_left": {"X": 0.5, "Y": 1}, "handle_right": {"X": 0.5, "Y": 0}}]}}, "crop_x": {"Points": [{"interpolation": 2, "co": {"X": 1, "Y": 0}}]}, "image": "/home/avishai/.openshot_qt/thumbnail/LMEK33J1LA.png", "layer": 0, "perspective_c1_x": {"Points": [{"interpolation": 2, "co": {"X": 1, "Y": -1}}]}, "position": 40.94666679382324, "rotation": {"Points": [{"interpolation": 2, "co": {"X": 1, "Y": 0}}]}, "mixing": 0, "waveform": false, "crop_width": {"Points": [{"interpolation": 2, "co": {"X": 1, "Y": -1}}]}, "crop_height": {"Points": [{"interpolation": 2, "co": {"X": 1, "Y": -1}}]}, "crop_y": {"Points": [{"interpolation": 2, "co": {"X": 1, "Y": 0}}]}, "volume": {"Points": [{"interpolation": 2, "co": {"X": 1, "Y": 1}}]}, "channel_mapping": {"Points": [{"interpolation": 2, "co": {"X": 1, "Y": -1}}]}, "title": "opening3.png", "has_video": {"Points": [{"interpolation": 2, "co": {"X": 1, "Y": -1}}]}, "perspective_c4_y": {"Points": [{"interpolation": 2, "co": {"X": 1, "Y": -1}}]}, "perspective_c2_y": {"Points": [{"interpolation": 2, "co": {"X": 1, "Y": -1}}]}, "reader": {"type": "QtImageReader", "height": 720, "video_timebase": {"num": 1, "den": 30}, "audio_stream_index": -1, "video_length": "2592000", "interlaced_frame": false, "duration": 86400.0, "channels": 0, "sample_rate": 0, "video_bit_rate": 0, "channel_layout": 4, "path": "/home/avishai/Documents/workspace/adaptive_hand_model/matlab/video/slides/opening3.png", "metadata": {}, "audio_bit_rate": 0, "has_video": true, "has_audio": false, "pixel_format": -1, "acodec": "", "video_stream_index": -1, "display_ratio": {"num": 4, "den": 3}, "file_size": "2764800", "fps": {"num": 30, "den": 1}, "width": 960, "top_field_first": true, "audio_timebase": {"num": 1, "den": 1}, "pixel_ratio": {"num": 1, "den": 1}, "vcodec": "", "has_single_image": true}, "perspective_c3_x": {"Points": [{"interpolation": 2, "co": {"X": 1, "Y": -1}}]}, "gravity": 4, "id": "X5HE8XP5XU", "anchor": 0, "location_x": {"Points": [{"interpolation": 2, "co": {"X": 1, "Y": 0}}]}, "perspective_c1_y": {"Points": [{"interpolation": 2, "co": {"X": 1, "Y": -1}}]}, "file_id": "LMEK33J1LA", "shear_y": {"Points": [{"interpolation": 2, "co": {"X": 1, "Y": 0}}]}, "location_y": {"Points": [{"interpolation": 2, "co": {"X": 1, "Y": 0}}]}, "scale_y": {"Points": [{"interpolation": 2, "co": {"X": 1, "Y": 1}}]}, "perspective_c4_x": {"Points": [{"interpolation": 2, "co": {"X": 1, "Y": -1}}]}, "shear_x": {"Points": [{"interpolation": 2, "co": {"X": 1, "Y": 0}}]}, "channel_filter": {"Points": [{"interpolation": 2, "co": {"X": 1, "Y": -1}}]}}, {"time": {"Points": [{"interpolation": 2, "co": {"X": 1, "Y": 1}}]}, "display": 0, "perspective_c2_x": {"Points": [{"interpolation": 2, "co": {"X": 1, "Y": -1}}]}, "duration": 86400.0, "end": 10, "scale_x": {"Points": [{"interpolation": 2, "co": {"X": 1, "Y": 1}}]}, "effects": [], "has_audio": {"Points": [{"interpolation": 2, "co": {"X": 1, "Y": -1}}]}, "scale": 1, "perspective_c3_y": {"Points": [{"interpolation": 2, "co": {"X": 1, "Y": -1}}]}, "alpha": {"Points": [{"interpolation": 2, "co": {"X": 1, "Y": 1}}]}, "start": 0, "wave_color": {"blue": {"Points": [{"interpolation": 0, "handle_type": 0, "co": {"X": 1, "Y": 255}, "handle_left": {"X": 0.5, "Y": 1}, "handle_right": {"X": 0.5, "Y": 0}}]}, "green": {"Points": [{"interpolation": 0, "handle_type": 0, "co": {"X": 1, "Y": 123}, "handle_left": {"X": 0.5, "Y": 1}, "handle_right": {"X": 0.5, "Y": 0}}]}, "red": {"Points": [{"interpolation": 0, "handle_type": 0, "co": {"X": 1, "Y": 0}, "handle_left": {"X": 0.5, "Y": 1}, "handle_right": {"X": 0.5, "Y": 0}}]}, "alpha": {"Points": [{"interpolation": 0, "handle_type": 0, "co": {"X": 1, "Y": 255}, "handle_left": {"X": 0.5, "Y": 1}, "handle_right": {"X": 0.5, "Y": 0}}]}}, "crop_x": {"Points": [{"interpolation": 2, "co": {"X": 1, "Y": 0}}]}, "image": "/home/avishai/.openshot_qt/thumbnail/RHRWX2BT8P.png", "layer": 0, "perspective_c1_x": {"Points": [{"interpolation": 2, "co": {"X": 1, "Y": -1}}]}, "position": 50.94666679382324, "rotation": {"Points": [{"interpolation": 2, "co": {"X": 1, "Y": 0}}]}, "mixing": 0, "waveform": false, "crop_width": {"Points": [{"interpolation": 2, "co": {"X": 1, "Y": -1}}]}, "crop_height": {"Points": [{"interpolation": 2, "co": {"X": 1, "Y": -1}}]}, "crop_y": {"Points": [{"interpolation": 2, "co": {"X": 1, "Y": 0}}]}, "volume": {"Points": [{"interpolation": 2, "co": {"X": 1, "Y": 1}}]}, "channel_mapping": {"Points": [{"interpolation": 2, "co": {"X": 1, "Y": -1}}]}, "title": "opening4.png", "has_video": {"Points": [{"interpolation": 2, "co": {"X": 1, "Y": -1}}]}, "perspective_c4_y": {"Points": [{"interpolation": 2, "co": {"X": 1, "Y": -1}}]}, "perspective_c2_y": {"Points": [{"interpolation": 2, "co": {"X": 1, "Y": -1}}]}, "reader": {"type": "QtImageReader", "height": 720, "video_timebase": {"num": 1, "den": 30}, "audio_stream_index": -1, "video_length": "2592000", "interlaced_frame": false, "duration": 86400.0, "channels": 0, "sample_rate": 0, "video_bit_rate": 0, "channel_layout": 4, "path": "/home/avishai/Documents/workspace/adaptive_hand_model/matlab/video/slides/opening4.png", "metadata": {}, "audio_bit_rate": 0, "has_video": true, "has_audio": false, "pixel_format": -1, "acodec": "", "video_stream_index": -1, "display_ratio": {"num": 4, "den": 3}, "file_size": "2764800", "fps": {"num": 30, "den": 1}, "width": 960, "top_field_first": true, "audio_timebase": {"num": 1, "den": 1}, "pixel_ratio": {"num": 1, "den": 1}, "vcodec": "", "has_single_image": true}, "perspective_c3_x": {"Points": [{"interpolation": 2, "co": {"X": 1, "Y": -1}}]}, "gravity": 4, "id": "LYT59N8TPM", "anchor": 0, "location_x": {"Points": [{"interpolation": 2, "co": {"X": 1, "Y": 0}}]}, "perspective_c1_y": {"Points": [{"interpolation": 2, "co": {"X": 1, "Y": -1}}]}, "file_id": "RHRWX2BT8P", "shear_y": {"Points": [{"interpolation": 2, "co": {"X": 1, "Y": 0}}]}, "location_y": {"Points": [{"interpolation": 2, "co": {"X": 1, "Y": 0}}]}, "scale_y": {"Points": [{"interpolation": 2, "co": {"X": 1, "Y": 1}}]}, "perspective_c4_x": {"Points": [{"interpolation": 2, "co": {"X": 1, "Y": -1}}]}, "shear_x": {"Points": [{"interpolation": 2, "co": {"X": 1, "Y": 0}}]}, "channel_filter": {"Points": [{"interpolation": 2, "co": {"X": 1, "Y": -1}}]}}, {"time": {"Points": [{"interpolation": 2, "co": {"X": 1, "Y": 1}}]}, "display": 0, "perspective_c2_x": {"Points": [{"interpolation": 2, "co": {"X": 1, "Y": -1}}]}, "duration": 86400.0, "end": 10, "scale_x": {"Points": [{"interpolation": 2, "co": {"X": 1, "Y": 1}}]}, "effects": [], "has_audio": {"Points": [{"interpolation": 2, "co": {"X": 1, "Y": -1}}]}, "scale": 1, "perspective_c3_y": {"Points": [{"interpolation": 2, "co": {"X": 1, "Y": -1}}]}, "alpha": {"Points": [{"interpolation": 2, "co": {"X": 1, "Y": 1}}, {"interpolation": 0, "handle_type": 0, "co": {"X": 169, "Y": 1}, "handle_left": {"X": 0.5, "Y": 1}, "handle_right": {"X": 0.5, "Y": 0}}, {"interpolation": 0, "handle_type": 0, "co": {"X": 241, "Y": 0}, "handle_left": {"X": 0.5, "Y": 1}, "handle_right": {"X": 0.5, "Y": 0}}, {"interpolation": 0, "handle_type": 0, "handle_left": {"X": 0.5, "Y": 1}, "handle_right": {"X": 0.5, "Y": 0}, "co": {"X": 217, "Y": 1}}, {"interpolation": 0, "handle_type": 0, "handle_left": {"X": 0.5, "Y": 1}, "handle_right": {"X": 0.5, "Y": 0}, "co": {"X": 241, "Y": 0}}]}, "start": 0, "wave_color": {"blue": {"Points": [{"interpolation": 0, "handle_type": 0, "co": {"X": 1, "Y": 255}, "handle_right": {"X": 0.5, "Y": 0}, "handle_left": {"X": 0.5, "Y": 1}}]}, "green": {"Points": [{"interpolation": 0, "handle_type": 0, "co": {"X": 1, "Y": 123}, "handle_right": {"X": 0.5, "Y": 0}, "handle_left": {"X": 0.5, "Y": 1}}]}, "red": {"Points": [{"interpolation": 0, "handle_type": 0, "co": {"X": 1, "Y": 0}, "handle_right": {"X": 0.5, "Y": 0}, "handle_left": {"X": 0.5, "Y": 1}}]}, "alpha": {"Points": [{"interpolation": 0, "handle_type": 0, "co": {"X": 1, "Y": 255}, "handle_right": {"X": 0.5, "Y": 0}, "handle_left": {"X": 0.5, "Y": 1}}]}}, "crop_x": {"Points": [{"interpolation": 2, "co": {"X": 1, "Y": 0}}]}, "image": "/home/avishai/.openshot_qt/thumbnail/YA8O4MECE1.png", "layer": 0, "perspective_c1_x": {"Points": [{"interpolation": 2, "co": {"X": 1, "Y": -1}}]}, "position": 70.95833333333334, "rotation": {"Points": [{"interpolation": 2, "co": {"X": 1, "Y": 0}}]}, "mixing": 0, "waveform": false, "crop_width": {"Points": [{"interpolation": 2, "co": {"X": 1, "Y": -1}}]}, "crop_height": {"Points": [{"interpolation": 2, "co": {"X": 1, "Y": -1}}]}, "crop_y": {"Points": [{"interpolation": 2, "co": {"X": 1, "Y": 0}}]}, "volume": {"Points": [{"interpolation": 2, "co": {"X": 1, "Y": 1}}]}, "channel_mapping": {"Points": [{"interpolation": 2, "co": {"X": 1, "Y": -1}}]}, "title": "opening6.png", "has_video": {"Points": [{"interpolation": 2, "co": {"X": 1, "Y": -1}}]}, "perspective_c4_y": {"Points": [{"interpolation": 2, "co": {"X": 1, "Y": -1}}]}, "perspective_c2_y": {"Points": [{"interpolation": 2, "co": {"X": 1, "Y": -1}}]}, "reader": {"type": "QtImageReader", "height": 720, "video_timebase": {"num": 1, "den": 30}, "audio_stream_index": -1, "video_length": "2592000", "interlaced_frame": false, "duration": 86400.0, "channels": 0, "sample_rate": 0, "video_bit_rate": 0, "channel_layout": 4, "path": "/home/avishai/Documents/workspace/adaptive_hand_model/matlab/video/slides/opening6.png", "metadata": {}, "audio_bit_rate": 0, "has_video": true, "has_audio": false, "pixel_format": -1, "acodec": "", "video_stream_index": -1, "display_ratio": {"num": 4, "den": 3}, "file_size": "2764800", "fps": {"num": 30, "den": 1}, "width": 960, "top_field_first": true, "audio_timebase": {"num": 1, "den": 1}, "pixel_ratio": {"num": 1, "den": 1}, "vcodec": "", "has_single_image": true}, "perspective_c3_x": {"Points": [{"interpolation": 2, "co": {"X": 1, "Y": -1}}]}, "gravity": 4, "id": "LYWGXV5N3L", "anchor": 0, "location_x": {"Points": [{"interpolation": 2, "co": {"X": 1, "Y": 0}}]}, "perspective_c1_y": {"Points": [{"interpolation": 2, "co": {"X": 1, "Y": -1}}]}, "file_id": "YA8O4MECE1", "shear_y": {"Points": [{"interpolation": 2, "co": {"X": 1, "Y": 0}}]}, "location_y": {"Points": [{"interpolation": 2, "co": {"X": 1, "Y": 0}}]}, "scale_y": {"Points": [{"interpolation": 2, "co": {"X": 1, "Y": 1}}]}, "perspective_c4_x": {"Points": [{"interpolation": 2, "co": {"X": 1, "Y": -1}}]}, "shear_x": {"Points": [{"interpolation": 2, "co": {"X": 1, "Y": 0}}]}, "channel_filter": {"Points": [{"interpolation": 2, "co": {"X": 1, "Y": -1}}]}}, {"time": {"Points": [{"interpolation": 2, "co": {"X": 1, "Y": 1}}]}, "display": 0, "perspective_c2_x": {"Points": [{"interpolation": 2, "co": {"X": 1, "Y": -1}}]}, "duration": 86400.0, "end": 5.333333333333333, "scale_x": {"Points": [{"interpolation": 2, "co": {"X": 1, "Y": 1}}]}, "effects": [], "has_audio": {"Points": [{"interpolation": 2, "co": {"X": 1, "Y": -1}}]}, "scale": 1, "perspective_c3_y": {"Points": [{"interpolation": 2, "co": {"X": 1, "Y": -1}}]}, "alpha": {"Points": [{"interpolation": 2, "co": {"X": 1, "Y": 1}}]}, "start": 0, "wave_color": {"blue": {"Points": [{"interpolation": 0, "handle_type": 0, "co": {"X": 1, "Y": 255}, "handle_left": {"X": 0.5, "Y": 1}, "handle_right": {"X": 0.5, "Y": 0}}]}, "green": {"Points": [{"interpolation": 0, "handle_type": 0, "co": {"X": 1, "Y": 123}, "handle_left": {"X": 0.5, "Y": 1}, "handle_right": {"X": 0.5, "Y": 0}}]}, "red": {"Points": [{"interpolation": 0, "handle_type": 0, "co": {"X": 1, "Y": 0}, "handle_left": {"X": 0.5, "Y": 1}, "handle_right": {"X": 0.5, "Y": 0}}]}, "alpha": {"Points": [{"interpolation": 0, "handle_type": 0, "co": {"X": 1, "Y": 255}, "handle_left": {"X": 0.5, "Y": 1}, "handle_right": {"X": 0.5, "Y": 0}}]}}, "crop_x": {"Points": [{"interpolation": 2, "co": {"X": 1, "Y": 0}}]}, "image": "/home/avishai/.openshot_qt/thumbnail/ULNSBVNSH3.png", "layer": 0, "perspective_c1_x": {"Points": [{"interpolation": 2, "co": {"X": 1, "Y": -1}}]}, "position": 80.95833333333334, "rotation": {"Points": [{"interpolation": 2, "co": {"X": 1, "Y": 0}}]}, "mixing": 0, "waveform": false, "crop_width": {"Points": [{"interpolation": 2, "co": {"X": 1, "Y": -1}}]}, "crop_height": {"Points": [{"interpolation": 2, "co": {"X": 1, "Y": -1}}]}, "crop_y": {"Points": [{"interpolation": 2, "co": {"X": 1, "Y": 0}}]}, "volume": {"Points": [{"interpolation": 2, "co": {"X": 1, "Y": 1}}]}, "channel_mapping": {"Points": [{"interpolation": 2, "co": {"X": 1, "Y": -1}}]}, "title": "opening7.png", "has_video": {"Points": [{"interpolation": 2, "co": {"X": 1, "Y": -1}}]}, "perspective_c4_y": {"Points": [{"interpolation": 2, "co": {"X": 1, "Y": -1}}]}, "perspective_c2_y": {"Points": [{"interpolation": 2, "co": {"X": 1, "Y": -1}}]}, "reader": {"type": "QtImageReader", "height": 720, "video_timebase": {"num": 1, "den": 30}, "audio_stream_index": -1, "video_length": "2592000", "interlaced_frame": false, "duration": 86400.0, "channels": 0, "sample_rate": 0, "video_bit_rate": 0, "channel_layout": 4, "path": "/home/avishai/Documents/workspace/adaptive_hand_model/matlab/video/slides/opening7.png", "metadata": {}, "audio_bit_rate": 0, "has_video": true, "has_audio": false, "pixel_format": -1, "acodec": "", "video_stream_index": -1, "display_ratio": {"num": 4, "den": 3}, "file_size": "2764800", "fps": {"num": 30, "den": 1}, "width": 960, "top_field_first": true, "audio_timebase": {"num": 1, "den": 1}, "pixel_ratio": {"num": 1, "den": 1}, "vcodec": "", "has_single_image": true}, "perspective_c3_x": {"Points": [{"interpolation": 2, "co": {"X": 1, "Y": -1}}]}, "gravity": 4, "id": "XC8281YBWR", "anchor": 0, "location_x": {"Points": [{"interpolation": 2, "co": {"X": 1, "Y": 0}}]}, "perspective_c1_y": {"Points": [{"interpolation": 2, "co": {"X": 1, "Y": -1}}]}, "file_id": "ULNSBVNSH3", "shear_y": {"Points": [{"interpolation": 2, "co": {"X": 1, "Y": 0}}]}, "location_y": {"Points": [{"interpolation": 2, "co": {"X": 1, "Y": 0}}]}, "scale_y": {"Points": [{"interpolation": 2, "co": {"X": 1, "Y": 1}}]}, "perspective_c4_x": {"Points": [{"interpolation": 2, "co": {"X": 1, "Y": -1}}]}, "shear_x": {"Points": [{"interpolation": 2, "co": {"X": 1, "Y": 0}}]}, "channel_filter": {"Points": [{"interpolation": 2, "co": {"X": 1, "Y": -1}}]}}, {"time": {"Points": [{"interpolation": 2, "co": {"X": 1, "Y": 1}}]}, "display": 0, "perspective_c2_x": {"Points": [{"interpolation": 2, "co": {"X": 1, "Y": -1}}]}, "duration": 6.949999809265137, "end": 6.949999809265137, "scale_x": {"Points": [{"interpolation": 2, "co": {"X": 1, "Y": 1}}]}, "effects": [], "has_audio": {"Points": [{"interpolation": 2, "co": {"X": 1, "Y": -1}}]}, "scale": 1, "perspective_c3_y": {"Points": [{"interpolation": 2, "co": {"X": 1, "Y": -1}}]}, "alpha": {"Points": [{"interpolation": 2, "co": {"X": 1, "Y": 1}}]}, "start": 0, "wave_color": {"blue": {"Points": [{"interpolation": 0, "handle_type": 0, "co": {"X": 1, "Y": 255}, "handle_left": {"X": 0.5, "Y": 1}, "handle_right": {"X": 0.5, "Y": 0}}]}, "green": {"Points": [{"interpolation": 0, "handle_type": 0, "co": {"X": 1, "Y": 123}, "handle_left": {"X": 0.5, "Y": 1}, "handle_right": {"X": 0.5, "Y": 0}}]}, "red": {"Points": [{"interpolation": 0, "handle_type": 0, "co": {"X": 1, "Y": 0}, "handle_left": {"X": 0.5, "Y": 1}, "handle_right": {"X": 0.5, "Y": 0}}]}, "alpha": {"Points": [{"interpolation": 0, "handle_type": 0, "co": {"X": 1, "Y": 255}, "handle_left": {"X": 0.5, "Y": 1}, "handle_right": {"X": 0.5, "Y": 0}}]}}, "crop_x": {"Points": [{"interpolation": 2, "co": {"X": 1, "Y": 0}}]}, "image": "/home/avishai/.openshot_qt/thumbnail/FC16UD9ZFT.png", "layer": 0, "perspective_c1_x": {"Points": [{"interpolation": 2, "co": {"X": 1, "Y": -1}}]}, "position": 86.29166666666669, "rotation": {"Points": [{"interpolation": 2, "co": {"X": 1, "Y": 0}}]}, "mixing": 0, "waveform": false, "crop_width": {"Points": [{"interpolation": 2, "co": {"X": 1, "Y": -1}}]}, "crop_height": {"Points": [{"interpolation": 2, "co": {"X": 1, "Y": -1}}]}, "crop_y": {"Points": [{"interpolation": 2, "co": {"X": 1, "Y": 0}}]}, "volume": {"Points": [{"interpolation": 2, "co": {"X": 1, "Y": 1}}]}, "channel_mapping": {"Points": [{"interpolation": 2, "co": {"X": 1, "Y": -1}}]}, "title": "trajs.avi", "has_video": {"Points": [{"interpolation": 2, "co": {"X": 1, "Y": -1}}]}, "perspective_c4_y": {"Points": [{"interpolation": 2, "co": {"X": 1, "Y": -1}}]}, "perspective_c2_y": {"Points": [{"interpolation": 2, "co": {"X": 1, "Y": -1}}]}, "reader": {"type": "FFmpegReader", "height": 1503, "video_timebase": {"num": 1, "den": 60}, "audio_stream_index": -1, "video_length": "417", "interlaced_frame": false, "duration": 6.949999809265137, "channels": 0, "sample_rate": 0, "video_bit_rate": 70132622, "channel_layout": 4, "path": "/home/avishai/Documents/workspace/adaptive_hand_model/matlab/video/trajs.avi", "metadata": {}, "audio_bit_rate": 0, "has_video": true, "has_audio": false, "pixel_format": 12, "acodec": "", "video_stream_index": 0, "display_ratio": {"num": 1502, "den": 1503}, "file_size": "60927716", "fps": {"num": 60, "den": 1}, "width": 1502, "top_field_first": true, "audio_timebase": {"num": 1, "den": 1}, "pixel_ratio": {"num": 1, "den": 1}, "vcodec": "mjpeg", "has_single_image": false}, "perspective_c3_x": {"Points": [{"interpolation": 2, "co": {"X": 1, "Y": -1}}]}, "gravity": 4, "id": "UL3TS2PDR4", "anchor": 0, "location_x": {"Points": [{"interpolation": 2, "co": {"X": 1, "Y": 0}}]}, "perspective_c1_y": {"Points": [{"interpolation": 2, "co": {"X": 1, "Y": -1}}]}, "file_id": "FC16UD9ZFT", "shear_y": {"Points": [{"interpolation": 2, "co": {"X": 1, "Y": 0}}]}, "location_y": {"Points": [{"interpolation": 2, "co": {"X": 1, "Y": 0}}]}, "scale_y": {"Points": [{"interpolation": 2, "co": {"X": 1, "Y": 1}}]}, "perspective_c4_x": {"Points": [{"interpolation": 2, "co": {"X": 1, "Y": -1}}]}, "shear_x": {"Points": [{"interpolation": 2, "co": {"X": 1, "Y": 0}}]}, "channel_filter": {"Points": [{"interpolation": 2, "co": {"X": 1, "Y": -1}}]}}, {"time": {"Points": [{"interpolation": 2, "co": {"X": 1, "Y": 1}}]}, "display": 0, "perspective_c2_x": {"Points": [{"interpolation": 2, "co": {"X": 1, "Y": -1}}]}, "duration": 86400.0, "end": 4, "scale_x": {"Points": [{"interpolation": 2, "co": {"X": 1, "Y": 1}}]}, "effects": [], "has_audio": {"Points": [{"interpolation": 2, "co": {"X": 1, "Y": -1}}]}, "scale": 1, "perspective_c3_y": {"Points": [{"interpolation": 2, "co": {"X": 1, "Y": -1}}]}, "alpha": {"Points": [{"interpolation": 2, "co": {"X": 1, "Y": 1}}]}, "start": 0, "wave_color": {"blue": {"Points": [{"interpolation": 0, "handle_type": 0, "co": {"X": 1, "Y": 255}, "handle_left": {"X": 0.5, "Y": 1}, "handle_right": {"X": 0.5, "Y": 0}}]}, "green": {"Points": [{"interpolation": 0, "handle_type": 0, "co": {"X": 1, "Y": 123}, "handle_left": {"X": 0.5, "Y": 1}, "handle_right": {"X": 0.5, "Y": 0}}]}, "red": {"Points": [{"interpolation": 0, "handle_type": 0, "co": {"X": 1, "Y": 0}, "handle_left": {"X": 0.5, "Y": 1}, "handle_right": {"X": 0.5, "Y": 0}}]}, "alpha": {"Points": [{"interpolation": 0, "handle_type": 0, "co": {"X": 1, "Y": 255}, "handle_left": {"X": 0.5, "Y": 1}, "handle_right": {"X": 0.5, "Y": 0}}]}}, "crop_x": {"Points": [{"interpolation": 2, "co": {"X": 1, "Y": 0}}]}, "image": "/home/avishai/.openshot_qt/thumbnail/EWEUFI7OUN.png", "layer": 0, "perspective_c1_x": {"Points": [{"interpolation": 2, "co": {"X": 1, "Y": -1}}]}, "position": 103.24166647593182, "rotation": {"Points": [{"interpolation": 2, "co": {"X": 1, "Y": 0}}]}, "mixing": 0, "waveform": false, "crop_width": {"Points": [{"interpolation": 2, "co": {"X": 1, "Y": -1}}]}, "crop_height": {"Points": [{"interpolation": 2, "co": {"X": 1, "Y": -1}}]}, "crop_y": {"Points": [{"interpolation": 2, "co": {"X": 1, "Y": 0}}]}, "volume": {"Points": [{"interpolation": 2, "co": {"X": 1, "Y": 1}}]}, "channel_mapping": {"Points": [{"interpolation": 2, "co": {"X": 1, "Y": -1}}]}, "title": "opening8b.png", "has_video": {"Points": [{"interpolation": 2, "co": {"X": 1, "Y": -1}}]}, "perspective_c4_y": {"Points": [{"interpolation": 2, "co": {"X": 1, "Y": -1}}]}, "perspective_c2_y": {"Points": [{"interpolation": 2, "co": {"X": 1, "Y": -1}}]}, "reader": {"type": "QtImageReader", "height": 720, "video_timebase": {"num": 1, "den": 30}, "audio_stream_index": -1, "video_length": "2592000", "interlaced_frame": false, "duration": 86400.0, "channels": 0, "sample_rate": 0, "video_bit_rate": 0, "channel_layout": 4, "path": "/home/avishai/Documents/workspace/adaptive_hand_model/matlab/video/slides/opening8b.png", "metadata": {}, "audio_bit_rate": 0, "has_video": true, "has_audio": false, "pixel_format": -1, "acodec": "", "video_stream_index": -1, "display_ratio": {"num": 4, "den": 3}, "file_size": "2764800", "fps": {"num": 30, "den": 1}, "width": 960, "top_field_first": true, "audio_timebase": {"num": 1, "den": 1}, "pixel_ratio": {"num": 1, "den": 1}, "vcodec": "", "has_single_image": true}, "perspective_c3_x": {"Points": [{"interpolation": 2, "co": {"X": 1, "Y": -1}}]}, "gravity": 4, "id": "K1HDHMF9R0", "anchor": 0, "location_x": {"Points": [{"interpolation": 2, "co": {"X": 1, "Y": 0}}]}, "perspective_c1_y": {"Points": [{"interpolation": 2, "co": {"X": 1, "Y": -1}}]}, "file_id": "EWEUFI7OUN", "shear_y": {"Points": [{"interpolation": 2, "co": {"X": 1, "Y": 0}}]}, "location_y": {"Points": [{"interpolation": 2, "co": {"X": 1, "Y": 0}}]}, "scale_y": {"Points": [{"interpolation": 2, "co": {"X": 1, "Y": 1}}]}, "perspective_c4_x": {"Points": [{"interpolation": 2, "co": {"X": 1, "Y": -1}}]}, "shear_x": {"Points": [{"interpolation": 2, "co": {"X": 1, "Y": 0}}]}, "channel_filter": {"Points": [{"interpolation": 2, "co": {"X": 1, "Y": -1}}]}}, {"time": {"Points": [{"interpolation": 2, "co": {"X": 1, "Y": 1}}]}, "display": 0, "perspective_c2_x": {"Points": [{"interpolation": 2, "co": {"X": 1, "Y": -1}}]}, "duration": 4.75, "end": 4.75, "scale_x": {"Points": [{"interpolation": 2, "co": {"X": 1, "Y": 1}}]}, "effects": [], "has_audio": {"Points": [{"interpolation": 2, "co": {"X": 1, "Y": -1}}]}, "scale": 1, "perspective_c3_y": {"Points": [{"interpolation": 2, "co": {"X": 1, "Y": -1}}]}, "alpha": {"Points": [{"interpolation": 2, "co": {"X": 1, "Y": 1}}]}, "start": 0, "wave_color": {"blue": {"Points": [{"interpolation": 0, "handle_type": 0, "co": {"X": 1, "Y": 255}, "handle_left": {"X": 0.5, "Y": 1}, "handle_right": {"X": 0.5, "Y": 0}}]}, "green": {"Points": [{"interpolation": 0, "handle_type": 0, "co": {"X": 1, "Y": 123}, "handle_left": {"X": 0.5, "Y": 1}, "handle_right": {"X": 0.5, "Y": 0}}]}, "red": {"Points": [{"interpolation": 0, "handle_type": 0, "co": {"X": 1, "Y": 0}, "handle_left": {"X": 0.5, "Y": 1}, "handle_right": {"X": 0.5, "Y": 0}}]}, "alpha": {"Points": [{"interpolation": 0, "handle_type": 0, "co": {"X": 1, "Y": 255}, "handle_left": {"X": 0.5, "Y": 1}, "handle_right": {"X": 0.5, "Y": 0}}]}}, "crop_x": {"Points": [{"interpolation": 2, "co": {"X": 1, "Y": 0}}]}, "image": "/home/avishai/.openshot_qt/thumbnail/KZLNLAEG7J.png", "layer": 0, "perspective_c1_x": {"Points": [{"interpolation": 2, "co": {"X": 1, "Y": -1}}]}, "position": 107.24166647593182, "rotation": {"Points": [{"interpolation": 2, "co": {"X": 1, "Y": 0}}]}, "mixing": 0, "waveform": false, "crop_width": {"Points": [{"interpolation": 2, "co": {"X": 1, "Y": -1}}]}, "crop_height": {"Points": [{"interpolation": 2, "co": {"X": 1, "Y": -1}}]}, "crop_y": {"Points": [{"interpolation": 2, "co": {"X": 1, "Y": 0}}]}, "volume": {"Points": [{"interpolation": 2, "co": {"X": 1, "Y": 1}}]}, "channel_mapping": {"Points": [{"interpolation": 2, "co": {"X": 1, "Y": -1}}]}, "title": "trajs_fc_1.avi", "has_video": {"Points": [{"interpolation": 2, "co": {"X": 1, "Y": -1}}]}, "perspective_c4_y": {"Points": [{"interpolation": 2, "co": {"X": 1, "Y": -1}}]}, "perspective_c2_y": {"Points": [{"interpolation": 2, "co": {"X": 1, "Y": -1}}]}, "reader": {"type": "FFmpegReader", "height": 1002, "video_timebase": {"num": 1, "den": 60}, "audio_stream_index": -1, "video_length": "285", "interlaced_frame": false, "duration": 4.75, "channels": 0, "sample_rate": 0, "video_bit_rate": 79206750, "channel_layout": 4, "path": "/home/avishai/Documents/workspace/adaptive_hand_model/matlab/video/trajs_fc_1.avi", "metadata": {}, "audio_bit_rate": 0, "has_video": true, "has_audio": false, "pixel_format": 12, "acodec": "", "video_stream_index": 0, "display_ratio": {"num": 2, "den": 1}, "file_size": "47029008", "fps": {"num": 60, "den": 1}, "width": 2004, "top_field_first": true, "audio_timebase": {"num": 1, "den": 1}, "pixel_ratio": {"num": 1, "den": 1}, "vcodec": "mjpeg", "has_single_image": false}, "perspective_c3_x": {"Points": [{"interpolation": 2, "co": {"X": 1, "Y": -1}}]}, "gravity": 4, "id": "E30S9MIQFA", "anchor": 0, "location_x": {"Points": [{"interpolation": 2, "co": {"X": 1, "Y": 0}}]}, "perspective_c1_y": {"Points": [{"interpolation": 2, "co": {"X": 1, "Y": -1}}]}, "file_id": "KZLNLAEG7J", "shear_y": {"Points": [{"interpolation": 2, "co": {"X": 1, "Y": 0}}]}, "location_y": {"Points": [{"interpolation": 2, "co": {"X": 1, "Y": 0}}]}, "scale_y": {"Points": [{"interpolation": 2, "co": {"X": 1, "Y": 1}}]}, "perspective_c4_x": {"Points": [{"interpolation": 2, "co": {"X": 1, "Y": -1}}]}, "shear_x": {"Points": [{"interpolation": 2, "co": {"X": 1, "Y": 0}}]}, "channel_filter": {"Points": [{"interpolation": 2, "co": {"X": 1, "Y": -1}}]}}, {"time": {"Points": [{"interpolation": 2, "co": {"X": 1, "Y": 1}}]}, "display": 0, "perspective_c2_x": {"Points": [{"interpolation": 2, "co": {"X": 1, "Y": -1}}]}, "duration": 4.366666793823242, "end": 4.366666793823242, "scale_x": {"Points": [{"interpolation": 2, "co": {"X": 1, "Y": 1}}]}, "effects": [], "has_audio": {"Points": [{"interpolation": 2, "co": {"X": 1, "Y": -1}}]}, "scale": 1, "perspective_c3_y": {"Points": [{"interpolation": 2, "co": {"X": 1, "Y": -1}}]}, "alpha": {"Points": [{"interpolation": 2, "co": {"X": 1, "Y": 1}}]}, "start": 0, "wave_color": {"blue": {"Points": [{"interpolation": 0, "handle_type": 0, "co": {"X": 1, "Y": 255}, "handle_left": {"X": 0.5, "Y": 1}, "handle_right": {"X": 0.5, "Y": 0}}]}, "green": {"Points": [{"interpolation": 0, "handle_type": 0, "co": {"X": 1, "Y": 123}, "handle_left": {"X": 0.5, "Y": 1}, "handle_right": {"X": 0.5, "Y": 0}}]}, "red": {"Points": [{"interpolation": 0, "handle_type": 0, "co": {"X": 1, "Y": 0}, "handle_left": {"X": 0.5, "Y": 1}, "handle_right": {"X": 0.5, "Y": 0}}]}, "alpha": {"Points": [{"interpolation": 0, "handle_type": 0, "co": {"X": 1, "Y": 255}, "handle_left": {"X": 0.5, "Y": 1}, "handle_right": {"X": 0.5, "Y": 0}}]}}, "crop_x": {"Points": [{"interpolation": 2, "co": {"X": 1, "Y": 0}}]}, "image": "/home/avishai/.openshot_qt/thumbnail/D1DPZWUXYA.png", "layer": 0, "perspective_c1_x": {"Points": [{"interpolation": 2, "co": {"X": 1, "Y": -1}}]}, "position": 111.99166647593182, "rotation": {"Points": [{"interpolation": 2, "co": {"X": 1, "Y": 0}}]}, "mixing": 0, "waveform": false, "crop_width": {"Points": [{"interpolation": 2, "co": {"X": 1, "Y": -1}}]}, "crop_height": {"Points": [{"interpolation": 2, "co": {"X": 1, "Y": -1}}]}, "crop_y": {"Points": [{"interpolation": 2, "co": {"X": 1, "Y": 0}}]}, "volume": {"Points": [{"interpolation": 2, "co": {"X": 1, "Y": 1}}]}, "channel_mapping": {"Points": [{"interpolation": 2, "co": {"X": 1, "Y": -1}}]}, "title": "trajs_fc_2.avi", "has_video": {"Points": [{"interpolation": 2, "co": {"X": 1, "Y": -1}}]}, "perspective_c4_y": {"Points": [{"interpolation": 2, "co": {"X": 1, "Y": -1}}]}, "perspective_c2_y": {"Points": [{"interpolation": 2, "co": {"X": 1, "Y": -1}}]}, "reader": {"type": "FFmpegReader", "height": 1002, "video_timebase": {"num": 1, "den": 60}, "audio_stream_index": -1, "video_length": "262", "interlaced_frame": false, "duration": 4.366666793823242, "channels": 0, "sample_rate": 0, "video_bit_rate": 78925778, "channel_layout": 4, "path": "/home/avishai/Documents/workspace/adaptive_hand_model/matlab/video/trajs_fc_2.avi", "metadata": {}, "audio_bit_rate": 0, "has_video": true, "has_audio": false, "pixel_format": 12, "acodec": "", "video_stream_index": 0, "display_ratio": {"num": 2, "den": 1}, "file_size": "43080324", "fps": {"num": 60, "den": 1}, "width": 2004, "top_field_first": true, "audio_timebase": {"num": 1, "den": 1}, "pixel_ratio": {"num": 1, "den": 1}, "vcodec": "mjpeg", "has_single_image": false}, "perspective_c3_x": {"Points": [{"interpolation": 2, "co": {"X": 1, "Y": -1}}]}, "gravity": 4, "id": "56I4I8MV7U", "anchor": 0, "location_x": {"Points": [{"interpolation": 2, "co": {"X": 1, "Y": 0}}]}, "perspective_c1_y": {"Points": [{"interpolation": 2, "co": {"X": 1, "Y": -1}}]}, "file_id": "D1DPZWUXYA", "shear_y": {"Points": [{"interpolation": 2, "co": {"X": 1, "Y": 0}}]}, "location_y": {"Points": [{"interpolation": 2, "co": {"X": 1, "Y": 0}}]}, "scale_y": {"Points": [{"interpolation": 2, "co": {"X": 1, "Y": 1}}]}, "perspective_c4_x": {"Points": [{"interpolation": 2, "co": {"X": 1, "Y": -1}}]}, "shear_x": {"Points": [{"interpolation": 2, "co": {"X": 1, "Y": 0}}]}, "channel_filter": {"Points": [{"interpolation": 2, "co": {"X": 1, "Y": -1}}]}}, {"time": {"Points": [{"interpolation": 2, "co": {"X": 1, "Y": 1}}]}, "display": 0, "perspective_c2_x": {"Points": [{"interpolation": 2, "co": {"X": 1, "Y": -1}}]}, "duration": 6.949999809265137, "end": 6.949999809265137, "scale_x": {"Points": [{"interpolation": 2, "co": {"X": 1, "Y": 1}}]}, "effects": [], "has_audio": {"Points": [{"interpolation": 2, "co": {"X": 1, "Y": -1}}]}, "scale": 1, "perspective_c3_y": {"Points": [{"interpolation": 2, "co": {"X": 1, "Y": -1}}]}, "alpha": {"Points": [{"interpolation": 2, "co": {"X": 1, "Y": 1}}]}, "start": 0, "wave_color": {"blue": {"Points": [{"interpolation": 0, "handle_type": 0, "co": {"X": 1, "Y": 255}, "handle_left": {"X": 0.5, "Y": 1}, "handle_right": {"X": 0.5, "Y": 0}}]}, "green": {"Points": [{"interpolation": 0, "handle_type": 0, "co": {"X": 1, "Y": 123}, "handle_left": {"X": 0.5, "Y": 1}, "handle_right": {"X": 0.5, "Y": 0}}]}, "red": {"Points": [{"interpolation": 0, "handle_type": 0, "co": {"X": 1, "Y": 0}, "handle_left": {"X": 0.5, "Y": 1}, "handle_right": {"X": 0.5, "Y": 0}}]}, "alpha": {"Points": [{"interpolation": 0, "handle_type": 0, "co": {"X": 1, "Y": 255}, "handle_left": {"X": 0.5, "Y": 1}, "handle_right": {"X": 0.5, "Y": 0}}]}}, "crop_x": {"Points": [{"interpolation": 2, "co": {"X": 1, "Y": 0}}]}, "image": "/home/avishai/.openshot_qt/thumbnail/NNI1FVOBKE.png", "layer": 0, "perspective_c1_x": {"Points": [{"interpolation": 2, "co": {"X": 1, "Y": -1}}]}, "position": 116.35833326975506, "rotation": {"Points": [{"interpolation": 2, "co": {"X": 1, "Y": 0}}]}, "mixing": 0, "waveform": false, "crop_width": {"Points": [{"interpolation": 2, "co": {"X": 1, "Y": -1}}]}, "crop_height": {"Points": [{"interpolation": 2, "co": {"X": 1, "Y": -1}}]}, "crop_y": {"Points": [{"interpolation": 2, "co": {"X": 1, "Y": 0}}]}, "volume": {"Points": [{"interpolation": 2, "co": {"X": 1, "Y": 1}}]}, "channel_mapping": {"Points": [{"interpolation": 2, "co": {"X": 1, "Y": -1}}]}, "title": "trajs_fc_3.avi", "has_video": {"Points": [{"interpolation": 2, "co": {"X": 1, "Y": -1}}]}, "perspective_c4_y": {"Points": [{"interpolation": 2, "co": {"X": 1, "Y": -1}}]}, "perspective_c2_y": {"Points": [{"interpolation": 2, "co": {"X": 1, "Y": -1}}]}, "reader": {"type": "FFmpegReader", "height": 1002, "video_timebase": {"num": 1, "den": 60}, "audio_stream_index": -1, "video_length": "417", "interlaced_frame": false, "duration": 6.949999809265137, "channels": 0, "sample_rate": 0, "video_bit_rate": 79792890, "channel_layout": 4, "path": "/home/avishai/Documents/workspace/adaptive_hand_model/matlab/video/trajs_fc_3.avi", "metadata": {}, "audio_bit_rate": 0, "has_video": true, "has_audio": false, "pixel_format": 12, "acodec": "", "video_stream_index": 0, "display_ratio": {"num": 2, "den": 1}, "file_size": "69320074", "fps": {"num": 60, "den": 1}, "width": 2004, "top_field_first": true, "audio_timebase": {"num": 1, "den": 1}, "pixel_ratio": {"num": 1, "den": 1}, "vcodec": "mjpeg", "has_single_image": false}, "perspective_c3_x": {"Points": [{"interpolation": 2, "co": {"X": 1, "Y": -1}}]}, "gravity": 4, "id": "O2H2SXKGGU", "anchor": 0, "location_x": {"Points": [{"interpolation": 2, "co": {"X": 1, "Y": 0}}]}, "perspective_c1_y": {"Points": [{"interpolation": 2, "co": {"X": 1, "Y": -1}}]}, "file_id": "NNI1FVOBKE", "shear_y": {"Points": [{"interpolation": 2, "co": {"X": 1, "Y": 0}}]}, "location_y": {"Points": [{"interpolation": 2, "co": {"X": 1, "Y": 0}}]}, "scale_y": {"Points": [{"interpolation": 2, "co": {"X": 1, "Y": 1}}]}, "perspective_c4_x": {"Points": [{"interpolation": 2, "co": {"X": 1, "Y": -1}}]}, "shear_x": {"Points": [{"interpolation": 2, "co": {"X": 1, "Y": 0}}]}, "channel_filter": {"Points": [{"interpolation": 2, "co": {"X": 1, "Y": -1}}]}}, {"time": {"Points": [{"interpolation": 2, "co": {"X": 1, "Y": 1}}]}, "display": 0, "perspective_c2_x": {"Points": [{"interpolation": 2, "co": {"X": 1, "Y": -1}}]}, "duration": 86400.0, "end": 10, "scale_x": {"Points": [{"interpolation": 2, "co": {"X": 1, "Y": 1}}]}, "effects": [], "has_audio": {"Points": [{"interpolation": 2, "co": {"X": 1, "Y": -1}}]}, "scale": 1, "perspective_c3_y": {"Points": [{"interpolation": 2, "co": {"X": 1, "Y": -1}}]}, "alpha": {"Points": [{"interpolation": 2, "co": {"X": 1, "Y": 1}}]}, "start": 0, "wave_color": {"blue": {"Points": [{"interpolation": 0, "handle_type": 0, "co": {"X": 1, "Y": 255}, "handle_left": {"X": 0.5, "Y": 1}, "handle_right": {"X": 0.5, "Y": 0}}]}, "green": {"Points": [{"interpolation": 0, "handle_type": 0, "co": {"X": 1, "Y": 123}, "handle_left": {"X": 0.5, "Y": 1}, "handle_right": {"X": 0.5, "Y": 0}}]}, "red": {"Points": [{"interpolation": 0, "handle_type": 0, "co": {"X": 1, "Y": 0}, "handle_left": {"X": 0.5, "Y": 1}, "handle_right": {"X": 0.5, "Y": 0}}]}, "alpha": {"Points": [{"interpolation": 0, "handle_type": 0, "co": {"X": 1, "Y": 255}, "handle_left": {"X": 0.5, "Y": 1}, "handle_right": {"X": 0.5, "Y": 0}}]}}, "crop_x": {"Points": [{"interpolation": 2, "co": {"X": 1, "Y": 0}}]}, "image": "/home/avishai/.openshot_qt/thumbnail/700EU1BLAQ.png", "layer": 0, "perspective_c1_x": {"Points": [{"interpolation": 2, "co": {"X": 1, "Y": -1}}]}, "position": 93.44166647593183, "rotation": {"Points": [{"interpolation": 2, "co": {"X": 1, "Y": 0}}]}, "mixing": 0, "waveform": false, "crop_width": {"Points": [{"interpolation": 2, "co": {"X": 1, "Y": -1}}]}, "crop_height": {"Points": [{"interpolation": 2, "co": {"X": 1, "Y": -1}}]}, "crop_y": {"Points": [{"interpolation": 2, "co": {"X": 1, "Y": 0}}]}, "volume": {"Points": [{"interpolation": 2, "co": {"X": 1, "Y": 1}}]}, "channel_mapping": {"Points": [{"interpolation": 2, "co": {"X": 1, "Y": -1}}]}, "title": "opening8.png", "has_video": {"Points": [{"interpolation": 2, "co": {"X": 1, "Y": -1}}]}, "perspective_c4_y": {"Points": [{"interpolation": 2, "co": {"X": 1, "Y": -1}}]}, "perspective_c2_y": {"Points": [{"interpolation": 2, "co": {"X": 1, "Y": -1}}]}, "reader": {"type": "QtImageReader", "height": 720, "video_timebase": {"num": 1, "den": 30}, "audio_stream_index": -1, "video_length": "2592000", "interlaced_frame": false, "duration": 86400.0, "channels": 0, "sample_rate": 0, "video_bit_rate": 0, "channel_layout": 4, "path": "/home/avishai/Documents/workspace/adaptive_hand_model/matlab/video/slides/opening8.png", "metadata": {}, "audio_bit_rate": 0, "has_video": true, "has_audio": false, "pixel_format": -1, "acodec": "", "video_stream_index": -1, "display_ratio": {"num": 4, "den": 3}, "file_size": "2764800", "fps": {"num": 30, "den": 1}, "width": 960, "top_field_first": true, "audio_timebase": {"num": 1, "den": 1}, "pixel_ratio": {"num": 1, "den": 1}, "vcodec": "", "has_single_image": true}, "perspective_c3_x": {"Points": [{"interpolation": 2, "co": {"X": 1, "Y": -1}}]}, "gravity": 4, "id": "891QVU4B22", "anchor": 0, "location_x": {"Points": [{"interpolation": 2, "co": {"X": 1, "Y": 0}}]}, "perspective_c1_y": {"Points": [{"interpolation": 2, "co": {"X": 1, "Y": -1}}]}, "file_id": "700EU1BLAQ", "shear_y": {"Points": [{"interpolation": 2, "co": {"X": 1, "Y": 0}}]}, "location_y": {"Points": [{"interpolation": 2, "co": {"X": 1, "Y": 0}}]}, "scale_y": {"Points": [{"interpolation": 2, "co": {"X": 1, "Y": 1}}]}, "perspective_c4_x": {"Points": [{"interpolation": 2, "co": {"X": 1, "Y": -1}}]}, "shear_x": {"Points": [{"interpolation": 2, "co": {"X": 1, "Y": 0}}]}, "channel_filter": {"Points": [{"interpolation": 2, "co": {"X": 1, "Y": -1}}]}}], "key": ["clips"], "partial": false}, {"value": {"position": 61.158333333333346, "image": "/home/avishai/.openshot_qt/thumbnail/0S38URN00T.png", "layer": 0, "start": 0, "id": "XKMPBP80N8", "end": 10}, "type": "update", "old_values": {"time": {"Points": [{"interpolation": 2, "co": {"X": 1, "Y": 1}}]}, "display": 0, "perspective_c2_x": {"Points": [{"interpolation": 2, "co": {"X": 1, "Y": -1}}]}, "duration": 86400.0, "end": 10.0, "scale_x": {"Points": [{"interpolation": 2, "co": {"X": 1, "Y": 1}}]}, "effects": [], "has_audio": {"Points": [{"interpolation": 2, "co": {"X": 1, "Y": -1}}]}, "scale": 1, "perspective_c3_y": {"Points": [{"interpolation": 2, "co": {"X": 1, "Y": -1}}]}, "alpha": {"Points": [{"interpolation": 2, "co": {"X": 1, "Y": 1}}]}, "start": 0, "wave_color": {"blue": {"Points": [{"interpolation": 0, "handle_type": 0, "co": {"X": 1, "Y": 255}, "handle_left": {"X": 0.5, "Y": 1}, "handle_right": {"X": 0.5, "Y": 0}}]}, "green": {"Points": [{"interpolation": 0, "handle_type": 0, "co": {"X": 1, "Y": 123}, "handle_left": {"X": 0.5, "Y": 1}, "handle_right": {"X": 0.5, "Y": 0}}]}, "red": {"Points": [{"interpolation": 0, "handle_type": 0, "co": {"X": 1, "Y": 0}, "handle_left": {"X": 0.5, "Y": 1}, "handle_right": {"X": 0.5, "Y": 0}}]}, "alpha": {"Points": [{"interpolation": 0, "handle_type": 0, "co": {"X": 1, "Y": 255}, "handle_left": {"X": 0.5, "Y": 1}, "handle_right": {"X": 0.5, "Y": 0}}]}}, "crop_x": {"Points": [{"interpolation": 2, "co": {"X": 1, "Y": 0}}]}, "image": "/home/avishai/.openshot_qt/thumbnail/0S38URN00T.png", "layer": 1, "perspective_c1_x": {"Points": [{"interpolation": 2, "co": {"X": 1, "Y": -1}}]}, "position": 53.48, "rotation": {"Points": [{"interpolation": 2, "co": {"X": 1, "Y": 0}}]}, "mixing": 0, "waveform": false, "crop_width": {"Points": [{"interpolation": 2, "co": {"X": 1, "Y": -1}}]}, "crop_height": {"Points": [{"interpolation": 2, "co": {"X": 1, "Y": -1}}]}, "crop_y": {"Points": [{"interpolation": 2, "co": {"X": 1, "Y": 0}}]}, "volume": {"Points": [{"interpolation": 2, "co": {"X": 1, "Y": 1}}]}, "channel_mapping": {"Points": [{"interpolation": 2, "co": {"X": 1, "Y": -1}}]}, "title": "opening5.png", "has_video": {"Points": [{"interpolation": 2, "co": {"X": 1, "Y": -1}}]}, "perspective_c4_y": {"Points": [{"interpolation": 2, "co": {"X": 1, "Y": -1}}]}, "perspective_c2_y": {"Points": [{"interpolation": 2, "co": {"X": 1, "Y": -1}}]}, "reader": {"type": "QtImageReader", "height": 720, "video_timebase": {"num": 1, "den": 30}, "audio_stream_index": -1, "video_length": "2592000", "interlaced_frame": false, "duration": 86400.0, "channels": 0, "sample_rate": 0, "video_bit_rate": 0, "channel_layout": 4, "path": "/home/avishai/Documents/workspace/adaptive_hand_model/matlab/video/slides/opening5.png", "metadata": {}, "audio_bit_rate": 0, "has_video": true, "has_audio": false, "pixel_format": -1, "acodec": "", "video_stream_index": -1, "display_ratio": {"num": 4, "den": 3}, "file_size": "2764800", "fps": {"num": 30, "den": 1}, "width": 960, "top_field_first": true, "audio_timebase": {"num": 1, "den": 1}, "pixel_ratio": {"num": 1, "den": 1}, "vcodec": "", "has_single_image": true}, "perspective_c3_x": {"Points": [{"interpolation": 2, "co": {"X": 1, "Y": -1}}]}, "gravity": 4, "id": "XKMPBP80N8", "anchor": 0, "location_x": {"Points": [{"interpolation": 2, "co": {"X": 1, "Y": 0}}]}, "perspective_c1_y": {"Points": [{"interpolation": 2, "co": {"X": 1, "Y": -1}}]}, "file_id": "0S38URN00T", "shear_y": {"Points": [{"interpolation": 2, "co": {"X": 1, "Y": 0}}]}, "location_y": {"Points": [{"interpolation": 2, "co": {"X": 1, "Y": 0}}]}, "scale_y": {"Points": [{"interpolation": 2, "co": {"X": 1, "Y": 1}}]}, "perspective_c4_x": {"Points": [{"interpolation": 2, "co": {"X": 1, "Y": -1}}]}, "shear_x": {"Points": [{"interpolation": 2, "co": {"X": 1, "Y": 0}}]}, "channel_filter": {"Points": [{"interpolation": 2, "co": {"X": 1, "Y": -1}}]}}, "key": ["clips", {"id": "XKMPBP80N8"}], "partial": false}, {"value": null, "type": "delete", "old_values": {"time": {"Points": [{"interpolation": 2, "co": {"X": 1, "Y": 1}}]}, "display": 0, "perspective_c2_x": {"Points": [{"interpolation": 2, "co": {"X": 1, "Y": -1}}]}, "duration": 86400.0, "end": 10, "scale_x": {"Points": [{"interpolation": 2, "co": {"X": 1, "Y": 1}}]}, "effects": [], "has_audio": {"Points": [{"interpolation": 2, "co": {"X": 1, "Y": -1}}]}, "scale": 1, "perspective_c3_y": {"Points": [{"interpolation": 2, "co": {"X": 1, "Y": -1}}]}, "alpha": {"Points": [{"interpolation": 2, "co": {"X": 1, "Y": 1}}]}, "start": 0, "wave_color": {"blue": {"Points": [{"interpolation": 0, "handle_type": 0, "co": {"X": 1, "Y": 255}, "handle_left": {"X": 0.5, "Y": 1}, "handle_right": {"X": 0.5, "Y": 0}}]}, "green": {"Points": [{"interpolation": 0, "handle_type": 0, "co": {"X": 1, "Y": 123}, "handle_left": {"X": 0.5, "Y": 1}, "handle_right": {"X": 0.5, "Y": 0}}]}, "red": {"Points": [{"interpolation": 0, "handle_type": 0, "co": {"X": 1, "Y": 0}, "handle_left": {"X": 0.5, "Y": 1}, "handle_right": {"X": 0.5, "Y": 0}}]}, "alpha": {"Points": [{"interpolation": 0, "handle_type": 0, "co": {"X": 1, "Y": 255}, "handle_left": {"X": 0.5, "Y": 1}, "handle_right": {"X": 0.5, "Y": 0}}]}}, "crop_x": {"Points": [{"interpolation": 2, "co": {"X": 1, "Y": 0}}]}, "image": "/home/avishai/.openshot_qt/thumbnail/0S38URN00T.png", "layer": 0, "perspective_c1_x": {"Points": [{"interpolation": 2, "co": {"X": 1, "Y": -1}}]}, "position": 61.158333333333346, "rotation": {"Points": [{"interpolation": 2, "co": {"X": 1, "Y": 0}}]}, "mixing": 0, "waveform": false, "crop_width": {"Points": [{"interpolation": 2, "co": {"X": 1, "Y": -1}}]}, "crop_height": {"Points": [{"interpolation": 2, "co": {"X": 1, "Y": -1}}]}, "crop_y": {"Points": [{"interpolation": 2, "co": {"X": 1, "Y": 0}}]}, "volume": {"Points": [{"interpolation": 2, "co": {"X": 1, "Y": 1}}]}, "channel_mapping": {"Points": [{"interpolation": 2, "co": {"X": 1, "Y": -1}}]}, "title": "opening5.png", "has_video": {"Points": [{"interpolation": 2, "co": {"X": 1, "Y": -1}}]}, "perspective_c4_y": {"Points": [{"interpolation": 2, "co": {"X": 1, "Y": -1}}]}, "perspective_c2_y": {"Points": [{"interpolation": 2, "co": {"X": 1, "Y": -1}}]}, "reader": {"type": "QtImageReader", "height": 720, "video_timebase": {"num": 1, "den": 30}, "audio_stream_index": -1, "video_length": "2592000", "interlaced_frame": false, "duration": 86400.0, "channels": 0, "sample_rate": 0, "video_bit_rate": 0, "channel_layout": 4, "path": "/home/avishai/Documents/workspace/adaptive_hand_model/matlab/video/slides/opening5.png", "metadata": {}, "audio_bit_rate": 0, "has_video": true, "has_audio": false, "pixel_format": -1, "acodec": "", "video_stream_index": -1, "display_ratio": {"num": 4, "den": 3}, "file_size": "2764800", "fps": {"num": 30, "den": 1}, "width": 960, "top_field_first": true, "audio_timebase": {"num": 1, "den": 1}, "pixel_ratio": {"num": 1, "den": 1}, "vcodec": "", "has_single_image": true}, "perspective_c3_x": {"Points": [{"interpolation": 2, "co": {"X": 1, "Y": -1}}]}, "gravity": 4, "id": "XKMPBP80N8", "anchor": 0, "location_x": {"Points": [{"interpolation": 2, "co": {"X": 1, "Y": 0}}]}, "perspective_c1_y": {"Points": [{"interpolation": 2, "co": {"X": 1, "Y": -1}}]}, "file_id": "0S38URN00T", "shear_y": {"Points": [{"interpolation": 2, "co": {"X": 1, "Y": 0}}]}, "location_y": {"Points": [{"interpolation": 2, "co": {"X": 1, "Y": 0}}]}, "scale_y": {"Points": [{"interpolation": 2, "co": {"X": 1, "Y": 1}}]}, "perspective_c4_x": {"Points": [{"interpolation": 2, "co": {"X": 1, "Y": -1}}]}, "shear_x": {"Points": [{"interpolation": 2, "co": {"X": 1, "Y": 0}}]}, "channel_filter": {"Points": [{"interpolation": 2, "co": {"X": 1, "Y": -1}}]}}, "key": ["clips", {"id": "XKMPBP80N8"}], "partial": false}, {"value": {"time": {"Points": [{"interpolation": 2, "co": {"X": 1, "Y": 1}}]}, "display": 0, "perspective_c2_x": {"Points": [{"interpolation": 2, "co": {"X": 1, "Y": -1}}]}, "duration": 86400.0, "end": 10.0, "scale_x": {"Points": [{"interpolation": 2, "co": {"X": 1, "Y": 1}}]}, "effects": [], "has_audio": {"Points": [{"interpolation": 2, "co": {"X": 1, "Y": -1}}]}, "scale": 1, "perspective_c3_y": {"Points": [{"interpolation": 2, "co": {"X": 1, "Y": -1}}]}, "alpha": {"Points": [{"interpolation": 2, "co": {"X": 1, "Y": 1}}]}, "start": 0, "wave_color": {"blue": {"Points": [{"interpolation": 0, "handle_type": 0, "handle_left": {"X": 0.5, "Y": 1}, "handle_right": {"X": 0.5, "Y": 0}, "co": {"X": 1, "Y": 255}}]}, "green": {"Points": [{"interpolation": 0, "handle_type": 0, "handle_left": {"X": 0.5, "Y": 1}, "handle_right": {"X": 0.5, "Y": 0}, "co": {"X": 1, "Y": 123}}]}, "red": {"Points": [{"interpolation": 0, "handle_type": 0, "handle_left": {"X": 0.5, "Y": 1}, "handle_right": {"X": 0.5, "Y": 0}, "co": {"X": 1, "Y": 0}}]}, "alpha": {"Points": [{"interpolation": 0, "handle_type": 0, "handle_left": {"X": 0.5, "Y": 1}, "handle_right": {"X": 0.5, "Y": 0}, "co": {"X": 1, "Y": 255}}]}}, "crop_x": {"Points": [{"interpolation": 2, "co": {"X": 1, "Y": 0}}]}, "image": "/home/avishai/.openshot_qt/thumbnail/0S38URN00T.png", "layer": 1, "perspective_c1_x": {"Points": [{"interpolation": 2, "co": {"X": 1, "Y": -1}}]}, "shear_y": {"Points": [{"interpolation": 2, "co": {"X": 1, "Y": 0}}]}, "rotation": {"Points": [{"interpolation": 2, "co": {"X": 1, "Y": 0}}]}, "mixing": 0, "waveform": false, "crop_width": {"Points": [{"interpolation": 2, "co": {"X": 1, "Y": -1}}]}, "crop_height": {"Points": [{"interpolation": 2, "co": {"X": 1, "Y": -1}}]}, "crop_y": {"Points": [{"interpolation": 2, "co": {"X": 1, "Y": 0}}]}, "volume": {"Points": [{"interpolation": 2, "co": {"X": 1, "Y": 1}}]}, "channel_mapping": {"Points": [{"interpolation": 2, "co": {"X": 1, "Y": -1}}]}, "title": "opening5.png", "has_video": {"Points": [{"interpolation": 2, "co": {"X": 1, "Y": -1}}]}, "perspective_c4_y": {"Points": [{"interpolation": 2, "co": {"X": 1, "Y": -1}}]}, "perspective_c2_y": {"Points": [{"interpolation": 2, "co": {"X": 1, "Y": -1}}]}, "reader": {"type": "QtImageReader", "height": 720, "video_timebase": {"num": 1, "den": 30}, "audio_stream_index": -1, "video_length": "2592000", "interlaced_frame": false, "duration": 86400.0, "channels": 0, "sample_rate": 0, "video_bit_rate": 0, "channel_layout": 4, "path": "/home/avishai/Documents/workspace/adaptive_hand_model/matlab/video/slides/opening5.png", "metadata": {}, "audio_bit_rate": 0, "has_video": true, "has_audio": false, "pixel_format": -1, "acodec": "", "video_stream_index": -1, "display_ratio": {"num": 4, "den": 3}, "fps": {"num": 30, "den": 1}, "width": 960, "file_size": "2764800", "top_field_first": true, "audio_timebase": {"num": 1, "den": 1}, "pixel_ratio": {"num": 1, "den": 1}, "vcodec": "", "has_single_image": true}, "position": 54.18, "perspective_c3_x": {"Points": [{"interpolation": 2, "co": {"X": 1, "Y": -1}}]}, "gravity": 4, "id": "2KVJ69WXO2", "anchor": 0, "location_x": {"Points": [{"interpolation": 2, "co": {"X": 1, "Y": 0}}]}, "perspective_c1_y": {"Points": [{"interpolation": 2, "co": {"X": 1, "Y": -1}}]}, "file_id": "0S38URN00T", "channel_filter": {"Points": [{"interpolation": 2, "co": {"X": 1, "Y": -1}}]}, "location_y": {"Points": [{"interpolation": 2, "co": {"X": 1, "Y": 0}}]}, "scale_y": {"Points": [{"interpolation": 2, "co": {"X": 1, "Y": 1}}]}, "shear_x": {"Points": [{"interpolation": 2, "co": {"X": 1, "Y": 0}}]}, "perspective_c4_x": {"Points": [{"interpolation": 2, "co": {"X": 1, "Y": -1}}]}}, "type": "insert", "old_values": [{"time": {"Points": [{"interpolation": 2, "co": {"X": 1, "Y": 1}}]}, "display": 0, "perspective_c2_x": {"Points": [{"interpolation": 2, "co": {"X": 1, "Y": -1}}]}, "duration": 10.866666793823242, "end": 10.875, "scale_x": {"Points": [{"interpolation": 2, "co": {"X": 1, "Y": 1}}]}, "channel_filter": {"Points": [{"interpolation": 2, "co": {"X": 1, "Y": -1}}]}, "effects": [], "has_audio": {"Points": [{"interpolation": 2, "co": {"X": 1, "Y": -1}}]}, "scale": 1, "perspective_c3_y": {"Points": [{"interpolation": 2, "co": {"X": 1, "Y": -1}}]}, "alpha": {"Points": [{"interpolation": 2, "co": {"X": 1, "Y": 1}}]}, "shear_x": {"Points": [{"interpolation": 2, "co": {"X": 1, "Y": 0}}]}, "wave_color": {"blue": {"Points": [{"interpolation": 0, "handle_type": 0, "handle_left": {"X": 0.5, "Y": 1}, "handle_right": {"X": 0.5, "Y": 0}, "co": {"X": 1, "Y": 255}}]}, "red": {"Points": [{"interpolation": 0, "handle_type": 0, "handle_left": {"X": 0.5, "Y": 1}, "handle_right": {"X": 0.5, "Y": 0}, "co": {"X": 1, "Y": 0}}]}, "green": {"Points": [{"interpolation": 0, "handle_type": 0, "handle_left": {"X": 0.5, "Y": 1}, "handle_right": {"X": 0.5, "Y": 0}, "co": {"X": 1, "Y": 123}}]}, "alpha": {"Points": [{"interpolation": 0, "handle_type": 0, "handle_left": {"X": 0.5, "Y": 1}, "handle_right": {"X": 0.5, "Y": 0}, "co": {"X": 1, "Y": 255}}]}}, "crop_x": {"Points": [{"interpolation": 2, "co": {"X": 1, "Y": 0}}]}, "image": "/home/avishai/.openshot_qt/thumbnail/VLL3NDOT0B.png", "layer": 0, "perspective_c1_x": {"Points": [{"interpolation": 2, "co": {"X": 1, "Y": -1}}]}, "shear_y": {"Points": [{"interpolation": 2, "co": {"X": 1, "Y": 0}}]}, "rotation": {"Points": [{"interpolation": 2, "co": {"X": 1, "Y": 0}}]}, "gravity": 4, "waveform": false, "crop_width": {"Points": [{"interpolation": 2, "co": {"X": 1, "Y": -1}}]}, "crop_height": {"Points": [{"interpolation": 2, "co": {"X": 1, "Y": -1}}]}, "crop_y": {"Points": [{"interpolation": 2, "co": {"X": 1, "Y": 0}}]}, "volume": {"Points": [{"interpolation": 2, "co": {"X": 1, "Y": 1}}]}, "channel_mapping": {"Points": [{"interpolation": 2, "co": {"X": 1, "Y": -1}}]}, "title": "rec.avi", "has_video": {"Points": [{"interpolation": 2, "co": {"X": 1, "Y": -1}}]}, "perspective_c4_y": {"Points": [{"interpolation": 2, "co": {"X": 1, "Y": -1}}]}, "perspective_c2_y": {"Points": [{"interpolation": 2, "co": {"X": 1, "Y": -1}}]}, "reader": {"type": "FFmpegReader", "height": 451, "video_timebase": {"num": 1, "den": 60}, "audio_stream_index": -1, "video_length": "652", "interlaced_frame": false, "audio_bit_rate": 0, "channels": 0, "sample_rate": 0, "video_bit_rate": 13375086, "channel_layout": 4, "path": "/home/avishai/Documents/workspace/adaptive_hand_model/matlab/video/rec.avi", "metadata": {}, "vcodec": "mjpeg", "has_video": true, "has_audio": false, "pixel_format": 12, "acodec": "", "video_stream_index": 0, "display_ratio": {"num": 531, "den": 451}, "file_size": "18167826", "fps": {"num": 60, "den": 1}, "width": 531, "top_field_first": true, "audio_timebase": {"num": 1, "den": 1}, "pixel_ratio": {"num": 1, "den": 1}, "duration": 10.866666793823242, "has_single_image": false}, "perspective_c3_x": {"Points": [{"interpolation": 2, "co": {"X": 1, "Y": -1}}]}, "id": "S1HEPYMO0Q", "anchor": 0, "location_x": {"Points": [{"interpolation": 2, "co": {"X": 1, "Y": 0}}]}, "mixing": 0, "perspective_c1_y": {"Points": [{"interpolation": 2, "co": {"X": 1, "Y": -1}}]}, "file_id": "VLL3NDOT0B", "position": 10, "location_y": {"Points": [{"interpolation": 2, "co": {"X": 1, "Y": 0}}]}, "scale_y": {"Points": [{"interpolation": 2, "co": {"X": 1, "Y": 1}}]}, "start": 0, "perspective_c4_x": {"Points": [{"interpolation": 2, "co": {"X": 1, "Y": -1}}]}}, {"time": {"Points": [{"interpolation": 2, "co": {"X": 1, "Y": 1}}]}, "display": 0, "perspective_c2_x": {"Points": [{"interpolation": 2, "co": {"X": 1, "Y": -1}}]}, "duration": 86400.0, "end": 10, "scale_x": {"Points": [{"interpolation": 2, "co": {"X": 1, "Y": 1}}]}, "channel_filter": {"Points": [{"interpolation": 2, "co": {"X": 1, "Y": -1}}]}, "effects": [], "has_audio": {"Points": [{"interpolation": 2, "co": {"X": 1, "Y": -1}}]}, "scale": 1, "perspective_c3_y": {"Points": [{"interpolation": 2, "co": {"X": 1, "Y": -1}}]}, "alpha": {"Points": [{"interpolation": 2, "co": {"X": 1, "Y": 1}}, {"interpolation": 0, "handle_type": 0, "handle_right": {"X": 0.5, "Y": 0}, "handle_left": {"X": 0.5, "Y": 1}, "co": {"X": 1, "Y": 0}}, {"interpolation": 0, "handle_type": 0, "handle_right": {"X": 0.5, "Y": 0}, "handle_left": {"X": 0.5, "Y": 1}, "co": {"X": 73, "Y": 1}}]}, "shear_x": {"Points": [{"interpolation": 2, "co": {"X": 1, "Y": 0}}]}, "wave_color": {"blue": {"Points": [{"interpolation": 0, "handle_type": 0, "handle_right": {"X": 0.5, "Y": 0}, "handle_left": {"X": 0.5, "Y": 1}, "co": {"X": 1, "Y": 255}}]}, "green": {"Points": [{"interpolation": 0, "handle_type": 0, "handle_right": {"X": 0.5, "Y": 0}, "handle_left": {"X": 0.5, "Y": 1}, "co": {"X": 1, "Y": 123}}]}, "red": {"Points": [{"interpolation": 0, "handle_type": 0, "handle_right": {"X": 0.5, "Y": 0}, "handle_left": {"X": 0.5, "Y": 1}, "co": {"X": 1, "Y": 0}}]}, "alpha": {"Points": [{"interpolation": 0, "handle_type": 0, "handle_right": {"X": 0.5, "Y": 0}, "handle_left": {"X": 0.5, "Y": 1}, "co": {"X": 1, "Y": 255}}]}}, "crop_x": {"Points": [{"interpolation": 2, "co": {"X": 1, "Y": 0}}]}, "image": "/home/avishai/.openshot_qt/thumbnail/SM8I51NPAK.png", "layer": 1, "perspective_c1_x": {"Points": [{"interpolation": 2, "co": {"X": 1, "Y": -1}}]}, "position": 10.946666793823242, "rotation": {"Points": [{"interpolation": 2, "co": {"X": 1, "Y": 0}}]}, "gravity": 4, "waveform": false, "crop_width": {"Points": [{"interpolation": 2, "co": {"X": 1, "Y": -1}}]}, "crop_height": {"Points": [{"interpolation": 2, "co": {"X": 1, "Y": -1}}]}, "crop_y": {"Points": [{"interpolation": 2, "co": {"X": 1, "Y": 0}}]}, "volume": {"Points": [{"interpolation": 2, "co": {"X": 1, "Y": 1}}]}, "channel_mapping": {"Points": [{"interpolation": 2, "co": {"X": 1, "Y": -1}}]}, "title": "TitleFileName-2.svg", "has_video": {"Points": [{"interpolation": 2, "co": {"X": 1, "Y": -1}}]}, "perspective_c4_y": {"Points": [{"interpolation": 2, "co": {"X": 1, "Y": -1}}]}, "perspective_c2_y": {"Points": [{"interpolation": 2, "co": {"X": 1, "Y": -1}}]}, "reader": {"type": "QtImageReader", "interlaced_frame": false, "video_timebase": {"num": 1, "den": 30}, "audio_stream_index": -1, "video_length": "2592000", "channels": 0, "audio_bit_rate": 0, "sample_rate": 0, "video_bit_rate": 0, "channel_layout": 4, "path": "/home/avishai/Documents/workspace/adaptive_hand_model/matlab/video/assets/TitleFileName-2.svg", "metadata": {}, "vcodec": "", "has_video": true, "has_audio": false, "pixel_format": -1, "height": 1080, "acodec": "", "video_stream_index": -1, "display_ratio": {"num": 16, "den": 9}, "file_size": "8294400", "fps": {"num": 30, "den": 1}, "width": 1920, "top_field_first": true, "audio_timebase": {"num": 1, "den": 1}, "pixel_ratio": {"num": 1, "den": 1}, "duration": 86400.0, "has_single_image": true}, "perspective_c3_x": {"Points": [{"interpolation": 2, "co": {"X": 1, "Y": -1}}]}, "id": "838ILRLA3L", "anchor": 0, "location_x": {"Points": [{"interpolation": 2, "co": {"X": 1, "Y": 0}}]}, "mixing": 0, "perspective_c1_y": {"Points": [{"interpolation": 2, "co": {"X": 1, "Y": -1}}]}, "file_id": "SM8I51NPAK", "shear_y": {"Points": [{"interpolation": 2, "co": {"X": 1, "Y": 0}}]}, "location_y": {"Points": [{"interpolation": 2, "co": {"X": 1, "Y": 0}}]}, "scale_y": {"Points": [{"interpolation": 2, "co": {"X": 1, "Y": 1}}]}, "start": 0, "perspective_c4_x": {"Points": [{"interpolation": 2, "co": {"X": 1, "Y": -1}}]}}, {"time": {"Points": [{"interpolation": 2, "co": {"X": 1, "Y": 1}}]}, "display": 0, "perspective_c2_x": {"Points": [{"interpolation": 2, "co": {"X": 1, "Y": -1}}]}, "duration": 86400.0, "end": 10, "scale_x": {"Points": [{"interpolation": 2, "co": {"X": 1, "Y": 1}}]}, "channel_filter": {"Points": [{"interpolation": 2, "co": {"X": 1, "Y": -1}}]}, "effects": [], "has_audio": {"Points": [{"interpolation": 2, "co": {"X": 1, "Y": -1}}]}, "scale": 1, "perspective_c3_y": {"Points": [{"interpolation": 2, "co": {"X": 1, "Y": -1}}]}, "alpha": {"Points": [{"interpolation": 2, "co": {"X": 1, "Y": 1}}, {"interpolation": 0, "handle_type": 0, "handle_right": {"X": 0.5, "Y": 0}, "handle_left": {"X": 0.5, "Y": 1}, "co": {"X": 169, "Y": 1}}, {"interpolation": 0, "handle_type": 0, "handle_right": {"X": 0.5, "Y": 0}, "handle_left": {"X": 0.5, "Y": 1}, "co": {"X": 241, "Y": 0}}]}, "shear_x": {"Points": [{"interpolation": 2, "co": {"X": 1, "Y": 0}}]}, "wave_color": {"blue": {"Points": [{"interpolation": 0, "handle_type": 0, "handle_right": {"X": 0.5, "Y": 0}, "handle_left": {"X": 0.5, "Y": 1}, "co": {"X": 1, "Y": 255}}]}, "green": {"Points": [{"interpolation": 0, "handle_type": 0, "handle_right": {"X": 0.5, "Y": 0}, "handle_left": {"X": 0.5, "Y": 1}, "co": {"X": 1, "Y": 123}}]}, "red": {"Points": [{"interpolation": 0, "handle_type": 0, "handle_right": {"X": 0.5, "Y": 0}, "handle_left": {"X": 0.5, "Y": 1}, "co": {"X": 1, "Y": 0}}]}, "alpha": {"Points": [{"interpolation": 0, "handle_type": 0, "handle_right": {"X": 0.5, "Y": 0}, "handle_left": {"X": 0.5, "Y": 1}, "co": {"X": 1, "Y": 255}}]}}, "crop_x": {"Points": [{"interpolation": 2, "co": {"X": 1, "Y": 0}}]}, "image": "/home/avishai/.openshot_qt/thumbnail/722P7PCEWK.png", "layer": 0, "perspective_c1_x": {"Points": [{"interpolation": 2, "co": {"X": 1, "Y": -1}}]}, "position": 30.94666679382324, "rotation": {"Points": [{"interpolation": 2, "co": {"X": 1, "Y": 0}}]}, "gravity": 4, "waveform": false, "crop_width": {"Points": [{"interpolation": 2, "co": {"X": 1, "Y": -1}}]}, "crop_height": {"Points": [{"interpolation": 2, "co": {"X": 1, "Y": -1}}]}, "crop_y": {"Points": [{"interpolation": 2, "co": {"X": 1, "Y": 0}}]}, "volume": {"Points": [{"interpolation": 2, "co": {"X": 1, "Y": 1}}]}, "channel_mapping": {"Points": [{"interpolation": 2, "co": {"X": 1, "Y": -1}}]}, "title": "opening2.png", "has_video": {"Points": [{"interpolation": 2, "co": {"X": 1, "Y": -1}}]}, "perspective_c4_y": {"Points": [{"interpolation": 2, "co": {"X": 1, "Y": -1}}]}, "perspective_c2_y": {"Points": [{"interpolation": 2, "co": {"X": 1, "Y": -1}}]}, "reader": {"type": "QtImageReader", "interlaced_frame": false, "video_timebase": {"num": 1, "den": 30}, "audio_stream_index": -1, "video_length": "2592000", "channels": 0, "audio_bit_rate": 0, "sample_rate": 0, "video_bit_rate": 0, "channel_layout": 4, "path": "/home/avishai/Documents/workspace/adaptive_hand_model/matlab/video/slides/opening2.png", "metadata": {}, "vcodec": "", "has_video": true, "has_audio": false, "pixel_format": -1, "height": 720, "acodec": "", "video_stream_index": -1, "display_ratio": {"num": 4, "den": 3}, "file_size": "2764800", "fps": {"num": 30, "den": 1}, "width": 960, "top_field_first": true, "audio_timebase": {"num": 1, "den": 1}, "pixel_ratio": {"num": 1, "den": 1}, "duration": 86400.0, "has_single_image": true}, "perspective_c3_x": {"Points": [{"interpolation": 2, "co": {"X": 1, "Y": -1}}]}, "id": "T71MOBYYIW", "anchor": 0, "location_x": {"Points": [{"interpolation": 2, "co": {"X": 1, "Y": 0}}]}, "mixing": 0, "perspective_c1_y": {"Points": [{"interpolation": 2, "co": {"X": 1, "Y": -1}}]}, "file_id": "722P7PCEWK", "shear_y": {"Points": [{"interpolation": 2, "co": {"X": 1, "Y": 0}}]}, "location_y": {"Points": [{"interpolation": 2, "co": {"X": 1, "Y": 0}}]}, "scale_y": {"Points": [{"interpolation": 2, "co": {"X": 1, "Y": 1}}]}, "start": 0, "perspective_c4_x": {"Points": [{"interpolation": 2, "co": {"X": 1, "Y": -1}}]}}, {"time": {"Points": [{"interpolation": 2, "co": {"X": 1, "Y": 1}}]}, "display": 0, "perspective_c2_x": {"Points": [{"interpolation": 2, "co": {"X": 1, "Y": -1}}]}, "duration": 86400.0, "end": 10, "scale_x": {"Points": [{"interpolation": 2, "co": {"X": 1, "Y": 1}}]}, "effects": [], "has_audio": {"Points": [{"interpolation": 2, "co": {"X": 1, "Y": -1}}]}, "scale": 1, "perspective_c3_y": {"Points": [{"interpolation": 2, "co": {"X": 1, "Y": -1}}]}, "alpha": {"Points": [{"interpolation": 2, "co": {"X": 1, "Y": 1}}]}, "start": 0, "wave_color": {"blue": {"Points": [{"interpolation": 0, "handle_type": 0, "co": {"X": 1, "Y": 255}, "handle_left": {"X": 0.5, "Y": 1}, "handle_right": {"X": 0.5, "Y": 0}}]}, "green": {"Points": [{"interpolation": 0, "handle_type": 0, "co": {"X": 1, "Y": 123}, "handle_left": {"X": 0.5, "Y": 1}, "handle_right": {"X": 0.5, "Y": 0}}]}, "red": {"Points": [{"interpolation": 0, "handle_type": 0, "co": {"X": 1, "Y": 0}, "handle_left": {"X": 0.5, "Y": 1}, "handle_right": {"X": 0.5, "Y": 0}}]}, "alpha": {"Points": [{"interpolation": 0, "handle_type": 0, "co": {"X": 1, "Y": 255}, "handle_left": {"X": 0.5, "Y": 1}, "handle_right": {"X": 0.5, "Y": 0}}]}}, "crop_x": {"Points": [{"interpolation": 2, "co": {"X": 1, "Y": 0}}]}, "image": "/home/avishai/.openshot_qt/thumbnail/FG71JWWOKG.png", "layer": 0, "perspective_c1_x": {"Points": [{"interpolation": 2, "co": {"X": 1, "Y": -1}}]}, "position": 0, "rotation": {"Points": [{"interpolation": 2, "co": {"X": 1, "Y": 0}}]}, "mixing": 0, "waveform": false, "crop_width": {"Points": [{"interpolation": 2, "co": {"X": 1, "Y": -1}}]}, "crop_height": {"Points": [{"interpolation": 2, "co": {"X": 1, "Y": -1}}]}, "crop_y": {"Points": [{"interpolation": 2, "co": {"X": 1, "Y": 0}}]}, "volume": {"Points": [{"interpolation": 2, "co": {"X": 1, "Y": 1}}]}, "channel_mapping": {"Points": [{"interpolation": 2, "co": {"X": 1, "Y": -1}}]}, "title": "opening.png", "has_video": {"Points": [{"interpolation": 2, "co": {"X": 1, "Y": -1}}]}, "perspective_c4_y": {"Points": [{"interpolation": 2, "co": {"X": 1, "Y": -1}}]}, "perspective_c2_y": {"Points": [{"interpolation": 2, "co": {"X": 1, "Y": -1}}]}, "reader": {"type": "QtImageReader", "height": 720, "video_timebase": {"num": 1, "den": 30}, "audio_stream_index": -1, "video_length": "2592000", "interlaced_frame": false, "duration": 86400.0, "channels": 0, "sample_rate": 0, "video_bit_rate": 0, "channel_layout": 4, "path": "/home/avishai/Documents/workspace/adaptive_hand_model/matlab/video/slides/opening.png", "metadata": {}, "audio_bit_rate": 0, "has_video": true, "has_audio": false, "pixel_format": -1, "acodec": "", "video_stream_index": -1, "display_ratio": {"num": 4, "den": 3}, "file_size": "2764800", "fps": {"num": 30, "den": 1}, "width": 960, "top_field_first": true, "audio_timebase": {"num": 1, "den": 1}, "pixel_ratio": {"num": 1, "den": 1}, "vcodec": "", "has_single_image": true}, "perspective_c3_x": {"Points": [{"interpolation": 2, "co": {"X": 1, "Y": -1}}]}, "gravity": 4, "id": "VUZXRGBOF5", "anchor": 0, "location_x": {"Points": [{"interpolation": 2, "co": {"X": 1, "Y": 0}}]}, "perspective_c1_y": {"Points": [{"interpolation": 2, "co": {"X": 1, "Y": -1}}]}, "file_id": "FG71JWWOKG", "shear_y": {"Points": [{"interpolation": 2, "co": {"X": 1, "Y": 0}}]}, "location_y": {"Points": [{"interpolation": 2, "co": {"X": 1, "Y": 0}}]}, "scale_y": {"Points": [{"interpolation": 2, "co": {"X": 1, "Y": 1}}]}, "perspective_c4_x": {"Points": [{"interpolation": 2, "co": {"X": 1, "Y": -1}}]}, "shear_x": {"Points": [{"interpolation": 2, "co": {"X": 1, "Y": 0}}]}, "channel_filter": {"Points": [{"interpolation": 2, "co": {"X": 1, "Y": -1}}]}}, {"time": {"Points": [{"interpolation": 2, "co": {"X": 1, "Y": 1}}]}, "display": 0, "perspective_c2_x": {"Points": [{"interpolation": 2, "co": {"X": 1, "Y": -1}}]}, "duration": 86400.0, "end": 10, "scale_x": {"Points": [{"interpolation": 2, "co": {"X": 1, "Y": 1}}]}, "effects": [], "has_audio": {"Points": [{"interpolation": 2, "co": {"X": 1, "Y": -1}}]}, "scale": 1, "perspective_c3_y": {"Points": [{"interpolation": 2, "co": {"X": 1, "Y": -1}}]}, "alpha": {"Points": [{"interpolation": 2, "co": {"X": 1, "Y": 1}}]}, "start": 0, "wave_color": {"blue": {"Points": [{"interpolation": 0, "handle_type": 0, "co": {"X": 1, "Y": 255}, "handle_left": {"X": 0.5, "Y": 1}, "handle_right": {"X": 0.5, "Y": 0}}]}, "green": {"Points": [{"interpolation": 0, "handle_type": 0, "co": {"X": 1, "Y": 123}, "handle_left": {"X": 0.5, "Y": 1}, "handle_right": {"X": 0.5, "Y": 0}}]}, "red": {"Points": [{"interpolation": 0, "handle_type": 0, "co": {"X": 1, "Y": 0}, "handle_left": {"X": 0.5, "Y": 1}, "handle_right": {"X": 0.5, "Y": 0}}]}, "alpha": {"Points": [{"interpolation": 0, "handle_type": 0, "co": {"X": 1, "Y": 255}, "handle_left": {"X": 0.5, "Y": 1}, "handle_right": {"X": 0.5, "Y": 0}}]}}, "crop_x": {"Points": [{"interpolation": 2, "co": {"X": 1, "Y": 0}}]}, "image": "/home/avishai/.openshot_qt/thumbnail/YIV9WP4V5Q.png", "layer": 0, "perspective_c1_x": {"Points": [{"interpolation": 2, "co": {"X": 1, "Y": -1}}]}, "position": 21.026666793823242, "rotation": {"Points": [{"interpolation": 2, "co": {"X": 1, "Y": 0}}]}, "mixing": 0, "waveform": false, "crop_width": {"Points": [{"interpolation": 2, "co": {"X": 1, "Y": -1}}]}, "crop_height": {"Points": [{"interpolation": 2, "co": {"X": 1, "Y": -1}}]}, "crop_y": {"Points": [{"interpolation": 2, "co": {"X": 1, "Y": 0}}]}, "volume": {"Points": [{"interpolation": 2, "co": {"X": 1, "Y": 1}}]}, "channel_mapping": {"Points": [{"interpolation": 2, "co": {"X": 1, "Y": -1}}]}, "title": "opening1.png", "has_video": {"Points": [{"interpolation": 2, "co": {"X": 1, "Y": -1}}]}, "perspective_c4_y": {"Points": [{"interpolation": 2, "co": {"X": 1, "Y": -1}}]}, "perspective_c2_y": {"Points": [{"interpolation": 2, "co": {"X": 1, "Y": -1}}]}, "reader": {"type": "QtImageReader", "height": 720, "video_timebase": {"num": 1, "den": 30}, "audio_stream_index": -1, "video_length": "2592000", "interlaced_frame": false, "duration": 86400.0, "channels": 0, "sample_rate": 0, "video_bit_rate": 0, "channel_layout": 4, "path": "/home/avishai/Documents/workspace/adaptive_hand_model/matlab/video/slides/opening1.png", "metadata": {}, "audio_bit_rate": 0, "has_video": true, "has_audio": false, "pixel_format": -1, "acodec": "", "video_stream_index": -1, "display_ratio": {"num": 4, "den": 3}, "file_size": "2764800", "fps": {"num": 30, "den": 1}, "width": 960, "top_field_first": true, "audio_timebase": {"num": 1, "den": 1}, "pixel_ratio": {"num": 1, "den": 1}, "vcodec": "", "has_single_image": true}, "perspective_c3_x": {"Points": [{"interpolation": 2, "co": {"X": 1, "Y": -1}}]}, "gravity": 4, "id": "3A3QKZGMJB", "anchor": 0, "location_x": {"Points": [{"interpolation": 2, "co": {"X": 1, "Y": 0}}]}, "perspective_c1_y": {"Points": [{"interpolation": 2, "co": {"X": 1, "Y": -1}}]}, "file_id": "YIV9WP4V5Q", "shear_y": {"Points": [{"interpolation": 2, "co": {"X": 1, "Y": 0}}]}, "location_y": {"Points": [{"interpolation": 2, "co": {"X": 1, "Y": 0}}]}, "scale_y": {"Points": [{"interpolation": 2, "co": {"X": 1, "Y": 1}}]}, "perspective_c4_x": {"Points": [{"interpolation": 2, "co": {"X": 1, "Y": -1}}]}, "shear_x": {"Points": [{"interpolation": 2, "co": {"X": 1, "Y": 0}}]}, "channel_filter": {"Points": [{"interpolation": 2, "co": {"X": 1, "Y": -1}}]}}, {"time": {"Points": [{"interpolation": 2, "co": {"X": 1, "Y": 1}}]}, "display": 0, "perspective_c2_x": {"Points": [{"interpolation": 2, "co": {"X": 1, "Y": -1}}]}, "duration": 86400.0, "end": 10, "scale_x": {"Points": [{"interpolation": 2, "co": {"X": 1, "Y": 1}}]}, "effects": [], "has_audio": {"Points": [{"interpolation": 2, "co": {"X": 1, "Y": -1}}]}, "scale": 1, "perspective_c3_y": {"Points": [{"interpolation": 2, "co": {"X": 1, "Y": -1}}]}, "alpha": {"Points": [{"interpolation": 2, "co": {"X": 1, "Y": 1}}]}, "start": 0, "wave_color": {"blue": {"Points": [{"interpolation": 0, "handle_type": 0, "co": {"X": 1, "Y": 255}, "handle_left": {"X": 0.5, "Y": 1}, "handle_right": {"X": 0.5, "Y": 0}}]}, "green": {"Points": [{"interpolation": 0, "handle_type": 0, "co": {"X": 1, "Y": 123}, "handle_left": {"X": 0.5, "Y": 1}, "handle_right": {"X": 0.5, "Y": 0}}]}, "red": {"Points": [{"interpolation": 0, "handle_type": 0, "co": {"X": 1, "Y": 0}, "handle_left": {"X": 0.5, "Y": 1}, "handle_right": {"X": 0.5, "Y": 0}}]}, "alpha": {"Points": [{"interpolation": 0, "handle_type": 0, "co": {"X": 1, "Y": 255}, "handle_left": {"X": 0.5, "Y": 1}, "handle_right": {"X": 0.5, "Y": 0}}]}}, "crop_x": {"Points": [{"interpolation": 2, "co": {"X": 1, "Y": 0}}]}, "image": "/home/avishai/.openshot_qt/thumbnail/LMEK33J1LA.png", "layer": 0, "perspective_c1_x": {"Points": [{"interpolation": 2, "co": {"X": 1, "Y": -1}}]}, "position": 40.94666679382324, "rotation": {"Points": [{"interpolation": 2, "co": {"X": 1, "Y": 0}}]}, "mixing": 0, "waveform": false, "crop_width": {"Points": [{"interpolation": 2, "co": {"X": 1, "Y": -1}}]}, "crop_height": {"Points": [{"interpolation": 2, "co": {"X": 1, "Y": -1}}]}, "crop_y": {"Points": [{"interpolation": 2, "co": {"X": 1, "Y": 0}}]}, "volume": {"Points": [{"interpolation": 2, "co": {"X": 1, "Y": 1}}]}, "channel_mapping": {"Points": [{"interpolation": 2, "co": {"X": 1, "Y": -1}}]}, "title": "opening3.png", "has_video": {"Points": [{"interpolation": 2, "co": {"X": 1, "Y": -1}}]}, "perspective_c4_y": {"Points": [{"interpolation": 2, "co": {"X": 1, "Y": -1}}]}, "perspective_c2_y": {"Points": [{"interpolation": 2, "co": {"X": 1, "Y": -1}}]}, "reader": {"type": "QtImageReader", "height": 720, "video_timebase": {"num": 1, "den": 30}, "audio_stream_index": -1, "video_length": "2592000", "interlaced_frame": false, "duration": 86400.0, "channels": 0, "sample_rate": 0, "video_bit_rate": 0, "channel_layout": 4, "path": "/home/avishai/Documents/workspace/adaptive_hand_model/matlab/video/slides/opening3.png", "metadata": {}, "audio_bit_rate": 0, "has_video": true, "has_audio": false, "pixel_format": -1, "acodec": "", "video_stream_index": -1, "display_ratio": {"num": 4, "den": 3}, "file_size": "2764800", "fps": {"num": 30, "den": 1}, "width": 960, "top_field_first": true, "audio_timebase": {"num": 1, "den": 1}, "pixel_ratio": {"num": 1, "den": 1}, "vcodec": "", "has_single_image": true}, "perspective_c3_x": {"Points": [{"interpolation": 2, "co": {"X": 1, "Y": -1}}]}, "gravity": 4, "id": "X5HE8XP5XU", "anchor": 0, "location_x": {"Points": [{"interpolation": 2, "co": {"X": 1, "Y": 0}}]}, "perspective_c1_y": {"Points": [{"interpolation": 2, "co": {"X": 1, "Y": -1}}]}, "file_id": "LMEK33J1LA", "shear_y": {"Points": [{"interpolation": 2, "co": {"X": 1, "Y": 0}}]}, "location_y": {"Points": [{"interpolation": 2, "co": {"X": 1, "Y": 0}}]}, "scale_y": {"Points": [{"interpolation": 2, "co": {"X": 1, "Y": 1}}]}, "perspective_c4_x": {"Points": [{"interpolation": 2, "co": {"X": 1, "Y": -1}}]}, "shear_x": {"Points": [{"interpolation": 2, "co": {"X": 1, "Y": 0}}]}, "channel_filter": {"Points": [{"interpolation": 2, "co": {"X": 1, "Y": -1}}]}}, {"time": {"Points": [{"interpolation": 2, "co": {"X": 1, "Y": 1}}]}, "display": 0, "perspective_c2_x": {"Points": [{"interpolation": 2, "co": {"X": 1, "Y": -1}}]}, "duration": 86400.0, "end": 10, "scale_x": {"Points": [{"interpolation": 2, "co": {"X": 1, "Y": 1}}]}, "effects": [], "has_audio": {"Points": [{"interpolation": 2, "co": {"X": 1, "Y": -1}}]}, "scale": 1, "perspective_c3_y": {"Points": [{"interpolation": 2, "co": {"X": 1, "Y": -1}}]}, "alpha": {"Points": [{"interpolation": 2, "co": {"X": 1, "Y": 1}}]}, "start": 0, "wave_color": {"blue": {"Points": [{"interpolation": 0, "handle_type": 0, "co": {"X": 1, "Y": 255}, "handle_left": {"X": 0.5, "Y": 1}, "handle_right": {"X": 0.5, "Y": 0}}]}, "green": {"Points": [{"interpolation": 0, "handle_type": 0, "co": {"X": 1, "Y": 123}, "handle_left": {"X": 0.5, "Y": 1}, "handle_right": {"X": 0.5, "Y": 0}}]}, "red": {"Points": [{"interpolation": 0, "handle_type": 0, "co": {"X": 1, "Y": 0}, "handle_left": {"X": 0.5, "Y": 1}, "handle_right": {"X": 0.5, "Y": 0}}]}, "alpha": {"Points": [{"interpolation": 0, "handle_type": 0, "co": {"X": 1, "Y": 255}, "handle_left": {"X": 0.5, "Y": 1}, "handle_right": {"X": 0.5, "Y": 0}}]}}, "crop_x": {"Points": [{"interpolation": 2, "co": {"X": 1, "Y": 0}}]}, "image": "/home/avishai/.openshot_qt/thumbnail/RHRWX2BT8P.png", "layer": 0, "perspective_c1_x": {"Points": [{"interpolation": 2, "co": {"X": 1, "Y": -1}}]}, "position": 50.94666679382324, "rotation": {"Points": [{"interpolation": 2, "co": {"X": 1, "Y": 0}}]}, "mixing": 0, "waveform": false, "crop_width": {"Points": [{"interpolation": 2, "co": {"X": 1, "Y": -1}}]}, "crop_height": {"Points": [{"interpolation": 2, "co": {"X": 1, "Y": -1}}]}, "crop_y": {"Points": [{"interpolation": 2, "co": {"X": 1, "Y": 0}}]}, "volume": {"Points": [{"interpolation": 2, "co": {"X": 1, "Y": 1}}]}, "channel_mapping": {"Points": [{"interpolation": 2, "co": {"X": 1, "Y": -1}}]}, "title": "opening4.png", "has_video": {"Points": [{"interpolation": 2, "co": {"X": 1, "Y": -1}}]}, "perspective_c4_y": {"Points": [{"interpolation": 2, "co": {"X": 1, "Y": -1}}]}, "perspective_c2_y": {"Points": [{"interpolation": 2, "co": {"X": 1, "Y": -1}}]}, "reader": {"type": "QtImageReader", "height": 720, "video_timebase": {"num": 1, "den": 30}, "audio_stream_index": -1, "video_length": "2592000", "interlaced_frame": false, "duration": 86400.0, "channels": 0, "sample_rate": 0, "video_bit_rate": 0, "channel_layout": 4, "path": "/home/avishai/Documents/workspace/adaptive_hand_model/matlab/video/slides/opening4.png", "metadata": {}, "audio_bit_rate": 0, "has_video": true, "has_audio": false, "pixel_format": -1, "acodec": "", "video_stream_index": -1, "display_ratio": {"num": 4, "den": 3}, "file_size": "2764800", "fps": {"num": 30, "den": 1}, "width": 960, "top_field_first": true, "audio_timebase": {"num": 1, "den": 1}, "pixel_ratio": {"num": 1, "den": 1}, "vcodec": "", "has_single_image": true}, "perspective_c3_x": {"Points": [{"interpolation": 2, "co": {"X": 1, "Y": -1}}]}, "gravity": 4, "id": "LYT59N8TPM", "anchor": 0, "location_x": {"Points": [{"interpolation": 2, "co": {"X": 1, "Y": 0}}]}, "perspective_c1_y": {"Points": [{"interpolation": 2, "co": {"X": 1, "Y": -1}}]}, "file_id": "RHRWX2BT8P", "shear_y": {"Points": [{"interpolation": 2, "co": {"X": 1, "Y": 0}}]}, "location_y": {"Points": [{"interpolation": 2, "co": {"X": 1, "Y": 0}}]}, "scale_y": {"Points": [{"interpolation": 2, "co": {"X": 1, "Y": 1}}]}, "perspective_c4_x": {"Points": [{"interpolation": 2, "co": {"X": 1, "Y": -1}}]}, "shear_x": {"Points": [{"interpolation": 2, "co": {"X": 1, "Y": 0}}]}, "channel_filter": {"Points": [{"interpolation": 2, "co": {"X": 1, "Y": -1}}]}}, {"time": {"Points": [{"interpolation": 2, "co": {"X": 1, "Y": 1}}]}, "display": 0, "perspective_c2_x": {"Points": [{"interpolation": 2, "co": {"X": 1, "Y": -1}}]}, "duration": 86400.0, "end": 10, "scale_x": {"Points": [{"interpolation": 2, "co": {"X": 1, "Y": 1}}]}, "effects": [], "has_audio": {"Points": [{"interpolation": 2, "co": {"X": 1, "Y": -1}}]}, "scale": 1, "perspective_c3_y": {"Points": [{"interpolation": 2, "co": {"X": 1, "Y": -1}}]}, "alpha": {"Points": [{"interpolation": 2, "co": {"X": 1, "Y": 1}}, {"interpolation": 0, "handle_type": 0, "co": {"X": 169, "Y": 1}, "handle_left": {"X": 0.5, "Y": 1}, "handle_right": {"X": 0.5, "Y": 0}}, {"interpolation": 0, "handle_type": 0, "co": {"X": 241, "Y": 0}, "handle_left": {"X": 0.5, "Y": 1}, "handle_right": {"X": 0.5, "Y": 0}}, {"interpolation": 0, "handle_type": 0, "handle_left": {"X": 0.5, "Y": 1}, "handle_right": {"X": 0.5, "Y": 0}, "co": {"X": 217, "Y": 1}}, {"interpolation": 0, "handle_type": 0, "handle_left": {"X": 0.5, "Y": 1}, "handle_right": {"X": 0.5, "Y": 0}, "co": {"X": 241, "Y": 0}}]}, "start": 0, "wave_color": {"blue": {"Points": [{"interpolation": 0, "handle_type": 0, "co": {"X": 1, "Y": 255}, "handle_right": {"X": 0.5, "Y": 0}, "handle_left": {"X": 0.5, "Y": 1}}]}, "green": {"Points": [{"interpolation": 0, "handle_type": 0, "co": {"X": 1, "Y": 123}, "handle_right": {"X": 0.5, "Y": 0}, "handle_left": {"X": 0.5, "Y": 1}}]}, "red": {"Points": [{"interpolation": 0, "handle_type": 0, "co": {"X": 1, "Y": 0}, "handle_right": {"X": 0.5, "Y": 0}, "handle_left": {"X": 0.5, "Y": 1}}]}, "alpha": {"Points": [{"interpolation": 0, "handle_type": 0, "co": {"X": 1, "Y": 255}, "handle_right": {"X": 0.5, "Y": 0}, "handle_left": {"X": 0.5, "Y": 1}}]}}, "crop_x": {"Points": [{"interpolation": 2, "co": {"X": 1, "Y": 0}}]}, "image": "/home/avishai/.openshot_qt/thumbnail/YA8O4MECE1.png", "layer": 0, "perspective_c1_x": {"Points": [{"interpolation": 2, "co": {"X": 1, "Y": -1}}]}, "position": 70.95833333333334, "rotation": {"Points": [{"interpolation": 2, "co": {"X": 1, "Y": 0}}]}, "mixing": 0, "waveform": false, "crop_width": {"Points": [{"interpolation": 2, "co": {"X": 1, "Y": -1}}]}, "crop_height": {"Points": [{"interpolation": 2, "co": {"X": 1, "Y": -1}}]}, "crop_y": {"Points": [{"interpolation": 2, "co": {"X": 1, "Y": 0}}]}, "volume": {"Points": [{"interpolation": 2, "co": {"X": 1, "Y": 1}}]}, "channel_mapping": {"Points": [{"interpolation": 2, "co": {"X": 1, "Y": -1}}]}, "title": "opening6.png", "has_video": {"Points": [{"interpolation": 2, "co": {"X": 1, "Y": -1}}]}, "perspective_c4_y": {"Points": [{"interpolation": 2, "co": {"X": 1, "Y": -1}}]}, "perspective_c2_y": {"Points": [{"interpolation": 2, "co": {"X": 1, "Y": -1}}]}, "reader": {"type": "QtImageReader", "height": 720, "video_timebase": {"num": 1, "den": 30}, "audio_stream_index": -1, "video_length": "2592000", "interlaced_frame": false, "duration": 86400.0, "channels": 0, "sample_rate": 0, "video_bit_rate": 0, "channel_layout": 4, "path": "/home/avishai/Documents/workspace/adaptive_hand_model/matlab/video/slides/opening6.png", "metadata": {}, "audio_bit_rate": 0, "has_video": true, "has_audio": false, "pixel_format": -1, "acodec": "", "video_stream_index": -1, "display_ratio": {"num": 4, "den": 3}, "file_size": "2764800", "fps": {"num": 30, "den": 1}, "width": 960, "top_field_first": true, "audio_timebase": {"num": 1, "den": 1}, "pixel_ratio": {"num": 1, "den": 1}, "vcodec": "", "has_single_image": true}, "perspective_c3_x": {"Points": [{"interpolation": 2, "co": {"X": 1, "Y": -1}}]}, "gravity": 4, "id": "LYWGXV5N3L", "anchor": 0, "location_x": {"Points": [{"interpolation": 2, "co": {"X": 1, "Y": 0}}]}, "perspective_c1_y": {"Points": [{"interpolation": 2, "co": {"X": 1, "Y": -1}}]}, "file_id": "YA8O4MECE1", "shear_y": {"Points": [{"interpolation": 2, "co": {"X": 1, "Y": 0}}]}, "location_y": {"Points": [{"interpolation": 2, "co": {"X": 1, "Y": 0}}]}, "scale_y": {"Points": [{"interpolation": 2, "co": {"X": 1, "Y": 1}}]}, "perspective_c4_x": {"Points": [{"interpolation": 2, "co": {"X": 1, "Y": -1}}]}, "shear_x": {"Points": [{"interpolation": 2, "co": {"X": 1, "Y": 0}}]}, "channel_filter": {"Points": [{"interpolation": 2, "co": {"X": 1, "Y": -1}}]}}, {"time": {"Points": [{"interpolation": 2, "co": {"X": 1, "Y": 1}}]}, "display": 0, "perspective_c2_x": {"Points": [{"interpolation": 2, "co": {"X": 1, "Y": -1}}]}, "duration": 86400.0, "end": 5.333333333333333, "scale_x": {"Points": [{"interpolation": 2, "co": {"X": 1, "Y": 1}}]}, "effects": [], "has_audio": {"Points": [{"interpolation": 2, "co": {"X": 1, "Y": -1}}]}, "scale": 1, "perspective_c3_y": {"Points": [{"interpolation": 2, "co": {"X": 1, "Y": -1}}]}, "alpha": {"Points": [{"interpolation": 2, "co": {"X": 1, "Y": 1}}]}, "start": 0, "wave_color": {"blue": {"Points": [{"interpolation": 0, "handle_type": 0, "co": {"X": 1, "Y": 255}, "handle_left": {"X": 0.5, "Y": 1}, "handle_right": {"X": 0.5, "Y": 0}}]}, "green": {"Points": [{"interpolation": 0, "handle_type": 0, "co": {"X": 1, "Y": 123}, "handle_left": {"X": 0.5, "Y": 1}, "handle_right": {"X": 0.5, "Y": 0}}]}, "red": {"Points": [{"interpolation": 0, "handle_type": 0, "co": {"X": 1, "Y": 0}, "handle_left": {"X": 0.5, "Y": 1}, "handle_right": {"X": 0.5, "Y": 0}}]}, "alpha": {"Points": [{"interpolation": 0, "handle_type": 0, "co": {"X": 1, "Y": 255}, "handle_left": {"X": 0.5, "Y": 1}, "handle_right": {"X": 0.5, "Y": 0}}]}}, "crop_x": {"Points": [{"interpolation": 2, "co": {"X": 1, "Y": 0}}]}, "image": "/home/avishai/.openshot_qt/thumbnail/ULNSBVNSH3.png", "layer": 0, "perspective_c1_x": {"Points": [{"interpolation": 2, "co": {"X": 1, "Y": -1}}]}, "position": 80.95833333333334, "rotation": {"Points": [{"interpolation": 2, "co": {"X": 1, "Y": 0}}]}, "mixing": 0, "waveform": false, "crop_width": {"Points": [{"interpolation": 2, "co": {"X": 1, "Y": -1}}]}, "crop_height": {"Points": [{"interpolation": 2, "co": {"X": 1, "Y": -1}}]}, "crop_y": {"Points": [{"interpolation": 2, "co": {"X": 1, "Y": 0}}]}, "volume": {"Points": [{"interpolation": 2, "co": {"X": 1, "Y": 1}}]}, "channel_mapping": {"Points": [{"interpolation": 2, "co": {"X": 1, "Y": -1}}]}, "title": "opening7.png", "has_video": {"Points": [{"interpolation": 2, "co": {"X": 1, "Y": -1}}]}, "perspective_c4_y": {"Points": [{"interpolation": 2, "co": {"X": 1, "Y": -1}}]}, "perspective_c2_y": {"Points": [{"interpolation": 2, "co": {"X": 1, "Y": -1}}]}, "reader": {"type": "QtImageReader", "height": 720, "video_timebase": {"num": 1, "den": 30}, "audio_stream_index": -1, "video_length": "2592000", "interlaced_frame": false, "duration": 86400.0, "channels": 0, "sample_rate": 0, "video_bit_rate": 0, "channel_layout": 4, "path": "/home/avishai/Documents/workspace/adaptive_hand_model/matlab/video/slides/opening7.png", "metadata": {}, "audio_bit_rate": 0, "has_video": true, "has_audio": false, "pixel_format": -1, "acodec": "", "video_stream_index": -1, "display_ratio": {"num": 4, "den": 3}, "file_size": "2764800", "fps": {"num": 30, "den": 1}, "width": 960, "top_field_first": true, "audio_timebase": {"num": 1, "den": 1}, "pixel_ratio": {"num": 1, "den": 1}, "vcodec": "", "has_single_image": true}, "perspective_c3_x": {"Points": [{"interpolation": 2, "co": {"X": 1, "Y": -1}}]}, "gravity": 4, "id": "XC8281YBWR", "anchor": 0, "location_x": {"Points": [{"interpolation": 2, "co": {"X": 1, "Y": 0}}]}, "perspective_c1_y": {"Points": [{"interpolation": 2, "co": {"X": 1, "Y": -1}}]}, "file_id": "ULNSBVNSH3", "shear_y": {"Points": [{"interpolation": 2, "co": {"X": 1, "Y": 0}}]}, "location_y": {"Points": [{"interpolation": 2, "co": {"X": 1, "Y": 0}}]}, "scale_y": {"Points": [{"interpolation": 2, "co": {"X": 1, "Y": 1}}]}, "perspective_c4_x": {"Points": [{"interpolation": 2, "co": {"X": 1, "Y": -1}}]}, "shear_x": {"Points": [{"interpolation": 2, "co": {"X": 1, "Y": 0}}]}, "channel_filter": {"Points": [{"interpolation": 2, "co": {"X": 1, "Y": -1}}]}}, {"time": {"Points": [{"interpolation": 2, "co": {"X": 1, "Y": 1}}]}, "display": 0, "perspective_c2_x": {"Points": [{"interpolation": 2, "co": {"X": 1, "Y": -1}}]}, "duration": 6.949999809265137, "end": 6.949999809265137, "scale_x": {"Points": [{"interpolation": 2, "co": {"X": 1, "Y": 1}}]}, "effects": [], "has_audio": {"Points": [{"interpolation": 2, "co": {"X": 1, "Y": -1}}]}, "scale": 1, "perspective_c3_y": {"Points": [{"interpolation": 2, "co": {"X": 1, "Y": -1}}]}, "alpha": {"Points": [{"interpolation": 2, "co": {"X": 1, "Y": 1}}]}, "start": 0, "wave_color": {"blue": {"Points": [{"interpolation": 0, "handle_type": 0, "co": {"X": 1, "Y": 255}, "handle_left": {"X": 0.5, "Y": 1}, "handle_right": {"X": 0.5, "Y": 0}}]}, "green": {"Points": [{"interpolation": 0, "handle_type": 0, "co": {"X": 1, "Y": 123}, "handle_left": {"X": 0.5, "Y": 1}, "handle_right": {"X": 0.5, "Y": 0}}]}, "red": {"Points": [{"interpolation": 0, "handle_type": 0, "co": {"X": 1, "Y": 0}, "handle_left": {"X": 0.5, "Y": 1}, "handle_right": {"X": 0.5, "Y": 0}}]}, "alpha": {"Points": [{"interpolation": 0, "handle_type": 0, "co": {"X": 1, "Y": 255}, "handle_left": {"X": 0.5, "Y": 1}, "handle_right": {"X": 0.5, "Y": 0}}]}}, "crop_x": {"Points": [{"interpolation": 2, "co": {"X": 1, "Y": 0}}]}, "image": "/home/avishai/.openshot_qt/thumbnail/FC16UD9ZFT.png", "layer": 0, "perspective_c1_x": {"Points": [{"interpolation": 2, "co": {"X": 1, "Y": -1}}]}, "position": 86.29166666666669, "rotation": {"Points": [{"interpolation": 2, "co": {"X": 1, "Y": 0}}]}, "mixing": 0, "waveform": false, "crop_width": {"Points": [{"interpolation": 2, "co": {"X": 1, "Y": -1}}]}, "crop_height": {"Points": [{"interpolation": 2, "co": {"X": 1, "Y": -1}}]}, "crop_y": {"Points": [{"interpolation": 2, "co": {"X": 1, "Y": 0}}]}, "volume": {"Points": [{"interpolation": 2, "co": {"X": 1, "Y": 1}}]}, "channel_mapping": {"Points": [{"interpolation": 2, "co": {"X": 1, "Y": -1}}]}, "title": "trajs.avi", "has_video": {"Points": [{"interpolation": 2, "co": {"X": 1, "Y": -1}}]}, "perspective_c4_y": {"Points": [{"interpolation": 2, "co": {"X": 1, "Y": -1}}]}, "perspective_c2_y": {"Points": [{"interpolation": 2, "co": {"X": 1, "Y": -1}}]}, "reader": {"type": "FFmpegReader", "height": 1503, "video_timebase": {"num": 1, "den": 60}, "audio_stream_index": -1, "video_length": "417", "interlaced_frame": false, "duration": 6.949999809265137, "channels": 0, "sample_rate": 0, "video_bit_rate": 70132622, "channel_layout": 4, "path": "/home/avishai/Documents/workspace/adaptive_hand_model/matlab/video/trajs.avi", "metadata": {}, "audio_bit_rate": 0, "has_video": true, "has_audio": false, "pixel_format": 12, "acodec": "", "video_stream_index": 0, "display_ratio": {"num": 1502, "den": 1503}, "file_size": "60927716", "fps": {"num": 60, "den": 1}, "width": 1502, "top_field_first": true, "audio_timebase": {"num": 1, "den": 1}, "pixel_ratio": {"num": 1, "den": 1}, "vcodec": "mjpeg", "has_single_image": false}, "perspective_c3_x": {"Points": [{"interpolation": 2, "co": {"X": 1, "Y": -1}}]}, "gravity": 4, "id": "UL3TS2PDR4", "anchor": 0, "location_x": {"Points": [{"interpolation": 2, "co": {"X": 1, "Y": 0}}]}, "perspective_c1_y": {"Points": [{"interpolation": 2, "co": {"X": 1, "Y": -1}}]}, "file_id": "FC16UD9ZFT", "shear_y": {"Points": [{"interpolation": 2, "co": {"X": 1, "Y": 0}}]}, "location_y": {"Points": [{"interpolation": 2, "co": {"X": 1, "Y": 0}}]}, "scale_y": {"Points": [{"interpolation": 2, "co": {"X": 1, "Y": 1}}]}, "perspective_c4_x": {"Points": [{"interpolation": 2, "co": {"X": 1, "Y": -1}}]}, "shear_x": {"Points": [{"interpolation": 2, "co": {"X": 1, "Y": 0}}]}, "channel_filter": {"Points": [{"interpolation": 2, "co": {"X": 1, "Y": -1}}]}}, {"time": {"Points": [{"interpolation": 2, "co": {"X": 1, "Y": 1}}]}, "display": 0, "perspective_c2_x": {"Points": [{"interpolation": 2, "co": {"X": 1, "Y": -1}}]}, "duration": 86400.0, "end": 4, "scale_x": {"Points": [{"interpolation": 2, "co": {"X": 1, "Y": 1}}]}, "effects": [], "has_audio": {"Points": [{"interpolation": 2, "co": {"X": 1, "Y": -1}}]}, "scale": 1, "perspective_c3_y": {"Points": [{"interpolation": 2, "co": {"X": 1, "Y": -1}}]}, "alpha": {"Points": [{"interpolation": 2, "co": {"X": 1, "Y": 1}}]}, "start": 0, "wave_color": {"blue": {"Points": [{"interpolation": 0, "handle_type": 0, "co": {"X": 1, "Y": 255}, "handle_left": {"X": 0.5, "Y": 1}, "handle_right": {"X": 0.5, "Y": 0}}]}, "green": {"Points": [{"interpolation": 0, "handle_type": 0, "co": {"X": 1, "Y": 123}, "handle_left": {"X": 0.5, "Y": 1}, "handle_right": {"X": 0.5, "Y": 0}}]}, "red": {"Points": [{"interpolation": 0, "handle_type": 0, "co": {"X": 1, "Y": 0}, "handle_left": {"X": 0.5, "Y": 1}, "handle_right": {"X": 0.5, "Y": 0}}]}, "alpha": {"Points": [{"interpolation": 0, "handle_type": 0, "co": {"X": 1, "Y": 255}, "handle_left": {"X": 0.5, "Y": 1}, "handle_right": {"X": 0.5, "Y": 0}}]}}, "crop_x": {"Points": [{"interpolation": 2, "co": {"X": 1, "Y": 0}}]}, "image": "/home/avishai/.openshot_qt/thumbnail/EWEUFI7OUN.png", "layer": 0, "perspective_c1_x": {"Points": [{"interpolation": 2, "co": {"X": 1, "Y": -1}}]}, "position": 103.24166647593182, "rotation": {"Points": [{"interpolation": 2, "co": {"X": 1, "Y": 0}}]}, "mixing": 0, "waveform": false, "crop_width": {"Points": [{"interpolation": 2, "co": {"X": 1, "Y": -1}}]}, "crop_height": {"Points": [{"interpolation": 2, "co": {"X": 1, "Y": -1}}]}, "crop_y": {"Points": [{"interpolation": 2, "co": {"X": 1, "Y": 0}}]}, "volume": {"Points": [{"interpolation": 2, "co": {"X": 1, "Y": 1}}]}, "channel_mapping": {"Points": [{"interpolation": 2, "co": {"X": 1, "Y": -1}}]}, "title": "opening8b.png", "has_video": {"Points": [{"interpolation": 2, "co": {"X": 1, "Y": -1}}]}, "perspective_c4_y": {"Points": [{"interpolation": 2, "co": {"X": 1, "Y": -1}}]}, "perspective_c2_y": {"Points": [{"interpolation": 2, "co": {"X": 1, "Y": -1}}]}, "reader": {"type": "QtImageReader", "height": 720, "video_timebase": {"num": 1, "den": 30}, "audio_stream_index": -1, "video_length": "2592000", "interlaced_frame": false, "duration": 86400.0, "channels": 0, "sample_rate": 0, "video_bit_rate": 0, "channel_layout": 4, "path": "/home/avishai/Documents/workspace/adaptive_hand_model/matlab/video/slides/opening8b.png", "metadata": {}, "audio_bit_rate": 0, "has_video": true, "has_audio": false, "pixel_format": -1, "acodec": "", "video_stream_index": -1, "display_ratio": {"num": 4, "den": 3}, "file_size": "2764800", "fps": {"num": 30, "den": 1}, "width": 960, "top_field_first": true, "audio_timebase": {"num": 1, "den": 1}, "pixel_ratio": {"num": 1, "den": 1}, "vcodec": "", "has_single_image": true}, "perspective_c3_x": {"Points": [{"interpolation": 2, "co": {"X": 1, "Y": -1}}]}, "gravity": 4, "id": "K1HDHMF9R0", "anchor": 0, "location_x": {"Points": [{"interpolation": 2, "co": {"X": 1, "Y": 0}}]}, "perspective_c1_y": {"Points": [{"interpolation": 2, "co": {"X": 1, "Y": -1}}]}, "file_id": "EWEUFI7OUN", "shear_y": {"Points": [{"interpolation": 2, "co": {"X": 1, "Y": 0}}]}, "location_y": {"Points": [{"interpolation": 2, "co": {"X": 1, "Y": 0}}]}, "scale_y": {"Points": [{"interpolation": 2, "co": {"X": 1, "Y": 1}}]}, "perspective_c4_x": {"Points": [{"interpolation": 2, "co": {"X": 1, "Y": -1}}]}, "shear_x": {"Points": [{"interpolation": 2, "co": {"X": 1, "Y": 0}}]}, "channel_filter": {"Points": [{"interpolation": 2, "co": {"X": 1, "Y": -1}}]}}, {"time": {"Points": [{"interpolation": 2, "co": {"X": 1, "Y": 1}}]}, "display": 0, "perspective_c2_x": {"Points": [{"interpolation": 2, "co": {"X": 1, "Y": -1}}]}, "duration": 4.75, "end": 4.75, "scale_x": {"Points": [{"interpolation": 2, "co": {"X": 1, "Y": 1}}]}, "effects": [], "has_audio": {"Points": [{"interpolation": 2, "co": {"X": 1, "Y": -1}}]}, "scale": 1, "perspective_c3_y": {"Points": [{"interpolation": 2, "co": {"X": 1, "Y": -1}}]}, "alpha": {"Points": [{"interpolation": 2, "co": {"X": 1, "Y": 1}}]}, "start": 0, "wave_color": {"blue": {"Points": [{"interpolation": 0, "handle_type": 0, "co": {"X": 1, "Y": 255}, "handle_left": {"X": 0.5, "Y": 1}, "handle_right": {"X": 0.5, "Y": 0}}]}, "green": {"Points": [{"interpolation": 0, "handle_type": 0, "co": {"X": 1, "Y": 123}, "handle_left": {"X": 0.5, "Y": 1}, "handle_right": {"X": 0.5, "Y": 0}}]}, "red": {"Points": [{"interpolation": 0, "handle_type": 0, "co": {"X": 1, "Y": 0}, "handle_left": {"X": 0.5, "Y": 1}, "handle_right": {"X": 0.5, "Y": 0}}]}, "alpha": {"Points": [{"interpolation": 0, "handle_type": 0, "co": {"X": 1, "Y": 255}, "handle_left": {"X": 0.5, "Y": 1}, "handle_right": {"X": 0.5, "Y": 0}}]}}, "crop_x": {"Points": [{"interpolation": 2, "co": {"X": 1, "Y": 0}}]}, "image": "/home/avishai/.openshot_qt/thumbnail/KZLNLAEG7J.png", "layer": 0, "perspective_c1_x": {"Points": [{"interpolation": 2, "co": {"X": 1, "Y": -1}}]}, "position": 107.24166647593182, "rotation": {"Points": [{"interpolation": 2, "co": {"X": 1, "Y": 0}}]}, "mixing": 0, "waveform": false, "crop_width": {"Points": [{"interpolation": 2, "co": {"X": 1, "Y": -1}}]}, "crop_height": {"Points": [{"interpolation": 2, "co": {"X": 1, "Y": -1}}]}, "crop_y": {"Points": [{"interpolation": 2, "co": {"X": 1, "Y": 0}}]}, "volume": {"Points": [{"interpolation": 2, "co": {"X": 1, "Y": 1}}]}, "channel_mapping": {"Points": [{"interpolation": 2, "co": {"X": 1, "Y": -1}}]}, "title": "trajs_fc_1.avi", "has_video": {"Points": [{"interpolation": 2, "co": {"X": 1, "Y": -1}}]}, "perspective_c4_y": {"Points": [{"interpolation": 2, "co": {"X": 1, "Y": -1}}]}, "perspective_c2_y": {"Points": [{"interpolation": 2, "co": {"X": 1, "Y": -1}}]}, "reader": {"type": "FFmpegReader", "height": 1002, "video_timebase": {"num": 1, "den": 60}, "audio_stream_index": -1, "video_length": "285", "interlaced_frame": false, "duration": 4.75, "channels": 0, "sample_rate": 0, "video_bit_rate": 79206750, "channel_layout": 4, "path": "/home/avishai/Documents/workspace/adaptive_hand_model/matlab/video/trajs_fc_1.avi", "metadata": {}, "audio_bit_rate": 0, "has_video": true, "has_audio": false, "pixel_format": 12, "acodec": "", "video_stream_index": 0, "display_ratio": {"num": 2, "den": 1}, "file_size": "47029008", "fps": {"num": 60, "den": 1}, "width": 2004, "top_field_first": true, "audio_timebase": {"num": 1, "den": 1}, "pixel_ratio": {"num": 1, "den": 1}, "vcodec": "mjpeg", "has_single_image": false}, "perspective_c3_x": {"Points": [{"interpolation": 2, "co": {"X": 1, "Y": -1}}]}, "gravity": 4, "id": "E30S9MIQFA", "anchor": 0, "location_x": {"Points": [{"interpolation": 2, "co": {"X": 1, "Y": 0}}]}, "perspective_c1_y": {"Points": [{"interpolation": 2, "co": {"X": 1, "Y": -1}}]}, "file_id": "KZLNLAEG7J", "shear_y": {"Points": [{"interpolation": 2, "co": {"X": 1, "Y": 0}}]}, "location_y": {"Points": [{"interpolation": 2, "co": {"X": 1, "Y": 0}}]}, "scale_y": {"Points": [{"interpolation": 2, "co": {"X": 1, "Y": 1}}]}, "perspective_c4_x": {"Points": [{"interpolation": 2, "co": {"X": 1, "Y": -1}}]}, "shear_x": {"Points": [{"interpolation": 2, "co": {"X": 1, "Y": 0}}]}, "channel_filter": {"Points": [{"interpolation": 2, "co": {"X": 1, "Y": -1}}]}}, {"time": {"Points": [{"interpolation": 2, "co": {"X": 1, "Y": 1}}]}, "display": 0, "perspective_c2_x": {"Points": [{"interpolation": 2, "co": {"X": 1, "Y": -1}}]}, "duration": 4.366666793823242, "end": 4.366666793823242, "scale_x": {"Points": [{"interpolation": 2, "co": {"X": 1, "Y": 1}}]}, "effects": [], "has_audio": {"Points": [{"interpolation": 2, "co": {"X": 1, "Y": -1}}]}, "scale": 1, "perspective_c3_y": {"Points": [{"interpolation": 2, "co": {"X": 1, "Y": -1}}]}, "alpha": {"Points": [{"interpolation": 2, "co": {"X": 1, "Y": 1}}]}, "start": 0, "wave_color": {"blue": {"Points": [{"interpolation": 0, "handle_type": 0, "co": {"X": 1, "Y": 255}, "handle_left": {"X": 0.5, "Y": 1}, "handle_right": {"X": 0.5, "Y": 0}}]}, "green": {"Points": [{"interpolation": 0, "handle_type": 0, "co": {"X": 1, "Y": 123}, "handle_left": {"X": 0.5, "Y": 1}, "handle_right": {"X": 0.5, "Y": 0}}]}, "red": {"Points": [{"interpolation": 0, "handle_type": 0, "co": {"X": 1, "Y": 0}, "handle_left": {"X": 0.5, "Y": 1}, "handle_right": {"X": 0.5, "Y": 0}}]}, "alpha": {"Points": [{"interpolation": 0, "handle_type": 0, "co": {"X": 1, "Y": 255}, "handle_left": {"X": 0.5, "Y": 1}, "handle_right": {"X": 0.5, "Y": 0}}]}}, "crop_x": {"Points": [{"interpolation": 2, "co": {"X": 1, "Y": 0}}]}, "image": "/home/avishai/.openshot_qt/thumbnail/D1DPZWUXYA.png", "layer": 0, "perspective_c1_x": {"Points": [{"interpolation": 2, "co": {"X": 1, "Y": -1}}]}, "position": 111.99166647593182, "rotation": {"Points": [{"interpolation": 2, "co": {"X": 1, "Y": 0}}]}, "mixing": 0, "waveform": false, "crop_width": {"Points": [{"interpolation": 2, "co": {"X": 1, "Y": -1}}]}, "crop_height": {"Points": [{"interpolation": 2, "co": {"X": 1, "Y": -1}}]}, "crop_y": {"Points": [{"interpolation": 2, "co": {"X": 1, "Y": 0}}]}, "volume": {"Points": [{"interpolation": 2, "co": {"X": 1, "Y": 1}}]}, "channel_mapping": {"Points": [{"interpolation": 2, "co": {"X": 1, "Y": -1}}]}, "title": "trajs_fc_2.avi", "has_video": {"Points": [{"interpolation": 2, "co": {"X": 1, "Y": -1}}]}, "perspective_c4_y": {"Points": [{"interpolation": 2, "co": {"X": 1, "Y": -1}}]}, "perspective_c2_y": {"Points": [{"interpolation": 2, "co": {"X": 1, "Y": -1}}]}, "reader": {"type": "FFmpegReader", "height": 1002, "video_timebase": {"num": 1, "den": 60}, "audio_stream_index": -1, "video_length": "262", "interlaced_frame": false, "duration": 4.366666793823242, "channels": 0, "sample_rate": 0, "video_bit_rate": 78925778, "channel_layout": 4, "path": "/home/avishai/Documents/workspace/adaptive_hand_model/matlab/video/trajs_fc_2.avi", "metadata": {}, "audio_bit_rate": 0, "has_video": true, "has_audio": false, "pixel_format": 12, "acodec": "", "video_stream_index": 0, "display_ratio": {"num": 2, "den": 1}, "file_size": "43080324", "fps": {"num": 60, "den": 1}, "width": 2004, "top_field_first": true, "audio_timebase": {"num": 1, "den": 1}, "pixel_ratio": {"num": 1, "den": 1}, "vcodec": "mjpeg", "has_single_image": false}, "perspective_c3_x": {"Points": [{"interpolation": 2, "co": {"X": 1, "Y": -1}}]}, "gravity": 4, "id": "56I4I8MV7U", "anchor": 0, "location_x": {"Points": [{"interpolation": 2, "co": {"X": 1, "Y": 0}}]}, "perspective_c1_y": {"Points": [{"interpolation": 2, "co": {"X": 1, "Y": -1}}]}, "file_id": "D1DPZWUXYA", "shear_y": {"Points": [{"interpolation": 2, "co": {"X": 1, "Y": 0}}]}, "location_y": {"Points": [{"interpolation": 2, "co": {"X": 1, "Y": 0}}]}, "scale_y": {"Points": [{"interpolation": 2, "co": {"X": 1, "Y": 1}}]}, "perspective_c4_x": {"Points": [{"interpolation": 2, "co": {"X": 1, "Y": -1}}]}, "shear_x": {"Points": [{"interpolation": 2, "co": {"X": 1, "Y": 0}}]}, "channel_filter": {"Points": [{"interpolation": 2, "co": {"X": 1, "Y": -1}}]}}, {"time": {"Points": [{"interpolation": 2, "co": {"X": 1, "Y": 1}}]}, "display": 0, "perspective_c2_x": {"Points": [{"interpolation": 2, "co": {"X": 1, "Y": -1}}]}, "duration": 6.949999809265137, "end": 6.949999809265137, "scale_x": {"Points": [{"interpolation": 2, "co": {"X": 1, "Y": 1}}]}, "effects": [], "has_audio": {"Points": [{"interpolation": 2, "co": {"X": 1, "Y": -1}}]}, "scale": 1, "perspective_c3_y": {"Points": [{"interpolation": 2, "co": {"X": 1, "Y": -1}}]}, "alpha": {"Points": [{"interpolation": 2, "co": {"X": 1, "Y": 1}}]}, "start": 0, "wave_color": {"blue": {"Points": [{"interpolation": 0, "handle_type": 0, "co": {"X": 1, "Y": 255}, "handle_left": {"X": 0.5, "Y": 1}, "handle_right": {"X": 0.5, "Y": 0}}]}, "green": {"Points": [{"interpolation": 0, "handle_type": 0, "co": {"X": 1, "Y": 123}, "handle_left": {"X": 0.5, "Y": 1}, "handle_right": {"X": 0.5, "Y": 0}}]}, "red": {"Points": [{"interpolation": 0, "handle_type": 0, "co": {"X": 1, "Y": 0}, "handle_left": {"X": 0.5, "Y": 1}, "handle_right": {"X": 0.5, "Y": 0}}]}, "alpha": {"Points": [{"interpolation": 0, "handle_type": 0, "co": {"X": 1, "Y": 255}, "handle_left": {"X": 0.5, "Y": 1}, "handle_right": {"X": 0.5, "Y": 0}}]}}, "crop_x": {"Points": [{"interpolation": 2, "co": {"X": 1, "Y": 0}}]}, "image": "/home/avishai/.openshot_qt/thumbnail/NNI1FVOBKE.png", "layer": 0, "perspective_c1_x": {"Points": [{"interpolation": 2, "co": {"X": 1, "Y": -1}}]}, "position": 116.35833326975506, "rotation": {"Points": [{"interpolation": 2, "co": {"X": 1, "Y": 0}}]}, "mixing": 0, "waveform": false, "crop_width": {"Points": [{"interpolation": 2, "co": {"X": 1, "Y": -1}}]}, "crop_height": {"Points": [{"interpolation": 2, "co": {"X": 1, "Y": -1}}]}, "crop_y": {"Points": [{"interpolation": 2, "co": {"X": 1, "Y": 0}}]}, "volume": {"Points": [{"interpolation": 2, "co": {"X": 1, "Y": 1}}]}, "channel_mapping": {"Points": [{"interpolation": 2, "co": {"X": 1, "Y": -1}}]}, "title": "trajs_fc_3.avi", "has_video": {"Points": [{"interpolation": 2, "co": {"X": 1, "Y": -1}}]}, "perspective_c4_y": {"Points": [{"interpolation": 2, "co": {"X": 1, "Y": -1}}]}, "perspective_c2_y": {"Points": [{"interpolation": 2, "co": {"X": 1, "Y": -1}}]}, "reader": {"type": "FFmpegReader", "height": 1002, "video_timebase": {"num": 1, "den": 60}, "audio_stream_index": -1, "video_length": "417", "interlaced_frame": false, "duration": 6.949999809265137, "channels": 0, "sample_rate": 0, "video_bit_rate": 79792890, "channel_layout": 4, "path": "/home/avishai/Documents/workspace/adaptive_hand_model/matlab/video/trajs_fc_3.avi", "metadata": {}, "audio_bit_rate": 0, "has_video": true, "has_audio": false, "pixel_format": 12, "acodec": "", "video_stream_index": 0, "display_ratio": {"num": 2, "den": 1}, "file_size": "69320074", "fps": {"num": 60, "den": 1}, "width": 2004, "top_field_first": true, "audio_timebase": {"num": 1, "den": 1}, "pixel_ratio": {"num": 1, "den": 1}, "vcodec": "mjpeg", "has_single_image": false}, "perspective_c3_x": {"Points": [{"interpolation": 2, "co": {"X": 1, "Y": -1}}]}, "gravity": 4, "id": "O2H2SXKGGU", "anchor": 0, "location_x": {"Points": [{"interpolation": 2, "co": {"X": 1, "Y": 0}}]}, "perspective_c1_y": {"Points": [{"interpolation": 2, "co": {"X": 1, "Y": -1}}]}, "file_id": "NNI1FVOBKE", "shear_y": {"Points": [{"interpolation": 2, "co": {"X": 1, "Y": 0}}]}, "location_y": {"Points": [{"interpolation": 2, "co": {"X": 1, "Y": 0}}]}, "scale_y": {"Points": [{"interpolation": 2, "co": {"X": 1, "Y": 1}}]}, "perspective_c4_x": {"Points": [{"interpolation": 2, "co": {"X": 1, "Y": -1}}]}, "shear_x": {"Points": [{"interpolation": 2, "co": {"X": 1, "Y": 0}}]}, "channel_filter": {"Points": [{"interpolation": 2, "co": {"X": 1, "Y": -1}}]}}, {"time": {"Points": [{"interpolation": 2, "co": {"X": 1, "Y": 1}}]}, "display": 0, "perspective_c2_x": {"Points": [{"interpolation": 2, "co": {"X": 1, "Y": -1}}]}, "duration": 86400.0, "end": 10, "scale_x": {"Points": [{"interpolation": 2, "co": {"X": 1, "Y": 1}}]}, "effects": [], "has_audio": {"Points": [{"interpolation": 2, "co": {"X": 1, "Y": -1}}]}, "scale": 1, "perspective_c3_y": {"Points": [{"interpolation": 2, "co": {"X": 1, "Y": -1}}]}, "alpha": {"Points": [{"interpolation": 2, "co": {"X": 1, "Y": 1}}]}, "start": 0, "wave_color": {"blue": {"Points": [{"interpolation": 0, "handle_type": 0, "co": {"X": 1, "Y": 255}, "handle_left": {"X": 0.5, "Y": 1}, "handle_right": {"X": 0.5, "Y": 0}}]}, "green": {"Points": [{"interpolation": 0, "handle_type": 0, "co": {"X": 1, "Y": 123}, "handle_left": {"X": 0.5, "Y": 1}, "handle_right": {"X": 0.5, "Y": 0}}]}, "red": {"Points": [{"interpolation": 0, "handle_type": 0, "co": {"X": 1, "Y": 0}, "handle_left": {"X": 0.5, "Y": 1}, "handle_right": {"X": 0.5, "Y": 0}}]}, "alpha": {"Points": [{"interpolation": 0, "handle_type": 0, "co": {"X": 1, "Y": 255}, "handle_left": {"X": 0.5, "Y": 1}, "handle_right": {"X": 0.5, "Y": 0}}]}}, "crop_x": {"Points": [{"interpolation": 2, "co": {"X": 1, "Y": 0}}]}, "image": "/home/avishai/.openshot_qt/thumbnail/700EU1BLAQ.png", "layer": 0, "perspective_c1_x": {"Points": [{"interpolation": 2, "co": {"X": 1, "Y": -1}}]}, "position": 93.44166647593183, "rotation": {"Points": [{"interpolation": 2, "co": {"X": 1, "Y": 0}}]}, "mixing": 0, "waveform": false, "crop_width": {"Points": [{"interpolation": 2, "co": {"X": 1, "Y": -1}}]}, "crop_height": {"Points": [{"interpolation": 2, "co": {"X": 1, "Y": -1}}]}, "crop_y": {"Points": [{"interpolation": 2, "co": {"X": 1, "Y": 0}}]}, "volume": {"Points": [{"interpolation": 2, "co": {"X": 1, "Y": 1}}]}, "channel_mapping": {"Points": [{"interpolation": 2, "co": {"X": 1, "Y": -1}}]}, "title": "opening8.png", "has_video": {"Points": [{"interpolation": 2, "co": {"X": 1, "Y": -1}}]}, "perspective_c4_y": {"Points": [{"interpolation": 2, "co": {"X": 1, "Y": -1}}]}, "perspective_c2_y": {"Points": [{"interpolation": 2, "co": {"X": 1, "Y": -1}}]}, "reader": {"type": "QtImageReader", "height": 720, "video_timebase": {"num": 1, "den": 30}, "audio_stream_index": -1, "video_length": "2592000", "interlaced_frame": false, "duration": 86400.0, "channels": 0, "sample_rate": 0, "video_bit_rate": 0, "channel_layout": 4, "path": "/home/avishai/Documents/workspace/adaptive_hand_model/matlab/video/slides/opening8.png", "metadata": {}, "audio_bit_rate": 0, "has_video": true, "has_audio": false, "pixel_format": -1, "acodec": "", "video_stream_index": -1, "display_ratio": {"num": 4, "den": 3}, "file_size": "2764800", "fps": {"num": 30, "den": 1}, "width": 960, "top_field_first": true, "audio_timebase": {"num": 1, "den": 1}, "pixel_ratio": {"num": 1, "den": 1}, "vcodec": "", "has_single_image": true}, "perspective_c3_x": {"Points": [{"interpolation": 2, "co": {"X": 1, "Y": -1}}]}, "gravity": 4, "id": "891QVU4B22", "anchor": 0, "location_x": {"Points": [{"interpolation": 2, "co": {"X": 1, "Y": 0}}]}, "perspective_c1_y": {"Points": [{"interpolation": 2, "co": {"X": 1, "Y": -1}}]}, "file_id": "700EU1BLAQ", "shear_y": {"Points": [{"interpolation": 2, "co": {"X": 1, "Y": 0}}]}, "location_y": {"Points": [{"interpolation": 2, "co": {"X": 1, "Y": 0}}]}, "scale_y": {"Points": [{"interpolation": 2, "co": {"X": 1, "Y": 1}}]}, "perspective_c4_x": {"Points": [{"interpolation": 2, "co": {"X": 1, "Y": -1}}]}, "shear_x": {"Points": [{"interpolation": 2, "co": {"X": 1, "Y": 0}}]}, "channel_filter": {"Points": [{"interpolation": 2, "co": {"X": 1, "Y": -1}}]}}], "key": ["clips"], "partial": false}, {"value": null, "type": "delete", "old_values": {"time": {"Points": [{"interpolation": 2, "co": {"X": 1, "Y": 1}}]}, "display": 0, "perspective_c2_x": {"Points": [{"interpolation": 2, "co": {"X": 1, "Y": -1}}]}, "duration": 86400.0, "end": 10.0, "scale_x": {"Points": [{"interpolation": 2, "co": {"X": 1, "Y": 1}}]}, "effects": [], "has_audio": {"Points": [{"interpolation": 2, "co": {"X": 1, "Y": -1}}]}, "scale": 1, "perspective_c3_y": {"Points": [{"interpolation": 2, "co": {"X": 1, "Y": -1}}]}, "alpha": {"Points": [{"interpolation": 2, "co": {"X": 1, "Y": 1}}]}, "start": 0, "wave_color": {"blue": {"Points": [{"interpolation": 0, "handle_type": 0, "co": {"X": 1, "Y": 255}, "handle_left": {"X": 0.5, "Y": 1}, "handle_right": {"X": 0.5, "Y": 0}}]}, "green": {"Points": [{"interpolation": 0, "handle_type": 0, "co": {"X": 1, "Y": 123}, "handle_left": {"X": 0.5, "Y": 1}, "handle_right": {"X": 0.5, "Y": 0}}]}, "red": {"Points": [{"interpolation": 0, "handle_type": 0, "co": {"X": 1, "Y": 0}, "handle_left": {"X": 0.5, "Y": 1}, "handle_right": {"X": 0.5, "Y": 0}}]}, "alpha": {"Points": [{"interpolation": 0, "handle_type": 0, "co": {"X": 1, "Y": 255}, "handle_left": {"X": 0.5, "Y": 1}, "handle_right": {"X": 0.5, "Y": 0}}]}}, "crop_x": {"Points": [{"interpolation": 2, "co": {"X": 1, "Y": 0}}]}, "image": "/home/avishai/.openshot_qt/thumbnail/0S38URN00T.png", "layer": 1, "perspective_c1_x": {"Points": [{"interpolation": 2, "co": {"X": 1, "Y": -1}}]}, "position": 54.18, "rotation": {"Points": [{"interpolation": 2, "co": {"X": 1, "Y": 0}}]}, "mixing": 0, "waveform": false, "crop_width": {"Points": [{"interpolation": 2, "co": {"X": 1, "Y": -1}}]}, "crop_height": {"Points": [{"interpolation": 2, "co": {"X": 1, "Y": -1}}]}, "crop_y": {"Points": [{"interpolation": 2, "co": {"X": 1, "Y": 0}}]}, "volume": {"Points": [{"interpolation": 2, "co": {"X": 1, "Y": 1}}]}, "channel_mapping": {"Points": [{"interpolation": 2, "co": {"X": 1, "Y": -1}}]}, "title": "opening5.png", "has_video": {"Points": [{"interpolation": 2, "co": {"X": 1, "Y": -1}}]}, "perspective_c4_y": {"Points": [{"interpolation": 2, "co": {"X": 1, "Y": -1}}]}, "perspective_c2_y": {"Points": [{"interpolation": 2, "co": {"X": 1, "Y": -1}}]}, "reader": {"type": "QtImageReader", "height": 720, "video_timebase": {"num": 1, "den": 30}, "audio_stream_index": -1, "video_length": "2592000", "interlaced_frame": false, "duration": 86400.0, "channels": 0, "sample_rate": 0, "video_bit_rate": 0, "channel_layout": 4, "path": "/home/avishai/Documents/workspace/adaptive_hand_model/matlab/video/slides/opening5.png", "metadata": {}, "audio_bit_rate": 0, "has_video": true, "has_audio": false, "pixel_format": -1, "acodec": "", "video_stream_index": -1, "display_ratio": {"num": 4, "den": 3}, "file_size": "2764800", "fps": {"num": 30, "den": 1}, "width": 960, "top_field_first": true, "audio_timebase": {"num": 1, "den": 1}, "pixel_ratio": {"num": 1, "den": 1}, "vcodec": "", "has_single_image": true}, "perspective_c3_x": {"Points": [{"interpolation": 2, "co": {"X": 1, "Y": -1}}]}, "gravity": 4, "id": "2KVJ69WXO2", "anchor": 0, "location_x": {"Points": [{"interpolation": 2, "co": {"X": 1, "Y": 0}}]}, "perspective_c1_y": {"Points": [{"interpolation": 2, "co": {"X": 1, "Y": -1}}]}, "file_id": "0S38URN00T", "shear_y": {"Points": [{"interpolation": 2, "co": {"X": 1, "Y": 0}}]}, "location_y": {"Points": [{"interpolation": 2, "co": {"X": 1, "Y": 0}}]}, "scale_y": {"Points": [{"interpolation": 2, "co": {"X": 1, "Y": 1}}]}, "perspective_c4_x": {"Points": [{"interpolation": 2, "co": {"X": 1, "Y": -1}}]}, "shear_x": {"Points": [{"interpolation": 2, "co": {"X": 1, "Y": 0}}]}, "channel_filter": {"Points": [{"interpolation": 2, "co": {"X": 1, "Y": -1}}]}}, "key": ["clips", {"id": "2KVJ69WXO2"}], "partial": false}, {"value": {"time": {"Points": [{"interpolation": 2, "co": {"X": 1, "Y": 1}}]}, "display": 0, "perspective_c2_x": {"Points": [{"interpolation": 2, "co": {"X": 1, "Y": -1}}]}, "duration": 86400.0, "end": 10, "scale_x": {"Points": [{"interpolation": 2, "co": {"X": 1, "Y": 1}}]}, "effects": [], "has_audio": {"Points": [{"interpolation": 2, "co": {"X": 1, "Y": -1}}]}, "scale": 1, "perspective_c3_y": {"Points": [{"interpolation": 2, "co": {"X": 1, "Y": -1}}]}, "alpha": {"Points": [{"interpolation": 2, "co": {"X": 1, "Y": 1}}]}, "start": 0, "wave_color": {"blue": {"Points": [{"interpolation": 0, "handle_type": 0, "handle_left": {"X": 0.5, "Y": 1}, "handle_right": {"X": 0.5, "Y": 0}, "co": {"X": 1, "Y": 255}}]}, "green": {"Points": [{"interpolation": 0, "handle_type": 0, "handle_left": {"X": 0.5, "Y": 1}, "handle_right": {"X": 0.5, "Y": 0}, "co": {"X": 1, "Y": 123}}]}, "red": {"Points": [{"interpolation": 0, "handle_type": 0, "handle_left": {"X": 0.5, "Y": 1}, "handle_right": {"X": 0.5, "Y": 0}, "co": {"X": 1, "Y": 0}}]}, "alpha": {"Points": [{"interpolation": 0, "handle_type": 0, "handle_left": {"X": 0.5, "Y": 1}, "handle_right": {"X": 0.5, "Y": 0}, "co": {"X": 1, "Y": 255}}]}}, "crop_x": {"Points": [{"interpolation": 2, "co": {"X": 1, "Y": 0}}]}, "image": "/home/avishai/.openshot_qt/thumbnail/0S38URN00T.png", "layer": 0, "perspective_c1_x": {"Points": [{"interpolation": 2, "co": {"X": 1, "Y": -1}}]}, "shear_y": {"Points": [{"interpolation": 2, "co": {"X": 1, "Y": 0}}]}, "rotation": {"Points": [{"interpolation": 2, "co": {"X": 1, "Y": 0}}]}, "mixing": 0, "waveform": false, "crop_width": {"Points": [{"interpolation": 2, "co": {"X": 1, "Y": -1}}]}, "crop_height": {"Points": [{"interpolation": 2, "co": {"X": 1, "Y": -1}}]}, "crop_y": {"Points": [{"interpolation": 2, "co": {"X": 1, "Y": 0}}]}, "volume": {"Points": [{"interpolation": 2, "co": {"X": 1, "Y": 1}}]}, "channel_mapping": {"Points": [{"interpolation": 2, "co": {"X": 1, "Y": -1}}]}, "title": "opening5.png", "has_video": {"Points": [{"interpolation": 2, "co": {"X": 1, "Y": -1}}]}, "perspective_c4_y": {"Points": [{"interpolation": 2, "co": {"X": 1, "Y": -1}}]}, "perspective_c2_y": {"Points": [{"interpolation": 2, "co": {"X": 1, "Y": -1}}]}, "reader": {"type": "QtImageReader", "height": 720, "video_timebase": {"num": 1, "den": 30}, "audio_stream_index": -1, "video_length": "2592000", "interlaced_frame": false, "duration": 86400.0, "channels": 0, "sample_rate": 0, "video_bit_rate": 0, "channel_layout": 4, "path": "/home/avishai/Documents/workspace/adaptive_hand_model/matlab/video/slides/opening5.png", "metadata": {}, "audio_bit_rate": 0, "has_video": true, "has_audio": false, "pixel_format": -1, "acodec": "", "video_stream_index": -1, "display_ratio": {"num": 4, "den": 3}, "fps": {"num": 30, "den": 1}, "width": 960, "file_size": "2764800", "top_field_first": true, "audio_timebase": {"num": 1, "den": 1}, "pixel_ratio": {"num": 1, "den": 1}, "vcodec": "", "has_single_image": true}, "position": 61.15833333333334, "perspective_c3_x": {"Points": [{"interpolation": 2, "co": {"X": 1, "Y": -1}}]}, "gravity": 4, "id": "Y2Z73X5B3B", "anchor": 0, "location_x": {"Points": [{"interpolation": 2, "co": {"X": 1, "Y": 0}}]}, "perspective_c1_y": {"Points": [{"interpolation": 2, "co": {"X": 1, "Y": -1}}]}, "file_id": "0S38URN00T", "channel_filter": {"Points": [{"interpolation": 2, "co": {"X": 1, "Y": -1}}]}, "location_y": {"Points": [{"interpolation": 2, "co": {"X": 1, "Y": 0}}]}, "scale_y": {"Points": [{"interpolation": 2, "co": {"X": 1, "Y": 1}}]}, "shear_x": {"Points": [{"interpolation": 2, "co": {"X": 1, "Y": 0}}]}, "perspective_c4_x": {"Points": [{"interpolation": 2, "co": {"X": 1, "Y": -1}}]}}, "type": "insert", "old_values": [{"time": {"Points": [{"interpolation": 2, "co": {"X": 1, "Y": 1}}]}, "display": 0, "perspective_c2_x": {"Points": [{"interpolation": 2, "co": {"X": 1, "Y": -1}}]}, "duration": 10.866666793823242, "end": 10.875, "scale_x": {"Points": [{"interpolation": 2, "co": {"X": 1, "Y": 1}}]}, "channel_filter": {"Points": [{"interpolation": 2, "co": {"X": 1, "Y": -1}}]}, "effects": [], "has_audio": {"Points": [{"interpolation": 2, "co": {"X": 1, "Y": -1}}]}, "scale": 1, "perspective_c3_y": {"Points": [{"interpolation": 2, "co": {"X": 1, "Y": -1}}]}, "alpha": {"Points": [{"interpolation": 2, "co": {"X": 1, "Y": 1}}]}, "shear_x": {"Points": [{"interpolation": 2, "co": {"X": 1, "Y": 0}}]}, "wave_color": {"blue": {"Points": [{"interpolation": 0, "handle_type": 0, "handle_left": {"X": 0.5, "Y": 1}, "handle_right": {"X": 0.5, "Y": 0}, "co": {"X": 1, "Y": 255}}]}, "red": {"Points": [{"interpolation": 0, "handle_type": 0, "handle_left": {"X": 0.5, "Y": 1}, "handle_right": {"X": 0.5, "Y": 0}, "co": {"X": 1, "Y": 0}}]}, "green": {"Points": [{"interpolation": 0, "handle_type": 0, "handle_left": {"X": 0.5, "Y": 1}, "handle_right": {"X": 0.5, "Y": 0}, "co": {"X": 1, "Y": 123}}]}, "alpha": {"Points": [{"interpolation": 0, "handle_type": 0, "handle_left": {"X": 0.5, "Y": 1}, "handle_right": {"X": 0.5, "Y": 0}, "co": {"X": 1, "Y": 255}}]}}, "crop_x": {"Points": [{"interpolation": 2, "co": {"X": 1, "Y": 0}}]}, "image": "/home/avishai/.openshot_qt/thumbnail/VLL3NDOT0B.png", "layer": 0, "perspective_c1_x": {"Points": [{"interpolation": 2, "co": {"X": 1, "Y": -1}}]}, "shear_y": {"Points": [{"interpolation": 2, "co": {"X": 1, "Y": 0}}]}, "rotation": {"Points": [{"interpolation": 2, "co": {"X": 1, "Y": 0}}]}, "gravity": 4, "waveform": false, "crop_width": {"Points": [{"interpolation": 2, "co": {"X": 1, "Y": -1}}]}, "crop_height": {"Points": [{"interpolation": 2, "co": {"X": 1, "Y": -1}}]}, "crop_y": {"Points": [{"interpolation": 2, "co": {"X": 1, "Y": 0}}]}, "volume": {"Points": [{"interpolation": 2, "co": {"X": 1, "Y": 1}}]}, "channel_mapping": {"Points": [{"interpolation": 2, "co": {"X": 1, "Y": -1}}]}, "title": "rec.avi", "has_video": {"Points": [{"interpolation": 2, "co": {"X": 1, "Y": -1}}]}, "perspective_c4_y": {"Points": [{"interpolation": 2, "co": {"X": 1, "Y": -1}}]}, "perspective_c2_y": {"Points": [{"interpolation": 2, "co": {"X": 1, "Y": -1}}]}, "reader": {"type": "FFmpegReader", "height": 451, "video_timebase": {"num": 1, "den": 60}, "audio_stream_index": -1, "video_length": "652", "interlaced_frame": false, "audio_bit_rate": 0, "channels": 0, "sample_rate": 0, "video_bit_rate": 13375086, "channel_layout": 4, "path": "/home/avishai/Documents/workspace/adaptive_hand_model/matlab/video/rec.avi", "metadata": {}, "vcodec": "mjpeg", "has_video": true, "has_audio": false, "pixel_format": 12, "acodec": "", "video_stream_index": 0, "display_ratio": {"num": 531, "den": 451}, "file_size": "18167826", "fps": {"num": 60, "den": 1}, "width": 531, "top_field_first": true, "audio_timebase": {"num": 1, "den": 1}, "pixel_ratio": {"num": 1, "den": 1}, "duration": 10.866666793823242, "has_single_image": false}, "perspective_c3_x": {"Points": [{"interpolation": 2, "co": {"X": 1, "Y": -1}}]}, "id": "S1HEPYMO0Q", "anchor": 0, "location_x": {"Points": [{"interpolation": 2, "co": {"X": 1, "Y": 0}}]}, "mixing": 0, "perspective_c1_y": {"Points": [{"interpolation": 2, "co": {"X": 1, "Y": -1}}]}, "file_id": "VLL3NDOT0B", "position": 10, "location_y": {"Points": [{"interpolation": 2, "co": {"X": 1, "Y": 0}}]}, "scale_y": {"Points": [{"interpolation": 2, "co": {"X": 1, "Y": 1}}]}, "start": 0, "perspective_c4_x": {"Points": [{"interpolation": 2, "co": {"X": 1, "Y": -1}}]}}, {"time": {"Points": [{"interpolation": 2, "co": {"X": 1, "Y": 1}}]}, "display": 0, "perspective_c2_x": {"Points": [{"interpolation": 2, "co": {"X": 1, "Y": -1}}]}, "duration": 86400.0, "end": 10, "scale_x": {"Points": [{"interpolation": 2, "co": {"X": 1, "Y": 1}}]}, "channel_filter": {"Points": [{"interpolation": 2, "co": {"X": 1, "Y": -1}}]}, "effects": [], "has_audio": {"Points": [{"interpolation": 2, "co": {"X": 1, "Y": -1}}]}, "scale": 1, "perspective_c3_y": {"Points": [{"interpolation": 2, "co": {"X": 1, "Y": -1}}]}, "alpha": {"Points": [{"interpolation": 2, "co": {"X": 1, "Y": 1}}, {"interpolation": 0, "handle_type": 0, "handle_right": {"X": 0.5, "Y": 0}, "handle_left": {"X": 0.5, "Y": 1}, "co": {"X": 1, "Y": 0}}, {"interpolation": 0, "handle_type": 0, "handle_right": {"X": 0.5, "Y": 0}, "handle_left": {"X": 0.5, "Y": 1}, "co": {"X": 73, "Y": 1}}]}, "shear_x": {"Points": [{"interpolation": 2, "co": {"X": 1, "Y": 0}}]}, "wave_color": {"blue": {"Points": [{"interpolation": 0, "handle_type": 0, "handle_right": {"X": 0.5, "Y": 0}, "handle_left": {"X": 0.5, "Y": 1}, "co": {"X": 1, "Y": 255}}]}, "green": {"Points": [{"interpolation": 0, "handle_type": 0, "handle_right": {"X": 0.5, "Y": 0}, "handle_left": {"X": 0.5, "Y": 1}, "co": {"X": 1, "Y": 123}}]}, "red": {"Points": [{"interpolation": 0, "handle_type": 0, "handle_right": {"X": 0.5, "Y": 0}, "handle_left": {"X": 0.5, "Y": 1}, "co": {"X": 1, "Y": 0}}]}, "alpha": {"Points": [{"interpolation": 0, "handle_type": 0, "handle_right": {"X": 0.5, "Y": 0}, "handle_left": {"X": 0.5, "Y": 1}, "co": {"X": 1, "Y": 255}}]}}, "crop_x": {"Points": [{"interpolation": 2, "co": {"X": 1, "Y": 0}}]}, "image": "/home/avishai/.openshot_qt/thumbnail/SM8I51NPAK.png", "layer": 1, "perspective_c1_x": {"Points": [{"interpolation": 2, "co": {"X": 1, "Y": -1}}]}, "position": 10.946666793823242, "rotation": {"Points": [{"interpolation": 2, "co": {"X": 1, "Y": 0}}]}, "gravity": 4, "waveform": false, "crop_width": {"Points": [{"interpolation": 2, "co": {"X": 1, "Y": -1}}]}, "crop_height": {"Points": [{"interpolation": 2, "co": {"X": 1, "Y": -1}}]}, "crop_y": {"Points": [{"interpolation": 2, "co": {"X": 1, "Y": 0}}]}, "volume": {"Points": [{"interpolation": 2, "co": {"X": 1, "Y": 1}}]}, "channel_mapping": {"Points": [{"interpolation": 2, "co": {"X": 1, "Y": -1}}]}, "title": "TitleFileName-2.svg", "has_video": {"Points": [{"interpolation": 2, "co": {"X": 1, "Y": -1}}]}, "perspective_c4_y": {"Points": [{"interpolation": 2, "co": {"X": 1, "Y": -1}}]}, "perspective_c2_y": {"Points": [{"interpolation": 2, "co": {"X": 1, "Y": -1}}]}, "reader": {"type": "QtImageReader", "interlaced_frame": false, "video_timebase": {"num": 1, "den": 30}, "audio_stream_index": -1, "video_length": "2592000", "channels": 0, "audio_bit_rate": 0, "sample_rate": 0, "video_bit_rate": 0, "channel_layout": 4, "path": "/home/avishai/Documents/workspace/adaptive_hand_model/matlab/video/assets/TitleFileName-2.svg", "metadata": {}, "vcodec": "", "has_video": true, "has_audio": false, "pixel_format": -1, "height": 1080, "acodec": "", "video_stream_index": -1, "display_ratio": {"num": 16, "den": 9}, "file_size": "8294400", "fps": {"num": 30, "den": 1}, "width": 1920, "top_field_first": true, "audio_timebase": {"num": 1, "den": 1}, "pixel_ratio": {"num": 1, "den": 1}, "duration": 86400.0, "has_single_image": true}, "perspective_c3_x": {"Points": [{"interpolation": 2, "co": {"X": 1, "Y": -1}}]}, "id": "838ILRLA3L", "anchor": 0, "location_x": {"Points": [{"interpolation": 2, "co": {"X": 1, "Y": 0}}]}, "mixing": 0, "perspective_c1_y": {"Points": [{"interpolation": 2, "co": {"X": 1, "Y": -1}}]}, "file_id": "SM8I51NPAK", "shear_y": {"Points": [{"interpolation": 2, "co": {"X": 1, "Y": 0}}]}, "location_y": {"Points": [{"interpolation": 2, "co": {"X": 1, "Y": 0}}]}, "scale_y": {"Points": [{"interpolation": 2, "co": {"X": 1, "Y": 1}}]}, "start": 0, "perspective_c4_x": {"Points": [{"interpolation": 2, "co": {"X": 1, "Y": -1}}]}}, {"time": {"Points": [{"interpolation": 2, "co": {"X": 1, "Y": 1}}]}, "display": 0, "perspective_c2_x": {"Points": [{"interpolation": 2, "co": {"X": 1, "Y": -1}}]}, "duration": 86400.0, "end": 10, "scale_x": {"Points": [{"interpolation": 2, "co": {"X": 1, "Y": 1}}]}, "channel_filter": {"Points": [{"interpolation": 2, "co": {"X": 1, "Y": -1}}]}, "effects": [], "has_audio": {"Points": [{"interpolation": 2, "co": {"X": 1, "Y": -1}}]}, "scale": 1, "perspective_c3_y": {"Points": [{"interpolation": 2, "co": {"X": 1, "Y": -1}}]}, "alpha": {"Points": [{"interpolation": 2, "co": {"X": 1, "Y": 1}}, {"interpolation": 0, "handle_type": 0, "handle_right": {"X": 0.5, "Y": 0}, "handle_left": {"X": 0.5, "Y": 1}, "co": {"X": 169, "Y": 1}}, {"interpolation": 0, "handle_type": 0, "handle_right": {"X": 0.5, "Y": 0}, "handle_left": {"X": 0.5, "Y": 1}, "co": {"X": 241, "Y": 0}}]}, "shear_x": {"Points": [{"interpolation": 2, "co": {"X": 1, "Y": 0}}]}, "wave_color": {"blue": {"Points": [{"interpolation": 0, "handle_type": 0, "handle_right": {"X": 0.5, "Y": 0}, "handle_left": {"X": 0.5, "Y": 1}, "co": {"X": 1, "Y": 255}}]}, "green": {"Points": [{"interpolation": 0, "handle_type": 0, "handle_right": {"X": 0.5, "Y": 0}, "handle_left": {"X": 0.5, "Y": 1}, "co": {"X": 1, "Y": 123}}]}, "red": {"Points": [{"interpolation": 0, "handle_type": 0, "handle_right": {"X": 0.5, "Y": 0}, "handle_left": {"X": 0.5, "Y": 1}, "co": {"X": 1, "Y": 0}}]}, "alpha": {"Points": [{"interpolation": 0, "handle_type": 0, "handle_right": {"X": 0.5, "Y": 0}, "handle_left": {"X": 0.5, "Y": 1}, "co": {"X": 1, "Y": 255}}]}}, "crop_x": {"Points": [{"interpolation": 2, "co": {"X": 1, "Y": 0}}]}, "image": "/home/avishai/.openshot_qt/thumbnail/722P7PCEWK.png", "layer": 0, "perspective_c1_x": {"Points": [{"interpolation": 2, "co": {"X": 1, "Y": -1}}]}, "position": 30.94666679382324, "rotation": {"Points": [{"interpolation": 2, "co": {"X": 1, "Y": 0}}]}, "gravity": 4, "waveform": false, "crop_width": {"Points": [{"interpolation": 2, "co": {"X": 1, "Y": -1}}]}, "crop_height": {"Points": [{"interpolation": 2, "co": {"X": 1, "Y": -1}}]}, "crop_y": {"Points": [{"interpolation": 2, "co": {"X": 1, "Y": 0}}]}, "volume": {"Points": [{"interpolation": 2, "co": {"X": 1, "Y": 1}}]}, "channel_mapping": {"Points": [{"interpolation": 2, "co": {"X": 1, "Y": -1}}]}, "title": "opening2.png", "has_video": {"Points": [{"interpolation": 2, "co": {"X": 1, "Y": -1}}]}, "perspective_c4_y": {"Points": [{"interpolation": 2, "co": {"X": 1, "Y": -1}}]}, "perspective_c2_y": {"Points": [{"interpolation": 2, "co": {"X": 1, "Y": -1}}]}, "reader": {"type": "QtImageReader", "interlaced_frame": false, "video_timebase": {"num": 1, "den": 30}, "audio_stream_index": -1, "video_length": "2592000", "channels": 0, "audio_bit_rate": 0, "sample_rate": 0, "video_bit_rate": 0, "channel_layout": 4, "path": "/home/avishai/Documents/workspace/adaptive_hand_model/matlab/video/slides/opening2.png", "metadata": {}, "vcodec": "", "has_video": true, "has_audio": false, "pixel_format": -1, "height": 720, "acodec": "", "video_stream_index": -1, "display_ratio": {"num": 4, "den": 3}, "file_size": "2764800", "fps": {"num": 30, "den": 1}, "width": 960, "top_field_first": true, "audio_timebase": {"num": 1, "den": 1}, "pixel_ratio": {"num": 1, "den": 1}, "duration": 86400.0, "has_single_image": true}, "perspective_c3_x": {"Points": [{"interpolation": 2, "co": {"X": 1, "Y": -1}}]}, "id": "T71MOBYYIW", "anchor": 0, "location_x": {"Points": [{"interpolation": 2, "co": {"X": 1, "Y": 0}}]}, "mixing": 0, "perspective_c1_y": {"Points": [{"interpolation": 2, "co": {"X": 1, "Y": -1}}]}, "file_id": "722P7PCEWK", "shear_y": {"Points": [{"interpolation": 2, "co": {"X": 1, "Y": 0}}]}, "location_y": {"Points": [{"interpolation": 2, "co": {"X": 1, "Y": 0}}]}, "scale_y": {"Points": [{"interpolation": 2, "co": {"X": 1, "Y": 1}}]}, "start": 0, "perspective_c4_x": {"Points": [{"interpolation": 2, "co": {"X": 1, "Y": -1}}]}}, {"time": {"Points": [{"interpolation": 2, "co": {"X": 1, "Y": 1}}]}, "display": 0, "perspective_c2_x": {"Points": [{"interpolation": 2, "co": {"X": 1, "Y": -1}}]}, "duration": 86400.0, "end": 10, "scale_x": {"Points": [{"interpolation": 2, "co": {"X": 1, "Y": 1}}]}, "effects": [], "has_audio": {"Points": [{"interpolation": 2, "co": {"X": 1, "Y": -1}}]}, "scale": 1, "perspective_c3_y": {"Points": [{"interpolation": 2, "co": {"X": 1, "Y": -1}}]}, "alpha": {"Points": [{"interpolation": 2, "co": {"X": 1, "Y": 1}}]}, "start": 0, "wave_color": {"blue": {"Points": [{"interpolation": 0, "handle_type": 0, "co": {"X": 1, "Y": 255}, "handle_left": {"X": 0.5, "Y": 1}, "handle_right": {"X": 0.5, "Y": 0}}]}, "green": {"Points": [{"interpolation": 0, "handle_type": 0, "co": {"X": 1, "Y": 123}, "handle_left": {"X": 0.5, "Y": 1}, "handle_right": {"X": 0.5, "Y": 0}}]}, "red": {"Points": [{"interpolation": 0, "handle_type": 0, "co": {"X": 1, "Y": 0}, "handle_left": {"X": 0.5, "Y": 1}, "handle_right": {"X": 0.5, "Y": 0}}]}, "alpha": {"Points": [{"interpolation": 0, "handle_type": 0, "co": {"X": 1, "Y": 255}, "handle_left": {"X": 0.5, "Y": 1}, "handle_right": {"X": 0.5, "Y": 0}}]}}, "crop_x": {"Points": [{"interpolation": 2, "co": {"X": 1, "Y": 0}}]}, "image": "/home/avishai/.openshot_qt/thumbnail/FG71JWWOKG.png", "layer": 0, "perspective_c1_x": {"Points": [{"interpolation": 2, "co": {"X": 1, "Y": -1}}]}, "position": 0, "rotation": {"Points": [{"interpolation": 2, "co": {"X": 1, "Y": 0}}]}, "mixing": 0, "waveform": false, "crop_width": {"Points": [{"interpolation": 2, "co": {"X": 1, "Y": -1}}]}, "crop_height": {"Points": [{"interpolation": 2, "co": {"X": 1, "Y": -1}}]}, "crop_y": {"Points": [{"interpolation": 2, "co": {"X": 1, "Y": 0}}]}, "volume": {"Points": [{"interpolation": 2, "co": {"X": 1, "Y": 1}}]}, "channel_mapping": {"Points": [{"interpolation": 2, "co": {"X": 1, "Y": -1}}]}, "title": "opening.png", "has_video": {"Points": [{"interpolation": 2, "co": {"X": 1, "Y": -1}}]}, "perspective_c4_y": {"Points": [{"interpolation": 2, "co": {"X": 1, "Y": -1}}]}, "perspective_c2_y": {"Points": [{"interpolation": 2, "co": {"X": 1, "Y": -1}}]}, "reader": {"type": "QtImageReader", "height": 720, "video_timebase": {"num": 1, "den": 30}, "audio_stream_index": -1, "video_length": "2592000", "interlaced_frame": false, "duration": 86400.0, "channels": 0, "sample_rate": 0, "video_bit_rate": 0, "channel_layout": 4, "path": "/home/avishai/Documents/workspace/adaptive_hand_model/matlab/video/slides/opening.png", "metadata": {}, "audio_bit_rate": 0, "has_video": true, "has_audio": false, "pixel_format": -1, "acodec": "", "video_stream_index": -1, "display_ratio": {"num": 4, "den": 3}, "file_size": "2764800", "fps": {"num": 30, "den": 1}, "width": 960, "top_field_first": true, "audio_timebase": {"num": 1, "den": 1}, "pixel_ratio": {"num": 1, "den": 1}, "vcodec": "", "has_single_image": true}, "perspective_c3_x": {"Points": [{"interpolation": 2, "co": {"X": 1, "Y": -1}}]}, "gravity": 4, "id": "VUZXRGBOF5", "anchor": 0, "location_x": {"Points": [{"interpolation": 2, "co": {"X": 1, "Y": 0}}]}, "perspective_c1_y": {"Points": [{"interpolation": 2, "co": {"X": 1, "Y": -1}}]}, "file_id": "FG71JWWOKG", "shear_y": {"Points": [{"interpolation": 2, "co": {"X": 1, "Y": 0}}]}, "location_y": {"Points": [{"interpolation": 2, "co": {"X": 1, "Y": 0}}]}, "scale_y": {"Points": [{"interpolation": 2, "co": {"X": 1, "Y": 1}}]}, "perspective_c4_x": {"Points": [{"interpolation": 2, "co": {"X": 1, "Y": -1}}]}, "shear_x": {"Points": [{"interpolation": 2, "co": {"X": 1, "Y": 0}}]}, "channel_filter": {"Points": [{"interpolation": 2, "co": {"X": 1, "Y": -1}}]}}, {"time": {"Points": [{"interpolation": 2, "co": {"X": 1, "Y": 1}}]}, "display": 0, "perspective_c2_x": {"Points": [{"interpolation": 2, "co": {"X": 1, "Y": -1}}]}, "duration": 86400.0, "end": 10, "scale_x": {"Points": [{"interpolation": 2, "co": {"X": 1, "Y": 1}}]}, "effects": [], "has_audio": {"Points": [{"interpolation": 2, "co": {"X": 1, "Y": -1}}]}, "scale": 1, "perspective_c3_y": {"Points": [{"interpolation": 2, "co": {"X": 1, "Y": -1}}]}, "alpha": {"Points": [{"interpolation": 2, "co": {"X": 1, "Y": 1}}]}, "start": 0, "wave_color": {"blue": {"Points": [{"interpolation": 0, "handle_type": 0, "co": {"X": 1, "Y": 255}, "handle_left": {"X": 0.5, "Y": 1}, "handle_right": {"X": 0.5, "Y": 0}}]}, "green": {"Points": [{"interpolation": 0, "handle_type": 0, "co": {"X": 1, "Y": 123}, "handle_left": {"X": 0.5, "Y": 1}, "handle_right": {"X": 0.5, "Y": 0}}]}, "red": {"Points": [{"interpolation": 0, "handle_type": 0, "co": {"X": 1, "Y": 0}, "handle_left": {"X": 0.5, "Y": 1}, "handle_right": {"X": 0.5, "Y": 0}}]}, "alpha": {"Points": [{"interpolation": 0, "handle_type": 0, "co": {"X": 1, "Y": 255}, "handle_left": {"X": 0.5, "Y": 1}, "handle_right": {"X": 0.5, "Y": 0}}]}}, "crop_x": {"Points": [{"interpolation": 2, "co": {"X": 1, "Y": 0}}]}, "image": "/home/avishai/.openshot_qt/thumbnail/YIV9WP4V5Q.png", "layer": 0, "perspective_c1_x": {"Points": [{"interpolation": 2, "co": {"X": 1, "Y": -1}}]}, "position": 21.026666793823242, "rotation": {"Points": [{"interpolation": 2, "co": {"X": 1, "Y": 0}}]}, "mixing": 0, "waveform": false, "crop_width": {"Points": [{"interpolation": 2, "co": {"X": 1, "Y": -1}}]}, "crop_height": {"Points": [{"interpolation": 2, "co": {"X": 1, "Y": -1}}]}, "crop_y": {"Points": [{"interpolation": 2, "co": {"X": 1, "Y": 0}}]}, "volume": {"Points": [{"interpolation": 2, "co": {"X": 1, "Y": 1}}]}, "channel_mapping": {"Points": [{"interpolation": 2, "co": {"X": 1, "Y": -1}}]}, "title": "opening1.png", "has_video": {"Points": [{"interpolation": 2, "co": {"X": 1, "Y": -1}}]}, "perspective_c4_y": {"Points": [{"interpolation": 2, "co": {"X": 1, "Y": -1}}]}, "perspective_c2_y": {"Points": [{"interpolation": 2, "co": {"X": 1, "Y": -1}}]}, "reader": {"type": "QtImageReader", "height": 720, "video_timebase": {"num": 1, "den": 30}, "audio_stream_index": -1, "video_length": "2592000", "interlaced_frame": false, "duration": 86400.0, "channels": 0, "sample_rate": 0, "video_bit_rate": 0, "channel_layout": 4, "path": "/home/avishai/Documents/workspace/adaptive_hand_model/matlab/video/slides/opening1.png", "metadata": {}, "audio_bit_rate": 0, "has_video": true, "has_audio": false, "pixel_format": -1, "acodec": "", "video_stream_index": -1, "display_ratio": {"num": 4, "den": 3}, "file_size": "2764800", "fps": {"num": 30, "den": 1}, "width": 960, "top_field_first": true, "audio_timebase": {"num": 1, "den": 1}, "pixel_ratio": {"num": 1, "den": 1}, "vcodec": "", "has_single_image": true}, "perspective_c3_x": {"Points": [{"interpolation": 2, "co": {"X": 1, "Y": -1}}]}, "gravity": 4, "id": "3A3QKZGMJB", "anchor": 0, "location_x": {"Points": [{"interpolation": 2, "co": {"X": 1, "Y": 0}}]}, "perspective_c1_y": {"Points": [{"interpolation": 2, "co": {"X": 1, "Y": -1}}]}, "file_id": "YIV9WP4V5Q", "shear_y": {"Points": [{"interpolation": 2, "co": {"X": 1, "Y": 0}}]}, "location_y": {"Points": [{"interpolation": 2, "co": {"X": 1, "Y": 0}}]}, "scale_y": {"Points": [{"interpolation": 2, "co": {"X": 1, "Y": 1}}]}, "perspective_c4_x": {"Points": [{"interpolation": 2, "co": {"X": 1, "Y": -1}}]}, "shear_x": {"Points": [{"interpolation": 2, "co": {"X": 1, "Y": 0}}]}, "channel_filter": {"Points": [{"interpolation": 2, "co": {"X": 1, "Y": -1}}]}}, {"time": {"Points": [{"interpolation": 2, "co": {"X": 1, "Y": 1}}]}, "display": 0, "perspective_c2_x": {"Points": [{"interpolation": 2, "co": {"X": 1, "Y": -1}}]}, "duration": 86400.0, "end": 10, "scale_x": {"Points": [{"interpolation": 2, "co": {"X": 1, "Y": 1}}]}, "effects": [], "has_audio": {"Points": [{"interpolation": 2, "co": {"X": 1, "Y": -1}}]}, "scale": 1, "perspective_c3_y": {"Points": [{"interpolation": 2, "co": {"X": 1, "Y": -1}}]}, "alpha": {"Points": [{"interpolation": 2, "co": {"X": 1, "Y": 1}}]}, "start": 0, "wave_color": {"blue": {"Points": [{"interpolation": 0, "handle_type": 0, "co": {"X": 1, "Y": 255}, "handle_left": {"X": 0.5, "Y": 1}, "handle_right": {"X": 0.5, "Y": 0}}]}, "green": {"Points": [{"interpolation": 0, "handle_type": 0, "co": {"X": 1, "Y": 123}, "handle_left": {"X": 0.5, "Y": 1}, "handle_right": {"X": 0.5, "Y": 0}}]}, "red": {"Points": [{"interpolation": 0, "handle_type": 0, "co": {"X": 1, "Y": 0}, "handle_left": {"X": 0.5, "Y": 1}, "handle_right": {"X": 0.5, "Y": 0}}]}, "alpha": {"Points": [{"interpolation": 0, "handle_type": 0, "co": {"X": 1, "Y": 255}, "handle_left": {"X": 0.5, "Y": 1}, "handle_right": {"X": 0.5, "Y": 0}}]}}, "crop_x": {"Points": [{"interpolation": 2, "co": {"X": 1, "Y": 0}}]}, "image": "/home/avishai/.openshot_qt/thumbnail/LMEK33J1LA.png", "layer": 0, "perspective_c1_x": {"Points": [{"interpolation": 2, "co": {"X": 1, "Y": -1}}]}, "position": 40.94666679382324, "rotation": {"Points": [{"interpolation": 2, "co": {"X": 1, "Y": 0}}]}, "mixing": 0, "waveform": false, "crop_width": {"Points": [{"interpolation": 2, "co": {"X": 1, "Y": -1}}]}, "crop_height": {"Points": [{"interpolation": 2, "co": {"X": 1, "Y": -1}}]}, "crop_y": {"Points": [{"interpolation": 2, "co": {"X": 1, "Y": 0}}]}, "volume": {"Points": [{"interpolation": 2, "co": {"X": 1, "Y": 1}}]}, "channel_mapping": {"Points": [{"interpolation": 2, "co": {"X": 1, "Y": -1}}]}, "title": "opening3.png", "has_video": {"Points": [{"interpolation": 2, "co": {"X": 1, "Y": -1}}]}, "perspective_c4_y": {"Points": [{"interpolation": 2, "co": {"X": 1, "Y": -1}}]}, "perspective_c2_y": {"Points": [{"interpolation": 2, "co": {"X": 1, "Y": -1}}]}, "reader": {"type": "QtImageReader", "height": 720, "video_timebase": {"num": 1, "den": 30}, "audio_stream_index": -1, "video_length": "2592000", "interlaced_frame": false, "duration": 86400.0, "channels": 0, "sample_rate": 0, "video_bit_rate": 0, "channel_layout": 4, "path": "/home/avishai/Documents/workspace/adaptive_hand_model/matlab/video/slides/opening3.png", "metadata": {}, "audio_bit_rate": 0, "has_video": true, "has_audio": false, "pixel_format": -1, "acodec": "", "video_stream_index": -1, "display_ratio": {"num": 4, "den": 3}, "file_size": "2764800", "fps": {"num": 30, "den": 1}, "width": 960, "top_field_first": true, "audio_timebase": {"num": 1, "den": 1}, "pixel_ratio": {"num": 1, "den": 1}, "vcodec": "", "has_single_image": true}, "perspective_c3_x": {"Points": [{"interpolation": 2, "co": {"X": 1, "Y": -1}}]}, "gravity": 4, "id": "X5HE8XP5XU", "anchor": 0, "location_x": {"Points": [{"interpolation": 2, "co": {"X": 1, "Y": 0}}]}, "perspective_c1_y": {"Points": [{"interpolation": 2, "co": {"X": 1, "Y": -1}}]}, "file_id": "LMEK33J1LA", "shear_y": {"Points": [{"interpolation": 2, "co": {"X": 1, "Y": 0}}]}, "location_y": {"Points": [{"interpolation": 2, "co": {"X": 1, "Y": 0}}]}, "scale_y": {"Points": [{"interpolation": 2, "co": {"X": 1, "Y": 1}}]}, "perspective_c4_x": {"Points": [{"interpolation": 2, "co": {"X": 1, "Y": -1}}]}, "shear_x": {"Points": [{"interpolation": 2, "co": {"X": 1, "Y": 0}}]}, "channel_filter": {"Points": [{"interpolation": 2, "co": {"X": 1, "Y": -1}}]}}, {"time": {"Points": [{"interpolation": 2, "co": {"X": 1, "Y": 1}}]}, "display": 0, "perspective_c2_x": {"Points": [{"interpolation": 2, "co": {"X": 1, "Y": -1}}]}, "duration": 86400.0, "end": 10, "scale_x": {"Points": [{"interpolation": 2, "co": {"X": 1, "Y": 1}}]}, "effects": [], "has_audio": {"Points": [{"interpolation": 2, "co": {"X": 1, "Y": -1}}]}, "scale": 1, "perspective_c3_y": {"Points": [{"interpolation": 2, "co": {"X": 1, "Y": -1}}]}, "alpha": {"Points": [{"interpolation": 2, "co": {"X": 1, "Y": 1}}]}, "start": 0, "wave_color": {"blue": {"Points": [{"interpolation": 0, "handle_type": 0, "co": {"X": 1, "Y": 255}, "handle_left": {"X": 0.5, "Y": 1}, "handle_right": {"X": 0.5, "Y": 0}}]}, "green": {"Points": [{"interpolation": 0, "handle_type": 0, "co": {"X": 1, "Y": 123}, "handle_left": {"X": 0.5, "Y": 1}, "handle_right": {"X": 0.5, "Y": 0}}]}, "red": {"Points": [{"interpolation": 0, "handle_type": 0, "co": {"X": 1, "Y": 0}, "handle_left": {"X": 0.5, "Y": 1}, "handle_right": {"X": 0.5, "Y": 0}}]}, "alpha": {"Points": [{"interpolation": 0, "handle_type": 0, "co": {"X": 1, "Y": 255}, "handle_left": {"X": 0.5, "Y": 1}, "handle_right": {"X": 0.5, "Y": 0}}]}}, "crop_x": {"Points": [{"interpolation": 2, "co": {"X": 1, "Y": 0}}]}, "image": "/home/avishai/.openshot_qt/thumbnail/RHRWX2BT8P.png", "layer": 0, "perspective_c1_x": {"Points": [{"interpolation": 2, "co": {"X": 1, "Y": -1}}]}, "position": 50.94666679382324, "rotation": {"Points": [{"interpolation": 2, "co": {"X": 1, "Y": 0}}]}, "mixing": 0, "waveform": false, "crop_width": {"Points": [{"interpolation": 2, "co": {"X": 1, "Y": -1}}]}, "crop_height": {"Points": [{"interpolation": 2, "co": {"X": 1, "Y": -1}}]}, "crop_y": {"Points": [{"interpolation": 2, "co": {"X": 1, "Y": 0}}]}, "volume": {"Points": [{"interpolation": 2, "co": {"X": 1, "Y": 1}}]}, "channel_mapping": {"Points": [{"interpolation": 2, "co": {"X": 1, "Y": -1}}]}, "title": "opening4.png", "has_video": {"Points": [{"interpolation": 2, "co": {"X": 1, "Y": -1}}]}, "perspective_c4_y": {"Points": [{"interpolation": 2, "co": {"X": 1, "Y": -1}}]}, "perspective_c2_y": {"Points": [{"interpolation": 2, "co": {"X": 1, "Y": -1}}]}, "reader": {"type": "QtImageReader", "height": 720, "video_timebase": {"num": 1, "den": 30}, "audio_stream_index": -1, "video_length": "2592000", "interlaced_frame": false, "duration": 86400.0, "channels": 0, "sample_rate": 0, "video_bit_rate": 0, "channel_layout": 4, "path": "/home/avishai/Documents/workspace/adaptive_hand_model/matlab/video/slides/opening4.png", "metadata": {}, "audio_bit_rate": 0, "has_video": true, "has_audio": false, "pixel_format": -1, "acodec": "", "video_stream_index": -1, "display_ratio": {"num": 4, "den": 3}, "file_size": "2764800", "fps": {"num": 30, "den": 1}, "width": 960, "top_field_first": true, "audio_timebase": {"num": 1, "den": 1}, "pixel_ratio": {"num": 1, "den": 1}, "vcodec": "", "has_single_image": true}, "perspective_c3_x": {"Points": [{"interpolation": 2, "co": {"X": 1, "Y": -1}}]}, "gravity": 4, "id": "LYT59N8TPM", "anchor": 0, "location_x": {"Points": [{"interpolation": 2, "co": {"X": 1, "Y": 0}}]}, "perspective_c1_y": {"Points": [{"interpolation": 2, "co": {"X": 1, "Y": -1}}]}, "file_id": "RHRWX2BT8P", "shear_y": {"Points": [{"interpolation": 2, "co": {"X": 1, "Y": 0}}]}, "location_y": {"Points": [{"interpolation": 2, "co": {"X": 1, "Y": 0}}]}, "scale_y": {"Points": [{"interpolation": 2, "co": {"X": 1, "Y": 1}}]}, "perspective_c4_x": {"Points": [{"interpolation": 2, "co": {"X": 1, "Y": -1}}]}, "shear_x": {"Points": [{"interpolation": 2, "co": {"X": 1, "Y": 0}}]}, "channel_filter": {"Points": [{"interpolation": 2, "co": {"X": 1, "Y": -1}}]}}, {"time": {"Points": [{"interpolation": 2, "co": {"X": 1, "Y": 1}}]}, "display": 0, "perspective_c2_x": {"Points": [{"interpolation": 2, "co": {"X": 1, "Y": -1}}]}, "duration": 86400.0, "end": 10, "scale_x": {"Points": [{"interpolation": 2, "co": {"X": 1, "Y": 1}}]}, "effects": [], "has_audio": {"Points": [{"interpolation": 2, "co": {"X": 1, "Y": -1}}]}, "scale": 1, "perspective_c3_y": {"Points": [{"interpolation": 2, "co": {"X": 1, "Y": -1}}]}, "alpha": {"Points": [{"interpolation": 2, "co": {"X": 1, "Y": 1}}, {"interpolation": 0, "handle_type": 0, "co": {"X": 169, "Y": 1}, "handle_left": {"X": 0.5, "Y": 1}, "handle_right": {"X": 0.5, "Y": 0}}, {"interpolation": 0, "handle_type": 0, "co": {"X": 241, "Y": 0}, "handle_left": {"X": 0.5, "Y": 1}, "handle_right": {"X": 0.5, "Y": 0}}, {"interpolation": 0, "handle_type": 0, "handle_left": {"X": 0.5, "Y": 1}, "handle_right": {"X": 0.5, "Y": 0}, "co": {"X": 217, "Y": 1}}, {"interpolation": 0, "handle_type": 0, "handle_left": {"X": 0.5, "Y": 1}, "handle_right": {"X": 0.5, "Y": 0}, "co": {"X": 241, "Y": 0}}]}, "start": 0, "wave_color": {"blue": {"Points": [{"interpolation": 0, "handle_type": 0, "co": {"X": 1, "Y": 255}, "handle_right": {"X": 0.5, "Y": 0}, "handle_left": {"X": 0.5, "Y": 1}}]}, "green": {"Points": [{"interpolation": 0, "handle_type": 0, "co": {"X": 1, "Y": 123}, "handle_right": {"X": 0.5, "Y": 0}, "handle_left": {"X": 0.5, "Y": 1}}]}, "red": {"Points": [{"interpolation": 0, "handle_type": 0, "co": {"X": 1, "Y": 0}, "handle_right": {"X": 0.5, "Y": 0}, "handle_left": {"X": 0.5, "Y": 1}}]}, "alpha": {"Points": [{"interpolation": 0, "handle_type": 0, "co": {"X": 1, "Y": 255}, "handle_right": {"X": 0.5, "Y": 0}, "handle_left": {"X": 0.5, "Y": 1}}]}}, "crop_x": {"Points": [{"interpolation": 2, "co": {"X": 1, "Y": 0}}]}, "image": "/home/avishai/.openshot_qt/thumbnail/YA8O4MECE1.png", "layer": 0, "perspective_c1_x": {"Points": [{"interpolation": 2, "co": {"X": 1, "Y": -1}}]}, "position": 70.95833333333334, "rotation": {"Points": [{"interpolation": 2, "co": {"X": 1, "Y": 0}}]}, "mixing": 0, "waveform": false, "crop_width": {"Points": [{"interpolation": 2, "co": {"X": 1, "Y": -1}}]}, "crop_height": {"Points": [{"interpolation": 2, "co": {"X": 1, "Y": -1}}]}, "crop_y": {"Points": [{"interpolation": 2, "co": {"X": 1, "Y": 0}}]}, "volume": {"Points": [{"interpolation": 2, "co": {"X": 1, "Y": 1}}]}, "channel_mapping": {"Points": [{"interpolation": 2, "co": {"X": 1, "Y": -1}}]}, "title": "opening6.png", "has_video": {"Points": [{"interpolation": 2, "co": {"X": 1, "Y": -1}}]}, "perspective_c4_y": {"Points": [{"interpolation": 2, "co": {"X": 1, "Y": -1}}]}, "perspective_c2_y": {"Points": [{"interpolation": 2, "co": {"X": 1, "Y": -1}}]}, "reader": {"type": "QtImageReader", "height": 720, "video_timebase": {"num": 1, "den": 30}, "audio_stream_index": -1, "video_length": "2592000", "interlaced_frame": false, "duration": 86400.0, "channels": 0, "sample_rate": 0, "video_bit_rate": 0, "channel_layout": 4, "path": "/home/avishai/Documents/workspace/adaptive_hand_model/matlab/video/slides/opening6.png", "metadata": {}, "audio_bit_rate": 0, "has_video": true, "has_audio": false, "pixel_format": -1, "acodec": "", "video_stream_index": -1, "display_ratio": {"num": 4, "den": 3}, "file_size": "2764800", "fps": {"num": 30, "den": 1}, "width": 960, "top_field_first": true, "audio_timebase": {"num": 1, "den": 1}, "pixel_ratio": {"num": 1, "den": 1}, "vcodec": "", "has_single_image": true}, "perspective_c3_x": {"Points": [{"interpolation": 2, "co": {"X": 1, "Y": -1}}]}, "gravity": 4, "id": "LYWGXV5N3L", "anchor": 0, "location_x": {"Points": [{"interpolation": 2, "co": {"X": 1, "Y": 0}}]}, "perspective_c1_y": {"Points": [{"interpolation": 2, "co": {"X": 1, "Y": -1}}]}, "file_id": "YA8O4MECE1", "shear_y": {"Points": [{"interpolation": 2, "co": {"X": 1, "Y": 0}}]}, "location_y": {"Points": [{"interpolation": 2, "co": {"X": 1, "Y": 0}}]}, "scale_y": {"Points": [{"interpolation": 2, "co": {"X": 1, "Y": 1}}]}, "perspective_c4_x": {"Points": [{"interpolation": 2, "co": {"X": 1, "Y": -1}}]}, "shear_x": {"Points": [{"interpolation": 2, "co": {"X": 1, "Y": 0}}]}, "channel_filter": {"Points": [{"interpolation": 2, "co": {"X": 1, "Y": -1}}]}}, {"time": {"Points": [{"interpolation": 2, "co": {"X": 1, "Y": 1}}]}, "display": 0, "perspective_c2_x": {"Points": [{"interpolation": 2, "co": {"X": 1, "Y": -1}}]}, "duration": 86400.0, "end": 5.333333333333333, "scale_x": {"Points": [{"interpolation": 2, "co": {"X": 1, "Y": 1}}]}, "effects": [], "has_audio": {"Points": [{"interpolation": 2, "co": {"X": 1, "Y": -1}}]}, "scale": 1, "perspective_c3_y": {"Points": [{"interpolation": 2, "co": {"X": 1, "Y": -1}}]}, "alpha": {"Points": [{"interpolation": 2, "co": {"X": 1, "Y": 1}}]}, "start": 0, "wave_color": {"blue": {"Points": [{"interpolation": 0, "handle_type": 0, "co": {"X": 1, "Y": 255}, "handle_left": {"X": 0.5, "Y": 1}, "handle_right": {"X": 0.5, "Y": 0}}]}, "green": {"Points": [{"interpolation": 0, "handle_type": 0, "co": {"X": 1, "Y": 123}, "handle_left": {"X": 0.5, "Y": 1}, "handle_right": {"X": 0.5, "Y": 0}}]}, "red": {"Points": [{"interpolation": 0, "handle_type": 0, "co": {"X": 1, "Y": 0}, "handle_left": {"X": 0.5, "Y": 1}, "handle_right": {"X": 0.5, "Y": 0}}]}, "alpha": {"Points": [{"interpolation": 0, "handle_type": 0, "co": {"X": 1, "Y": 255}, "handle_left": {"X": 0.5, "Y": 1}, "handle_right": {"X": 0.5, "Y": 0}}]}}, "crop_x": {"Points": [{"interpolation": 2, "co": {"X": 1, "Y": 0}}]}, "image": "/home/avishai/.openshot_qt/thumbnail/ULNSBVNSH3.png", "layer": 0, "perspective_c1_x": {"Points": [{"interpolation": 2, "co": {"X": 1, "Y": -1}}]}, "position": 80.95833333333334, "rotation": {"Points": [{"interpolation": 2, "co": {"X": 1, "Y": 0}}]}, "mixing": 0, "waveform": false, "crop_width": {"Points": [{"interpolation": 2, "co": {"X": 1, "Y": -1}}]}, "crop_height": {"Points": [{"interpolation": 2, "co": {"X": 1, "Y": -1}}]}, "crop_y": {"Points": [{"interpolation": 2, "co": {"X": 1, "Y": 0}}]}, "volume": {"Points": [{"interpolation": 2, "co": {"X": 1, "Y": 1}}]}, "channel_mapping": {"Points": [{"interpolation": 2, "co": {"X": 1, "Y": -1}}]}, "title": "opening7.png", "has_video": {"Points": [{"interpolation": 2, "co": {"X": 1, "Y": -1}}]}, "perspective_c4_y": {"Points": [{"interpolation": 2, "co": {"X": 1, "Y": -1}}]}, "perspective_c2_y": {"Points": [{"interpolation": 2, "co": {"X": 1, "Y": -1}}]}, "reader": {"type": "QtImageReader", "height": 720, "video_timebase": {"num": 1, "den": 30}, "audio_stream_index": -1, "video_length": "2592000", "interlaced_frame": false, "duration": 86400.0, "channels": 0, "sample_rate": 0, "video_bit_rate": 0, "channel_layout": 4, "path": "/home/avishai/Documents/workspace/adaptive_hand_model/matlab/video/slides/opening7.png", "metadata": {}, "audio_bit_rate": 0, "has_video": true, "has_audio": false, "pixel_format": -1, "acodec": "", "video_stream_index": -1, "display_ratio": {"num": 4, "den": 3}, "file_size": "2764800", "fps": {"num": 30, "den": 1}, "width": 960, "top_field_first": true, "audio_timebase": {"num": 1, "den": 1}, "pixel_ratio": {"num": 1, "den": 1}, "vcodec": "", "has_single_image": true}, "perspective_c3_x": {"Points": [{"interpolation": 2, "co": {"X": 1, "Y": -1}}]}, "gravity": 4, "id": "XC8281YBWR", "anchor": 0, "location_x": {"Points": [{"interpolation": 2, "co": {"X": 1, "Y": 0}}]}, "perspective_c1_y": {"Points": [{"interpolation": 2, "co": {"X": 1, "Y": -1}}]}, "file_id": "ULNSBVNSH3", "shear_y": {"Points": [{"interpolation": 2, "co": {"X": 1, "Y": 0}}]}, "location_y": {"Points": [{"interpolation": 2, "co": {"X": 1, "Y": 0}}]}, "scale_y": {"Points": [{"interpolation": 2, "co": {"X": 1, "Y": 1}}]}, "perspective_c4_x": {"Points": [{"interpolation": 2, "co": {"X": 1, "Y": -1}}]}, "shear_x": {"Points": [{"interpolation": 2, "co": {"X": 1, "Y": 0}}]}, "channel_filter": {"Points": [{"interpolation": 2, "co": {"X": 1, "Y": -1}}]}}, {"time": {"Points": [{"interpolation": 2, "co": {"X": 1, "Y": 1}}]}, "display": 0, "perspective_c2_x": {"Points": [{"interpolation": 2, "co": {"X": 1, "Y": -1}}]}, "duration": 6.949999809265137, "end": 6.949999809265137, "scale_x": {"Points": [{"interpolation": 2, "co": {"X": 1, "Y": 1}}]}, "effects": [], "has_audio": {"Points": [{"interpolation": 2, "co": {"X": 1, "Y": -1}}]}, "scale": 1, "perspective_c3_y": {"Points": [{"interpolation": 2, "co": {"X": 1, "Y": -1}}]}, "alpha": {"Points": [{"interpolation": 2, "co": {"X": 1, "Y": 1}}]}, "start": 0, "wave_color": {"blue": {"Points": [{"interpolation": 0, "handle_type": 0, "co": {"X": 1, "Y": 255}, "handle_left": {"X": 0.5, "Y": 1}, "handle_right": {"X": 0.5, "Y": 0}}]}, "green": {"Points": [{"interpolation": 0, "handle_type": 0, "co": {"X": 1, "Y": 123}, "handle_left": {"X": 0.5, "Y": 1}, "handle_right": {"X": 0.5, "Y": 0}}]}, "red": {"Points": [{"interpolation": 0, "handle_type": 0, "co": {"X": 1, "Y": 0}, "handle_left": {"X": 0.5, "Y": 1}, "handle_right": {"X": 0.5, "Y": 0}}]}, "alpha": {"Points": [{"interpolation": 0, "handle_type": 0, "co": {"X": 1, "Y": 255}, "handle_left": {"X": 0.5, "Y": 1}, "handle_right": {"X": 0.5, "Y": 0}}]}}, "crop_x": {"Points": [{"interpolation": 2, "co": {"X": 1, "Y": 0}}]}, "image": "/home/avishai/.openshot_qt/thumbnail/FC16UD9ZFT.png", "layer": 0, "perspective_c1_x": {"Points": [{"interpolation": 2, "co": {"X": 1, "Y": -1}}]}, "position": 86.29166666666669, "rotation": {"Points": [{"interpolation": 2, "co": {"X": 1, "Y": 0}}]}, "mixing": 0, "waveform": false, "crop_width": {"Points": [{"interpolation": 2, "co": {"X": 1, "Y": -1}}]}, "crop_height": {"Points": [{"interpolation": 2, "co": {"X": 1, "Y": -1}}]}, "crop_y": {"Points": [{"interpolation": 2, "co": {"X": 1, "Y": 0}}]}, "volume": {"Points": [{"interpolation": 2, "co": {"X": 1, "Y": 1}}]}, "channel_mapping": {"Points": [{"interpolation": 2, "co": {"X": 1, "Y": -1}}]}, "title": "trajs.avi", "has_video": {"Points": [{"interpolation": 2, "co": {"X": 1, "Y": -1}}]}, "perspective_c4_y": {"Points": [{"interpolation": 2, "co": {"X": 1, "Y": -1}}]}, "perspective_c2_y": {"Points": [{"interpolation": 2, "co": {"X": 1, "Y": -1}}]}, "reader": {"type": "FFmpegReader", "height": 1503, "video_timebase": {"num": 1, "den": 60}, "audio_stream_index": -1, "video_length": "417", "interlaced_frame": false, "duration": 6.949999809265137, "channels": 0, "sample_rate": 0, "video_bit_rate": 70132622, "channel_layout": 4, "path": "/home/avishai/Documents/workspace/adaptive_hand_model/matlab/video/trajs.avi", "metadata": {}, "audio_bit_rate": 0, "has_video": true, "has_audio": false, "pixel_format": 12, "acodec": "", "video_stream_index": 0, "display_ratio": {"num": 1502, "den": 1503}, "file_size": "60927716", "fps": {"num": 60, "den": 1}, "width": 1502, "top_field_first": true, "audio_timebase": {"num": 1, "den": 1}, "pixel_ratio": {"num": 1, "den": 1}, "vcodec": "mjpeg", "has_single_image": false}, "perspective_c3_x": {"Points": [{"interpolation": 2, "co": {"X": 1, "Y": -1}}]}, "gravity": 4, "id": "UL3TS2PDR4", "anchor": 0, "location_x": {"Points": [{"interpolation": 2, "co": {"X": 1, "Y": 0}}]}, "perspective_c1_y": {"Points": [{"interpolation": 2, "co": {"X": 1, "Y": -1}}]}, "file_id": "FC16UD9ZFT", "shear_y": {"Points": [{"interpolation": 2, "co": {"X": 1, "Y": 0}}]}, "location_y": {"Points": [{"interpolation": 2, "co": {"X": 1, "Y": 0}}]}, "scale_y": {"Points": [{"interpolation": 2, "co": {"X": 1, "Y": 1}}]}, "perspective_c4_x": {"Points": [{"interpolation": 2, "co": {"X": 1, "Y": -1}}]}, "shear_x": {"Points": [{"interpolation": 2, "co": {"X": 1, "Y": 0}}]}, "channel_filter": {"Points": [{"interpolation": 2, "co": {"X": 1, "Y": -1}}]}}, {"time": {"Points": [{"interpolation": 2, "co": {"X": 1, "Y": 1}}]}, "display": 0, "perspective_c2_x": {"Points": [{"interpolation": 2, "co": {"X": 1, "Y": -1}}]}, "duration": 86400.0, "end": 4, "scale_x": {"Points": [{"interpolation": 2, "co": {"X": 1, "Y": 1}}]}, "effects": [], "has_audio": {"Points": [{"interpolation": 2, "co": {"X": 1, "Y": -1}}]}, "scale": 1, "perspective_c3_y": {"Points": [{"interpolation": 2, "co": {"X": 1, "Y": -1}}]}, "alpha": {"Points": [{"interpolation": 2, "co": {"X": 1, "Y": 1}}]}, "start": 0, "wave_color": {"blue": {"Points": [{"interpolation": 0, "handle_type": 0, "co": {"X": 1, "Y": 255}, "handle_left": {"X": 0.5, "Y": 1}, "handle_right": {"X": 0.5, "Y": 0}}]}, "green": {"Points": [{"interpolation": 0, "handle_type": 0, "co": {"X": 1, "Y": 123}, "handle_left": {"X": 0.5, "Y": 1}, "handle_right": {"X": 0.5, "Y": 0}}]}, "red": {"Points": [{"interpolation": 0, "handle_type": 0, "co": {"X": 1, "Y": 0}, "handle_left": {"X": 0.5, "Y": 1}, "handle_right": {"X": 0.5, "Y": 0}}]}, "alpha": {"Points": [{"interpolation": 0, "handle_type": 0, "co": {"X": 1, "Y": 255}, "handle_left": {"X": 0.5, "Y": 1}, "handle_right": {"X": 0.5, "Y": 0}}]}}, "crop_x": {"Points": [{"interpolation": 2, "co": {"X": 1, "Y": 0}}]}, "image": "/home/avishai/.openshot_qt/thumbnail/EWEUFI7OUN.png", "layer": 0, "perspective_c1_x": {"Points": [{"interpolation": 2, "co": {"X": 1, "Y": -1}}]}, "position": 103.24166647593182, "rotation": {"Points": [{"interpolation": 2, "co": {"X": 1, "Y": 0}}]}, "mixing": 0, "waveform": false, "crop_width": {"Points": [{"interpolation": 2, "co": {"X": 1, "Y": -1}}]}, "crop_height": {"Points": [{"interpolation": 2, "co": {"X": 1, "Y": -1}}]}, "crop_y": {"Points": [{"interpolation": 2, "co": {"X": 1, "Y": 0}}]}, "volume": {"Points": [{"interpolation": 2, "co": {"X": 1, "Y": 1}}]}, "channel_mapping": {"Points": [{"interpolation": 2, "co": {"X": 1, "Y": -1}}]}, "title": "opening8b.png", "has_video": {"Points": [{"interpolation": 2, "co": {"X": 1, "Y": -1}}]}, "perspective_c4_y": {"Points": [{"interpolation": 2, "co": {"X": 1, "Y": -1}}]}, "perspective_c2_y": {"Points": [{"interpolation": 2, "co": {"X": 1, "Y": -1}}]}, "reader": {"type": "QtImageReader", "height": 720, "video_timebase": {"num": 1, "den": 30}, "audio_stream_index": -1, "video_length": "2592000", "interlaced_frame": false, "duration": 86400.0, "channels": 0, "sample_rate": 0, "video_bit_rate": 0, "channel_layout": 4, "path": "/home/avishai/Documents/workspace/adaptive_hand_model/matlab/video/slides/opening8b.png", "metadata": {}, "audio_bit_rate": 0, "has_video": true, "has_audio": false, "pixel_format": -1, "acodec": "", "video_stream_index": -1, "display_ratio": {"num": 4, "den": 3}, "file_size": "2764800", "fps": {"num": 30, "den": 1}, "width": 960, "top_field_first": true, "audio_timebase": {"num": 1, "den": 1}, "pixel_ratio": {"num": 1, "den": 1}, "vcodec": "", "has_single_image": true}, "perspective_c3_x": {"Points": [{"interpolation": 2, "co": {"X": 1, "Y": -1}}]}, "gravity": 4, "id": "K1HDHMF9R0", "anchor": 0, "location_x": {"Points": [{"interpolation": 2, "co": {"X": 1, "Y": 0}}]}, "perspective_c1_y": {"Points": [{"interpolation": 2, "co": {"X": 1, "Y": -1}}]}, "file_id": "EWEUFI7OUN", "shear_y": {"Points": [{"interpolation": 2, "co": {"X": 1, "Y": 0}}]}, "location_y": {"Points": [{"interpolation": 2, "co": {"X": 1, "Y": 0}}]}, "scale_y": {"Points": [{"interpolation": 2, "co": {"X": 1, "Y": 1}}]}, "perspective_c4_x": {"Points": [{"interpolation": 2, "co": {"X": 1, "Y": -1}}]}, "shear_x": {"Points": [{"interpolation": 2, "co": {"X": 1, "Y": 0}}]}, "channel_filter": {"Points": [{"interpolation": 2, "co": {"X": 1, "Y": -1}}]}}, {"time": {"Points": [{"interpolation": 2, "co": {"X": 1, "Y": 1}}]}, "display": 0, "perspective_c2_x": {"Points": [{"interpolation": 2, "co": {"X": 1, "Y": -1}}]}, "duration": 4.75, "end": 4.75, "scale_x": {"Points": [{"interpolation": 2, "co": {"X": 1, "Y": 1}}]}, "effects": [], "has_audio": {"Points": [{"interpolation": 2, "co": {"X": 1, "Y": -1}}]}, "scale": 1, "perspective_c3_y": {"Points": [{"interpolation": 2, "co": {"X": 1, "Y": -1}}]}, "alpha": {"Points": [{"interpolation": 2, "co": {"X": 1, "Y": 1}}]}, "start": 0, "wave_color": {"blue": {"Points": [{"interpolation": 0, "handle_type": 0, "co": {"X": 1, "Y": 255}, "handle_left": {"X": 0.5, "Y": 1}, "handle_right": {"X": 0.5, "Y": 0}}]}, "green": {"Points": [{"interpolation": 0, "handle_type": 0, "co": {"X": 1, "Y": 123}, "handle_left": {"X": 0.5, "Y": 1}, "handle_right": {"X": 0.5, "Y": 0}}]}, "red": {"Points": [{"interpolation": 0, "handle_type": 0, "co": {"X": 1, "Y": 0}, "handle_left": {"X": 0.5, "Y": 1}, "handle_right": {"X": 0.5, "Y": 0}}]}, "alpha": {"Points": [{"interpolation": 0, "handle_type": 0, "co": {"X": 1, "Y": 255}, "handle_left": {"X": 0.5, "Y": 1}, "handle_right": {"X": 0.5, "Y": 0}}]}}, "crop_x": {"Points": [{"interpolation": 2, "co": {"X": 1, "Y": 0}}]}, "image": "/home/avishai/.openshot_qt/thumbnail/KZLNLAEG7J.png", "layer": 0, "perspective_c1_x": {"Points": [{"interpolation": 2, "co": {"X": 1, "Y": -1}}]}, "position": 107.24166647593182, "rotation": {"Points": [{"interpolation": 2, "co": {"X": 1, "Y": 0}}]}, "mixing": 0, "waveform": false, "crop_width": {"Points": [{"interpolation": 2, "co": {"X": 1, "Y": -1}}]}, "crop_height": {"Points": [{"interpolation": 2, "co": {"X": 1, "Y": -1}}]}, "crop_y": {"Points": [{"interpolation": 2, "co": {"X": 1, "Y": 0}}]}, "volume": {"Points": [{"interpolation": 2, "co": {"X": 1, "Y": 1}}]}, "channel_mapping": {"Points": [{"interpolation": 2, "co": {"X": 1, "Y": -1}}]}, "title": "trajs_fc_1.avi", "has_video": {"Points": [{"interpolation": 2, "co": {"X": 1, "Y": -1}}]}, "perspective_c4_y": {"Points": [{"interpolation": 2, "co": {"X": 1, "Y": -1}}]}, "perspective_c2_y": {"Points": [{"interpolation": 2, "co": {"X": 1, "Y": -1}}]}, "reader": {"type": "FFmpegReader", "height": 1002, "video_timebase": {"num": 1, "den": 60}, "audio_stream_index": -1, "video_length": "285", "interlaced_frame": false, "duration": 4.75, "channels": 0, "sample_rate": 0, "video_bit_rate": 79206750, "channel_layout": 4, "path": "/home/avishai/Documents/workspace/adaptive_hand_model/matlab/video/trajs_fc_1.avi", "metadata": {}, "audio_bit_rate": 0, "has_video": true, "has_audio": false, "pixel_format": 12, "acodec": "", "video_stream_index": 0, "display_ratio": {"num": 2, "den": 1}, "file_size": "47029008", "fps": {"num": 60, "den": 1}, "width": 2004, "top_field_first": true, "audio_timebase": {"num": 1, "den": 1}, "pixel_ratio": {"num": 1, "den": 1}, "vcodec": "mjpeg", "has_single_image": false}, "perspective_c3_x": {"Points": [{"interpolation": 2, "co": {"X": 1, "Y": -1}}]}, "gravity": 4, "id": "E30S9MIQFA", "anchor": 0, "location_x": {"Points": [{"interpolation": 2, "co": {"X": 1, "Y": 0}}]}, "perspective_c1_y": {"Points": [{"interpolation": 2, "co": {"X": 1, "Y": -1}}]}, "file_id": "KZLNLAEG7J", "shear_y": {"Points": [{"interpolation": 2, "co": {"X": 1, "Y": 0}}]}, "location_y": {"Points": [{"interpolation": 2, "co": {"X": 1, "Y": 0}}]}, "scale_y": {"Points": [{"interpolation": 2, "co": {"X": 1, "Y": 1}}]}, "perspective_c4_x": {"Points": [{"interpolation": 2, "co": {"X": 1, "Y": -1}}]}, "shear_x": {"Points": [{"interpolation": 2, "co": {"X": 1, "Y": 0}}]}, "channel_filter": {"Points": [{"interpolation": 2, "co": {"X": 1, "Y": -1}}]}}, {"time": {"Points": [{"interpolation": 2, "co": {"X": 1, "Y": 1}}]}, "display": 0, "perspective_c2_x": {"Points": [{"interpolation": 2, "co": {"X": 1, "Y": -1}}]}, "duration": 4.366666793823242, "end": 4.366666793823242, "scale_x": {"Points": [{"interpolation": 2, "co": {"X": 1, "Y": 1}}]}, "effects": [], "has_audio": {"Points": [{"interpolation": 2, "co": {"X": 1, "Y": -1}}]}, "scale": 1, "perspective_c3_y": {"Points": [{"interpolation": 2, "co": {"X": 1, "Y": -1}}]}, "alpha": {"Points": [{"interpolation": 2, "co": {"X": 1, "Y": 1}}]}, "start": 0, "wave_color": {"blue": {"Points": [{"interpolation": 0, "handle_type": 0, "co": {"X": 1, "Y": 255}, "handle_left": {"X": 0.5, "Y": 1}, "handle_right": {"X": 0.5, "Y": 0}}]}, "green": {"Points": [{"interpolation": 0, "handle_type": 0, "co": {"X": 1, "Y": 123}, "handle_left": {"X": 0.5, "Y": 1}, "handle_right": {"X": 0.5, "Y": 0}}]}, "red": {"Points": [{"interpolation": 0, "handle_type": 0, "co": {"X": 1, "Y": 0}, "handle_left": {"X": 0.5, "Y": 1}, "handle_right": {"X": 0.5, "Y": 0}}]}, "alpha": {"Points": [{"interpolation": 0, "handle_type": 0, "co": {"X": 1, "Y": 255}, "handle_left": {"X": 0.5, "Y": 1}, "handle_right": {"X": 0.5, "Y": 0}}]}}, "crop_x": {"Points": [{"interpolation": 2, "co": {"X": 1, "Y": 0}}]}, "image": "/home/avishai/.openshot_qt/thumbnail/D1DPZWUXYA.png", "layer": 0, "perspective_c1_x": {"Points": [{"interpolation": 2, "co": {"X": 1, "Y": -1}}]}, "position": 111.99166647593182, "rotation": {"Points": [{"interpolation": 2, "co": {"X": 1, "Y": 0}}]}, "mixing": 0, "waveform": false, "crop_width": {"Points": [{"interpolation": 2, "co": {"X": 1, "Y": -1}}]}, "crop_height": {"Points": [{"interpolation": 2, "co": {"X": 1, "Y": -1}}]}, "crop_y": {"Points": [{"interpolation": 2, "co": {"X": 1, "Y": 0}}]}, "volume": {"Points": [{"interpolation": 2, "co": {"X": 1, "Y": 1}}]}, "channel_mapping": {"Points": [{"interpolation": 2, "co": {"X": 1, "Y": -1}}]}, "title": "trajs_fc_2.avi", "has_video": {"Points": [{"interpolation": 2, "co": {"X": 1, "Y": -1}}]}, "perspective_c4_y": {"Points": [{"interpolation": 2, "co": {"X": 1, "Y": -1}}]}, "perspective_c2_y": {"Points": [{"interpolation": 2, "co": {"X": 1, "Y": -1}}]}, "reader": {"type": "FFmpegReader", "height": 1002, "video_timebase": {"num": 1, "den": 60}, "audio_stream_index": -1, "video_length": "262", "interlaced_frame": false, "duration": 4.366666793823242, "channels": 0, "sample_rate": 0, "video_bit_rate": 78925778, "channel_layout": 4, "path": "/home/avishai/Documents/workspace/adaptive_hand_model/matlab/video/trajs_fc_2.avi", "metadata": {}, "audio_bit_rate": 0, "has_video": true, "has_audio": false, "pixel_format": 12, "acodec": "", "video_stream_index": 0, "display_ratio": {"num": 2, "den": 1}, "file_size": "43080324", "fps": {"num": 60, "den": 1}, "width": 2004, "top_field_first": true, "audio_timebase": {"num": 1, "den": 1}, "pixel_ratio": {"num": 1, "den": 1}, "vcodec": "mjpeg", "has_single_image": false}, "perspective_c3_x": {"Points": [{"interpolation": 2, "co": {"X": 1, "Y": -1}}]}, "gravity": 4, "id": "56I4I8MV7U", "anchor": 0, "location_x": {"Points": [{"interpolation": 2, "co": {"X": 1, "Y": 0}}]}, "perspective_c1_y": {"Points": [{"interpolation": 2, "co": {"X": 1, "Y": -1}}]}, "file_id": "D1DPZWUXYA", "shear_y": {"Points": [{"interpolation": 2, "co": {"X": 1, "Y": 0}}]}, "location_y": {"Points": [{"interpolation": 2, "co": {"X": 1, "Y": 0}}]}, "scale_y": {"Points": [{"interpolation": 2, "co": {"X": 1, "Y": 1}}]}, "perspective_c4_x": {"Points": [{"interpolation": 2, "co": {"X": 1, "Y": -1}}]}, "shear_x": {"Points": [{"interpolation": 2, "co": {"X": 1, "Y": 0}}]}, "channel_filter": {"Points": [{"interpolation": 2, "co": {"X": 1, "Y": -1}}]}}, {"time": {"Points": [{"interpolation": 2, "co": {"X": 1, "Y": 1}}]}, "display": 0, "perspective_c2_x": {"Points": [{"interpolation": 2, "co": {"X": 1, "Y": -1}}]}, "duration": 6.949999809265137, "end": 6.949999809265137, "scale_x": {"Points": [{"interpolation": 2, "co": {"X": 1, "Y": 1}}]}, "effects": [], "has_audio": {"Points": [{"interpolation": 2, "co": {"X": 1, "Y": -1}}]}, "scale": 1, "perspective_c3_y": {"Points": [{"interpolation": 2, "co": {"X": 1, "Y": -1}}]}, "alpha": {"Points": [{"interpolation": 2, "co": {"X": 1, "Y": 1}}]}, "start": 0, "wave_color": {"blue": {"Points": [{"interpolation": 0, "handle_type": 0, "co": {"X": 1, "Y": 255}, "handle_left": {"X": 0.5, "Y": 1}, "handle_right": {"X": 0.5, "Y": 0}}]}, "green": {"Points": [{"interpolation": 0, "handle_type": 0, "co": {"X": 1, "Y": 123}, "handle_left": {"X": 0.5, "Y": 1}, "handle_right": {"X": 0.5, "Y": 0}}]}, "red": {"Points": [{"interpolation": 0, "handle_type": 0, "co": {"X": 1, "Y": 0}, "handle_left": {"X": 0.5, "Y": 1}, "handle_right": {"X": 0.5, "Y": 0}}]}, "alpha": {"Points": [{"interpolation": 0, "handle_type": 0, "co": {"X": 1, "Y": 255}, "handle_left": {"X": 0.5, "Y": 1}, "handle_right": {"X": 0.5, "Y": 0}}]}}, "crop_x": {"Points": [{"interpolation": 2, "co": {"X": 1, "Y": 0}}]}, "image": "/home/avishai/.openshot_qt/thumbnail/NNI1FVOBKE.png", "layer": 0, "perspective_c1_x": {"Points": [{"interpolation": 2, "co": {"X": 1, "Y": -1}}]}, "position": 116.35833326975506, "rotation": {"Points": [{"interpolation": 2, "co": {"X": 1, "Y": 0}}]}, "mixing": 0, "waveform": false, "crop_width": {"Points": [{"interpolation": 2, "co": {"X": 1, "Y": -1}}]}, "crop_height": {"Points": [{"interpolation": 2, "co": {"X": 1, "Y": -1}}]}, "crop_y": {"Points": [{"interpolation": 2, "co": {"X": 1, "Y": 0}}]}, "volume": {"Points": [{"interpolation": 2, "co": {"X": 1, "Y": 1}}]}, "channel_mapping": {"Points": [{"interpolation": 2, "co": {"X": 1, "Y": -1}}]}, "title": "trajs_fc_3.avi", "has_video": {"Points": [{"interpolation": 2, "co": {"X": 1, "Y": -1}}]}, "perspective_c4_y": {"Points": [{"interpolation": 2, "co": {"X": 1, "Y": -1}}]}, "perspective_c2_y": {"Points": [{"interpolation": 2, "co": {"X": 1, "Y": -1}}]}, "reader": {"type": "FFmpegReader", "height": 1002, "video_timebase": {"num": 1, "den": 60}, "audio_stream_index": -1, "video_length": "417", "interlaced_frame": false, "duration": 6.949999809265137, "channels": 0, "sample_rate": 0, "video_bit_rate": 79792890, "channel_layout": 4, "path": "/home/avishai/Documents/workspace/adaptive_hand_model/matlab/video/trajs_fc_3.avi", "metadata": {}, "audio_bit_rate": 0, "has_video": true, "has_audio": false, "pixel_format": 12, "acodec": "", "video_stream_index": 0, "display_ratio": {"num": 2, "den": 1}, "file_size": "69320074", "fps": {"num": 60, "den": 1}, "width": 2004, "top_field_first": true, "audio_timebase": {"num": 1, "den": 1}, "pixel_ratio": {"num": 1, "den": 1}, "vcodec": "mjpeg", "has_single_image": false}, "perspective_c3_x": {"Points": [{"interpolation": 2, "co": {"X": 1, "Y": -1}}]}, "gravity": 4, "id": "O2H2SXKGGU", "anchor": 0, "location_x": {"Points": [{"interpolation": 2, "co": {"X": 1, "Y": 0}}]}, "perspective_c1_y": {"Points": [{"interpolation": 2, "co": {"X": 1, "Y": -1}}]}, "file_id": "NNI1FVOBKE", "shear_y": {"Points": [{"interpolation": 2, "co": {"X": 1, "Y": 0}}]}, "location_y": {"Points": [{"interpolation": 2, "co": {"X": 1, "Y": 0}}]}, "scale_y": {"Points": [{"interpolation": 2, "co": {"X": 1, "Y": 1}}]}, "perspective_c4_x": {"Points": [{"interpolation": 2, "co": {"X": 1, "Y": -1}}]}, "shear_x": {"Points": [{"interpolation": 2, "co": {"X": 1, "Y": 0}}]}, "channel_filter": {"Points": [{"interpolation": 2, "co": {"X": 1, "Y": -1}}]}}, {"time": {"Points": [{"interpolation": 2, "co": {"X": 1, "Y": 1}}]}, "display": 0, "perspective_c2_x": {"Points": [{"interpolation": 2, "co": {"X": 1, "Y": -1}}]}, "duration": 86400.0, "end": 10, "scale_x": {"Points": [{"interpolation": 2, "co": {"X": 1, "Y": 1}}]}, "effects": [], "has_audio": {"Points": [{"interpolation": 2, "co": {"X": 1, "Y": -1}}]}, "scale": 1, "perspective_c3_y": {"Points": [{"interpolation": 2, "co": {"X": 1, "Y": -1}}]}, "alpha": {"Points": [{"interpolation": 2, "co": {"X": 1, "Y": 1}}]}, "start": 0, "wave_color": {"blue": {"Points": [{"interpolation": 0, "handle_type": 0, "co": {"X": 1, "Y": 255}, "handle_left": {"X": 0.5, "Y": 1}, "handle_right": {"X": 0.5, "Y": 0}}]}, "green": {"Points": [{"interpolation": 0, "handle_type": 0, "co": {"X": 1, "Y": 123}, "handle_left": {"X": 0.5, "Y": 1}, "handle_right": {"X": 0.5, "Y": 0}}]}, "red": {"Points": [{"interpolation": 0, "handle_type": 0, "co": {"X": 1, "Y": 0}, "handle_left": {"X": 0.5, "Y": 1}, "handle_right": {"X": 0.5, "Y": 0}}]}, "alpha": {"Points": [{"interpolation": 0, "handle_type": 0, "co": {"X": 1, "Y": 255}, "handle_left": {"X": 0.5, "Y": 1}, "handle_right": {"X": 0.5, "Y": 0}}]}}, "crop_x": {"Points": [{"interpolation": 2, "co": {"X": 1, "Y": 0}}]}, "image": "/home/avishai/.openshot_qt/thumbnail/700EU1BLAQ.png", "layer": 0, "perspective_c1_x": {"Points": [{"interpolation": 2, "co": {"X": 1, "Y": -1}}]}, "position": 93.44166647593183, "rotation": {"Points": [{"interpolation": 2, "co": {"X": 1, "Y": 0}}]}, "mixing": 0, "waveform": false, "crop_width": {"Points": [{"interpolation": 2, "co": {"X": 1, "Y": -1}}]}, "crop_height": {"Points": [{"interpolation": 2, "co": {"X": 1, "Y": -1}}]}, "crop_y": {"Points": [{"interpolation": 2, "co": {"X": 1, "Y": 0}}]}, "volume": {"Points": [{"interpolation": 2, "co": {"X": 1, "Y": 1}}]}, "channel_mapping": {"Points": [{"interpolation": 2, "co": {"X": 1, "Y": -1}}]}, "title": "opening8.png", "has_video": {"Points": [{"interpolation": 2, "co": {"X": 1, "Y": -1}}]}, "perspective_c4_y": {"Points": [{"interpolation": 2, "co": {"X": 1, "Y": -1}}]}, "perspective_c2_y": {"Points": [{"interpolation": 2, "co": {"X": 1, "Y": -1}}]}, "reader": {"type": "QtImageReader", "height": 720, "video_timebase": {"num": 1, "den": 30}, "audio_stream_index": -1, "video_length": "2592000", "interlaced_frame": false, "duration": 86400.0, "channels": 0, "sample_rate": 0, "video_bit_rate": 0, "channel_layout": 4, "path": "/home/avishai/Documents/workspace/adaptive_hand_model/matlab/video/slides/opening8.png", "metadata": {}, "audio_bit_rate": 0, "has_video": true, "has_audio": false, "pixel_format": -1, "acodec": "", "video_stream_index": -1, "display_ratio": {"num": 4, "den": 3}, "file_size": "2764800", "fps": {"num": 30, "den": 1}, "width": 960, "top_field_first": true, "audio_timebase": {"num": 1, "den": 1}, "pixel_ratio": {"num": 1, "den": 1}, "vcodec": "", "has_single_image": true}, "perspective_c3_x": {"Points": [{"interpolation": 2, "co": {"X": 1, "Y": -1}}]}, "gravity": 4, "id": "891QVU4B22", "anchor": 0, "location_x": {"Points": [{"interpolation": 2, "co": {"X": 1, "Y": 0}}]}, "perspective_c1_y": {"Points": [{"interpolation": 2, "co": {"X": 1, "Y": -1}}]}, "file_id": "700EU1BLAQ", "shear_y": {"Points": [{"interpolation": 2, "co": {"X": 1, "Y": 0}}]}, "location_y": {"Points": [{"interpolation": 2, "co": {"X": 1, "Y": 0}}]}, "scale_y": {"Points": [{"interpolation": 2, "co": {"X": 1, "Y": 1}}]}, "perspective_c4_x": {"Points": [{"interpolation": 2, "co": {"X": 1, "Y": -1}}]}, "shear_x": {"Points": [{"interpolation": 2, "co": {"X": 1, "Y": 0}}]}, "channel_filter": {"Points": [{"interpolation": 2, "co": {"X": 1, "Y": -1}}]}}], "key": ["clips"], "partial": false}, {"value": {"position": 61.15833333333334, "image": "/home/avishai/.openshot_qt/thumbnail/0S38URN00T.png", "layer": 0, "start": 0, "id": "Y2Z73X5B3B", "end": 10}, "type": "update", "old_values": {"time": {"Points": [{"interpolation": 2, "co": {"X": 1, "Y": 1}}]}, "display": 0, "perspective_c2_x": {"Points": [{"interpolation": 2, "co": {"X": 1, "Y": -1}}]}, "duration": 86400.0, "end": 10.0, "scale_x": {"Points": [{"interpolation": 2, "co": {"X": 1, "Y": 1}}]}, "effects": [], "has_audio": {"Points": [{"interpolation": 2, "co": {"X": 1, "Y": -1}}]}, "scale": 1, "perspective_c3_y": {"Points": [{"interpolation": 2, "co": {"X": 1, "Y": -1}}]}, "alpha": {"Points": [{"interpolation": 2, "co": {"X": 1, "Y": 1}}]}, "start": 0, "wave_color": {"blue": {"Points": [{"interpolation": 0, "handle_type": 0, "co": {"X": 1, "Y": 255}, "handle_left": {"X": 0.5, "Y": 1}, "handle_right": {"X": 0.5, "Y": 0}}]}, "green": {"Points": [{"interpolation": 0, "handle_type": 0, "co": {"X": 1, "Y": 123}, "handle_left": {"X": 0.5, "Y": 1}, "handle_right": {"X": 0.5, "Y": 0}}]}, "red": {"Points": [{"interpolation": 0, "handle_type": 0, "co": {"X": 1, "Y": 0}, "handle_left": {"X": 0.5, "Y": 1}, "handle_right": {"X": 0.5, "Y": 0}}]}, "alpha": {"Points": [{"interpolation": 0, "handle_type": 0, "co": {"X": 1, "Y": 255}, "handle_left": {"X": 0.5, "Y": 1}, "handle_right": {"X": 0.5, "Y": 0}}]}}, "crop_x": {"Points": [{"interpolation": 2, "co": {"X": 1, "Y": 0}}]}, "image": "/home/avishai/.openshot_qt/thumbnail/0S38URN00T.png", "layer": 0, "perspective_c1_x": {"Points": [{"interpolation": 2, "co": {"X": 1, "Y": -1}}]}, "position": 64.25999999999999, "rotation": {"Points": [{"interpolation": 2, "co": {"X": 1, "Y": 0}}]}, "mixing": 0, "waveform": false, "crop_width": {"Points": [{"interpolation": 2, "co": {"X": 1, "Y": -1}}]}, "crop_height": {"Points": [{"interpolation": 2, "co": {"X": 1, "Y": -1}}]}, "crop_y": {"Points": [{"interpolation": 2, "co": {"X": 1, "Y": 0}}]}, "volume": {"Points": [{"interpolation": 2, "co": {"X": 1, "Y": 1}}]}, "channel_mapping": {"Points": [{"interpolation": 2, "co": {"X": 1, "Y": -1}}]}, "title": "opening5.png", "has_video": {"Points": [{"interpolation": 2, "co": {"X": 1, "Y": -1}}]}, "perspective_c4_y": {"Points": [{"interpolation": 2, "co": {"X": 1, "Y": -1}}]}, "perspective_c2_y": {"Points": [{"interpolation": 2, "co": {"X": 1, "Y": -1}}]}, "reader": {"type": "QtImageReader", "height": 720, "video_timebase": {"num": 1, "den": 30}, "audio_stream_index": -1, "video_length": "2592000", "interlaced_frame": false, "duration": 86400.0, "channels": 0, "sample_rate": 0, "video_bit_rate": 0, "channel_layout": 4, "path": "/home/avishai/Documents/workspace/adaptive_hand_model/matlab/video/slides/opening5.png", "metadata": {}, "audio_bit_rate": 0, "has_video": true, "has_audio": false, "pixel_format": -1, "acodec": "", "video_stream_index": -1, "display_ratio": {"num": 4, "den": 3}, "file_size": "2764800", "fps": {"num": 30, "den": 1}, "width": 960, "top_field_first": true, "audio_timebase": {"num": 1, "den": 1}, "pixel_ratio": {"num": 1, "den": 1}, "vcodec": "", "has_single_image": true}, "perspective_c3_x": {"Points": [{"interpolation": 2, "co": {"X": 1, "Y": -1}}]}, "gravity": 4, "id": "Y2Z73X5B3B", "anchor": 0, "location_x": {"Points": [{"interpolation": 2, "co": {"X": 1, "Y": 0}}]}, "perspective_c1_y": {"Points": [{"interpolation": 2, "co": {"X": 1, "Y": -1}}]}, "file_id": "0S38URN00T", "shear_y": {"Points": [{"interpolation": 2, "co": {"X": 1, "Y": 0}}]}, "location_y": {"Points": [{"interpolation": 2, "co": {"X": 1, "Y": 0}}]}, "scale_y": {"Points": [{"interpolation": 2, "co": {"X": 1, "Y": 1}}]}, "perspective_c4_x": {"Points": [{"interpolation": 2, "co": {"X": 1, "Y": -1}}]}, "shear_x": {"Points": [{"interpolation": 2, "co": {"X": 1, "Y": 0}}]}, "channel_filter": {"Points": [{"interpolation": 2, "co": {"X": 1, "Y": -1}}]}}, "key": ["clips", {"id": "Y2Z73X5B3B"}], "partial": false}, {"value": {"type": "QtImageReader", "height": 720, "video_timebase": {"num": 1, "den": 30}, "audio_stream_index": -1, "video_length": "2592000", "interlaced_frame": false, "duration": 86400, "channels": 0, "sample_rate": 0, "video_bit_rate": 0, "channel_layout": 4, "path": "/home/avishai/Documents/workspace/adaptive_hand_model/matlab/video/slides/opening_cl.png", "metadata": {}, "audio_bit_rate": 0, "has_video": true, "has_audio": false, "pixel_format": -1, "acodec": "", "video_stream_index": -1, "display_ratio": {"num": 4, "den": 3}, "fps": {"num": 30, "den": 1}, "id": "H8ZKH85PV1", "width": 960, "file_size": "2764800", "top_field_first": true, "media_type": "image", "audio_timebase": {"num": 1, "den": 1}, "pixel_ratio": {"num": 1, "den": 1}, "vcodec": "", "has_single_image": true}, "type": "insert", "old_values": [{"type": "QtImageReader", "height": 720, "video_timebase": {"num": 1, "den": 30}, "audio_stream_index": -1, "video_length": "2592000", "interlaced_frame": false, "id": "FG71JWWOKG", "channels": 0, "sample_rate": 0, "video_bit_rate": 0, "channel_layout": 4, "path": "/home/avishai/Documents/workspace/adaptive_hand_model/matlab/video/slides/opening.png", "metadata": {}, "audio_bit_rate": 0, "has_video": true, "has_audio": false, "pixel_format": -1, "acodec": "", "video_stream_index": -1, "display_ratio": {"num": 4, "den": 3}, "file_size": "2764800", "fps": {"num": 30, "den": 1}, "width": 960, "top_field_first": true, "media_type": "image", "audio_timebase": {"num": 1, "den": 1}, "pixel_ratio": {"num": 1, "den": 1}, "duration": 86400, "vcodec": "", "has_single_image": true}, {"type": "FFmpegReader", "height": 1503, "video_timebase": {"num": 1, "den": 60}, "audio_stream_index": -1, "video_length": "417", "interlaced_frame": false, "id": "FC16UD9ZFT", "channels": 0, "sample_rate": 0, "video_bit_rate": 70132622, "channel_layout": 4, "path": "/home/avishai/Documents/workspace/adaptive_hand_model/matlab/video/trajs.avi", "metadata": {}, "audio_bit_rate": 0, "has_video": true, "has_audio": false, "pixel_format": 12, "acodec": "", "video_stream_index": 0, "display_ratio": {"num": 1502, "den": 1503}, "file_size": "60927716", "fps": {"num": 60, "den": 1}, "width": 1502, "top_field_first": true, "media_type": "video", "audio_timebase": {"num": 1, "den": 1}, "pixel_ratio": {"num": 1, "den": 1}, "duration": 6.949999809265137, "vcodec": "mjpeg", "has_single_image": false}, {"type": "FFmpegReader", "height": 451, "video_timebase": {"num": 1, "den": 60}, "audio_stream_index": -1, "video_length": "652", "interlaced_frame": false, "id": "VLL3NDOT0B", "channels": 0, "sample_rate": 0, "video_bit_rate": 13375086, "channel_layout": 4, "path": "/home/avishai/Documents/workspace/adaptive_hand_model/matlab/video/rec.avi", "metadata": {}, "audio_bit_rate": 0, "has_video": true, "has_audio": false, "pixel_format": 12, "acodec": "", "video_stream_index": 0, "display_ratio": {"num": 531, "den": 451}, "file_size": "18167826", "fps": {"num": 60, "den": 1}, "width": 531, "top_field_first": true, "media_type": "video", "audio_timebase": {"num": 1, "den": 1}, "pixel_ratio": {"num": 1, "den": 1}, "duration": 10.866666793823242, "vcodec": "mjpeg", "has_single_image": false}, {"type": "QtImageReader", "interlaced_frame": false, "video_timebase": {"num": 1, "den": 30}, "audio_stream_index": -1, "video_length": "2592000", "channels": 0, "id": "SM8I51NPAK", "sample_rate": 0, "video_bit_rate": 0, "channel_layout": 4, "path": "/home/avishai/Documents/workspace/adaptive_hand_model/matlab/video/assets/TitleFileName-2.svg", "metadata": {}, "audio_bit_rate": 0, "has_video": true, "has_audio": false, "pixel_format": -1, "height": 1080, "acodec": "", "video_stream_index": -1, "display_ratio": {"num": 16, "den": 9}, "file_size": "8294400", "fps": {"num": 30, "den": 1}, "width": 1920, "top_field_first": true, "media_type": "image", "audio_timebase": {"num": 1, "den": 1}, "pixel_ratio": {"num": 1, "den": 1}, "duration": 86400, "vcodec": "", "has_single_image": true}, {"type": "QtImageReader", "interlaced_frame": false, "video_timebase": {"num": 1, "den": 30}, "audio_stream_index": -1, "video_length": "2592000", "channels": 0, "id": "YIV9WP4V5Q", "sample_rate": 0, "video_bit_rate": 0, "channel_layout": 4, "path": "/home/avishai/Documents/workspace/adaptive_hand_model/matlab/video/slides/opening1.png", "metadata": {}, "audio_bit_rate": 0, "has_video": true, "has_audio": false, "pixel_format": -1, "height": 720, "acodec": "", "video_stream_index": -1, "display_ratio": {"num": 4, "den": 3}, "file_size": "2764800", "fps": {"num": 30, "den": 1}, "width": 960, "top_field_first": true, "media_type": "image", "audio_timebase": {"num": 1, "den": 1}, "pixel_ratio": {"num": 1, "den": 1}, "duration": 86400, "vcodec": "", "has_single_image": true}, {"type": "QtImageReader", "interlaced_frame": false, "video_timebase": {"num": 1, "den": 30}, "audio_stream_index": -1, "video_length": "2592000", "channels": 0, "id": "722P7PCEWK", "sample_rate": 0, "video_bit_rate": 0, "channel_layout": 4, "path": "/home/avishai/Documents/workspace/adaptive_hand_model/matlab/video/slides/opening2.png", "metadata": {}, "audio_bit_rate": 0, "has_video": true, "has_audio": false, "pixel_format": -1, "height": 720, "acodec": "", "video_stream_index": -1, "display_ratio": {"num": 4, "den": 3}, "file_size": "2764800", "fps": {"num": 30, "den": 1}, "width": 960, "top_field_first": true, "media_type": "image", "audio_timebase": {"num": 1, "den": 1}, "pixel_ratio": {"num": 1, "den": 1}, "duration": 86400, "vcodec": "", "has_single_image": true}, {"type": "QtImageReader", "height": 720, "video_timebase": {"num": 1, "den": 30}, "audio_stream_index": -1, "video_length": "2592000", "interlaced_frame": false, "duration": 86400, "channels": 0, "sample_rate": 0, "video_bit_rate": 0, "channel_layout": 4, "path": "/home/avishai/Documents/workspace/adaptive_hand_model/matlab/video/slides/opening4.png", "metadata": {}, "audio_bit_rate": 0, "has_video": true, "has_audio": false, "pixel_format": -1, "acodec": "", "video_stream_index": -1, "display_ratio": {"num": 4, "den": 3}, "file_size": "2764800", "fps": {"num": 30, "den": 1}, "id": "RHRWX2BT8P", "width": 960, "top_field_first": true, "media_type": "image", "audio_timebase": {"num": 1, "den": 1}, "pixel_ratio": {"num": 1, "den": 1}, "vcodec": "", "has_single_image": true}, {"type": "QtImageReader", "height": 720, "video_timebase": {"num": 1, "den": 30}, "audio_stream_index": -1, "video_length": "2592000", "interlaced_frame": false, "duration": 86400, "channels": 0, "sample_rate": 0, "video_bit_rate": 0, "channel_layout": 4, "path": "/home/avishai/Documents/workspace/adaptive_hand_model/matlab/video/slides/opening3.png", "metadata": {}, "audio_bit_rate": 0, "has_video": true, "has_audio": false, "pixel_format": -1, "acodec": "", "video_stream_index": -1, "display_ratio": {"num": 4, "den": 3}, "file_size": "2764800", "fps": {"num": 30, "den": 1}, "id": "LMEK33J1LA", "width": 960, "top_field_first": true, "media_type": "image", "audio_timebase": {"num": 1, "den": 1}, "pixel_ratio": {"num": 1, "den": 1}, "vcodec": "", "has_single_image": true}, {"type": "QtImageReader", "height": 720, "video_timebase": {"num": 1, "den": 30}, "audio_stream_index": -1, "video_length": "2592000", "interlaced_frame": false, "duration": 86400, "channels": 0, "sample_rate": 0, "video_bit_rate": 0, "channel_layout": 4, "path": "/home/avishai/Documents/workspace/adaptive_hand_model/matlab/video/slides/opening5.png", "metadata": {}, "audio_bit_rate": 0, "has_video": true, "has_audio": false, "pixel_format": -1, "acodec": "", "video_stream_index": -1, "display_ratio": {"num": 4, "den": 3}, "file_size": "2764800", "fps": {"num": 30, "den": 1}, "id": "0S38URN00T", "width": 960, "top_field_first": true, "media_type": "image", "audio_timebase": {"num": 1, "den": 1}, "pixel_ratio": {"num": 1, "den": 1}, "vcodec": "", "has_single_image": true}, {"type": "QtImageReader", "height": 720, "video_timebase": {"num": 1, "den": 30}, "audio_stream_index": -1, "video_length": "2592000", "interlaced_frame": false, "duration": 86400, "channels": 0, "sample_rate": 0, "video_bit_rate": 0, "channel_layout": 4, "path": "/home/avishai/Documents/workspace/adaptive_hand_model/matlab/video/slides/opening6.png", "metadata": {}, "audio_bit_rate": 0, "has_video": true, "has_audio": false, "pixel_format": -1, "acodec": "", "video_stream_index": -1, "display_ratio": {"num": 4, "den": 3}, "file_size": "2764800", "fps": {"num": 30, "den": 1}, "id": "YA8O4MECE1", "width": 960, "top_field_first": true, "media_type": "image", "audio_timebase": {"num": 1, "den": 1}, "pixel_ratio": {"num": 1, "den": 1}, "vcodec": "", "has_single_image": true}, {"type": "QtImageReader", "height": 720, "video_timebase": {"num": 1, "den": 30}, "audio_stream_index": -1, "video_length": "2592000", "interlaced_frame": false, "duration": 86400, "channels": 0, "sample_rate": 0, "video_bit_rate": 0, "channel_layout": 4, "path": "/home/avishai/Documents/workspace/adaptive_hand_model/matlab/video/slides/opening7.png", "metadata": {}, "audio_bit_rate": 0, "has_video": true, "has_audio": false, "pixel_format": -1, "acodec": "", "video_stream_index": -1, "display_ratio": {"num": 4, "den": 3}, "file_size": "2764800", "fps": {"num": 30, "den": 1}, "id": "ULNSBVNSH3", "width": 960, "top_field_first": true, "media_type": "image", "audio_timebase": {"num": 1, "den": 1}, "pixel_ratio": {"num": 1, "den": 1}, "vcodec": "", "has_single_image": true}, {"type": "QtImageReader", "height": 720, "video_timebase": {"num": 1, "den": 30}, "audio_stream_index": -1, "video_length": "2592000", "interlaced_frame": false, "duration": 86400, "channels": 0, "sample_rate": 0, "video_bit_rate": 0, "channel_layout": 4, "path": "/home/avishai/Documents/workspace/adaptive_hand_model/matlab/video/slides/opening8.png", "metadata": {}, "audio_bit_rate": 0, "has_video": true, "has_audio": false, "pixel_format": -1, "acodec": "", "video_stream_index": -1, "display_ratio": {"num": 4, "den": 3}, "file_size": "2764800", "fps": {"num": 30, "den": 1}, "id": "700EU1BLAQ", "width": 960, "top_field_first": true, "media_type": "image", "audio_timebase": {"num": 1, "den": 1}, "pixel_ratio": {"num": 1, "den": 1}, "vcodec": "", "has_single_image": true}, {"type": "QtImageReader", "height": 720, "video_timebase": {"num": 1, "den": 30}, "audio_stream_index": -1, "video_length": "2592000", "interlaced_frame": false, "duration": 86400, "channels": 0, "sample_rate": 0, "video_bit_rate": 0, "channel_layout": 4, "path": "/home/avishai/Documents/workspace/adaptive_hand_model/matlab/video/slides/opening8b.png", "metadata": {}, "audio_bit_rate": 0, "has_video": true, "has_audio": false, "pixel_format": -1, "acodec": "", "video_stream_index": -1, "display_ratio": {"num": 4, "den": 3}, "file_size": "2764800", "fps": {"num": 30, "den": 1}, "id": "EWEUFI7OUN", "width": 960, "top_field_first": true, "media_type": "image", "audio_timebase": {"num": 1, "den": 1}, "pixel_ratio": {"num": 1, "den": 1}, "vcodec": "", "has_single_image": true}, {"type": "FFmpegReader", "height": 1002, "video_timebase": {"num": 1, "den": 60}, "audio_stream_index": -1, "video_length": "285", "interlaced_frame": false, "duration": 4.75, "channels": 0, "sample_rate": 0, "video_bit_rate": 79206750, "channel_layout": 4, "path": "/home/avishai/Documents/workspace/adaptive_hand_model/matlab/video/trajs_fc_1.avi", "metadata": {}, "audio_bit_rate": 0, "has_video": true, "has_audio": false, "pixel_format": 12, "acodec": "", "video_stream_index": 0, "display_ratio": {"num": 2, "den": 1}, "file_size": "47029008", "fps": {"num": 60, "den": 1}, "id": "KZLNLAEG7J", "width": 2004, "top_field_first": true, "media_type": "video", "audio_timebase": {"num": 1, "den": 1}, "pixel_ratio": {"num": 1, "den": 1}, "vcodec": "mjpeg", "has_single_image": false}, {"type": "FFmpegReader", "height": 1002, "video_timebase": {"num": 1, "den": 60}, "audio_stream_index": -1, "video_length": "262", "interlaced_frame": false, "duration": 4.366666793823242, "channels": 0, "sample_rate": 0, "video_bit_rate": 78925778, "channel_layout": 4, "path": "/home/avishai/Documents/workspace/adaptive_hand_model/matlab/video/trajs_fc_2.avi", "metadata": {}, "audio_bit_rate": 0, "has_video": true, "has_audio": false, "pixel_format": 12, "acodec": "", "video_stream_index": 0, "display_ratio": {"num": 2, "den": 1}, "file_size": "43080324", "fps": {"num": 60, "den": 1}, "id": "D1DPZWUXYA", "width": 2004, "top_field_first": true, "media_type": "video", "audio_timebase": {"num": 1, "den": 1}, "pixel_ratio": {"num": 1, "den": 1}, "vcodec": "mjpeg", "has_single_image": false}, {"type": "FFmpegReader", "height": 1002, "video_timebase": {"num": 1, "den": 60}, "audio_stream_index": -1, "video_length": "417", "interlaced_frame": false, "duration": 6.949999809265137, "channels": 0, "sample_rate": 0, "video_bit_rate": 79792890, "channel_layout": 4, "path": "/home/avishai/Documents/workspace/adaptive_hand_model/matlab/video/trajs_fc_3.avi", "metadata": {}, "audio_bit_rate": 0, "has_video": true, "has_audio": false, "pixel_format": 12, "acodec": "", "video_stream_index": 0, "display_ratio": {"num": 2, "den": 1}, "file_size": "69320074", "fps": {"num": 60, "den": 1}, "id": "NNI1FVOBKE", "width": 2004, "top_field_first": true, "media_type": "video", "audio_timebase": {"num": 1, "den": 1}, "pixel_ratio": {"num": 1, "den": 1}, "vcodec": "mjpeg", "has_single_image": false}], "key": ["files"], "partial": false}, {"value": "/home/avishai/Documents/workspace/adaptive_hand_model/matlab/video/slides", "type": "update", "old_values": "/home/avishai/Documents/workspace/adaptive_hand_model/matlab/video", "key": ["import_path"], "partial": false}, {"value": {"time": {"Points": [{"interpolation": 2, "co": {"X": 1, "Y": 1}}]}, "display": 0, "perspective_c2_x": {"Points": [{"interpolation": 2, "co": {"X": 1, "Y": -1}}]}, "duration": 86400.0, "end": 10, "scale_x": {"Points": [{"interpolation": 2, "co": {"X": 1, "Y": 1}}]}, "effects": [], "has_audio": {"Points": [{"interpolation": 2, "co": {"X": 1, "Y": -1}}]}, "scale": 1, "perspective_c3_y": {"Points": [{"interpolation": 2, "co": {"X": 1, "Y": -1}}]}, "alpha": {"Points": [{"interpolation": 2, "co": {"X": 1, "Y": 1}}]}, "start": 0, "wave_color": {"blue": {"Points": [{"interpolation": 0, "handle_type": 0, "handle_left": {"X": 0.5, "Y": 1}, "handle_right": {"X": 0.5, "Y": 0}, "co": {"X": 1, "Y": 255}}]}, "green": {"Points": [{"interpolation": 0, "handle_type": 0, "handle_left": {"X": 0.5, "Y": 1}, "handle_right": {"X": 0.5, "Y": 0}, "co": {"X": 1, "Y": 123}}]}, "red": {"Points": [{"interpolation": 0, "handle_type": 0, "handle_left": {"X": 0.5, "Y": 1}, "handle_right": {"X": 0.5, "Y": 0}, "co": {"X": 1, "Y": 0}}]}, "alpha": {"Points": [{"interpolation": 0, "handle_type": 0, "handle_left": {"X": 0.5, "Y": 1}, "handle_right": {"X": 0.5, "Y": 0}, "co": {"X": 1, "Y": 255}}]}}, "crop_x": {"Points": [{"interpolation": 2, "co": {"X": 1, "Y": 0}}]}, "image": "/home/avishai/.openshot_qt/thumbnail/H8ZKH85PV1.png", "layer": 0, "perspective_c1_x": {"Points": [{"interpolation": 2, "co": {"X": 1, "Y": -1}}]}, "shear_y": {"Points": [{"interpolation": 2, "co": {"X": 1, "Y": 0}}]}, "rotation": {"Points": [{"interpolation": 2, "co": {"X": 1, "Y": 0}}]}, "mixing": 0, "waveform": false, "crop_width": {"Points": [{"interpolation": 2, "co": {"X": 1, "Y": -1}}]}, "crop_height": {"Points": [{"interpolation": 2, "co": {"X": 1, "Y": -1}}]}, "crop_y": {"Points": [{"interpolation": 2, "co": {"X": 1, "Y": 0}}]}, "volume": {"Points": [{"interpolation": 2, "co": {"X": 1, "Y": 1}}]}, "channel_mapping": {"Points": [{"interpolation": 2, "co": {"X": 1, "Y": -1}}]}, "title": "opening_cl.png", "has_video": {"Points": [{"interpolation": 2, "co": {"X": 1, "Y": -1}}]}, "perspective_c4_y": {"Points": [{"interpolation": 2, "co": {"X": 1, "Y": -1}}]}, "perspective_c2_y": {"Points": [{"interpolation": 2, "co": {"X": 1, "Y": -1}}]}, "reader": {"type": "QtImageReader", "height": 720, "video_timebase": {"num": 1, "den": 30}, "audio_stream_index": -1, "video_length": "2592000", "interlaced_frame": false, "duration": 86400.0, "channels": 0, "sample_rate": 0, "video_bit_rate": 0, "channel_layout": 4, "path": "/home/avishai/Documents/workspace/adaptive_hand_model/matlab/video/slides/opening_cl.png", "metadata": {}, "audio_bit_rate": 0, "has_video": true, "has_audio": false, "pixel_format": -1, "acodec": "", "video_stream_index": -1, "display_ratio": {"num": 4, "den": 3}, "fps": {"num": 30, "den": 1}, "width": 960, "file_size": "2764800", "top_field_first": true, "audio_timebase": {"num": 1, "den": 1}, "pixel_ratio": {"num": 1, "den": 1}, "vcodec": "", "has_single_image": true}, "position": 149.33333333333334, "perspective_c3_x": {"Points": [{"interpolation": 2, "co": {"X": 1, "Y": -1}}]}, "gravity": 4, "id": "K90F5T2784", "anchor": 0, "location_x": {"Points": [{"interpolation": 2, "co": {"X": 1, "Y": 0}}]}, "perspective_c1_y": {"Points": [{"interpolation": 2, "co": {"X": 1, "Y": -1}}]}, "file_id": "H8ZKH85PV1", "channel_filter": {"Points": [{"interpolation": 2, "co": {"X": 1, "Y": -1}}]}, "location_y": {"Points": [{"interpolation": 2, "co": {"X": 1, "Y": 0}}]}, "scale_y": {"Points": [{"interpolation": 2, "co": {"X": 1, "Y": 1}}]}, "shear_x": {"Points": [{"interpolation": 2, "co": {"X": 1, "Y": 0}}]}, "perspective_c4_x": {"Points": [{"interpolation": 2, "co": {"X": 1, "Y": -1}}]}}, "type": "insert", "old_values": [{"time": {"Points": [{"interpolation": 2, "co": {"X": 1, "Y": 1}}]}, "display": 0, "perspective_c2_x": {"Points": [{"interpolation": 2, "co": {"X": 1, "Y": -1}}]}, "duration": 10.866666793823242, "end": 10.875, "scale_x": {"Points": [{"interpolation": 2, "co": {"X": 1, "Y": 1}}]}, "channel_filter": {"Points": [{"interpolation": 2, "co": {"X": 1, "Y": -1}}]}, "effects": [], "has_audio": {"Points": [{"interpolation": 2, "co": {"X": 1, "Y": -1}}]}, "scale": 1, "perspective_c3_y": {"Points": [{"interpolation": 2, "co": {"X": 1, "Y": -1}}]}, "alpha": {"Points": [{"interpolation": 2, "co": {"X": 1, "Y": 1}}]}, "shear_x": {"Points": [{"interpolation": 2, "co": {"X": 1, "Y": 0}}]}, "wave_color": {"blue": {"Points": [{"interpolation": 0, "handle_type": 0, "handle_left": {"X": 0.5, "Y": 1}, "handle_right": {"X": 0.5, "Y": 0}, "co": {"X": 1, "Y": 255}}]}, "red": {"Points": [{"interpolation": 0, "handle_type": 0, "handle_left": {"X": 0.5, "Y": 1}, "handle_right": {"X": 0.5, "Y": 0}, "co": {"X": 1, "Y": 0}}]}, "green": {"Points": [{"interpolation": 0, "handle_type": 0, "handle_left": {"X": 0.5, "Y": 1}, "handle_right": {"X": 0.5, "Y": 0}, "co": {"X": 1, "Y": 123}}]}, "alpha": {"Points": [{"interpolation": 0, "handle_type": 0, "handle_left": {"X": 0.5, "Y": 1}, "handle_right": {"X": 0.5, "Y": 0}, "co": {"X": 1, "Y": 255}}]}}, "crop_x": {"Points": [{"interpolation": 2, "co": {"X": 1, "Y": 0}}]}, "image": "/home/avishai/.openshot_qt/thumbnail/VLL3NDOT0B.png", "layer": 0, "perspective_c1_x": {"Points": [{"interpolation": 2, "co": {"X": 1, "Y": -1}}]}, "shear_y": {"Points": [{"interpolation": 2, "co": {"X": 1, "Y": 0}}]}, "rotation": {"Points": [{"interpolation": 2, "co": {"X": 1, "Y": 0}}]}, "gravity": 4, "waveform": false, "crop_width": {"Points": [{"interpolation": 2, "co": {"X": 1, "Y": -1}}]}, "crop_height": {"Points": [{"interpolation": 2, "co": {"X": 1, "Y": -1}}]}, "crop_y": {"Points": [{"interpolation": 2, "co": {"X": 1, "Y": 0}}]}, "volume": {"Points": [{"interpolation": 2, "co": {"X": 1, "Y": 1}}]}, "channel_mapping": {"Points": [{"interpolation": 2, "co": {"X": 1, "Y": -1}}]}, "title": "rec.avi", "has_video": {"Points": [{"interpolation": 2, "co": {"X": 1, "Y": -1}}]}, "perspective_c4_y": {"Points": [{"interpolation": 2, "co": {"X": 1, "Y": -1}}]}, "perspective_c2_y": {"Points": [{"interpolation": 2, "co": {"X": 1, "Y": -1}}]}, "reader": {"type": "FFmpegReader", "height": 451, "video_timebase": {"num": 1, "den": 60}, "audio_stream_index": -1, "video_length": "652", "interlaced_frame": false, "audio_bit_rate": 0, "channels": 0, "sample_rate": 0, "video_bit_rate": 13375086, "channel_layout": 4, "path": "/home/avishai/Documents/workspace/adaptive_hand_model/matlab/video/rec.avi", "metadata": {}, "vcodec": "mjpeg", "has_video": true, "has_audio": false, "pixel_format": 12, "acodec": "", "video_stream_index": 0, "display_ratio": {"num": 531, "den": 451}, "file_size": "18167826", "fps": {"num": 60, "den": 1}, "width": 531, "top_field_first": true, "audio_timebase": {"num": 1, "den": 1}, "pixel_ratio": {"num": 1, "den": 1}, "duration": 10.866666793823242, "has_single_image": false}, "perspective_c3_x": {"Points": [{"interpolation": 2, "co": {"X": 1, "Y": -1}}]}, "id": "S1HEPYMO0Q", "anchor": 0, "location_x": {"Points": [{"interpolation": 2, "co": {"X": 1, "Y": 0}}]}, "mixing": 0, "perspective_c1_y": {"Points": [{"interpolation": 2, "co": {"X": 1, "Y": -1}}]}, "file_id": "VLL3NDOT0B", "position": 10, "location_y": {"Points": [{"interpolation": 2, "co": {"X": 1, "Y": 0}}]}, "scale_y": {"Points": [{"interpolation": 2, "co": {"X": 1, "Y": 1}}]}, "start": 0, "perspective_c4_x": {"Points": [{"interpolation": 2, "co": {"X": 1, "Y": -1}}]}}, {"time": {"Points": [{"interpolation": 2, "co": {"X": 1, "Y": 1}}]}, "display": 0, "perspective_c2_x": {"Points": [{"interpolation": 2, "co": {"X": 1, "Y": -1}}]}, "duration": 86400.0, "end": 10, "scale_x": {"Points": [{"interpolation": 2, "co": {"X": 1, "Y": 1}}]}, "channel_filter": {"Points": [{"interpolation": 2, "co": {"X": 1, "Y": -1}}]}, "effects": [], "has_audio": {"Points": [{"interpolation": 2, "co": {"X": 1, "Y": -1}}]}, "scale": 1, "perspective_c3_y": {"Points": [{"interpolation": 2, "co": {"X": 1, "Y": -1}}]}, "alpha": {"Points": [{"interpolation": 2, "co": {"X": 1, "Y": 1}}, {"interpolation": 0, "handle_type": 0, "handle_right": {"X": 0.5, "Y": 0}, "handle_left": {"X": 0.5, "Y": 1}, "co": {"X": 1, "Y": 0}}, {"interpolation": 0, "handle_type": 0, "handle_right": {"X": 0.5, "Y": 0}, "handle_left": {"X": 0.5, "Y": 1}, "co": {"X": 73, "Y": 1}}]}, "shear_x": {"Points": [{"interpolation": 2, "co": {"X": 1, "Y": 0}}]}, "wave_color": {"blue": {"Points": [{"interpolation": 0, "handle_type": 0, "handle_right": {"X": 0.5, "Y": 0}, "handle_left": {"X": 0.5, "Y": 1}, "co": {"X": 1, "Y": 255}}]}, "green": {"Points": [{"interpolation": 0, "handle_type": 0, "handle_right": {"X": 0.5, "Y": 0}, "handle_left": {"X": 0.5, "Y": 1}, "co": {"X": 1, "Y": 123}}]}, "red": {"Points": [{"interpolation": 0, "handle_type": 0, "handle_right": {"X": 0.5, "Y": 0}, "handle_left": {"X": 0.5, "Y": 1}, "co": {"X": 1, "Y": 0}}]}, "alpha": {"Points": [{"interpolation": 0, "handle_type": 0, "handle_right": {"X": 0.5, "Y": 0}, "handle_left": {"X": 0.5, "Y": 1}, "co": {"X": 1, "Y": 255}}]}}, "crop_x": {"Points": [{"interpolation": 2, "co": {"X": 1, "Y": 0}}]}, "image": "/home/avishai/.openshot_qt/thumbnail/SM8I51NPAK.png", "layer": 1, "perspective_c1_x": {"Points": [{"interpolation": 2, "co": {"X": 1, "Y": -1}}]}, "position": 10.946666793823242, "rotation": {"Points": [{"interpolation": 2, "co": {"X": 1, "Y": 0}}]}, "gravity": 4, "waveform": false, "crop_width": {"Points": [{"interpolation": 2, "co": {"X": 1, "Y": -1}}]}, "crop_height": {"Points": [{"interpolation": 2, "co": {"X": 1, "Y": -1}}]}, "crop_y": {"Points": [{"interpolation": 2, "co": {"X": 1, "Y": 0}}]}, "volume": {"Points": [{"interpolation": 2, "co": {"X": 1, "Y": 1}}]}, "channel_mapping": {"Points": [{"interpolation": 2, "co": {"X": 1, "Y": -1}}]}, "title": "TitleFileName-2.svg", "has_video": {"Points": [{"interpolation": 2, "co": {"X": 1, "Y": -1}}]}, "perspective_c4_y": {"Points": [{"interpolation": 2, "co": {"X": 1, "Y": -1}}]}, "perspective_c2_y": {"Points": [{"interpolation": 2, "co": {"X": 1, "Y": -1}}]}, "reader": {"type": "QtImageReader", "interlaced_frame": false, "video_timebase": {"num": 1, "den": 30}, "audio_stream_index": -1, "video_length": "2592000", "channels": 0, "audio_bit_rate": 0, "sample_rate": 0, "video_bit_rate": 0, "channel_layout": 4, "path": "/home/avishai/Documents/workspace/adaptive_hand_model/matlab/video/assets/TitleFileName-2.svg", "metadata": {}, "vcodec": "", "has_video": true, "has_audio": false, "pixel_format": -1, "height": 1080, "acodec": "", "video_stream_index": -1, "display_ratio": {"num": 16, "den": 9}, "file_size": "8294400", "fps": {"num": 30, "den": 1}, "width": 1920, "top_field_first": true, "audio_timebase": {"num": 1, "den": 1}, "pixel_ratio": {"num": 1, "den": 1}, "duration": 86400.0, "has_single_image": true}, "perspective_c3_x": {"Points": [{"interpolation": 2, "co": {"X": 1, "Y": -1}}]}, "id": "838ILRLA3L", "anchor": 0, "location_x": {"Points": [{"interpolation": 2, "co": {"X": 1, "Y": 0}}]}, "mixing": 0, "perspective_c1_y": {"Points": [{"interpolation": 2, "co": {"X": 1, "Y": -1}}]}, "file_id": "SM8I51NPAK", "shear_y": {"Points": [{"interpolation": 2, "co": {"X": 1, "Y": 0}}]}, "location_y": {"Points": [{"interpolation": 2, "co": {"X": 1, "Y": 0}}]}, "scale_y": {"Points": [{"interpolation": 2, "co": {"X": 1, "Y": 1}}]}, "start": 0, "perspective_c4_x": {"Points": [{"interpolation": 2, "co": {"X": 1, "Y": -1}}]}}, {"time": {"Points": [{"interpolation": 2, "co": {"X": 1, "Y": 1}}]}, "display": 0, "perspective_c2_x": {"Points": [{"interpolation": 2, "co": {"X": 1, "Y": -1}}]}, "duration": 86400.0, "end": 10, "scale_x": {"Points": [{"interpolation": 2, "co": {"X": 1, "Y": 1}}]}, "channel_filter": {"Points": [{"interpolation": 2, "co": {"X": 1, "Y": -1}}]}, "effects": [], "has_audio": {"Points": [{"interpolation": 2, "co": {"X": 1, "Y": -1}}]}, "scale": 1, "perspective_c3_y": {"Points": [{"interpolation": 2, "co": {"X": 1, "Y": -1}}]}, "alpha": {"Points": [{"interpolation": 2, "co": {"X": 1, "Y": 1}}, {"interpolation": 0, "handle_type": 0, "handle_right": {"X": 0.5, "Y": 0}, "handle_left": {"X": 0.5, "Y": 1}, "co": {"X": 169, "Y": 1}}, {"interpolation": 0, "handle_type": 0, "handle_right": {"X": 0.5, "Y": 0}, "handle_left": {"X": 0.5, "Y": 1}, "co": {"X": 241, "Y": 0}}]}, "shear_x": {"Points": [{"interpolation": 2, "co": {"X": 1, "Y": 0}}]}, "wave_color": {"blue": {"Points": [{"interpolation": 0, "handle_type": 0, "handle_right": {"X": 0.5, "Y": 0}, "handle_left": {"X": 0.5, "Y": 1}, "co": {"X": 1, "Y": 255}}]}, "green": {"Points": [{"interpolation": 0, "handle_type": 0, "handle_right": {"X": 0.5, "Y": 0}, "handle_left": {"X": 0.5, "Y": 1}, "co": {"X": 1, "Y": 123}}]}, "red": {"Points": [{"interpolation": 0, "handle_type": 0, "handle_right": {"X": 0.5, "Y": 0}, "handle_left": {"X": 0.5, "Y": 1}, "co": {"X": 1, "Y": 0}}]}, "alpha": {"Points": [{"interpolation": 0, "handle_type": 0, "handle_right": {"X": 0.5, "Y": 0}, "handle_left": {"X": 0.5, "Y": 1}, "co": {"X": 1, "Y": 255}}]}}, "crop_x": {"Points": [{"interpolation": 2, "co": {"X": 1, "Y": 0}}]}, "image": "/home/avishai/.openshot_qt/thumbnail/722P7PCEWK.png", "layer": 0, "perspective_c1_x": {"Points": [{"interpolation": 2, "co": {"X": 1, "Y": -1}}]}, "position": 30.94666679382324, "rotation": {"Points": [{"interpolation": 2, "co": {"X": 1, "Y": 0}}]}, "gravity": 4, "waveform": false, "crop_width": {"Points": [{"interpolation": 2, "co": {"X": 1, "Y": -1}}]}, "crop_height": {"Points": [{"interpolation": 2, "co": {"X": 1, "Y": -1}}]}, "crop_y": {"Points": [{"interpolation": 2, "co": {"X": 1, "Y": 0}}]}, "volume": {"Points": [{"interpolation": 2, "co": {"X": 1, "Y": 1}}]}, "channel_mapping": {"Points": [{"interpolation": 2, "co": {"X": 1, "Y": -1}}]}, "title": "opening2.png", "has_video": {"Points": [{"interpolation": 2, "co": {"X": 1, "Y": -1}}]}, "perspective_c4_y": {"Points": [{"interpolation": 2, "co": {"X": 1, "Y": -1}}]}, "perspective_c2_y": {"Points": [{"interpolation": 2, "co": {"X": 1, "Y": -1}}]}, "reader": {"type": "QtImageReader", "interlaced_frame": false, "video_timebase": {"num": 1, "den": 30}, "audio_stream_index": -1, "video_length": "2592000", "channels": 0, "audio_bit_rate": 0, "sample_rate": 0, "video_bit_rate": 0, "channel_layout": 4, "path": "/home/avishai/Documents/workspace/adaptive_hand_model/matlab/video/slides/opening2.png", "metadata": {}, "vcodec": "", "has_video": true, "has_audio": false, "pixel_format": -1, "height": 720, "acodec": "", "video_stream_index": -1, "display_ratio": {"num": 4, "den": 3}, "file_size": "2764800", "fps": {"num": 30, "den": 1}, "width": 960, "top_field_first": true, "audio_timebase": {"num": 1, "den": 1}, "pixel_ratio": {"num": 1, "den": 1}, "duration": 86400.0, "has_single_image": true}, "perspective_c3_x": {"Points": [{"interpolation": 2, "co": {"X": 1, "Y": -1}}]}, "id": "T71MOBYYIW", "anchor": 0, "location_x": {"Points": [{"interpolation": 2, "co": {"X": 1, "Y": 0}}]}, "mixing": 0, "perspective_c1_y": {"Points": [{"interpolation": 2, "co": {"X": 1, "Y": -1}}]}, "file_id": "722P7PCEWK", "shear_y": {"Points": [{"interpolation": 2, "co": {"X": 1, "Y": 0}}]}, "location_y": {"Points": [{"interpolation": 2, "co": {"X": 1, "Y": 0}}]}, "scale_y": {"Points": [{"interpolation": 2, "co": {"X": 1, "Y": 1}}]}, "start": 0, "perspective_c4_x": {"Points": [{"interpolation": 2, "co": {"X": 1, "Y": -1}}]}}, {"time": {"Points": [{"interpolation": 2, "co": {"X": 1, "Y": 1}}]}, "display": 0, "perspective_c2_x": {"Points": [{"interpolation": 2, "co": {"X": 1, "Y": -1}}]}, "duration": 86400.0, "end": 10, "scale_x": {"Points": [{"interpolation": 2, "co": {"X": 1, "Y": 1}}]}, "effects": [], "has_audio": {"Points": [{"interpolation": 2, "co": {"X": 1, "Y": -1}}]}, "scale": 1, "perspective_c3_y": {"Points": [{"interpolation": 2, "co": {"X": 1, "Y": -1}}]}, "alpha": {"Points": [{"interpolation": 2, "co": {"X": 1, "Y": 1}}]}, "start": 0, "wave_color": {"blue": {"Points": [{"interpolation": 0, "handle_type": 0, "co": {"X": 1, "Y": 255}, "handle_left": {"X": 0.5, "Y": 1}, "handle_right": {"X": 0.5, "Y": 0}}]}, "green": {"Points": [{"interpolation": 0, "handle_type": 0, "co": {"X": 1, "Y": 123}, "handle_left": {"X": 0.5, "Y": 1}, "handle_right": {"X": 0.5, "Y": 0}}]}, "red": {"Points": [{"interpolation": 0, "handle_type": 0, "co": {"X": 1, "Y": 0}, "handle_left": {"X": 0.5, "Y": 1}, "handle_right": {"X": 0.5, "Y": 0}}]}, "alpha": {"Points": [{"interpolation": 0, "handle_type": 0, "co": {"X": 1, "Y": 255}, "handle_left": {"X": 0.5, "Y": 1}, "handle_right": {"X": 0.5, "Y": 0}}]}}, "crop_x": {"Points": [{"interpolation": 2, "co": {"X": 1, "Y": 0}}]}, "image": "/home/avishai/.openshot_qt/thumbnail/FG71JWWOKG.png", "layer": 0, "perspective_c1_x": {"Points": [{"interpolation": 2, "co": {"X": 1, "Y": -1}}]}, "position": 0, "rotation": {"Points": [{"interpolation": 2, "co": {"X": 1, "Y": 0}}]}, "mixing": 0, "waveform": false, "crop_width": {"Points": [{"interpolation": 2, "co": {"X": 1, "Y": -1}}]}, "crop_height": {"Points": [{"interpolation": 2, "co": {"X": 1, "Y": -1}}]}, "crop_y": {"Points": [{"interpolation": 2, "co": {"X": 1, "Y": 0}}]}, "volume": {"Points": [{"interpolation": 2, "co": {"X": 1, "Y": 1}}]}, "channel_mapping": {"Points": [{"interpolation": 2, "co": {"X": 1, "Y": -1}}]}, "title": "opening.png", "has_video": {"Points": [{"interpolation": 2, "co": {"X": 1, "Y": -1}}]}, "perspective_c4_y": {"Points": [{"interpolation": 2, "co": {"X": 1, "Y": -1}}]}, "perspective_c2_y": {"Points": [{"interpolation": 2, "co": {"X": 1, "Y": -1}}]}, "reader": {"type": "QtImageReader", "height": 720, "video_timebase": {"num": 1, "den": 30}, "audio_stream_index": -1, "video_length": "2592000", "interlaced_frame": false, "duration": 86400.0, "channels": 0, "sample_rate": 0, "video_bit_rate": 0, "channel_layout": 4, "path": "/home/avishai/Documents/workspace/adaptive_hand_model/matlab/video/slides/opening.png", "metadata": {}, "audio_bit_rate": 0, "has_video": true, "has_audio": false, "pixel_format": -1, "acodec": "", "video_stream_index": -1, "display_ratio": {"num": 4, "den": 3}, "file_size": "2764800", "fps": {"num": 30, "den": 1}, "width": 960, "top_field_first": true, "audio_timebase": {"num": 1, "den": 1}, "pixel_ratio": {"num": 1, "den": 1}, "vcodec": "", "has_single_image": true}, "perspective_c3_x": {"Points": [{"interpolation": 2, "co": {"X": 1, "Y": -1}}]}, "gravity": 4, "id": "VUZXRGBOF5", "anchor": 0, "location_x": {"Points": [{"interpolation": 2, "co": {"X": 1, "Y": 0}}]}, "perspective_c1_y": {"Points": [{"interpolation": 2, "co": {"X": 1, "Y": -1}}]}, "file_id": "FG71JWWOKG", "shear_y": {"Points": [{"interpolation": 2, "co": {"X": 1, "Y": 0}}]}, "location_y": {"Points": [{"interpolation": 2, "co": {"X": 1, "Y": 0}}]}, "scale_y": {"Points": [{"interpolation": 2, "co": {"X": 1, "Y": 1}}]}, "perspective_c4_x": {"Points": [{"interpolation": 2, "co": {"X": 1, "Y": -1}}]}, "shear_x": {"Points": [{"interpolation": 2, "co": {"X": 1, "Y": 0}}]}, "channel_filter": {"Points": [{"interpolation": 2, "co": {"X": 1, "Y": -1}}]}}, {"time": {"Points": [{"interpolation": 2, "co": {"X": 1, "Y": 1}}]}, "display": 0, "perspective_c2_x": {"Points": [{"interpolation": 2, "co": {"X": 1, "Y": -1}}]}, "duration": 86400.0, "end": 10, "scale_x": {"Points": [{"interpolation": 2, "co": {"X": 1, "Y": 1}}]}, "effects": [], "has_audio": {"Points": [{"interpolation": 2, "co": {"X": 1, "Y": -1}}]}, "scale": 1, "perspective_c3_y": {"Points": [{"interpolation": 2, "co": {"X": 1, "Y": -1}}]}, "alpha": {"Points": [{"interpolation": 2, "co": {"X": 1, "Y": 1}}]}, "start": 0, "wave_color": {"blue": {"Points": [{"interpolation": 0, "handle_type": 0, "co": {"X": 1, "Y": 255}, "handle_left": {"X": 0.5, "Y": 1}, "handle_right": {"X": 0.5, "Y": 0}}]}, "green": {"Points": [{"interpolation": 0, "handle_type": 0, "co": {"X": 1, "Y": 123}, "handle_left": {"X": 0.5, "Y": 1}, "handle_right": {"X": 0.5, "Y": 0}}]}, "red": {"Points": [{"interpolation": 0, "handle_type": 0, "co": {"X": 1, "Y": 0}, "handle_left": {"X": 0.5, "Y": 1}, "handle_right": {"X": 0.5, "Y": 0}}]}, "alpha": {"Points": [{"interpolation": 0, "handle_type": 0, "co": {"X": 1, "Y": 255}, "handle_left": {"X": 0.5, "Y": 1}, "handle_right": {"X": 0.5, "Y": 0}}]}}, "crop_x": {"Points": [{"interpolation": 2, "co": {"X": 1, "Y": 0}}]}, "image": "/home/avishai/.openshot_qt/thumbnail/YIV9WP4V5Q.png", "layer": 0, "perspective_c1_x": {"Points": [{"interpolation": 2, "co": {"X": 1, "Y": -1}}]}, "position": 21.026666793823242, "rotation": {"Points": [{"interpolation": 2, "co": {"X": 1, "Y": 0}}]}, "mixing": 0, "waveform": false, "crop_width": {"Points": [{"interpolation": 2, "co": {"X": 1, "Y": -1}}]}, "crop_height": {"Points": [{"interpolation": 2, "co": {"X": 1, "Y": -1}}]}, "crop_y": {"Points": [{"interpolation": 2, "co": {"X": 1, "Y": 0}}]}, "volume": {"Points": [{"interpolation": 2, "co": {"X": 1, "Y": 1}}]}, "channel_mapping": {"Points": [{"interpolation": 2, "co": {"X": 1, "Y": -1}}]}, "title": "opening1.png", "has_video": {"Points": [{"interpolation": 2, "co": {"X": 1, "Y": -1}}]}, "perspective_c4_y": {"Points": [{"interpolation": 2, "co": {"X": 1, "Y": -1}}]}, "perspective_c2_y": {"Points": [{"interpolation": 2, "co": {"X": 1, "Y": -1}}]}, "reader": {"type": "QtImageReader", "height": 720, "video_timebase": {"num": 1, "den": 30}, "audio_stream_index": -1, "video_length": "2592000", "interlaced_frame": false, "duration": 86400.0, "channels": 0, "sample_rate": 0, "video_bit_rate": 0, "channel_layout": 4, "path": "/home/avishai/Documents/workspace/adaptive_hand_model/matlab/video/slides/opening1.png", "metadata": {}, "audio_bit_rate": 0, "has_video": true, "has_audio": false, "pixel_format": -1, "acodec": "", "video_stream_index": -1, "display_ratio": {"num": 4, "den": 3}, "file_size": "2764800", "fps": {"num": 30, "den": 1}, "width": 960, "top_field_first": true, "audio_timebase": {"num": 1, "den": 1}, "pixel_ratio": {"num": 1, "den": 1}, "vcodec": "", "has_single_image": true}, "perspective_c3_x": {"Points": [{"interpolation": 2, "co": {"X": 1, "Y": -1}}]}, "gravity": 4, "id": "3A3QKZGMJB", "anchor": 0, "location_x": {"Points": [{"interpolation": 2, "co": {"X": 1, "Y": 0}}]}, "perspective_c1_y": {"Points": [{"interpolation": 2, "co": {"X": 1, "Y": -1}}]}, "file_id": "YIV9WP4V5Q", "shear_y": {"Points": [{"interpolation": 2, "co": {"X": 1, "Y": 0}}]}, "location_y": {"Points": [{"interpolation": 2, "co": {"X": 1, "Y": 0}}]}, "scale_y": {"Points": [{"interpolation": 2, "co": {"X": 1, "Y": 1}}]}, "perspective_c4_x": {"Points": [{"interpolation": 2, "co": {"X": 1, "Y": -1}}]}, "shear_x": {"Points": [{"interpolation": 2, "co": {"X": 1, "Y": 0}}]}, "channel_filter": {"Points": [{"interpolation": 2, "co": {"X": 1, "Y": -1}}]}}, {"time": {"Points": [{"interpolation": 2, "co": {"X": 1, "Y": 1}}]}, "display": 0, "perspective_c2_x": {"Points": [{"interpolation": 2, "co": {"X": 1, "Y": -1}}]}, "duration": 86400.0, "end": 10, "scale_x": {"Points": [{"interpolation": 2, "co": {"X": 1, "Y": 1}}]}, "effects": [], "has_audio": {"Points": [{"interpolation": 2, "co": {"X": 1, "Y": -1}}]}, "scale": 1, "perspective_c3_y": {"Points": [{"interpolation": 2, "co": {"X": 1, "Y": -1}}]}, "alpha": {"Points": [{"interpolation": 2, "co": {"X": 1, "Y": 1}}]}, "start": 0, "wave_color": {"blue": {"Points": [{"interpolation": 0, "handle_type": 0, "co": {"X": 1, "Y": 255}, "handle_left": {"X": 0.5, "Y": 1}, "handle_right": {"X": 0.5, "Y": 0}}]}, "green": {"Points": [{"interpolation": 0, "handle_type": 0, "co": {"X": 1, "Y": 123}, "handle_left": {"X": 0.5, "Y": 1}, "handle_right": {"X": 0.5, "Y": 0}}]}, "red": {"Points": [{"interpolation": 0, "handle_type": 0, "co": {"X": 1, "Y": 0}, "handle_left": {"X": 0.5, "Y": 1}, "handle_right": {"X": 0.5, "Y": 0}}]}, "alpha": {"Points": [{"interpolation": 0, "handle_type": 0, "co": {"X": 1, "Y": 255}, "handle_left": {"X": 0.5, "Y": 1}, "handle_right": {"X": 0.5, "Y": 0}}]}}, "crop_x": {"Points": [{"interpolation": 2, "co": {"X": 1, "Y": 0}}]}, "image": "/home/avishai/.openshot_qt/thumbnail/LMEK33J1LA.png", "layer": 0, "perspective_c1_x": {"Points": [{"interpolation": 2, "co": {"X": 1, "Y": -1}}]}, "position": 40.94666679382324, "rotation": {"Points": [{"interpolation": 2, "co": {"X": 1, "Y": 0}}]}, "mixing": 0, "waveform": false, "crop_width": {"Points": [{"interpolation": 2, "co": {"X": 1, "Y": -1}}]}, "crop_height": {"Points": [{"interpolation": 2, "co": {"X": 1, "Y": -1}}]}, "crop_y": {"Points": [{"interpolation": 2, "co": {"X": 1, "Y": 0}}]}, "volume": {"Points": [{"interpolation": 2, "co": {"X": 1, "Y": 1}}]}, "channel_mapping": {"Points": [{"interpolation": 2, "co": {"X": 1, "Y": -1}}]}, "title": "opening3.png", "has_video": {"Points": [{"interpolation": 2, "co": {"X": 1, "Y": -1}}]}, "perspective_c4_y": {"Points": [{"interpolation": 2, "co": {"X": 1, "Y": -1}}]}, "perspective_c2_y": {"Points": [{"interpolation": 2, "co": {"X": 1, "Y": -1}}]}, "reader": {"type": "QtImageReader", "height": 720, "video_timebase": {"num": 1, "den": 30}, "audio_stream_index": -1, "video_length": "2592000", "interlaced_frame": false, "duration": 86400.0, "channels": 0, "sample_rate": 0, "video_bit_rate": 0, "channel_layout": 4, "path": "/home/avishai/Documents/workspace/adaptive_hand_model/matlab/video/slides/opening3.png", "metadata": {}, "audio_bit_rate": 0, "has_video": true, "has_audio": false, "pixel_format": -1, "acodec": "", "video_stream_index": -1, "display_ratio": {"num": 4, "den": 3}, "file_size": "2764800", "fps": {"num": 30, "den": 1}, "width": 960, "top_field_first": true, "audio_timebase": {"num": 1, "den": 1}, "pixel_ratio": {"num": 1, "den": 1}, "vcodec": "", "has_single_image": true}, "perspective_c3_x": {"Points": [{"interpolation": 2, "co": {"X": 1, "Y": -1}}]}, "gravity": 4, "id": "X5HE8XP5XU", "anchor": 0, "location_x": {"Points": [{"interpolation": 2, "co": {"X": 1, "Y": 0}}]}, "perspective_c1_y": {"Points": [{"interpolation": 2, "co": {"X": 1, "Y": -1}}]}, "file_id": "LMEK33J1LA", "shear_y": {"Points": [{"interpolation": 2, "co": {"X": 1, "Y": 0}}]}, "location_y": {"Points": [{"interpolation": 2, "co": {"X": 1, "Y": 0}}]}, "scale_y": {"Points": [{"interpolation": 2, "co": {"X": 1, "Y": 1}}]}, "perspective_c4_x": {"Points": [{"interpolation": 2, "co": {"X": 1, "Y": -1}}]}, "shear_x": {"Points": [{"interpolation": 2, "co": {"X": 1, "Y": 0}}]}, "channel_filter": {"Points": [{"interpolation": 2, "co": {"X": 1, "Y": -1}}]}}, {"time": {"Points": [{"interpolation": 2, "co": {"X": 1, "Y": 1}}]}, "display": 0, "perspective_c2_x": {"Points": [{"interpolation": 2, "co": {"X": 1, "Y": -1}}]}, "duration": 86400.0, "end": 10, "scale_x": {"Points": [{"interpolation": 2, "co": {"X": 1, "Y": 1}}]}, "effects": [], "has_audio": {"Points": [{"interpolation": 2, "co": {"X": 1, "Y": -1}}]}, "scale": 1, "perspective_c3_y": {"Points": [{"interpolation": 2, "co": {"X": 1, "Y": -1}}]}, "alpha": {"Points": [{"interpolation": 2, "co": {"X": 1, "Y": 1}}]}, "start": 0, "wave_color": {"blue": {"Points": [{"interpolation": 0, "handle_type": 0, "co": {"X": 1, "Y": 255}, "handle_left": {"X": 0.5, "Y": 1}, "handle_right": {"X": 0.5, "Y": 0}}]}, "green": {"Points": [{"interpolation": 0, "handle_type": 0, "co": {"X": 1, "Y": 123}, "handle_left": {"X": 0.5, "Y": 1}, "handle_right": {"X": 0.5, "Y": 0}}]}, "red": {"Points": [{"interpolation": 0, "handle_type": 0, "co": {"X": 1, "Y": 0}, "handle_left": {"X": 0.5, "Y": 1}, "handle_right": {"X": 0.5, "Y": 0}}]}, "alpha": {"Points": [{"interpolation": 0, "handle_type": 0, "co": {"X": 1, "Y": 255}, "handle_left": {"X": 0.5, "Y": 1}, "handle_right": {"X": 0.5, "Y": 0}}]}}, "crop_x": {"Points": [{"interpolation": 2, "co": {"X": 1, "Y": 0}}]}, "image": "/home/avishai/.openshot_qt/thumbnail/RHRWX2BT8P.png", "layer": 0, "perspective_c1_x": {"Points": [{"interpolation": 2, "co": {"X": 1, "Y": -1}}]}, "position": 50.94666679382324, "rotation": {"Points": [{"interpolation": 2, "co": {"X": 1, "Y": 0}}]}, "mixing": 0, "waveform": false, "crop_width": {"Points": [{"interpolation": 2, "co": {"X": 1, "Y": -1}}]}, "crop_height": {"Points": [{"interpolation": 2, "co": {"X": 1, "Y": -1}}]}, "crop_y": {"Points": [{"interpolation": 2, "co": {"X": 1, "Y": 0}}]}, "volume": {"Points": [{"interpolation": 2, "co": {"X": 1, "Y": 1}}]}, "channel_mapping": {"Points": [{"interpolation": 2, "co": {"X": 1, "Y": -1}}]}, "title": "opening4.png", "has_video": {"Points": [{"interpolation": 2, "co": {"X": 1, "Y": -1}}]}, "perspective_c4_y": {"Points": [{"interpolation": 2, "co": {"X": 1, "Y": -1}}]}, "perspective_c2_y": {"Points": [{"interpolation": 2, "co": {"X": 1, "Y": -1}}]}, "reader": {"type": "QtImageReader", "height": 720, "video_timebase": {"num": 1, "den": 30}, "audio_stream_index": -1, "video_length": "2592000", "interlaced_frame": false, "duration": 86400.0, "channels": 0, "sample_rate": 0, "video_bit_rate": 0, "channel_layout": 4, "path": "/home/avishai/Documents/workspace/adaptive_hand_model/matlab/video/slides/opening4.png", "metadata": {}, "audio_bit_rate": 0, "has_video": true, "has_audio": false, "pixel_format": -1, "acodec": "", "video_stream_index": -1, "display_ratio": {"num": 4, "den": 3}, "file_size": "2764800", "fps": {"num": 30, "den": 1}, "width": 960, "top_field_first": true, "audio_timebase": {"num": 1, "den": 1}, "pixel_ratio": {"num": 1, "den": 1}, "vcodec": "", "has_single_image": true}, "perspective_c3_x": {"Points": [{"interpolation": 2, "co": {"X": 1, "Y": -1}}]}, "gravity": 4, "id": "LYT59N8TPM", "anchor": 0, "location_x": {"Points": [{"interpolation": 2, "co": {"X": 1, "Y": 0}}]}, "perspective_c1_y": {"Points": [{"interpolation": 2, "co": {"X": 1, "Y": -1}}]}, "file_id": "RHRWX2BT8P", "shear_y": {"Points": [{"interpolation": 2, "co": {"X": 1, "Y": 0}}]}, "location_y": {"Points": [{"interpolation": 2, "co": {"X": 1, "Y": 0}}]}, "scale_y": {"Points": [{"interpolation": 2, "co": {"X": 1, "Y": 1}}]}, "perspective_c4_x": {"Points": [{"interpolation": 2, "co": {"X": 1, "Y": -1}}]}, "shear_x": {"Points": [{"interpolation": 2, "co": {"X": 1, "Y": 0}}]}, "channel_filter": {"Points": [{"interpolation": 2, "co": {"X": 1, "Y": -1}}]}}, {"time": {"Points": [{"interpolation": 2, "co": {"X": 1, "Y": 1}}]}, "display": 0, "perspective_c2_x": {"Points": [{"interpolation": 2, "co": {"X": 1, "Y": -1}}]}, "duration": 86400.0, "end": 10, "scale_x": {"Points": [{"interpolation": 2, "co": {"X": 1, "Y": 1}}]}, "effects": [], "has_audio": {"Points": [{"interpolation": 2, "co": {"X": 1, "Y": -1}}]}, "scale": 1, "perspective_c3_y": {"Points": [{"interpolation": 2, "co": {"X": 1, "Y": -1}}]}, "alpha": {"Points": [{"interpolation": 2, "co": {"X": 1, "Y": 1}}, {"interpolation": 0, "handle_type": 0, "co": {"X": 169, "Y": 1}, "handle_left": {"X": 0.5, "Y": 1}, "handle_right": {"X": 0.5, "Y": 0}}, {"interpolation": 0, "handle_type": 0, "co": {"X": 241, "Y": 0}, "handle_left": {"X": 0.5, "Y": 1}, "handle_right": {"X": 0.5, "Y": 0}}, {"interpolation": 0, "handle_type": 0, "handle_left": {"X": 0.5, "Y": 1}, "handle_right": {"X": 0.5, "Y": 0}, "co": {"X": 217, "Y": 1}}, {"interpolation": 0, "handle_type": 0, "handle_left": {"X": 0.5, "Y": 1}, "handle_right": {"X": 0.5, "Y": 0}, "co": {"X": 241, "Y": 0}}]}, "start": 0, "wave_color": {"blue": {"Points": [{"interpolation": 0, "handle_type": 0, "co": {"X": 1, "Y": 255}, "handle_right": {"X": 0.5, "Y": 0}, "handle_left": {"X": 0.5, "Y": 1}}]}, "green": {"Points": [{"interpolation": 0, "handle_type": 0, "co": {"X": 1, "Y": 123}, "handle_right": {"X": 0.5, "Y": 0}, "handle_left": {"X": 0.5, "Y": 1}}]}, "red": {"Points": [{"interpolation": 0, "handle_type": 0, "co": {"X": 1, "Y": 0}, "handle_right": {"X": 0.5, "Y": 0}, "handle_left": {"X": 0.5, "Y": 1}}]}, "alpha": {"Points": [{"interpolation": 0, "handle_type": 0, "co": {"X": 1, "Y": 255}, "handle_right": {"X": 0.5, "Y": 0}, "handle_left": {"X": 0.5, "Y": 1}}]}}, "crop_x": {"Points": [{"interpolation": 2, "co": {"X": 1, "Y": 0}}]}, "image": "/home/avishai/.openshot_qt/thumbnail/YA8O4MECE1.png", "layer": 0, "perspective_c1_x": {"Points": [{"interpolation": 2, "co": {"X": 1, "Y": -1}}]}, "position": 70.95833333333334, "rotation": {"Points": [{"interpolation": 2, "co": {"X": 1, "Y": 0}}]}, "mixing": 0, "waveform": false, "crop_width": {"Points": [{"interpolation": 2, "co": {"X": 1, "Y": -1}}]}, "crop_height": {"Points": [{"interpolation": 2, "co": {"X": 1, "Y": -1}}]}, "crop_y": {"Points": [{"interpolation": 2, "co": {"X": 1, "Y": 0}}]}, "volume": {"Points": [{"interpolation": 2, "co": {"X": 1, "Y": 1}}]}, "channel_mapping": {"Points": [{"interpolation": 2, "co": {"X": 1, "Y": -1}}]}, "title": "opening6.png", "has_video": {"Points": [{"interpolation": 2, "co": {"X": 1, "Y": -1}}]}, "perspective_c4_y": {"Points": [{"interpolation": 2, "co": {"X": 1, "Y": -1}}]}, "perspective_c2_y": {"Points": [{"interpolation": 2, "co": {"X": 1, "Y": -1}}]}, "reader": {"type": "QtImageReader", "height": 720, "video_timebase": {"num": 1, "den": 30}, "audio_stream_index": -1, "video_length": "2592000", "interlaced_frame": false, "duration": 86400.0, "channels": 0, "sample_rate": 0, "video_bit_rate": 0, "channel_layout": 4, "path": "/home/avishai/Documents/workspace/adaptive_hand_model/matlab/video/slides/opening6.png", "metadata": {}, "audio_bit_rate": 0, "has_video": true, "has_audio": false, "pixel_format": -1, "acodec": "", "video_stream_index": -1, "display_ratio": {"num": 4, "den": 3}, "file_size": "2764800", "fps": {"num": 30, "den": 1}, "width": 960, "top_field_first": true, "audio_timebase": {"num": 1, "den": 1}, "pixel_ratio": {"num": 1, "den": 1}, "vcodec": "", "has_single_image": true}, "perspective_c3_x": {"Points": [{"interpolation": 2, "co": {"X": 1, "Y": -1}}]}, "gravity": 4, "id": "LYWGXV5N3L", "anchor": 0, "location_x": {"Points": [{"interpolation": 2, "co": {"X": 1, "Y": 0}}]}, "perspective_c1_y": {"Points": [{"interpolation": 2, "co": {"X": 1, "Y": -1}}]}, "file_id": "YA8O4MECE1", "shear_y": {"Points": [{"interpolation": 2, "co": {"X": 1, "Y": 0}}]}, "location_y": {"Points": [{"interpolation": 2, "co": {"X": 1, "Y": 0}}]}, "scale_y": {"Points": [{"interpolation": 2, "co": {"X": 1, "Y": 1}}]}, "perspective_c4_x": {"Points": [{"interpolation": 2, "co": {"X": 1, "Y": -1}}]}, "shear_x": {"Points": [{"interpolation": 2, "co": {"X": 1, "Y": 0}}]}, "channel_filter": {"Points": [{"interpolation": 2, "co": {"X": 1, "Y": -1}}]}}, {"time": {"Points": [{"interpolation": 2, "co": {"X": 1, "Y": 1}}]}, "display": 0, "perspective_c2_x": {"Points": [{"interpolation": 2, "co": {"X": 1, "Y": -1}}]}, "duration": 86400.0, "end": 5.333333333333333, "scale_x": {"Points": [{"interpolation": 2, "co": {"X": 1, "Y": 1}}]}, "effects": [], "has_audio": {"Points": [{"interpolation": 2, "co": {"X": 1, "Y": -1}}]}, "scale": 1, "perspective_c3_y": {"Points": [{"interpolation": 2, "co": {"X": 1, "Y": -1}}]}, "alpha": {"Points": [{"interpolation": 2, "co": {"X": 1, "Y": 1}}]}, "start": 0, "wave_color": {"blue": {"Points": [{"interpolation": 0, "handle_type": 0, "co": {"X": 1, "Y": 255}, "handle_left": {"X": 0.5, "Y": 1}, "handle_right": {"X": 0.5, "Y": 0}}]}, "green": {"Points": [{"interpolation": 0, "handle_type": 0, "co": {"X": 1, "Y": 123}, "handle_left": {"X": 0.5, "Y": 1}, "handle_right": {"X": 0.5, "Y": 0}}]}, "red": {"Points": [{"interpolation": 0, "handle_type": 0, "co": {"X": 1, "Y": 0}, "handle_left": {"X": 0.5, "Y": 1}, "handle_right": {"X": 0.5, "Y": 0}}]}, "alpha": {"Points": [{"interpolation": 0, "handle_type": 0, "co": {"X": 1, "Y": 255}, "handle_left": {"X": 0.5, "Y": 1}, "handle_right": {"X": 0.5, "Y": 0}}]}}, "crop_x": {"Points": [{"interpolation": 2, "co": {"X": 1, "Y": 0}}]}, "image": "/home/avishai/.openshot_qt/thumbnail/ULNSBVNSH3.png", "layer": 0, "perspective_c1_x": {"Points": [{"interpolation": 2, "co": {"X": 1, "Y": -1}}]}, "position": 80.95833333333334, "rotation": {"Points": [{"interpolation": 2, "co": {"X": 1, "Y": 0}}]}, "mixing": 0, "waveform": false, "crop_width": {"Points": [{"interpolation": 2, "co": {"X": 1, "Y": -1}}]}, "crop_height": {"Points": [{"interpolation": 2, "co": {"X": 1, "Y": -1}}]}, "crop_y": {"Points": [{"interpolation": 2, "co": {"X": 1, "Y": 0}}]}, "volume": {"Points": [{"interpolation": 2, "co": {"X": 1, "Y": 1}}]}, "channel_mapping": {"Points": [{"interpolation": 2, "co": {"X": 1, "Y": -1}}]}, "title": "opening7.png", "has_video": {"Points": [{"interpolation": 2, "co": {"X": 1, "Y": -1}}]}, "perspective_c4_y": {"Points": [{"interpolation": 2, "co": {"X": 1, "Y": -1}}]}, "perspective_c2_y": {"Points": [{"interpolation": 2, "co": {"X": 1, "Y": -1}}]}, "reader": {"type": "QtImageReader", "height": 720, "video_timebase": {"num": 1, "den": 30}, "audio_stream_index": -1, "video_length": "2592000", "interlaced_frame": false, "duration": 86400.0, "channels": 0, "sample_rate": 0, "video_bit_rate": 0, "channel_layout": 4, "path": "/home/avishai/Documents/workspace/adaptive_hand_model/matlab/video/slides/opening7.png", "metadata": {}, "audio_bit_rate": 0, "has_video": true, "has_audio": false, "pixel_format": -1, "acodec": "", "video_stream_index": -1, "display_ratio": {"num": 4, "den": 3}, "file_size": "2764800", "fps": {"num": 30, "den": 1}, "width": 960, "top_field_first": true, "audio_timebase": {"num": 1, "den": 1}, "pixel_ratio": {"num": 1, "den": 1}, "vcodec": "", "has_single_image": true}, "perspective_c3_x": {"Points": [{"interpolation": 2, "co": {"X": 1, "Y": -1}}]}, "gravity": 4, "id": "XC8281YBWR", "anchor": 0, "location_x": {"Points": [{"interpolation": 2, "co": {"X": 1, "Y": 0}}]}, "perspective_c1_y": {"Points": [{"interpolation": 2, "co": {"X": 1, "Y": -1}}]}, "file_id": "ULNSBVNSH3", "shear_y": {"Points": [{"interpolation": 2, "co": {"X": 1, "Y": 0}}]}, "location_y": {"Points": [{"interpolation": 2, "co": {"X": 1, "Y": 0}}]}, "scale_y": {"Points": [{"interpolation": 2, "co": {"X": 1, "Y": 1}}]}, "perspective_c4_x": {"Points": [{"interpolation": 2, "co": {"X": 1, "Y": -1}}]}, "shear_x": {"Points": [{"interpolation": 2, "co": {"X": 1, "Y": 0}}]}, "channel_filter": {"Points": [{"interpolation": 2, "co": {"X": 1, "Y": -1}}]}}, {"time": {"Points": [{"interpolation": 2, "co": {"X": 1, "Y": 1}}]}, "display": 0, "perspective_c2_x": {"Points": [{"interpolation": 2, "co": {"X": 1, "Y": -1}}]}, "duration": 6.949999809265137, "end": 6.949999809265137, "scale_x": {"Points": [{"interpolation": 2, "co": {"X": 1, "Y": 1}}]}, "effects": [], "has_audio": {"Points": [{"interpolation": 2, "co": {"X": 1, "Y": -1}}]}, "scale": 1, "perspective_c3_y": {"Points": [{"interpolation": 2, "co": {"X": 1, "Y": -1}}]}, "alpha": {"Points": [{"interpolation": 2, "co": {"X": 1, "Y": 1}}]}, "start": 0, "wave_color": {"blue": {"Points": [{"interpolation": 0, "handle_type": 0, "co": {"X": 1, "Y": 255}, "handle_left": {"X": 0.5, "Y": 1}, "handle_right": {"X": 0.5, "Y": 0}}]}, "green": {"Points": [{"interpolation": 0, "handle_type": 0, "co": {"X": 1, "Y": 123}, "handle_left": {"X": 0.5, "Y": 1}, "handle_right": {"X": 0.5, "Y": 0}}]}, "red": {"Points": [{"interpolation": 0, "handle_type": 0, "co": {"X": 1, "Y": 0}, "handle_left": {"X": 0.5, "Y": 1}, "handle_right": {"X": 0.5, "Y": 0}}]}, "alpha": {"Points": [{"interpolation": 0, "handle_type": 0, "co": {"X": 1, "Y": 255}, "handle_left": {"X": 0.5, "Y": 1}, "handle_right": {"X": 0.5, "Y": 0}}]}}, "crop_x": {"Points": [{"interpolation": 2, "co": {"X": 1, "Y": 0}}]}, "image": "/home/avishai/.openshot_qt/thumbnail/FC16UD9ZFT.png", "layer": 0, "perspective_c1_x": {"Points": [{"interpolation": 2, "co": {"X": 1, "Y": -1}}]}, "position": 86.29166666666669, "rotation": {"Points": [{"interpolation": 2, "co": {"X": 1, "Y": 0}}]}, "mixing": 0, "waveform": false, "crop_width": {"Points": [{"interpolation": 2, "co": {"X": 1, "Y": -1}}]}, "crop_height": {"Points": [{"interpolation": 2, "co": {"X": 1, "Y": -1}}]}, "crop_y": {"Points": [{"interpolation": 2, "co": {"X": 1, "Y": 0}}]}, "volume": {"Points": [{"interpolation": 2, "co": {"X": 1, "Y": 1}}]}, "channel_mapping": {"Points": [{"interpolation": 2, "co": {"X": 1, "Y": -1}}]}, "title": "trajs.avi", "has_video": {"Points": [{"interpolation": 2, "co": {"X": 1, "Y": -1}}]}, "perspective_c4_y": {"Points": [{"interpolation": 2, "co": {"X": 1, "Y": -1}}]}, "perspective_c2_y": {"Points": [{"interpolation": 2, "co": {"X": 1, "Y": -1}}]}, "reader": {"type": "FFmpegReader", "height": 1503, "video_timebase": {"num": 1, "den": 60}, "audio_stream_index": -1, "video_length": "417", "interlaced_frame": false, "duration": 6.949999809265137, "channels": 0, "sample_rate": 0, "video_bit_rate": 70132622, "channel_layout": 4, "path": "/home/avishai/Documents/workspace/adaptive_hand_model/matlab/video/trajs.avi", "metadata": {}, "audio_bit_rate": 0, "has_video": true, "has_audio": false, "pixel_format": 12, "acodec": "", "video_stream_index": 0, "display_ratio": {"num": 1502, "den": 1503}, "file_size": "60927716", "fps": {"num": 60, "den": 1}, "width": 1502, "top_field_first": true, "audio_timebase": {"num": 1, "den": 1}, "pixel_ratio": {"num": 1, "den": 1}, "vcodec": "mjpeg", "has_single_image": false}, "perspective_c3_x": {"Points": [{"interpolation": 2, "co": {"X": 1, "Y": -1}}]}, "gravity": 4, "id": "UL3TS2PDR4", "anchor": 0, "location_x": {"Points": [{"interpolation": 2, "co": {"X": 1, "Y": 0}}]}, "perspective_c1_y": {"Points": [{"interpolation": 2, "co": {"X": 1, "Y": -1}}]}, "file_id": "FC16UD9ZFT", "shear_y": {"Points": [{"interpolation": 2, "co": {"X": 1, "Y": 0}}]}, "location_y": {"Points": [{"interpolation": 2, "co": {"X": 1, "Y": 0}}]}, "scale_y": {"Points": [{"interpolation": 2, "co": {"X": 1, "Y": 1}}]}, "perspective_c4_x": {"Points": [{"interpolation": 2, "co": {"X": 1, "Y": -1}}]}, "shear_x": {"Points": [{"interpolation": 2, "co": {"X": 1, "Y": 0}}]}, "channel_filter": {"Points": [{"interpolation": 2, "co": {"X": 1, "Y": -1}}]}}, {"time": {"Points": [{"interpolation": 2, "co": {"X": 1, "Y": 1}}]}, "display": 0, "perspective_c2_x": {"Points": [{"interpolation": 2, "co": {"X": 1, "Y": -1}}]}, "duration": 86400.0, "end": 4, "scale_x": {"Points": [{"interpolation": 2, "co": {"X": 1, "Y": 1}}]}, "effects": [], "has_audio": {"Points": [{"interpolation": 2, "co": {"X": 1, "Y": -1}}]}, "scale": 1, "perspective_c3_y": {"Points": [{"interpolation": 2, "co": {"X": 1, "Y": -1}}]}, "alpha": {"Points": [{"interpolation": 2, "co": {"X": 1, "Y": 1}}]}, "start": 0, "wave_color": {"blue": {"Points": [{"interpolation": 0, "handle_type": 0, "co": {"X": 1, "Y": 255}, "handle_left": {"X": 0.5, "Y": 1}, "handle_right": {"X": 0.5, "Y": 0}}]}, "green": {"Points": [{"interpolation": 0, "handle_type": 0, "co": {"X": 1, "Y": 123}, "handle_left": {"X": 0.5, "Y": 1}, "handle_right": {"X": 0.5, "Y": 0}}]}, "red": {"Points": [{"interpolation": 0, "handle_type": 0, "co": {"X": 1, "Y": 0}, "handle_left": {"X": 0.5, "Y": 1}, "handle_right": {"X": 0.5, "Y": 0}}]}, "alpha": {"Points": [{"interpolation": 0, "handle_type": 0, "co": {"X": 1, "Y": 255}, "handle_left": {"X": 0.5, "Y": 1}, "handle_right": {"X": 0.5, "Y": 0}}]}}, "crop_x": {"Points": [{"interpolation": 2, "co": {"X": 1, "Y": 0}}]}, "image": "/home/avishai/.openshot_qt/thumbnail/EWEUFI7OUN.png", "layer": 0, "perspective_c1_x": {"Points": [{"interpolation": 2, "co": {"X": 1, "Y": -1}}]}, "position": 103.24166647593182, "rotation": {"Points": [{"interpolation": 2, "co": {"X": 1, "Y": 0}}]}, "mixing": 0, "waveform": false, "crop_width": {"Points": [{"interpolation": 2, "co": {"X": 1, "Y": -1}}]}, "crop_height": {"Points": [{"interpolation": 2, "co": {"X": 1, "Y": -1}}]}, "crop_y": {"Points": [{"interpolation": 2, "co": {"X": 1, "Y": 0}}]}, "volume": {"Points": [{"interpolation": 2, "co": {"X": 1, "Y": 1}}]}, "channel_mapping": {"Points": [{"interpolation": 2, "co": {"X": 1, "Y": -1}}]}, "title": "opening8b.png", "has_video": {"Points": [{"interpolation": 2, "co": {"X": 1, "Y": -1}}]}, "perspective_c4_y": {"Points": [{"interpolation": 2, "co": {"X": 1, "Y": -1}}]}, "perspective_c2_y": {"Points": [{"interpolation": 2, "co": {"X": 1, "Y": -1}}]}, "reader": {"type": "QtImageReader", "height": 720, "video_timebase": {"num": 1, "den": 30}, "audio_stream_index": -1, "video_length": "2592000", "interlaced_frame": false, "duration": 86400.0, "channels": 0, "sample_rate": 0, "video_bit_rate": 0, "channel_layout": 4, "path": "/home/avishai/Documents/workspace/adaptive_hand_model/matlab/video/slides/opening8b.png", "metadata": {}, "audio_bit_rate": 0, "has_video": true, "has_audio": false, "pixel_format": -1, "acodec": "", "video_stream_index": -1, "display_ratio": {"num": 4, "den": 3}, "file_size": "2764800", "fps": {"num": 30, "den": 1}, "width": 960, "top_field_first": true, "audio_timebase": {"num": 1, "den": 1}, "pixel_ratio": {"num": 1, "den": 1}, "vcodec": "", "has_single_image": true}, "perspective_c3_x": {"Points": [{"interpolation": 2, "co": {"X": 1, "Y": -1}}]}, "gravity": 4, "id": "K1HDHMF9R0", "anchor": 0, "location_x": {"Points": [{"interpolation": 2, "co": {"X": 1, "Y": 0}}]}, "perspective_c1_y": {"Points": [{"interpolation": 2, "co": {"X": 1, "Y": -1}}]}, "file_id": "EWEUFI7OUN", "shear_y": {"Points": [{"interpolation": 2, "co": {"X": 1, "Y": 0}}]}, "location_y": {"Points": [{"interpolation": 2, "co": {"X": 1, "Y": 0}}]}, "scale_y": {"Points": [{"interpolation": 2, "co": {"X": 1, "Y": 1}}]}, "perspective_c4_x": {"Points": [{"interpolation": 2, "co": {"X": 1, "Y": -1}}]}, "shear_x": {"Points": [{"interpolation": 2, "co": {"X": 1, "Y": 0}}]}, "channel_filter": {"Points": [{"interpolation": 2, "co": {"X": 1, "Y": -1}}]}}, {"time": {"Points": [{"interpolation": 2, "co": {"X": 1, "Y": 1}}]}, "display": 0, "perspective_c2_x": {"Points": [{"interpolation": 2, "co": {"X": 1, "Y": -1}}]}, "duration": 4.75, "end": 4.75, "scale_x": {"Points": [{"interpolation": 2, "co": {"X": 1, "Y": 1}}]}, "effects": [], "has_audio": {"Points": [{"interpolation": 2, "co": {"X": 1, "Y": -1}}]}, "scale": 1, "perspective_c3_y": {"Points": [{"interpolation": 2, "co": {"X": 1, "Y": -1}}]}, "alpha": {"Points": [{"interpolation": 2, "co": {"X": 1, "Y": 1}}]}, "start": 0, "wave_color": {"blue": {"Points": [{"interpolation": 0, "handle_type": 0, "co": {"X": 1, "Y": 255}, "handle_left": {"X": 0.5, "Y": 1}, "handle_right": {"X": 0.5, "Y": 0}}]}, "green": {"Points": [{"interpolation": 0, "handle_type": 0, "co": {"X": 1, "Y": 123}, "handle_left": {"X": 0.5, "Y": 1}, "handle_right": {"X": 0.5, "Y": 0}}]}, "red": {"Points": [{"interpolation": 0, "handle_type": 0, "co": {"X": 1, "Y": 0}, "handle_left": {"X": 0.5, "Y": 1}, "handle_right": {"X": 0.5, "Y": 0}}]}, "alpha": {"Points": [{"interpolation": 0, "handle_type": 0, "co": {"X": 1, "Y": 255}, "handle_left": {"X": 0.5, "Y": 1}, "handle_right": {"X": 0.5, "Y": 0}}]}}, "crop_x": {"Points": [{"interpolation": 2, "co": {"X": 1, "Y": 0}}]}, "image": "/home/avishai/.openshot_qt/thumbnail/KZLNLAEG7J.png", "layer": 0, "perspective_c1_x": {"Points": [{"interpolation": 2, "co": {"X": 1, "Y": -1}}]}, "position": 107.24166647593182, "rotation": {"Points": [{"interpolation": 2, "co": {"X": 1, "Y": 0}}]}, "mixing": 0, "waveform": false, "crop_width": {"Points": [{"interpolation": 2, "co": {"X": 1, "Y": -1}}]}, "crop_height": {"Points": [{"interpolation": 2, "co": {"X": 1, "Y": -1}}]}, "crop_y": {"Points": [{"interpolation": 2, "co": {"X": 1, "Y": 0}}]}, "volume": {"Points": [{"interpolation": 2, "co": {"X": 1, "Y": 1}}]}, "channel_mapping": {"Points": [{"interpolation": 2, "co": {"X": 1, "Y": -1}}]}, "title": "trajs_fc_1.avi", "has_video": {"Points": [{"interpolation": 2, "co": {"X": 1, "Y": -1}}]}, "perspective_c4_y": {"Points": [{"interpolation": 2, "co": {"X": 1, "Y": -1}}]}, "perspective_c2_y": {"Points": [{"interpolation": 2, "co": {"X": 1, "Y": -1}}]}, "reader": {"type": "FFmpegReader", "height": 1002, "video_timebase": {"num": 1, "den": 60}, "audio_stream_index": -1, "video_length": "285", "interlaced_frame": false, "duration": 4.75, "channels": 0, "sample_rate": 0, "video_bit_rate": 79206750, "channel_layout": 4, "path": "/home/avishai/Documents/workspace/adaptive_hand_model/matlab/video/trajs_fc_1.avi", "metadata": {}, "audio_bit_rate": 0, "has_video": true, "has_audio": false, "pixel_format": 12, "acodec": "", "video_stream_index": 0, "display_ratio": {"num": 2, "den": 1}, "file_size": "47029008", "fps": {"num": 60, "den": 1}, "width": 2004, "top_field_first": true, "audio_timebase": {"num": 1, "den": 1}, "pixel_ratio": {"num": 1, "den": 1}, "vcodec": "mjpeg", "has_single_image": false}, "perspective_c3_x": {"Points": [{"interpolation": 2, "co": {"X": 1, "Y": -1}}]}, "gravity": 4, "id": "E30S9MIQFA", "anchor": 0, "location_x": {"Points": [{"interpolation": 2, "co": {"X": 1, "Y": 0}}]}, "perspective_c1_y": {"Points": [{"interpolation": 2, "co": {"X": 1, "Y": -1}}]}, "file_id": "KZLNLAEG7J", "shear_y": {"Points": [{"interpolation": 2, "co": {"X": 1, "Y": 0}}]}, "location_y": {"Points": [{"interpolation": 2, "co": {"X": 1, "Y": 0}}]}, "scale_y": {"Points": [{"interpolation": 2, "co": {"X": 1, "Y": 1}}]}, "perspective_c4_x": {"Points": [{"interpolation": 2, "co": {"X": 1, "Y": -1}}]}, "shear_x": {"Points": [{"interpolation": 2, "co": {"X": 1, "Y": 0}}]}, "channel_filter": {"Points": [{"interpolation": 2, "co": {"X": 1, "Y": -1}}]}}, {"time": {"Points": [{"interpolation": 2, "co": {"X": 1, "Y": 1}}]}, "display": 0, "perspective_c2_x": {"Points": [{"interpolation": 2, "co": {"X": 1, "Y": -1}}]}, "duration": 4.366666793823242, "end": 4.366666793823242, "scale_x": {"Points": [{"interpolation": 2, "co": {"X": 1, "Y": 1}}]}, "effects": [], "has_audio": {"Points": [{"interpolation": 2, "co": {"X": 1, "Y": -1}}]}, "scale": 1, "perspective_c3_y": {"Points": [{"interpolation": 2, "co": {"X": 1, "Y": -1}}]}, "alpha": {"Points": [{"interpolation": 2, "co": {"X": 1, "Y": 1}}]}, "start": 0, "wave_color": {"blue": {"Points": [{"interpolation": 0, "handle_type": 0, "co": {"X": 1, "Y": 255}, "handle_left": {"X": 0.5, "Y": 1}, "handle_right": {"X": 0.5, "Y": 0}}]}, "green": {"Points": [{"interpolation": 0, "handle_type": 0, "co": {"X": 1, "Y": 123}, "handle_left": {"X": 0.5, "Y": 1}, "handle_right": {"X": 0.5, "Y": 0}}]}, "red": {"Points": [{"interpolation": 0, "handle_type": 0, "co": {"X": 1, "Y": 0}, "handle_left": {"X": 0.5, "Y": 1}, "handle_right": {"X": 0.5, "Y": 0}}]}, "alpha": {"Points": [{"interpolation": 0, "handle_type": 0, "co": {"X": 1, "Y": 255}, "handle_left": {"X": 0.5, "Y": 1}, "handle_right": {"X": 0.5, "Y": 0}}]}}, "crop_x": {"Points": [{"interpolation": 2, "co": {"X": 1, "Y": 0}}]}, "image": "/home/avishai/.openshot_qt/thumbnail/D1DPZWUXYA.png", "layer": 0, "perspective_c1_x": {"Points": [{"interpolation": 2, "co": {"X": 1, "Y": -1}}]}, "position": 111.99166647593182, "rotation": {"Points": [{"interpolation": 2, "co": {"X": 1, "Y": 0}}]}, "mixing": 0, "waveform": false, "crop_width": {"Points": [{"interpolation": 2, "co": {"X": 1, "Y": -1}}]}, "crop_height": {"Points": [{"interpolation": 2, "co": {"X": 1, "Y": -1}}]}, "crop_y": {"Points": [{"interpolation": 2, "co": {"X": 1, "Y": 0}}]}, "volume": {"Points": [{"interpolation": 2, "co": {"X": 1, "Y": 1}}]}, "channel_mapping": {"Points": [{"interpolation": 2, "co": {"X": 1, "Y": -1}}]}, "title": "trajs_fc_2.avi", "has_video": {"Points": [{"interpolation": 2, "co": {"X": 1, "Y": -1}}]}, "perspective_c4_y": {"Points": [{"interpolation": 2, "co": {"X": 1, "Y": -1}}]}, "perspective_c2_y": {"Points": [{"interpolation": 2, "co": {"X": 1, "Y": -1}}]}, "reader": {"type": "FFmpegReader", "height": 1002, "video_timebase": {"num": 1, "den": 60}, "audio_stream_index": -1, "video_length": "262", "interlaced_frame": false, "duration": 4.366666793823242, "channels": 0, "sample_rate": 0, "video_bit_rate": 78925778, "channel_layout": 4, "path": "/home/avishai/Documents/workspace/adaptive_hand_model/matlab/video/trajs_fc_2.avi", "metadata": {}, "audio_bit_rate": 0, "has_video": true, "has_audio": false, "pixel_format": 12, "acodec": "", "video_stream_index": 0, "display_ratio": {"num": 2, "den": 1}, "file_size": "43080324", "fps": {"num": 60, "den": 1}, "width": 2004, "top_field_first": true, "audio_timebase": {"num": 1, "den": 1}, "pixel_ratio": {"num": 1, "den": 1}, "vcodec": "mjpeg", "has_single_image": false}, "perspective_c3_x": {"Points": [{"interpolation": 2, "co": {"X": 1, "Y": -1}}]}, "gravity": 4, "id": "56I4I8MV7U", "anchor": 0, "location_x": {"Points": [{"interpolation": 2, "co": {"X": 1, "Y": 0}}]}, "perspective_c1_y": {"Points": [{"interpolation": 2, "co": {"X": 1, "Y": -1}}]}, "file_id": "D1DPZWUXYA", "shear_y": {"Points": [{"interpolation": 2, "co": {"X": 1, "Y": 0}}]}, "location_y": {"Points": [{"interpolation": 2, "co": {"X": 1, "Y": 0}}]}, "scale_y": {"Points": [{"interpolation": 2, "co": {"X": 1, "Y": 1}}]}, "perspective_c4_x": {"Points": [{"interpolation": 2, "co": {"X": 1, "Y": -1}}]}, "shear_x": {"Points": [{"interpolation": 2, "co": {"X": 1, "Y": 0}}]}, "channel_filter": {"Points": [{"interpolation": 2, "co": {"X": 1, "Y": -1}}]}}, {"time": {"Points": [{"interpolation": 2, "co": {"X": 1, "Y": 1}}]}, "display": 0, "perspective_c2_x": {"Points": [{"interpolation": 2, "co": {"X": 1, "Y": -1}}]}, "duration": 6.949999809265137, "end": 6.949999809265137, "scale_x": {"Points": [{"interpolation": 2, "co": {"X": 1, "Y": 1}}]}, "effects": [], "has_audio": {"Points": [{"interpolation": 2, "co": {"X": 1, "Y": -1}}]}, "scale": 1, "perspective_c3_y": {"Points": [{"interpolation": 2, "co": {"X": 1, "Y": -1}}]}, "alpha": {"Points": [{"interpolation": 2, "co": {"X": 1, "Y": 1}}]}, "start": 0, "wave_color": {"blue": {"Points": [{"interpolation": 0, "handle_type": 0, "co": {"X": 1, "Y": 255}, "handle_left": {"X": 0.5, "Y": 1}, "handle_right": {"X": 0.5, "Y": 0}}]}, "green": {"Points": [{"interpolation": 0, "handle_type": 0, "co": {"X": 1, "Y": 123}, "handle_left": {"X": 0.5, "Y": 1}, "handle_right": {"X": 0.5, "Y": 0}}]}, "red": {"Points": [{"interpolation": 0, "handle_type": 0, "co": {"X": 1, "Y": 0}, "handle_left": {"X": 0.5, "Y": 1}, "handle_right": {"X": 0.5, "Y": 0}}]}, "alpha": {"Points": [{"interpolation": 0, "handle_type": 0, "co": {"X": 1, "Y": 255}, "handle_left": {"X": 0.5, "Y": 1}, "handle_right": {"X": 0.5, "Y": 0}}]}}, "crop_x": {"Points": [{"interpolation": 2, "co": {"X": 1, "Y": 0}}]}, "image": "/home/avishai/.openshot_qt/thumbnail/NNI1FVOBKE.png", "layer": 0, "perspective_c1_x": {"Points": [{"interpolation": 2, "co": {"X": 1, "Y": -1}}]}, "position": 116.35833326975506, "rotation": {"Points": [{"interpolation": 2, "co": {"X": 1, "Y": 0}}]}, "mixing": 0, "waveform": false, "crop_width": {"Points": [{"interpolation": 2, "co": {"X": 1, "Y": -1}}]}, "crop_height": {"Points": [{"interpolation": 2, "co": {"X": 1, "Y": -1}}]}, "crop_y": {"Points": [{"interpolation": 2, "co": {"X": 1, "Y": 0}}]}, "volume": {"Points": [{"interpolation": 2, "co": {"X": 1, "Y": 1}}]}, "channel_mapping": {"Points": [{"interpolation": 2, "co": {"X": 1, "Y": -1}}]}, "title": "trajs_fc_3.avi", "has_video": {"Points": [{"interpolation": 2, "co": {"X": 1, "Y": -1}}]}, "perspective_c4_y": {"Points": [{"interpolation": 2, "co": {"X": 1, "Y": -1}}]}, "perspective_c2_y": {"Points": [{"interpolation": 2, "co": {"X": 1, "Y": -1}}]}, "reader": {"type": "FFmpegReader", "height": 1002, "video_timebase": {"num": 1, "den": 60}, "audio_stream_index": -1, "video_length": "417", "interlaced_frame": false, "duration": 6.949999809265137, "channels": 0, "sample_rate": 0, "video_bit_rate": 79792890, "channel_layout": 4, "path": "/home/avishai/Documents/workspace/adaptive_hand_model/matlab/video/trajs_fc_3.avi", "metadata": {}, "audio_bit_rate": 0, "has_video": true, "has_audio": false, "pixel_format": 12, "acodec": "", "video_stream_index": 0, "display_ratio": {"num": 2, "den": 1}, "file_size": "69320074", "fps": {"num": 60, "den": 1}, "width": 2004, "top_field_first": true, "audio_timebase": {"num": 1, "den": 1}, "pixel_ratio": {"num": 1, "den": 1}, "vcodec": "mjpeg", "has_single_image": false}, "perspective_c3_x": {"Points": [{"interpolation": 2, "co": {"X": 1, "Y": -1}}]}, "gravity": 4, "id": "O2H2SXKGGU", "anchor": 0, "location_x": {"Points": [{"interpolation": 2, "co": {"X": 1, "Y": 0}}]}, "perspective_c1_y": {"Points": [{"interpolation": 2, "co": {"X": 1, "Y": -1}}]}, "file_id": "NNI1FVOBKE", "shear_y": {"Points": [{"interpolation": 2, "co": {"X": 1, "Y": 0}}]}, "location_y": {"Points": [{"interpolation": 2, "co": {"X": 1, "Y": 0}}]}, "scale_y": {"Points": [{"interpolation": 2, "co": {"X": 1, "Y": 1}}]}, "perspective_c4_x": {"Points": [{"interpolation": 2, "co": {"X": 1, "Y": -1}}]}, "shear_x": {"Points": [{"interpolation": 2, "co": {"X": 1, "Y": 0}}]}, "channel_filter": {"Points": [{"interpolation": 2, "co": {"X": 1, "Y": -1}}]}}, {"time": {"Points": [{"interpolation": 2, "co": {"X": 1, "Y": 1}}]}, "display": 0, "perspective_c2_x": {"Points": [{"interpolation": 2, "co": {"X": 1, "Y": -1}}]}, "duration": 86400.0, "end": 10, "scale_x": {"Points": [{"interpolation": 2, "co": {"X": 1, "Y": 1}}]}, "effects": [], "has_audio": {"Points": [{"interpolation": 2, "co": {"X": 1, "Y": -1}}]}, "scale": 1, "perspective_c3_y": {"Points": [{"interpolation": 2, "co": {"X": 1, "Y": -1}}]}, "alpha": {"Points": [{"interpolation": 2, "co": {"X": 1, "Y": 1}}]}, "start": 0, "wave_color": {"blue": {"Points": [{"interpolation": 0, "handle_type": 0, "co": {"X": 1, "Y": 255}, "handle_left": {"X": 0.5, "Y": 1}, "handle_right": {"X": 0.5, "Y": 0}}]}, "green": {"Points": [{"interpolation": 0, "handle_type": 0, "co": {"X": 1, "Y": 123}, "handle_left": {"X": 0.5, "Y": 1}, "handle_right": {"X": 0.5, "Y": 0}}]}, "red": {"Points": [{"interpolation": 0, "handle_type": 0, "co": {"X": 1, "Y": 0}, "handle_left": {"X": 0.5, "Y": 1}, "handle_right": {"X": 0.5, "Y": 0}}]}, "alpha": {"Points": [{"interpolation": 0, "handle_type": 0, "co": {"X": 1, "Y": 255}, "handle_left": {"X": 0.5, "Y": 1}, "handle_right": {"X": 0.5, "Y": 0}}]}}, "crop_x": {"Points": [{"interpolation": 2, "co": {"X": 1, "Y": 0}}]}, "image": "/home/avishai/.openshot_qt/thumbnail/700EU1BLAQ.png", "layer": 0, "perspective_c1_x": {"Points": [{"interpolation": 2, "co": {"X": 1, "Y": -1}}]}, "position": 93.44166647593183, "rotation": {"Points": [{"interpolation": 2, "co": {"X": 1, "Y": 0}}]}, "mixing": 0, "waveform": false, "crop_width": {"Points": [{"interpolation": 2, "co": {"X": 1, "Y": -1}}]}, "crop_height": {"Points": [{"interpolation": 2, "co": {"X": 1, "Y": -1}}]}, "crop_y": {"Points": [{"interpolation": 2, "co": {"X": 1, "Y": 0}}]}, "volume": {"Points": [{"interpolation": 2, "co": {"X": 1, "Y": 1}}]}, "channel_mapping": {"Points": [{"interpolation": 2, "co": {"X": 1, "Y": -1}}]}, "title": "opening8.png", "has_video": {"Points": [{"interpolation": 2, "co": {"X": 1, "Y": -1}}]}, "perspective_c4_y": {"Points": [{"interpolation": 2, "co": {"X": 1, "Y": -1}}]}, "perspective_c2_y": {"Points": [{"interpolation": 2, "co": {"X": 1, "Y": -1}}]}, "reader": {"type": "QtImageReader", "height": 720, "video_timebase": {"num": 1, "den": 30}, "audio_stream_index": -1, "video_length": "2592000", "interlaced_frame": false, "duration": 86400.0, "channels": 0, "sample_rate": 0, "video_bit_rate": 0, "channel_layout": 4, "path": "/home/avishai/Documents/workspace/adaptive_hand_model/matlab/video/slides/opening8.png", "metadata": {}, "audio_bit_rate": 0, "has_video": true, "has_audio": false, "pixel_format": -1, "acodec": "", "video_stream_index": -1, "display_ratio": {"num": 4, "den": 3}, "file_size": "2764800", "fps": {"num": 30, "den": 1}, "width": 960, "top_field_first": true, "audio_timebase": {"num": 1, "den": 1}, "pixel_ratio": {"num": 1, "den": 1}, "vcodec": "", "has_single_image": true}, "perspective_c3_x": {"Points": [{"interpolation": 2, "co": {"X": 1, "Y": -1}}]}, "gravity": 4, "id": "891QVU4B22", "anchor": 0, "location_x": {"Points": [{"interpolation": 2, "co": {"X": 1, "Y": 0}}]}, "perspective_c1_y": {"Points": [{"interpolation": 2, "co": {"X": 1, "Y": -1}}]}, "file_id": "700EU1BLAQ", "shear_y": {"Points": [{"interpolation": 2, "co": {"X": 1, "Y": 0}}]}, "location_y": {"Points": [{"interpolation": 2, "co": {"X": 1, "Y": 0}}]}, "scale_y": {"Points": [{"interpolation": 2, "co": {"X": 1, "Y": 1}}]}, "perspective_c4_x": {"Points": [{"interpolation": 2, "co": {"X": 1, "Y": -1}}]}, "shear_x": {"Points": [{"interpolation": 2, "co": {"X": 1, "Y": 0}}]}, "channel_filter": {"Points": [{"interpolation": 2, "co": {"X": 1, "Y": -1}}]}}, {"time": {"Points": [{"interpolation": 2, "co": {"X": 1, "Y": 1}}]}, "display": 0, "perspective_c2_x": {"Points": [{"interpolation": 2, "co": {"X": 1, "Y": -1}}]}, "duration": 86400.0, "end": 10, "scale_x": {"Points": [{"interpolation": 2, "co": {"X": 1, "Y": 1}}]}, "effects": [], "has_audio": {"Points": [{"interpolation": 2, "co": {"X": 1, "Y": -1}}]}, "scale": 1, "perspective_c3_y": {"Points": [{"interpolation": 2, "co": {"X": 1, "Y": -1}}]}, "alpha": {"Points": [{"interpolation": 2, "co": {"X": 1, "Y": 1}}]}, "start": 0, "wave_color": {"blue": {"Points": [{"interpolation": 0, "handle_type": 0, "co": {"X": 1, "Y": 255}, "handle_left": {"X": 0.5, "Y": 1}, "handle_right": {"X": 0.5, "Y": 0}}]}, "green": {"Points": [{"interpolation": 0, "handle_type": 0, "co": {"X": 1, "Y": 123}, "handle_left": {"X": 0.5, "Y": 1}, "handle_right": {"X": 0.5, "Y": 0}}]}, "red": {"Points": [{"interpolation": 0, "handle_type": 0, "co": {"X": 1, "Y": 0}, "handle_left": {"X": 0.5, "Y": 1}, "handle_right": {"X": 0.5, "Y": 0}}]}, "alpha": {"Points": [{"interpolation": 0, "handle_type": 0, "co": {"X": 1, "Y": 255}, "handle_left": {"X": 0.5, "Y": 1}, "handle_right": {"X": 0.5, "Y": 0}}]}}, "crop_x": {"Points": [{"interpolation": 2, "co": {"X": 1, "Y": 0}}]}, "image": "/home/avishai/.openshot_qt/thumbnail/0S38URN00T.png", "layer": 0, "perspective_c1_x": {"Points": [{"interpolation": 2, "co": {"X": 1, "Y": -1}}]}, "position": 61.15833333333334, "rotation": {"Points": [{"interpolation": 2, "co": {"X": 1, "Y": 0}}]}, "mixing": 0, "waveform": false, "crop_width": {"Points": [{"interpolation": 2, "co": {"X": 1, "Y": -1}}]}, "crop_height": {"Points": [{"interpolation": 2, "co": {"X": 1, "Y": -1}}]}, "crop_y": {"Points": [{"interpolation": 2, "co": {"X": 1, "Y": 0}}]}, "volume": {"Points": [{"interpolation": 2, "co": {"X": 1, "Y": 1}}]}, "channel_mapping": {"Points": [{"interpolation": 2, "co": {"X": 1, "Y": -1}}]}, "title": "opening5.png", "has_video": {"Points": [{"interpolation": 2, "co": {"X": 1, "Y": -1}}]}, "perspective_c4_y": {"Points": [{"interpolation": 2, "co": {"X": 1, "Y": -1}}]}, "perspective_c2_y": {"Points": [{"interpolation": 2, "co": {"X": 1, "Y": -1}}]}, "reader": {"type": "QtImageReader", "height": 720, "video_timebase": {"num": 1, "den": 30}, "audio_stream_index": -1, "video_length": "2592000", "interlaced_frame": false, "duration": 86400.0, "channels": 0, "sample_rate": 0, "video_bit_rate": 0, "channel_layout": 4, "path": "/home/avishai/Documents/workspace/adaptive_hand_model/matlab/video/slides/opening5.png", "metadata": {}, "audio_bit_rate": 0, "has_video": true, "has_audio": false, "pixel_format": -1, "acodec": "", "video_stream_index": -1, "display_ratio": {"num": 4, "den": 3}, "file_size": "2764800", "fps": {"num": 30, "den": 1}, "width": 960, "top_field_first": true, "audio_timebase": {"num": 1, "den": 1}, "pixel_ratio": {"num": 1, "den": 1}, "vcodec": "", "has_single_image": true}, "perspective_c3_x": {"Points": [{"interpolation": 2, "co": {"X": 1, "Y": -1}}]}, "gravity": 4, "id": "Y2Z73X5B3B", "anchor": 0, "location_x": {"Points": [{"interpolation": 2, "co": {"X": 1, "Y": 0}}]}, "perspective_c1_y": {"Points": [{"interpolation": 2, "co": {"X": 1, "Y": -1}}]}, "file_id": "0S38URN00T", "shear_y": {"Points": [{"interpolation": 2, "co": {"X": 1, "Y": 0}}]}, "location_y": {"Points": [{"interpolation": 2, "co": {"X": 1, "Y": 0}}]}, "scale_y": {"Points": [{"interpolation": 2, "co": {"X": 1, "Y": 1}}]}, "perspective_c4_x": {"Points": [{"interpolation": 2, "co": {"X": 1, "Y": -1}}]}, "shear_x": {"Points": [{"interpolation": 2, "co": {"X": 1, "Y": 0}}]}, "channel_filter": {"Points": [{"interpolation": 2, "co": {"X": 1, "Y": -1}}]}}], "key": ["clips"], "partial": false}, {"value": {"position": 149.23999999999998, "image": "/home/avishai/.openshot_qt/thumbnail/H8ZKH85PV1.png", "layer": 0, "start": 0, "id": "K90F5T2784", "end": 10}, "type": "update", "old_values": {"time": {"Points": [{"interpolation": 2, "co": {"X": 1, "Y": 1}}]}, "display": 0, "perspective_c2_x": {"Points": [{"interpolation": 2, "co": {"X": 1, "Y": -1}}]}, "duration": 86400.0, "end": 10.0, "scale_x": {"Points": [{"interpolation": 2, "co": {"X": 1, "Y": 1}}]}, "effects": [], "has_audio": {"Points": [{"interpolation": 2, "co": {"X": 1, "Y": -1}}]}, "scale": 1, "perspective_c3_y": {"Points": [{"interpolation": 2, "co": {"X": 1, "Y": -1}}]}, "alpha": {"Points": [{"interpolation": 2, "co": {"X": 1, "Y": 1}}]}, "start": 0, "wave_color": {"blue": {"Points": [{"interpolation": 0, "handle_type": 0, "co": {"X": 1, "Y": 255}, "handle_left": {"X": 0.5, "Y": 1}, "handle_right": {"X": 0.5, "Y": 0}}]}, "green": {"Points": [{"interpolation": 0, "handle_type": 0, "co": {"X": 1, "Y": 123}, "handle_left": {"X": 0.5, "Y": 1}, "handle_right": {"X": 0.5, "Y": 0}}]}, "red": {"Points": [{"interpolation": 0, "handle_type": 0, "co": {"X": 1, "Y": 0}, "handle_left": {"X": 0.5, "Y": 1}, "handle_right": {"X": 0.5, "Y": 0}}]}, "alpha": {"Points": [{"interpolation": 0, "handle_type": 0, "co": {"X": 1, "Y": 255}, "handle_left": {"X": 0.5, "Y": 1}, "handle_right": {"X": 0.5, "Y": 0}}]}}, "crop_x": {"Points": [{"interpolation": 2, "co": {"X": 1, "Y": 0}}]}, "image": "/home/avishai/.openshot_qt/thumbnail/H8ZKH85PV1.png", "layer": 1, "perspective_c1_x": {"Points": [{"interpolation": 2, "co": {"X": 1, "Y": -1}}]}, "position": 124.46, "rotation": {"Points": [{"interpolation": 2, "co": {"X": 1, "Y": 0}}]}, "mixing": 0, "waveform": false, "crop_width": {"Points": [{"interpolation": 2, "co": {"X": 1, "Y": -1}}]}, "crop_height": {"Points": [{"interpolation": 2, "co": {"X": 1, "Y": -1}}]}, "crop_y": {"Points": [{"interpolation": 2, "co": {"X": 1, "Y": 0}}]}, "volume": {"Points": [{"interpolation": 2, "co": {"X": 1, "Y": 1}}]}, "channel_mapping": {"Points": [{"interpolation": 2, "co": {"X": 1, "Y": -1}}]}, "title": "opening_cl.png", "has_video": {"Points": [{"interpolation": 2, "co": {"X": 1, "Y": -1}}]}, "perspective_c4_y": {"Points": [{"interpolation": 2, "co": {"X": 1, "Y": -1}}]}, "perspective_c2_y": {"Points": [{"interpolation": 2, "co": {"X": 1, "Y": -1}}]}, "reader": {"type": "QtImageReader", "height": 720, "video_timebase": {"num": 1, "den": 30}, "audio_stream_index": -1, "video_length": "2592000", "interlaced_frame": false, "duration": 86400.0, "channels": 0, "sample_rate": 0, "video_bit_rate": 0, "channel_layout": 4, "path": "/home/avishai/Documents/workspace/adaptive_hand_model/matlab/video/slides/opening_cl.png", "metadata": {}, "audio_bit_rate": 0, "has_video": true, "has_audio": false, "pixel_format": -1, "acodec": "", "video_stream_index": -1, "display_ratio": {"num": 4, "den": 3}, "file_size": "2764800", "fps": {"num": 30, "den": 1}, "width": 960, "top_field_first": true, "audio_timebase": {"num": 1, "den": 1}, "pixel_ratio": {"num": 1, "den": 1}, "vcodec": "", "has_single_image": true}, "perspective_c3_x": {"Points": [{"interpolation": 2, "co": {"X": 1, "Y": -1}}]}, "gravity": 4, "id": "K90F5T2784", "anchor": 0, "location_x": {"Points": [{"interpolation": 2, "co": {"X": 1, "Y": 0}}]}, "perspective_c1_y": {"Points": [{"interpolation": 2, "co": {"X": 1, "Y": -1}}]}, "file_id": "H8ZKH85PV1", "shear_y": {"Points": [{"interpolation": 2, "co": {"X": 1, "Y": 0}}]}, "location_y": {"Points": [{"interpolation": 2, "co": {"X": 1, "Y": 0}}]}, "scale_y": {"Points": [{"interpolation": 2, "co": {"X": 1, "Y": 1}}]}, "perspective_c4_x": {"Points": [{"interpolation": 2, "co": {"X": 1, "Y": -1}}]}, "shear_x": {"Points": [{"interpolation": 2, "co": {"X": 1, "Y": 0}}]}, "channel_filter": {"Points": [{"interpolation": 2, "co": {"X": 1, "Y": -1}}]}}, "key": ["clips", {"id": "K90F5T2784"}], "partial": false}, {"value": {"type": "FFmpegReader", "height": 331, "video_timebase": {"num": 1, "den": 60}, "audio_stream_index": -1, "video_length": "652", "interlaced_frame": false, "duration": 10.866666793823242, "channels": 0, "sample_rate": 0, "video_bit_rate": 17789133, "channel_layout": 4, "path": "/home/avishai/Documents/workspace/adaptive_hand_model/matlab/video/rec_04.avi", "metadata": {}, "audio_bit_rate": 0, "has_video": true, "has_audio": false, "pixel_format": 12, "acodec": "", "video_stream_index": 0, "display_ratio": {"num": 822, "den": 331}, "fps": {"num": 60, "den": 1}, "id": "YB9E3Q8R7H", "width": 822, "file_size": "24163574", "top_field_first": true, "media_type": "video", "audio_timebase": {"num": 1, "den": 1}, "pixel_ratio": {"num": 1, "den": 1}, "vcodec": "mjpeg", "has_single_image": false}, "type": "insert", "old_values": [{"type": "QtImageReader", "height": 720, "video_timebase": {"num": 1, "den": 30}, "audio_stream_index": -1, "video_length": "2592000", "interlaced_frame": false, "id": "FG71JWWOKG", "channels": 0, "sample_rate": 0, "video_bit_rate": 0, "channel_layout": 4, "path": "/home/avishai/Documents/workspace/adaptive_hand_model/matlab/video/slides/opening.png", "metadata": {}, "audio_bit_rate": 0, "has_video": true, "has_audio": false, "pixel_format": -1, "acodec": "", "video_stream_index": -1, "display_ratio": {"num": 4, "den": 3}, "file_size": "2764800", "fps": {"num": 30, "den": 1}, "width": 960, "top_field_first": true, "media_type": "image", "audio_timebase": {"num": 1, "den": 1}, "pixel_ratio": {"num": 1, "den": 1}, "duration": 86400, "vcodec": "", "has_single_image": true}, {"type": "FFmpegReader", "height": 1503, "video_timebase": {"num": 1, "den": 60}, "audio_stream_index": -1, "video_length": "417", "interlaced_frame": false, "id": "FC16UD9ZFT", "channels": 0, "sample_rate": 0, "video_bit_rate": 70132622, "channel_layout": 4, "path": "/home/avishai/Documents/workspace/adaptive_hand_model/matlab/video/trajs.avi", "metadata": {}, "audio_bit_rate": 0, "has_video": true, "has_audio": false, "pixel_format": 12, "acodec": "", "video_stream_index": 0, "display_ratio": {"num": 1502, "den": 1503}, "file_size": "60927716", "fps": {"num": 60, "den": 1}, "width": 1502, "top_field_first": true, "media_type": "video", "audio_timebase": {"num": 1, "den": 1}, "pixel_ratio": {"num": 1, "den": 1}, "duration": 6.949999809265137, "vcodec": "mjpeg", "has_single_image": false}, {"type": "FFmpegReader", "height": 451, "video_timebase": {"num": 1, "den": 60}, "audio_stream_index": -1, "video_length": "652", "interlaced_frame": false, "id": "VLL3NDOT0B", "channels": 0, "sample_rate": 0, "video_bit_rate": 13375086, "channel_layout": 4, "path": "/home/avishai/Documents/workspace/adaptive_hand_model/matlab/video/rec.avi", "metadata": {}, "audio_bit_rate": 0, "has_video": true, "has_audio": false, "pixel_format": 12, "acodec": "", "video_stream_index": 0, "display_ratio": {"num": 531, "den": 451}, "file_size": "18167826", "fps": {"num": 60, "den": 1}, "width": 531, "top_field_first": true, "media_type": "video", "audio_timebase": {"num": 1, "den": 1}, "pixel_ratio": {"num": 1, "den": 1}, "duration": 10.866666793823242, "vcodec": "mjpeg", "has_single_image": false}, {"type": "QtImageReader", "interlaced_frame": false, "video_timebase": {"num": 1, "den": 30}, "audio_stream_index": -1, "video_length": "2592000", "channels": 0, "id": "SM8I51NPAK", "sample_rate": 0, "video_bit_rate": 0, "channel_layout": 4, "path": "/home/avishai/Documents/workspace/adaptive_hand_model/matlab/video/assets/TitleFileName-2.svg", "metadata": {}, "audio_bit_rate": 0, "has_video": true, "has_audio": false, "pixel_format": -1, "height": 1080, "acodec": "", "video_stream_index": -1, "display_ratio": {"num": 16, "den": 9}, "file_size": "8294400", "fps": {"num": 30, "den": 1}, "width": 1920, "top_field_first": true, "media_type": "image", "audio_timebase": {"num": 1, "den": 1}, "pixel_ratio": {"num": 1, "den": 1}, "duration": 86400, "vcodec": "", "has_single_image": true}, {"type": "QtImageReader", "interlaced_frame": false, "video_timebase": {"num": 1, "den": 30}, "audio_stream_index": -1, "video_length": "2592000", "channels": 0, "id": "YIV9WP4V5Q", "sample_rate": 0, "video_bit_rate": 0, "channel_layout": 4, "path": "/home/avishai/Documents/workspace/adaptive_hand_model/matlab/video/slides/opening1.png", "metadata": {}, "audio_bit_rate": 0, "has_video": true, "has_audio": false, "pixel_format": -1, "height": 720, "acodec": "", "video_stream_index": -1, "display_ratio": {"num": 4, "den": 3}, "file_size": "2764800", "fps": {"num": 30, "den": 1}, "width": 960, "top_field_first": true, "media_type": "image", "audio_timebase": {"num": 1, "den": 1}, "pixel_ratio": {"num": 1, "den": 1}, "duration": 86400, "vcodec": "", "has_single_image": true}, {"type": "QtImageReader", "interlaced_frame": false, "video_timebase": {"num": 1, "den": 30}, "audio_stream_index": -1, "video_length": "2592000", "channels": 0, "id": "722P7PCEWK", "sample_rate": 0, "video_bit_rate": 0, "channel_layout": 4, "path": "/home/avishai/Documents/workspace/adaptive_hand_model/matlab/video/slides/opening2.png", "metadata": {}, "audio_bit_rate": 0, "has_video": true, "has_audio": false, "pixel_format": -1, "height": 720, "acodec": "", "video_stream_index": -1, "display_ratio": {"num": 4, "den": 3}, "file_size": "2764800", "fps": {"num": 30, "den": 1}, "width": 960, "top_field_first": true, "media_type": "image", "audio_timebase": {"num": 1, "den": 1}, "pixel_ratio": {"num": 1, "den": 1}, "duration": 86400, "vcodec": "", "has_single_image": true}, {"type": "QtImageReader", "height": 720, "video_timebase": {"num": 1, "den": 30}, "audio_stream_index": -1, "video_length": "2592000", "interlaced_frame": false, "duration": 86400, "channels": 0, "sample_rate": 0, "video_bit_rate": 0, "channel_layout": 4, "path": "/home/avishai/Documents/workspace/adaptive_hand_model/matlab/video/slides/opening4.png", "metadata": {}, "audio_bit_rate": 0, "has_video": true, "has_audio": false, "pixel_format": -1, "acodec": "", "video_stream_index": -1, "display_ratio": {"num": 4, "den": 3}, "file_size": "2764800", "fps": {"num": 30, "den": 1}, "id": "RHRWX2BT8P", "width": 960, "top_field_first": true, "media_type": "image", "audio_timebase": {"num": 1, "den": 1}, "pixel_ratio": {"num": 1, "den": 1}, "vcodec": "", "has_single_image": true}, {"type": "QtImageReader", "height": 720, "video_timebase": {"num": 1, "den": 30}, "audio_stream_index": -1, "video_length": "2592000", "interlaced_frame": false, "duration": 86400, "channels": 0, "sample_rate": 0, "video_bit_rate": 0, "channel_layout": 4, "path": "/home/avishai/Documents/workspace/adaptive_hand_model/matlab/video/slides/opening3.png", "metadata": {}, "audio_bit_rate": 0, "has_video": true, "has_audio": false, "pixel_format": -1, "acodec": "", "video_stream_index": -1, "display_ratio": {"num": 4, "den": 3}, "file_size": "2764800", "fps": {"num": 30, "den": 1}, "id": "LMEK33J1LA", "width": 960, "top_field_first": true, "media_type": "image", "audio_timebase": {"num": 1, "den": 1}, "pixel_ratio": {"num": 1, "den": 1}, "vcodec": "", "has_single_image": true}, {"type": "QtImageReader", "height": 720, "video_timebase": {"num": 1, "den": 30}, "audio_stream_index": -1, "video_length": "2592000", "interlaced_frame": false, "duration": 86400, "channels": 0, "sample_rate": 0, "video_bit_rate": 0, "channel_layout": 4, "path": "/home/avishai/Documents/workspace/adaptive_hand_model/matlab/video/slides/opening5.png", "metadata": {}, "audio_bit_rate": 0, "has_video": true, "has_audio": false, "pixel_format": -1, "acodec": "", "video_stream_index": -1, "display_ratio": {"num": 4, "den": 3}, "file_size": "2764800", "fps": {"num": 30, "den": 1}, "id": "0S38URN00T", "width": 960, "top_field_first": true, "media_type": "image", "audio_timebase": {"num": 1, "den": 1}, "pixel_ratio": {"num": 1, "den": 1}, "vcodec": "", "has_single_image": true}, {"type": "QtImageReader", "height": 720, "video_timebase": {"num": 1, "den": 30}, "audio_stream_index": -1, "video_length": "2592000", "interlaced_frame": false, "duration": 86400, "channels": 0, "sample_rate": 0, "video_bit_rate": 0, "channel_layout": 4, "path": "/home/avishai/Documents/workspace/adaptive_hand_model/matlab/video/slides/opening6.png", "metadata": {}, "audio_bit_rate": 0, "has_video": true, "has_audio": false, "pixel_format": -1, "acodec": "", "video_stream_index": -1, "display_ratio": {"num": 4, "den": 3}, "file_size": "2764800", "fps": {"num": 30, "den": 1}, "id": "YA8O4MECE1", "width": 960, "top_field_first": true, "media_type": "image", "audio_timebase": {"num": 1, "den": 1}, "pixel_ratio": {"num": 1, "den": 1}, "vcodec": "", "has_single_image": true}, {"type": "QtImageReader", "height": 720, "video_timebase": {"num": 1, "den": 30}, "audio_stream_index": -1, "video_length": "2592000", "interlaced_frame": false, "duration": 86400, "channels": 0, "sample_rate": 0, "video_bit_rate": 0, "channel_layout": 4, "path": "/home/avishai/Documents/workspace/adaptive_hand_model/matlab/video/slides/opening7.png", "metadata": {}, "audio_bit_rate": 0, "has_video": true, "has_audio": false, "pixel_format": -1, "acodec": "", "video_stream_index": -1, "display_ratio": {"num": 4, "den": 3}, "file_size": "2764800", "fps": {"num": 30, "den": 1}, "id": "ULNSBVNSH3", "width": 960, "top_field_first": true, "media_type": "image", "audio_timebase": {"num": 1, "den": 1}, "pixel_ratio": {"num": 1, "den": 1}, "vcodec": "", "has_single_image": true}, {"type": "QtImageReader", "height": 720, "video_timebase": {"num": 1, "den": 30}, "audio_stream_index": -1, "video_length": "2592000", "interlaced_frame": false, "duration": 86400, "channels": 0, "sample_rate": 0, "video_bit_rate": 0, "channel_layout": 4, "path": "/home/avishai/Documents/workspace/adaptive_hand_model/matlab/video/slides/opening8.png", "metadata": {}, "audio_bit_rate": 0, "has_video": true, "has_audio": false, "pixel_format": -1, "acodec": "", "video_stream_index": -1, "display_ratio": {"num": 4, "den": 3}, "file_size": "2764800", "fps": {"num": 30, "den": 1}, "id": "700EU1BLAQ", "width": 960, "top_field_first": true, "media_type": "image", "audio_timebase": {"num": 1, "den": 1}, "pixel_ratio": {"num": 1, "den": 1}, "vcodec": "", "has_single_image": true}, {"type": "QtImageReader", "height": 720, "video_timebase": {"num": 1, "den": 30}, "audio_stream_index": -1, "video_length": "2592000", "interlaced_frame": false, "duration": 86400, "channels": 0, "sample_rate": 0, "video_bit_rate": 0, "channel_layout": 4, "path": "/home/avishai/Documents/workspace/adaptive_hand_model/matlab/video/slides/opening8b.png", "metadata": {}, "audio_bit_rate": 0, "has_video": true, "has_audio": false, "pixel_format": -1, "acodec": "", "video_stream_index": -1, "display_ratio": {"num": 4, "den": 3}, "file_size": "2764800", "fps": {"num": 30, "den": 1}, "id": "EWEUFI7OUN", "width": 960, "top_field_first": true, "media_type": "image", "audio_timebase": {"num": 1, "den": 1}, "pixel_ratio": {"num": 1, "den": 1}, "vcodec": "", "has_single_image": true}, {"type": "FFmpegReader", "height": 1002, "video_timebase": {"num": 1, "den": 60}, "audio_stream_index": -1, "video_length": "285", "interlaced_frame": false, "duration": 4.75, "channels": 0, "sample_rate": 0, "video_bit_rate": 79206750, "channel_layout": 4, "path": "/home/avishai/Documents/workspace/adaptive_hand_model/matlab/video/trajs_fc_1.avi", "metadata": {}, "audio_bit_rate": 0, "has_video": true, "has_audio": false, "pixel_format": 12, "acodec": "", "video_stream_index": 0, "display_ratio": {"num": 2, "den": 1}, "file_size": "47029008", "fps": {"num": 60, "den": 1}, "id": "KZLNLAEG7J", "width": 2004, "top_field_first": true, "media_type": "video", "audio_timebase": {"num": 1, "den": 1}, "pixel_ratio": {"num": 1, "den": 1}, "vcodec": "mjpeg", "has_single_image": false}, {"type": "FFmpegReader", "height": 1002, "video_timebase": {"num": 1, "den": 60}, "audio_stream_index": -1, "video_length": "262", "interlaced_frame": false, "duration": 4.366666793823242, "channels": 0, "sample_rate": 0, "video_bit_rate": 78925778, "channel_layout": 4, "path": "/home/avishai/Documents/workspace/adaptive_hand_model/matlab/video/trajs_fc_2.avi", "metadata": {}, "audio_bit_rate": 0, "has_video": true, "has_audio": false, "pixel_format": 12, "acodec": "", "video_stream_index": 0, "display_ratio": {"num": 2, "den": 1}, "file_size": "43080324", "fps": {"num": 60, "den": 1}, "id": "D1DPZWUXYA", "width": 2004, "top_field_first": true, "media_type": "video", "audio_timebase": {"num": 1, "den": 1}, "pixel_ratio": {"num": 1, "den": 1}, "vcodec": "mjpeg", "has_single_image": false}, {"type": "FFmpegReader", "height": 1002, "video_timebase": {"num": 1, "den": 60}, "audio_stream_index": -1, "video_length": "417", "interlaced_frame": false, "duration": 6.949999809265137, "channels": 0, "sample_rate": 0, "video_bit_rate": 79792890, "channel_layout": 4, "path": "/home/avishai/Documents/workspace/adaptive_hand_model/matlab/video/trajs_fc_3.avi", "metadata": {}, "audio_bit_rate": 0, "has_video": true, "has_audio": false, "pixel_format": 12, "acodec": "", "video_stream_index": 0, "display_ratio": {"num": 2, "den": 1}, "file_size": "69320074", "fps": {"num": 60, "den": 1}, "id": "NNI1FVOBKE", "width": 2004, "top_field_first": true, "media_type": "video", "audio_timebase": {"num": 1, "den": 1}, "pixel_ratio": {"num": 1, "den": 1}, "vcodec": "mjpeg", "has_single_image": false}, {"type": "QtImageReader", "height": 720, "video_timebase": {"num": 1, "den": 30}, "audio_stream_index": -1, "video_length": "2592000", "interlaced_frame": false, "duration": 86400, "channels": 0, "sample_rate": 0, "video_bit_rate": 0, "channel_layout": 4, "path": "/home/avishai/Documents/workspace/adaptive_hand_model/matlab/video/slides/opening_cl.png", "metadata": {}, "audio_bit_rate": 0, "has_video": true, "has_audio": false, "pixel_format": -1, "acodec": "", "video_stream_index": -1, "display_ratio": {"num": 4, "den": 3}, "file_size": "2764800", "fps": {"num": 30, "den": 1}, "id": "H8ZKH85PV1", "width": 960, "top_field_first": true, "media_type": "image", "audio_timebase": {"num": 1, "den": 1}, "pixel_ratio": {"num": 1, "den": 1}, "vcodec": "", "has_single_image": true}], "key": ["files"], "partial": false}, {"value": "/home/avishai/Documents/workspace/adaptive_hand_model/matlab/video", "type": "update", "old_values": "/home/avishai/Documents/workspace/adaptive_hand_model/matlab/video/slides", "key": ["import_path"], "partial": false}, {"value": {"time": {"Points": [{"interpolation": 2, "co": {"X": 1, "Y": 1}}]}, "display": 0, "perspective_c2_x": {"Points": [{"interpolation": 2, "co": {"X": 1, "Y": -1}}]}, "duration": 10.866666793823242, "end": 10.866666793823242, "scale_x": {"Points": [{"interpolation": 2, "co": {"X": 1, "Y": 1}}]}, "effects": [], "has_audio": {"Points": [{"interpolation": 2, "co": {"X": 1, "Y": -1}}]}, "scale": 1, "perspective_c3_y": {"Points": [{"interpolation": 2, "co": {"X": 1, "Y": -1}}]}, "alpha": {"Points": [{"interpolation": 2, "co": {"X": 1, "Y": 1}}]}, "start": 0, "wave_color": {"blue": {"Points": [{"interpolation": 0, "handle_type": 0, "handle_left": {"X": 0.5, "Y": 1}, "handle_right": {"X": 0.5, "Y": 0}, "co": {"X": 1, "Y": 255}}]}, "green": {"Points": [{"interpolation": 0, "handle_type": 0, "handle_left": {"X": 0.5, "Y": 1}, "handle_right": {"X": 0.5, "Y": 0}, "co": {"X": 1, "Y": 123}}]}, "red": {"Points": [{"interpolation": 0, "handle_type": 0, "handle_left": {"X": 0.5, "Y": 1}, "handle_right": {"X": 0.5, "Y": 0}, "co": {"X": 1, "Y": 0}}]}, "alpha": {"Points": [{"interpolation": 0, "handle_type": 0, "handle_left": {"X": 0.5, "Y": 1}, "handle_right": {"X": 0.5, "Y": 0}, "co": {"X": 1, "Y": 255}}]}}, "crop_x": {"Points": [{"interpolation": 2, "co": {"X": 1, "Y": 0}}]}, "image": "/home/avishai/.openshot_qt/thumbnail/YB9E3Q8R7H.png", "layer": 0, "perspective_c1_x": {"Points": [{"interpolation": 2, "co": {"X": 1, "Y": -1}}]}, "shear_y": {"Points": [{"interpolation": 2, "co": {"X": 1, "Y": 0}}]}, "rotation": {"Points": [{"interpolation": 2, "co": {"X": 1, "Y": 0}}]}, "mixing": 0, "waveform": false, "crop_width": {"Points": [{"interpolation": 2, "co": {"X": 1, "Y": -1}}]}, "crop_height": {"Points": [{"interpolation": 2, "co": {"X": 1, "Y": -1}}]}, "crop_y": {"Points": [{"interpolation": 2, "co": {"X": 1, "Y": 0}}]}, "volume": {"Points": [{"interpolation": 2, "co": {"X": 1, "Y": 1}}]}, "channel_mapping": {"Points": [{"interpolation": 2, "co": {"X": 1, "Y": -1}}]}, "title": "rec_04.avi", "has_video": {"Points": [{"interpolation": 2, "co": {"X": 1, "Y": -1}}]}, "perspective_c4_y": {"Points": [{"interpolation": 2, "co": {"X": 1, "Y": -1}}]}, "perspective_c2_y": {"Points": [{"interpolation": 2, "co": {"X": 1, "Y": -1}}]}, "reader": {"type": "FFmpegReader", "height": 331, "video_timebase": {"num": 1, "den": 60}, "audio_stream_index": -1, "video_length": "652", "interlaced_frame": false, "duration": 10.866666793823242, "channels": 0, "sample_rate": 0, "video_bit_rate": 17789133, "channel_layout": 4, "path": "/home/avishai/Documents/workspace/adaptive_hand_model/matlab/video/rec_04.avi", "metadata": {}, "audio_bit_rate": 0, "has_video": true, "has_audio": false, "pixel_format": 12, "acodec": "", "video_stream_index": 0, "display_ratio": {"num": 822, "den": 331}, "fps": {"num": 60, "den": 1}, "width": 822, "file_size": "24163574", "top_field_first": true, "audio_timebase": {"num": 1, "den": 1}, "pixel_ratio": {"num": 1, "den": 1}, "vcodec": "mjpeg", "has_single_image": false}, "position": 159.33333333333334, "perspective_c3_x": {"Points": [{"interpolation": 2, "co": {"X": 1, "Y": -1}}]}, "gravity": 4, "id": "J7OI1V4JOW", "anchor": 0, "location_x": {"Points": [{"interpolation": 2, "co": {"X": 1, "Y": 0}}]}, "perspective_c1_y": {"Points": [{"interpolation": 2, "co": {"X": 1, "Y": -1}}]}, "file_id": "YB9E3Q8R7H", "channel_filter": {"Points": [{"interpolation": 2, "co": {"X": 1, "Y": -1}}]}, "location_y": {"Points": [{"interpolation": 2, "co": {"X": 1, "Y": 0}}]}, "scale_y": {"Points": [{"interpolation": 2, "co": {"X": 1, "Y": 1}}]}, "shear_x": {"Points": [{"interpolation": 2, "co": {"X": 1, "Y": 0}}]}, "perspective_c4_x": {"Points": [{"interpolation": 2, "co": {"X": 1, "Y": -1}}]}}, "type": "insert", "old_values": [{"time": {"Points": [{"interpolation": 2, "co": {"X": 1, "Y": 1}}]}, "display": 0, "perspective_c2_x": {"Points": [{"interpolation": 2, "co": {"X": 1, "Y": -1}}]}, "duration": 10.866666793823242, "end": 10.875, "scale_x": {"Points": [{"interpolation": 2, "co": {"X": 1, "Y": 1}}]}, "channel_filter": {"Points": [{"interpolation": 2, "co": {"X": 1, "Y": -1}}]}, "effects": [], "has_audio": {"Points": [{"interpolation": 2, "co": {"X": 1, "Y": -1}}]}, "scale": 1, "perspective_c3_y": {"Points": [{"interpolation": 2, "co": {"X": 1, "Y": -1}}]}, "alpha": {"Points": [{"interpolation": 2, "co": {"X": 1, "Y": 1}}]}, "shear_x": {"Points": [{"interpolation": 2, "co": {"X": 1, "Y": 0}}]}, "wave_color": {"blue": {"Points": [{"interpolation": 0, "handle_type": 0, "handle_left": {"X": 0.5, "Y": 1}, "handle_right": {"X": 0.5, "Y": 0}, "co": {"X": 1, "Y": 255}}]}, "red": {"Points": [{"interpolation": 0, "handle_type": 0, "handle_left": {"X": 0.5, "Y": 1}, "handle_right": {"X": 0.5, "Y": 0}, "co": {"X": 1, "Y": 0}}]}, "green": {"Points": [{"interpolation": 0, "handle_type": 0, "handle_left": {"X": 0.5, "Y": 1}, "handle_right": {"X": 0.5, "Y": 0}, "co": {"X": 1, "Y": 123}}]}, "alpha": {"Points": [{"interpolation": 0, "handle_type": 0, "handle_left": {"X": 0.5, "Y": 1}, "handle_right": {"X": 0.5, "Y": 0}, "co": {"X": 1, "Y": 255}}]}}, "crop_x": {"Points": [{"interpolation": 2, "co": {"X": 1, "Y": 0}}]}, "image": "/home/avishai/.openshot_qt/thumbnail/VLL3NDOT0B.png", "layer": 0, "perspective_c1_x": {"Points": [{"interpolation": 2, "co": {"X": 1, "Y": -1}}]}, "shear_y": {"Points": [{"interpolation": 2, "co": {"X": 1, "Y": 0}}]}, "rotation": {"Points": [{"interpolation": 2, "co": {"X": 1, "Y": 0}}]}, "gravity": 4, "waveform": false, "crop_width": {"Points": [{"interpolation": 2, "co": {"X": 1, "Y": -1}}]}, "crop_height": {"Points": [{"interpolation": 2, "co": {"X": 1, "Y": -1}}]}, "crop_y": {"Points": [{"interpolation": 2, "co": {"X": 1, "Y": 0}}]}, "volume": {"Points": [{"interpolation": 2, "co": {"X": 1, "Y": 1}}]}, "channel_mapping": {"Points": [{"interpolation": 2, "co": {"X": 1, "Y": -1}}]}, "title": "rec.avi", "has_video": {"Points": [{"interpolation": 2, "co": {"X": 1, "Y": -1}}]}, "perspective_c4_y": {"Points": [{"interpolation": 2, "co": {"X": 1, "Y": -1}}]}, "perspective_c2_y": {"Points": [{"interpolation": 2, "co": {"X": 1, "Y": -1}}]}, "reader": {"type": "FFmpegReader", "height": 451, "video_timebase": {"num": 1, "den": 60}, "audio_stream_index": -1, "video_length": "652", "interlaced_frame": false, "audio_bit_rate": 0, "channels": 0, "sample_rate": 0, "video_bit_rate": 13375086, "channel_layout": 4, "path": "/home/avishai/Documents/workspace/adaptive_hand_model/matlab/video/rec.avi", "metadata": {}, "vcodec": "mjpeg", "has_video": true, "has_audio": false, "pixel_format": 12, "acodec": "", "video_stream_index": 0, "display_ratio": {"num": 531, "den": 451}, "file_size": "18167826", "fps": {"num": 60, "den": 1}, "width": 531, "top_field_first": true, "audio_timebase": {"num": 1, "den": 1}, "pixel_ratio": {"num": 1, "den": 1}, "duration": 10.866666793823242, "has_single_image": false}, "perspective_c3_x": {"Points": [{"interpolation": 2, "co": {"X": 1, "Y": -1}}]}, "id": "S1HEPYMO0Q", "anchor": 0, "location_x": {"Points": [{"interpolation": 2, "co": {"X": 1, "Y": 0}}]}, "mixing": 0, "perspective_c1_y": {"Points": [{"interpolation": 2, "co": {"X": 1, "Y": -1}}]}, "file_id": "VLL3NDOT0B", "position": 10, "location_y": {"Points": [{"interpolation": 2, "co": {"X": 1, "Y": 0}}]}, "scale_y": {"Points": [{"interpolation": 2, "co": {"X": 1, "Y": 1}}]}, "start": 0, "perspective_c4_x": {"Points": [{"interpolation": 2, "co": {"X": 1, "Y": -1}}]}}, {"time": {"Points": [{"interpolation": 2, "co": {"X": 1, "Y": 1}}]}, "display": 0, "perspective_c2_x": {"Points": [{"interpolation": 2, "co": {"X": 1, "Y": -1}}]}, "duration": 86400.0, "end": 10, "scale_x": {"Points": [{"interpolation": 2, "co": {"X": 1, "Y": 1}}]}, "channel_filter": {"Points": [{"interpolation": 2, "co": {"X": 1, "Y": -1}}]}, "effects": [], "has_audio": {"Points": [{"interpolation": 2, "co": {"X": 1, "Y": -1}}]}, "scale": 1, "perspective_c3_y": {"Points": [{"interpolation": 2, "co": {"X": 1, "Y": -1}}]}, "alpha": {"Points": [{"interpolation": 2, "co": {"X": 1, "Y": 1}}, {"interpolation": 0, "handle_type": 0, "handle_right": {"X": 0.5, "Y": 0}, "handle_left": {"X": 0.5, "Y": 1}, "co": {"X": 1, "Y": 0}}, {"interpolation": 0, "handle_type": 0, "handle_right": {"X": 0.5, "Y": 0}, "handle_left": {"X": 0.5, "Y": 1}, "co": {"X": 73, "Y": 1}}]}, "shear_x": {"Points": [{"interpolation": 2, "co": {"X": 1, "Y": 0}}]}, "wave_color": {"blue": {"Points": [{"interpolation": 0, "handle_type": 0, "handle_right": {"X": 0.5, "Y": 0}, "handle_left": {"X": 0.5, "Y": 1}, "co": {"X": 1, "Y": 255}}]}, "green": {"Points": [{"interpolation": 0, "handle_type": 0, "handle_right": {"X": 0.5, "Y": 0}, "handle_left": {"X": 0.5, "Y": 1}, "co": {"X": 1, "Y": 123}}]}, "red": {"Points": [{"interpolation": 0, "handle_type": 0, "handle_right": {"X": 0.5, "Y": 0}, "handle_left": {"X": 0.5, "Y": 1}, "co": {"X": 1, "Y": 0}}]}, "alpha": {"Points": [{"interpolation": 0, "handle_type": 0, "handle_right": {"X": 0.5, "Y": 0}, "handle_left": {"X": 0.5, "Y": 1}, "co": {"X": 1, "Y": 255}}]}}, "crop_x": {"Points": [{"interpolation": 2, "co": {"X": 1, "Y": 0}}]}, "image": "/home/avishai/.openshot_qt/thumbnail/SM8I51NPAK.png", "layer": 1, "perspective_c1_x": {"Points": [{"interpolation": 2, "co": {"X": 1, "Y": -1}}]}, "position": 10.946666793823242, "rotation": {"Points": [{"interpolation": 2, "co": {"X": 1, "Y": 0}}]}, "gravity": 4, "waveform": false, "crop_width": {"Points": [{"interpolation": 2, "co": {"X": 1, "Y": -1}}]}, "crop_height": {"Points": [{"interpolation": 2, "co": {"X": 1, "Y": -1}}]}, "crop_y": {"Points": [{"interpolation": 2, "co": {"X": 1, "Y": 0}}]}, "volume": {"Points": [{"interpolation": 2, "co": {"X": 1, "Y": 1}}]}, "channel_mapping": {"Points": [{"interpolation": 2, "co": {"X": 1, "Y": -1}}]}, "title": "TitleFileName-2.svg", "has_video": {"Points": [{"interpolation": 2, "co": {"X": 1, "Y": -1}}]}, "perspective_c4_y": {"Points": [{"interpolation": 2, "co": {"X": 1, "Y": -1}}]}, "perspective_c2_y": {"Points": [{"interpolation": 2, "co": {"X": 1, "Y": -1}}]}, "reader": {"type": "QtImageReader", "interlaced_frame": false, "video_timebase": {"num": 1, "den": 30}, "audio_stream_index": -1, "video_length": "2592000", "channels": 0, "audio_bit_rate": 0, "sample_rate": 0, "video_bit_rate": 0, "channel_layout": 4, "path": "/home/avishai/Documents/workspace/adaptive_hand_model/matlab/video/assets/TitleFileName-2.svg", "metadata": {}, "vcodec": "", "has_video": true, "has_audio": false, "pixel_format": -1, "height": 1080, "acodec": "", "video_stream_index": -1, "display_ratio": {"num": 16, "den": 9}, "file_size": "8294400", "fps": {"num": 30, "den": 1}, "width": 1920, "top_field_first": true, "audio_timebase": {"num": 1, "den": 1}, "pixel_ratio": {"num": 1, "den": 1}, "duration": 86400.0, "has_single_image": true}, "perspective_c3_x": {"Points": [{"interpolation": 2, "co": {"X": 1, "Y": -1}}]}, "id": "838ILRLA3L", "anchor": 0, "location_x": {"Points": [{"interpolation": 2, "co": {"X": 1, "Y": 0}}]}, "mixing": 0, "perspective_c1_y": {"Points": [{"interpolation": 2, "co": {"X": 1, "Y": -1}}]}, "file_id": "SM8I51NPAK", "shear_y": {"Points": [{"interpolation": 2, "co": {"X": 1, "Y": 0}}]}, "location_y": {"Points": [{"interpolation": 2, "co": {"X": 1, "Y": 0}}]}, "scale_y": {"Points": [{"interpolation": 2, "co": {"X": 1, "Y": 1}}]}, "start": 0, "perspective_c4_x": {"Points": [{"interpolation": 2, "co": {"X": 1, "Y": -1}}]}}, {"time": {"Points": [{"interpolation": 2, "co": {"X": 1, "Y": 1}}]}, "display": 0, "perspective_c2_x": {"Points": [{"interpolation": 2, "co": {"X": 1, "Y": -1}}]}, "duration": 86400.0, "end": 10, "scale_x": {"Points": [{"interpolation": 2, "co": {"X": 1, "Y": 1}}]}, "channel_filter": {"Points": [{"interpolation": 2, "co": {"X": 1, "Y": -1}}]}, "effects": [], "has_audio": {"Points": [{"interpolation": 2, "co": {"X": 1, "Y": -1}}]}, "scale": 1, "perspective_c3_y": {"Points": [{"interpolation": 2, "co": {"X": 1, "Y": -1}}]}, "alpha": {"Points": [{"interpolation": 2, "co": {"X": 1, "Y": 1}}, {"interpolation": 0, "handle_type": 0, "handle_right": {"X": 0.5, "Y": 0}, "handle_left": {"X": 0.5, "Y": 1}, "co": {"X": 169, "Y": 1}}, {"interpolation": 0, "handle_type": 0, "handle_right": {"X": 0.5, "Y": 0}, "handle_left": {"X": 0.5, "Y": 1}, "co": {"X": 241, "Y": 0}}]}, "shear_x": {"Points": [{"interpolation": 2, "co": {"X": 1, "Y": 0}}]}, "wave_color": {"blue": {"Points": [{"interpolation": 0, "handle_type": 0, "handle_right": {"X": 0.5, "Y": 0}, "handle_left": {"X": 0.5, "Y": 1}, "co": {"X": 1, "Y": 255}}]}, "green": {"Points": [{"interpolation": 0, "handle_type": 0, "handle_right": {"X": 0.5, "Y": 0}, "handle_left": {"X": 0.5, "Y": 1}, "co": {"X": 1, "Y": 123}}]}, "red": {"Points": [{"interpolation": 0, "handle_type": 0, "handle_right": {"X": 0.5, "Y": 0}, "handle_left": {"X": 0.5, "Y": 1}, "co": {"X": 1, "Y": 0}}]}, "alpha": {"Points": [{"interpolation": 0, "handle_type": 0, "handle_right": {"X": 0.5, "Y": 0}, "handle_left": {"X": 0.5, "Y": 1}, "co": {"X": 1, "Y": 255}}]}}, "crop_x": {"Points": [{"interpolation": 2, "co": {"X": 1, "Y": 0}}]}, "image": "/home/avishai/.openshot_qt/thumbnail/722P7PCEWK.png", "layer": 0, "perspective_c1_x": {"Points": [{"interpolation": 2, "co": {"X": 1, "Y": -1}}]}, "position": 30.94666679382324, "rotation": {"Points": [{"interpolation": 2, "co": {"X": 1, "Y": 0}}]}, "gravity": 4, "waveform": false, "crop_width": {"Points": [{"interpolation": 2, "co": {"X": 1, "Y": -1}}]}, "crop_height": {"Points": [{"interpolation": 2, "co": {"X": 1, "Y": -1}}]}, "crop_y": {"Points": [{"interpolation": 2, "co": {"X": 1, "Y": 0}}]}, "volume": {"Points": [{"interpolation": 2, "co": {"X": 1, "Y": 1}}]}, "channel_mapping": {"Points": [{"interpolation": 2, "co": {"X": 1, "Y": -1}}]}, "title": "opening2.png", "has_video": {"Points": [{"interpolation": 2, "co": {"X": 1, "Y": -1}}]}, "perspective_c4_y": {"Points": [{"interpolation": 2, "co": {"X": 1, "Y": -1}}]}, "perspective_c2_y": {"Points": [{"interpolation": 2, "co": {"X": 1, "Y": -1}}]}, "reader": {"type": "QtImageReader", "interlaced_frame": false, "video_timebase": {"num": 1, "den": 30}, "audio_stream_index": -1, "video_length": "2592000", "channels": 0, "audio_bit_rate": 0, "sample_rate": 0, "video_bit_rate": 0, "channel_layout": 4, "path": "/home/avishai/Documents/workspace/adaptive_hand_model/matlab/video/slides/opening2.png", "metadata": {}, "vcodec": "", "has_video": true, "has_audio": false, "pixel_format": -1, "height": 720, "acodec": "", "video_stream_index": -1, "display_ratio": {"num": 4, "den": 3}, "file_size": "2764800", "fps": {"num": 30, "den": 1}, "width": 960, "top_field_first": true, "audio_timebase": {"num": 1, "den": 1}, "pixel_ratio": {"num": 1, "den": 1}, "duration": 86400.0, "has_single_image": true}, "perspective_c3_x": {"Points": [{"interpolation": 2, "co": {"X": 1, "Y": -1}}]}, "id": "T71MOBYYIW", "anchor": 0, "location_x": {"Points": [{"interpolation": 2, "co": {"X": 1, "Y": 0}}]}, "mixing": 0, "perspective_c1_y": {"Points": [{"interpolation": 2, "co": {"X": 1, "Y": -1}}]}, "file_id": "722P7PCEWK", "shear_y": {"Points": [{"interpolation": 2, "co": {"X": 1, "Y": 0}}]}, "location_y": {"Points": [{"interpolation": 2, "co": {"X": 1, "Y": 0}}]}, "scale_y": {"Points": [{"interpolation": 2, "co": {"X": 1, "Y": 1}}]}, "start": 0, "perspective_c4_x": {"Points": [{"interpolation": 2, "co": {"X": 1, "Y": -1}}]}}, {"time": {"Points": [{"interpolation": 2, "co": {"X": 1, "Y": 1}}]}, "display": 0, "perspective_c2_x": {"Points": [{"interpolation": 2, "co": {"X": 1, "Y": -1}}]}, "duration": 86400.0, "end": 10, "scale_x": {"Points": [{"interpolation": 2, "co": {"X": 1, "Y": 1}}]}, "effects": [], "has_audio": {"Points": [{"interpolation": 2, "co": {"X": 1, "Y": -1}}]}, "scale": 1, "perspective_c3_y": {"Points": [{"interpolation": 2, "co": {"X": 1, "Y": -1}}]}, "alpha": {"Points": [{"interpolation": 2, "co": {"X": 1, "Y": 1}}]}, "start": 0, "wave_color": {"blue": {"Points": [{"interpolation": 0, "handle_type": 0, "co": {"X": 1, "Y": 255}, "handle_left": {"X": 0.5, "Y": 1}, "handle_right": {"X": 0.5, "Y": 0}}]}, "green": {"Points": [{"interpolation": 0, "handle_type": 0, "co": {"X": 1, "Y": 123}, "handle_left": {"X": 0.5, "Y": 1}, "handle_right": {"X": 0.5, "Y": 0}}]}, "red": {"Points": [{"interpolation": 0, "handle_type": 0, "co": {"X": 1, "Y": 0}, "handle_left": {"X": 0.5, "Y": 1}, "handle_right": {"X": 0.5, "Y": 0}}]}, "alpha": {"Points": [{"interpolation": 0, "handle_type": 0, "co": {"X": 1, "Y": 255}, "handle_left": {"X": 0.5, "Y": 1}, "handle_right": {"X": 0.5, "Y": 0}}]}}, "crop_x": {"Points": [{"interpolation": 2, "co": {"X": 1, "Y": 0}}]}, "image": "/home/avishai/.openshot_qt/thumbnail/FG71JWWOKG.png", "layer": 0, "perspective_c1_x": {"Points": [{"interpolation": 2, "co": {"X": 1, "Y": -1}}]}, "position": 0, "rotation": {"Points": [{"interpolation": 2, "co": {"X": 1, "Y": 0}}]}, "mixing": 0, "waveform": false, "crop_width": {"Points": [{"interpolation": 2, "co": {"X": 1, "Y": -1}}]}, "crop_height": {"Points": [{"interpolation": 2, "co": {"X": 1, "Y": -1}}]}, "crop_y": {"Points": [{"interpolation": 2, "co": {"X": 1, "Y": 0}}]}, "volume": {"Points": [{"interpolation": 2, "co": {"X": 1, "Y": 1}}]}, "channel_mapping": {"Points": [{"interpolation": 2, "co": {"X": 1, "Y": -1}}]}, "title": "opening.png", "has_video": {"Points": [{"interpolation": 2, "co": {"X": 1, "Y": -1}}]}, "perspective_c4_y": {"Points": [{"interpolation": 2, "co": {"X": 1, "Y": -1}}]}, "perspective_c2_y": {"Points": [{"interpolation": 2, "co": {"X": 1, "Y": -1}}]}, "reader": {"type": "QtImageReader", "height": 720, "video_timebase": {"num": 1, "den": 30}, "audio_stream_index": -1, "video_length": "2592000", "interlaced_frame": false, "duration": 86400.0, "channels": 0, "sample_rate": 0, "video_bit_rate": 0, "channel_layout": 4, "path": "/home/avishai/Documents/workspace/adaptive_hand_model/matlab/video/slides/opening.png", "metadata": {}, "audio_bit_rate": 0, "has_video": true, "has_audio": false, "pixel_format": -1, "acodec": "", "video_stream_index": -1, "display_ratio": {"num": 4, "den": 3}, "file_size": "2764800", "fps": {"num": 30, "den": 1}, "width": 960, "top_field_first": true, "audio_timebase": {"num": 1, "den": 1}, "pixel_ratio": {"num": 1, "den": 1}, "vcodec": "", "has_single_image": true}, "perspective_c3_x": {"Points": [{"interpolation": 2, "co": {"X": 1, "Y": -1}}]}, "gravity": 4, "id": "VUZXRGBOF5", "anchor": 0, "location_x": {"Points": [{"interpolation": 2, "co": {"X": 1, "Y": 0}}]}, "perspective_c1_y": {"Points": [{"interpolation": 2, "co": {"X": 1, "Y": -1}}]}, "file_id": "FG71JWWOKG", "shear_y": {"Points": [{"interpolation": 2, "co": {"X": 1, "Y": 0}}]}, "location_y": {"Points": [{"interpolation": 2, "co": {"X": 1, "Y": 0}}]}, "scale_y": {"Points": [{"interpolation": 2, "co": {"X": 1, "Y": 1}}]}, "perspective_c4_x": {"Points": [{"interpolation": 2, "co": {"X": 1, "Y": -1}}]}, "shear_x": {"Points": [{"interpolation": 2, "co": {"X": 1, "Y": 0}}]}, "channel_filter": {"Points": [{"interpolation": 2, "co": {"X": 1, "Y": -1}}]}}, {"time": {"Points": [{"interpolation": 2, "co": {"X": 1, "Y": 1}}]}, "display": 0, "perspective_c2_x": {"Points": [{"interpolation": 2, "co": {"X": 1, "Y": -1}}]}, "duration": 86400.0, "end": 10, "scale_x": {"Points": [{"interpolation": 2, "co": {"X": 1, "Y": 1}}]}, "effects": [], "has_audio": {"Points": [{"interpolation": 2, "co": {"X": 1, "Y": -1}}]}, "scale": 1, "perspective_c3_y": {"Points": [{"interpolation": 2, "co": {"X": 1, "Y": -1}}]}, "alpha": {"Points": [{"interpolation": 2, "co": {"X": 1, "Y": 1}}]}, "start": 0, "wave_color": {"blue": {"Points": [{"interpolation": 0, "handle_type": 0, "co": {"X": 1, "Y": 255}, "handle_left": {"X": 0.5, "Y": 1}, "handle_right": {"X": 0.5, "Y": 0}}]}, "green": {"Points": [{"interpolation": 0, "handle_type": 0, "co": {"X": 1, "Y": 123}, "handle_left": {"X": 0.5, "Y": 1}, "handle_right": {"X": 0.5, "Y": 0}}]}, "red": {"Points": [{"interpolation": 0, "handle_type": 0, "co": {"X": 1, "Y": 0}, "handle_left": {"X": 0.5, "Y": 1}, "handle_right": {"X": 0.5, "Y": 0}}]}, "alpha": {"Points": [{"interpolation": 0, "handle_type": 0, "co": {"X": 1, "Y": 255}, "handle_left": {"X": 0.5, "Y": 1}, "handle_right": {"X": 0.5, "Y": 0}}]}}, "crop_x": {"Points": [{"interpolation": 2, "co": {"X": 1, "Y": 0}}]}, "image": "/home/avishai/.openshot_qt/thumbnail/YIV9WP4V5Q.png", "layer": 0, "perspective_c1_x": {"Points": [{"interpolation": 2, "co": {"X": 1, "Y": -1}}]}, "position": 21.026666793823242, "rotation": {"Points": [{"interpolation": 2, "co": {"X": 1, "Y": 0}}]}, "mixing": 0, "waveform": false, "crop_width": {"Points": [{"interpolation": 2, "co": {"X": 1, "Y": -1}}]}, "crop_height": {"Points": [{"interpolation": 2, "co": {"X": 1, "Y": -1}}]}, "crop_y": {"Points": [{"interpolation": 2, "co": {"X": 1, "Y": 0}}]}, "volume": {"Points": [{"interpolation": 2, "co": {"X": 1, "Y": 1}}]}, "channel_mapping": {"Points": [{"interpolation": 2, "co": {"X": 1, "Y": -1}}]}, "title": "opening1.png", "has_video": {"Points": [{"interpolation": 2, "co": {"X": 1, "Y": -1}}]}, "perspective_c4_y": {"Points": [{"interpolation": 2, "co": {"X": 1, "Y": -1}}]}, "perspective_c2_y": {"Points": [{"interpolation": 2, "co": {"X": 1, "Y": -1}}]}, "reader": {"type": "QtImageReader", "height": 720, "video_timebase": {"num": 1, "den": 30}, "audio_stream_index": -1, "video_length": "2592000", "interlaced_frame": false, "duration": 86400.0, "channels": 0, "sample_rate": 0, "video_bit_rate": 0, "channel_layout": 4, "path": "/home/avishai/Documents/workspace/adaptive_hand_model/matlab/video/slides/opening1.png", "metadata": {}, "audio_bit_rate": 0, "has_video": true, "has_audio": false, "pixel_format": -1, "acodec": "", "video_stream_index": -1, "display_ratio": {"num": 4, "den": 3}, "file_size": "2764800", "fps": {"num": 30, "den": 1}, "width": 960, "top_field_first": true, "audio_timebase": {"num": 1, "den": 1}, "pixel_ratio": {"num": 1, "den": 1}, "vcodec": "", "has_single_image": true}, "perspective_c3_x": {"Points": [{"interpolation": 2, "co": {"X": 1, "Y": -1}}]}, "gravity": 4, "id": "3A3QKZGMJB", "anchor": 0, "location_x": {"Points": [{"interpolation": 2, "co": {"X": 1, "Y": 0}}]}, "perspective_c1_y": {"Points": [{"interpolation": 2, "co": {"X": 1, "Y": -1}}]}, "file_id": "YIV9WP4V5Q", "shear_y": {"Points": [{"interpolation": 2, "co": {"X": 1, "Y": 0}}]}, "location_y": {"Points": [{"interpolation": 2, "co": {"X": 1, "Y": 0}}]}, "scale_y": {"Points": [{"interpolation": 2, "co": {"X": 1, "Y": 1}}]}, "perspective_c4_x": {"Points": [{"interpolation": 2, "co": {"X": 1, "Y": -1}}]}, "shear_x": {"Points": [{"interpolation": 2, "co": {"X": 1, "Y": 0}}]}, "channel_filter": {"Points": [{"interpolation": 2, "co": {"X": 1, "Y": -1}}]}}, {"time": {"Points": [{"interpolation": 2, "co": {"X": 1, "Y": 1}}]}, "display": 0, "perspective_c2_x": {"Points": [{"interpolation": 2, "co": {"X": 1, "Y": -1}}]}, "duration": 86400.0, "end": 10, "scale_x": {"Points": [{"interpolation": 2, "co": {"X": 1, "Y": 1}}]}, "effects": [], "has_audio": {"Points": [{"interpolation": 2, "co": {"X": 1, "Y": -1}}]}, "scale": 1, "perspective_c3_y": {"Points": [{"interpolation": 2, "co": {"X": 1, "Y": -1}}]}, "alpha": {"Points": [{"interpolation": 2, "co": {"X": 1, "Y": 1}}]}, "start": 0, "wave_color": {"blue": {"Points": [{"interpolation": 0, "handle_type": 0, "co": {"X": 1, "Y": 255}, "handle_left": {"X": 0.5, "Y": 1}, "handle_right": {"X": 0.5, "Y": 0}}]}, "green": {"Points": [{"interpolation": 0, "handle_type": 0, "co": {"X": 1, "Y": 123}, "handle_left": {"X": 0.5, "Y": 1}, "handle_right": {"X": 0.5, "Y": 0}}]}, "red": {"Points": [{"interpolation": 0, "handle_type": 0, "co": {"X": 1, "Y": 0}, "handle_left": {"X": 0.5, "Y": 1}, "handle_right": {"X": 0.5, "Y": 0}}]}, "alpha": {"Points": [{"interpolation": 0, "handle_type": 0, "co": {"X": 1, "Y": 255}, "handle_left": {"X": 0.5, "Y": 1}, "handle_right": {"X": 0.5, "Y": 0}}]}}, "crop_x": {"Points": [{"interpolation": 2, "co": {"X": 1, "Y": 0}}]}, "image": "/home/avishai/.openshot_qt/thumbnail/LMEK33J1LA.png", "layer": 0, "perspective_c1_x": {"Points": [{"interpolation": 2, "co": {"X": 1, "Y": -1}}]}, "position": 40.94666679382324, "rotation": {"Points": [{"interpolation": 2, "co": {"X": 1, "Y": 0}}]}, "mixing": 0, "waveform": false, "crop_width": {"Points": [{"interpolation": 2, "co": {"X": 1, "Y": -1}}]}, "crop_height": {"Points": [{"interpolation": 2, "co": {"X": 1, "Y": -1}}]}, "crop_y": {"Points": [{"interpolation": 2, "co": {"X": 1, "Y": 0}}]}, "volume": {"Points": [{"interpolation": 2, "co": {"X": 1, "Y": 1}}]}, "channel_mapping": {"Points": [{"interpolation": 2, "co": {"X": 1, "Y": -1}}]}, "title": "opening3.png", "has_video": {"Points": [{"interpolation": 2, "co": {"X": 1, "Y": -1}}]}, "perspective_c4_y": {"Points": [{"interpolation": 2, "co": {"X": 1, "Y": -1}}]}, "perspective_c2_y": {"Points": [{"interpolation": 2, "co": {"X": 1, "Y": -1}}]}, "reader": {"type": "QtImageReader", "height": 720, "video_timebase": {"num": 1, "den": 30}, "audio_stream_index": -1, "video_length": "2592000", "interlaced_frame": false, "duration": 86400.0, "channels": 0, "sample_rate": 0, "video_bit_rate": 0, "channel_layout": 4, "path": "/home/avishai/Documents/workspace/adaptive_hand_model/matlab/video/slides/opening3.png", "metadata": {}, "audio_bit_rate": 0, "has_video": true, "has_audio": false, "pixel_format": -1, "acodec": "", "video_stream_index": -1, "display_ratio": {"num": 4, "den": 3}, "file_size": "2764800", "fps": {"num": 30, "den": 1}, "width": 960, "top_field_first": true, "audio_timebase": {"num": 1, "den": 1}, "pixel_ratio": {"num": 1, "den": 1}, "vcodec": "", "has_single_image": true}, "perspective_c3_x": {"Points": [{"interpolation": 2, "co": {"X": 1, "Y": -1}}]}, "gravity": 4, "id": "X5HE8XP5XU", "anchor": 0, "location_x": {"Points": [{"interpolation": 2, "co": {"X": 1, "Y": 0}}]}, "perspective_c1_y": {"Points": [{"interpolation": 2, "co": {"X": 1, "Y": -1}}]}, "file_id": "LMEK33J1LA", "shear_y": {"Points": [{"interpolation": 2, "co": {"X": 1, "Y": 0}}]}, "location_y": {"Points": [{"interpolation": 2, "co": {"X": 1, "Y": 0}}]}, "scale_y": {"Points": [{"interpolation": 2, "co": {"X": 1, "Y": 1}}]}, "perspective_c4_x": {"Points": [{"interpolation": 2, "co": {"X": 1, "Y": -1}}]}, "shear_x": {"Points": [{"interpolation": 2, "co": {"X": 1, "Y": 0}}]}, "channel_filter": {"Points": [{"interpolation": 2, "co": {"X": 1, "Y": -1}}]}}, {"time": {"Points": [{"interpolation": 2, "co": {"X": 1, "Y": 1}}]}, "display": 0, "perspective_c2_x": {"Points": [{"interpolation": 2, "co": {"X": 1, "Y": -1}}]}, "duration": 86400.0, "end": 10, "scale_x": {"Points": [{"interpolation": 2, "co": {"X": 1, "Y": 1}}]}, "effects": [], "has_audio": {"Points": [{"interpolation": 2, "co": {"X": 1, "Y": -1}}]}, "scale": 1, "perspective_c3_y": {"Points": [{"interpolation": 2, "co": {"X": 1, "Y": -1}}]}, "alpha": {"Points": [{"interpolation": 2, "co": {"X": 1, "Y": 1}}]}, "start": 0, "wave_color": {"blue": {"Points": [{"interpolation": 0, "handle_type": 0, "co": {"X": 1, "Y": 255}, "handle_left": {"X": 0.5, "Y": 1}, "handle_right": {"X": 0.5, "Y": 0}}]}, "green": {"Points": [{"interpolation": 0, "handle_type": 0, "co": {"X": 1, "Y": 123}, "handle_left": {"X": 0.5, "Y": 1}, "handle_right": {"X": 0.5, "Y": 0}}]}, "red": {"Points": [{"interpolation": 0, "handle_type": 0, "co": {"X": 1, "Y": 0}, "handle_left": {"X": 0.5, "Y": 1}, "handle_right": {"X": 0.5, "Y": 0}}]}, "alpha": {"Points": [{"interpolation": 0, "handle_type": 0, "co": {"X": 1, "Y": 255}, "handle_left": {"X": 0.5, "Y": 1}, "handle_right": {"X": 0.5, "Y": 0}}]}}, "crop_x": {"Points": [{"interpolation": 2, "co": {"X": 1, "Y": 0}}]}, "image": "/home/avishai/.openshot_qt/thumbnail/RHRWX2BT8P.png", "layer": 0, "perspective_c1_x": {"Points": [{"interpolation": 2, "co": {"X": 1, "Y": -1}}]}, "position": 50.94666679382324, "rotation": {"Points": [{"interpolation": 2, "co": {"X": 1, "Y": 0}}]}, "mixing": 0, "waveform": false, "crop_width": {"Points": [{"interpolation": 2, "co": {"X": 1, "Y": -1}}]}, "crop_height": {"Points": [{"interpolation": 2, "co": {"X": 1, "Y": -1}}]}, "crop_y": {"Points": [{"interpolation": 2, "co": {"X": 1, "Y": 0}}]}, "volume": {"Points": [{"interpolation": 2, "co": {"X": 1, "Y": 1}}]}, "channel_mapping": {"Points": [{"interpolation": 2, "co": {"X": 1, "Y": -1}}]}, "title": "opening4.png", "has_video": {"Points": [{"interpolation": 2, "co": {"X": 1, "Y": -1}}]}, "perspective_c4_y": {"Points": [{"interpolation": 2, "co": {"X": 1, "Y": -1}}]}, "perspective_c2_y": {"Points": [{"interpolation": 2, "co": {"X": 1, "Y": -1}}]}, "reader": {"type": "QtImageReader", "height": 720, "video_timebase": {"num": 1, "den": 30}, "audio_stream_index": -1, "video_length": "2592000", "interlaced_frame": false, "duration": 86400.0, "channels": 0, "sample_rate": 0, "video_bit_rate": 0, "channel_layout": 4, "path": "/home/avishai/Documents/workspace/adaptive_hand_model/matlab/video/slides/opening4.png", "metadata": {}, "audio_bit_rate": 0, "has_video": true, "has_audio": false, "pixel_format": -1, "acodec": "", "video_stream_index": -1, "display_ratio": {"num": 4, "den": 3}, "file_size": "2764800", "fps": {"num": 30, "den": 1}, "width": 960, "top_field_first": true, "audio_timebase": {"num": 1, "den": 1}, "pixel_ratio": {"num": 1, "den": 1}, "vcodec": "", "has_single_image": true}, "perspective_c3_x": {"Points": [{"interpolation": 2, "co": {"X": 1, "Y": -1}}]}, "gravity": 4, "id": "LYT59N8TPM", "anchor": 0, "location_x": {"Points": [{"interpolation": 2, "co": {"X": 1, "Y": 0}}]}, "perspective_c1_y": {"Points": [{"interpolation": 2, "co": {"X": 1, "Y": -1}}]}, "file_id": "RHRWX2BT8P", "shear_y": {"Points": [{"interpolation": 2, "co": {"X": 1, "Y": 0}}]}, "location_y": {"Points": [{"interpolation": 2, "co": {"X": 1, "Y": 0}}]}, "scale_y": {"Points": [{"interpolation": 2, "co": {"X": 1, "Y": 1}}]}, "perspective_c4_x": {"Points": [{"interpolation": 2, "co": {"X": 1, "Y": -1}}]}, "shear_x": {"Points": [{"interpolation": 2, "co": {"X": 1, "Y": 0}}]}, "channel_filter": {"Points": [{"interpolation": 2, "co": {"X": 1, "Y": -1}}]}}, {"time": {"Points": [{"interpolation": 2, "co": {"X": 1, "Y": 1}}]}, "display": 0, "perspective_c2_x": {"Points": [{"interpolation": 2, "co": {"X": 1, "Y": -1}}]}, "duration": 86400.0, "end": 10, "scale_x": {"Points": [{"interpolation": 2, "co": {"X": 1, "Y": 1}}]}, "effects": [], "has_audio": {"Points": [{"interpolation": 2, "co": {"X": 1, "Y": -1}}]}, "scale": 1, "perspective_c3_y": {"Points": [{"interpolation": 2, "co": {"X": 1, "Y": -1}}]}, "alpha": {"Points": [{"interpolation": 2, "co": {"X": 1, "Y": 1}}, {"interpolation": 0, "handle_type": 0, "co": {"X": 169, "Y": 1}, "handle_left": {"X": 0.5, "Y": 1}, "handle_right": {"X": 0.5, "Y": 0}}, {"interpolation": 0, "handle_type": 0, "co": {"X": 241, "Y": 0}, "handle_left": {"X": 0.5, "Y": 1}, "handle_right": {"X": 0.5, "Y": 0}}, {"interpolation": 0, "handle_type": 0, "handle_left": {"X": 0.5, "Y": 1}, "handle_right": {"X": 0.5, "Y": 0}, "co": {"X": 217, "Y": 1}}, {"interpolation": 0, "handle_type": 0, "handle_left": {"X": 0.5, "Y": 1}, "handle_right": {"X": 0.5, "Y": 0}, "co": {"X": 241, "Y": 0}}]}, "start": 0, "wave_color": {"blue": {"Points": [{"interpolation": 0, "handle_type": 0, "co": {"X": 1, "Y": 255}, "handle_right": {"X": 0.5, "Y": 0}, "handle_left": {"X": 0.5, "Y": 1}}]}, "green": {"Points": [{"interpolation": 0, "handle_type": 0, "co": {"X": 1, "Y": 123}, "handle_right": {"X": 0.5, "Y": 0}, "handle_left": {"X": 0.5, "Y": 1}}]}, "red": {"Points": [{"interpolation": 0, "handle_type": 0, "co": {"X": 1, "Y": 0}, "handle_right": {"X": 0.5, "Y": 0}, "handle_left": {"X": 0.5, "Y": 1}}]}, "alpha": {"Points": [{"interpolation": 0, "handle_type": 0, "co": {"X": 1, "Y": 255}, "handle_right": {"X": 0.5, "Y": 0}, "handle_left": {"X": 0.5, "Y": 1}}]}}, "crop_x": {"Points": [{"interpolation": 2, "co": {"X": 1, "Y": 0}}]}, "image": "/home/avishai/.openshot_qt/thumbnail/YA8O4MECE1.png", "layer": 0, "perspective_c1_x": {"Points": [{"interpolation": 2, "co": {"X": 1, "Y": -1}}]}, "position": 70.95833333333334, "rotation": {"Points": [{"interpolation": 2, "co": {"X": 1, "Y": 0}}]}, "mixing": 0, "waveform": false, "crop_width": {"Points": [{"interpolation": 2, "co": {"X": 1, "Y": -1}}]}, "crop_height": {"Points": [{"interpolation": 2, "co": {"X": 1, "Y": -1}}]}, "crop_y": {"Points": [{"interpolation": 2, "co": {"X": 1, "Y": 0}}]}, "volume": {"Points": [{"interpolation": 2, "co": {"X": 1, "Y": 1}}]}, "channel_mapping": {"Points": [{"interpolation": 2, "co": {"X": 1, "Y": -1}}]}, "title": "opening6.png", "has_video": {"Points": [{"interpolation": 2, "co": {"X": 1, "Y": -1}}]}, "perspective_c4_y": {"Points": [{"interpolation": 2, "co": {"X": 1, "Y": -1}}]}, "perspective_c2_y": {"Points": [{"interpolation": 2, "co": {"X": 1, "Y": -1}}]}, "reader": {"type": "QtImageReader", "height": 720, "video_timebase": {"num": 1, "den": 30}, "audio_stream_index": -1, "video_length": "2592000", "interlaced_frame": false, "duration": 86400.0, "channels": 0, "sample_rate": 0, "video_bit_rate": 0, "channel_layout": 4, "path": "/home/avishai/Documents/workspace/adaptive_hand_model/matlab/video/slides/opening6.png", "metadata": {}, "audio_bit_rate": 0, "has_video": true, "has_audio": false, "pixel_format": -1, "acodec": "", "video_stream_index": -1, "display_ratio": {"num": 4, "den": 3}, "file_size": "2764800", "fps": {"num": 30, "den": 1}, "width": 960, "top_field_first": true, "audio_timebase": {"num": 1, "den": 1}, "pixel_ratio": {"num": 1, "den": 1}, "vcodec": "", "has_single_image": true}, "perspective_c3_x": {"Points": [{"interpolation": 2, "co": {"X": 1, "Y": -1}}]}, "gravity": 4, "id": "LYWGXV5N3L", "anchor": 0, "location_x": {"Points": [{"interpolation": 2, "co": {"X": 1, "Y": 0}}]}, "perspective_c1_y": {"Points": [{"interpolation": 2, "co": {"X": 1, "Y": -1}}]}, "file_id": "YA8O4MECE1", "shear_y": {"Points": [{"interpolation": 2, "co": {"X": 1, "Y": 0}}]}, "location_y": {"Points": [{"interpolation": 2, "co": {"X": 1, "Y": 0}}]}, "scale_y": {"Points": [{"interpolation": 2, "co": {"X": 1, "Y": 1}}]}, "perspective_c4_x": {"Points": [{"interpolation": 2, "co": {"X": 1, "Y": -1}}]}, "shear_x": {"Points": [{"interpolation": 2, "co": {"X": 1, "Y": 0}}]}, "channel_filter": {"Points": [{"interpolation": 2, "co": {"X": 1, "Y": -1}}]}}, {"time": {"Points": [{"interpolation": 2, "co": {"X": 1, "Y": 1}}]}, "display": 0, "perspective_c2_x": {"Points": [{"interpolation": 2, "co": {"X": 1, "Y": -1}}]}, "duration": 86400.0, "end": 5.333333333333333, "scale_x": {"Points": [{"interpolation": 2, "co": {"X": 1, "Y": 1}}]}, "effects": [], "has_audio": {"Points": [{"interpolation": 2, "co": {"X": 1, "Y": -1}}]}, "scale": 1, "perspective_c3_y": {"Points": [{"interpolation": 2, "co": {"X": 1, "Y": -1}}]}, "alpha": {"Points": [{"interpolation": 2, "co": {"X": 1, "Y": 1}}]}, "start": 0, "wave_color": {"blue": {"Points": [{"interpolation": 0, "handle_type": 0, "co": {"X": 1, "Y": 255}, "handle_left": {"X": 0.5, "Y": 1}, "handle_right": {"X": 0.5, "Y": 0}}]}, "green": {"Points": [{"interpolation": 0, "handle_type": 0, "co": {"X": 1, "Y": 123}, "handle_left": {"X": 0.5, "Y": 1}, "handle_right": {"X": 0.5, "Y": 0}}]}, "red": {"Points": [{"interpolation": 0, "handle_type": 0, "co": {"X": 1, "Y": 0}, "handle_left": {"X": 0.5, "Y": 1}, "handle_right": {"X": 0.5, "Y": 0}}]}, "alpha": {"Points": [{"interpolation": 0, "handle_type": 0, "co": {"X": 1, "Y": 255}, "handle_left": {"X": 0.5, "Y": 1}, "handle_right": {"X": 0.5, "Y": 0}}]}}, "crop_x": {"Points": [{"interpolation": 2, "co": {"X": 1, "Y": 0}}]}, "image": "/home/avishai/.openshot_qt/thumbnail/ULNSBVNSH3.png", "layer": 0, "perspective_c1_x": {"Points": [{"interpolation": 2, "co": {"X": 1, "Y": -1}}]}, "position": 80.95833333333334, "rotation": {"Points": [{"interpolation": 2, "co": {"X": 1, "Y": 0}}]}, "mixing": 0, "waveform": false, "crop_width": {"Points": [{"interpolation": 2, "co": {"X": 1, "Y": -1}}]}, "crop_height": {"Points": [{"interpolation": 2, "co": {"X": 1, "Y": -1}}]}, "crop_y": {"Points": [{"interpolation": 2, "co": {"X": 1, "Y": 0}}]}, "volume": {"Points": [{"interpolation": 2, "co": {"X": 1, "Y": 1}}]}, "channel_mapping": {"Points": [{"interpolation": 2, "co": {"X": 1, "Y": -1}}]}, "title": "opening7.png", "has_video": {"Points": [{"interpolation": 2, "co": {"X": 1, "Y": -1}}]}, "perspective_c4_y": {"Points": [{"interpolation": 2, "co": {"X": 1, "Y": -1}}]}, "perspective_c2_y": {"Points": [{"interpolation": 2, "co": {"X": 1, "Y": -1}}]}, "reader": {"type": "QtImageReader", "height": 720, "video_timebase": {"num": 1, "den": 30}, "audio_stream_index": -1, "video_length": "2592000", "interlaced_frame": false, "duration": 86400.0, "channels": 0, "sample_rate": 0, "video_bit_rate": 0, "channel_layout": 4, "path": "/home/avishai/Documents/workspace/adaptive_hand_model/matlab/video/slides/opening7.png", "metadata": {}, "audio_bit_rate": 0, "has_video": true, "has_audio": false, "pixel_format": -1, "acodec": "", "video_stream_index": -1, "display_ratio": {"num": 4, "den": 3}, "file_size": "2764800", "fps": {"num": 30, "den": 1}, "width": 960, "top_field_first": true, "audio_timebase": {"num": 1, "den": 1}, "pixel_ratio": {"num": 1, "den": 1}, "vcodec": "", "has_single_image": true}, "perspective_c3_x": {"Points": [{"interpolation": 2, "co": {"X": 1, "Y": -1}}]}, "gravity": 4, "id": "XC8281YBWR", "anchor": 0, "location_x": {"Points": [{"interpolation": 2, "co": {"X": 1, "Y": 0}}]}, "perspective_c1_y": {"Points": [{"interpolation": 2, "co": {"X": 1, "Y": -1}}]}, "file_id": "ULNSBVNSH3", "shear_y": {"Points": [{"interpolation": 2, "co": {"X": 1, "Y": 0}}]}, "location_y": {"Points": [{"interpolation": 2, "co": {"X": 1, "Y": 0}}]}, "scale_y": {"Points": [{"interpolation": 2, "co": {"X": 1, "Y": 1}}]}, "perspective_c4_x": {"Points": [{"interpolation": 2, "co": {"X": 1, "Y": -1}}]}, "shear_x": {"Points": [{"interpolation": 2, "co": {"X": 1, "Y": 0}}]}, "channel_filter": {"Points": [{"interpolation": 2, "co": {"X": 1, "Y": -1}}]}}, {"time": {"Points": [{"interpolation": 2, "co": {"X": 1, "Y": 1}}]}, "display": 0, "perspective_c2_x": {"Points": [{"interpolation": 2, "co": {"X": 1, "Y": -1}}]}, "duration": 6.949999809265137, "end": 6.949999809265137, "scale_x": {"Points": [{"interpolation": 2, "co": {"X": 1, "Y": 1}}]}, "effects": [], "has_audio": {"Points": [{"interpolation": 2, "co": {"X": 1, "Y": -1}}]}, "scale": 1, "perspective_c3_y": {"Points": [{"interpolation": 2, "co": {"X": 1, "Y": -1}}]}, "alpha": {"Points": [{"interpolation": 2, "co": {"X": 1, "Y": 1}}]}, "start": 0, "wave_color": {"blue": {"Points": [{"interpolation": 0, "handle_type": 0, "co": {"X": 1, "Y": 255}, "handle_left": {"X": 0.5, "Y": 1}, "handle_right": {"X": 0.5, "Y": 0}}]}, "green": {"Points": [{"interpolation": 0, "handle_type": 0, "co": {"X": 1, "Y": 123}, "handle_left": {"X": 0.5, "Y": 1}, "handle_right": {"X": 0.5, "Y": 0}}]}, "red": {"Points": [{"interpolation": 0, "handle_type": 0, "co": {"X": 1, "Y": 0}, "handle_left": {"X": 0.5, "Y": 1}, "handle_right": {"X": 0.5, "Y": 0}}]}, "alpha": {"Points": [{"interpolation": 0, "handle_type": 0, "co": {"X": 1, "Y": 255}, "handle_left": {"X": 0.5, "Y": 1}, "handle_right": {"X": 0.5, "Y": 0}}]}}, "crop_x": {"Points": [{"interpolation": 2, "co": {"X": 1, "Y": 0}}]}, "image": "/home/avishai/.openshot_qt/thumbnail/FC16UD9ZFT.png", "layer": 0, "perspective_c1_x": {"Points": [{"interpolation": 2, "co": {"X": 1, "Y": -1}}]}, "position": 86.29166666666669, "rotation": {"Points": [{"interpolation": 2, "co": {"X": 1, "Y": 0}}]}, "mixing": 0, "waveform": false, "crop_width": {"Points": [{"interpolation": 2, "co": {"X": 1, "Y": -1}}]}, "crop_height": {"Points": [{"interpolation": 2, "co": {"X": 1, "Y": -1}}]}, "crop_y": {"Points": [{"interpolation": 2, "co": {"X": 1, "Y": 0}}]}, "volume": {"Points": [{"interpolation": 2, "co": {"X": 1, "Y": 1}}]}, "channel_mapping": {"Points": [{"interpolation": 2, "co": {"X": 1, "Y": -1}}]}, "title": "trajs.avi", "has_video": {"Points": [{"interpolation": 2, "co": {"X": 1, "Y": -1}}]}, "perspective_c4_y": {"Points": [{"interpolation": 2, "co": {"X": 1, "Y": -1}}]}, "perspective_c2_y": {"Points": [{"interpolation": 2, "co": {"X": 1, "Y": -1}}]}, "reader": {"type": "FFmpegReader", "height": 1503, "video_timebase": {"num": 1, "den": 60}, "audio_stream_index": -1, "video_length": "417", "interlaced_frame": false, "duration": 6.949999809265137, "channels": 0, "sample_rate": 0, "video_bit_rate": 70132622, "channel_layout": 4, "path": "/home/avishai/Documents/workspace/adaptive_hand_model/matlab/video/trajs.avi", "metadata": {}, "audio_bit_rate": 0, "has_video": true, "has_audio": false, "pixel_format": 12, "acodec": "", "video_stream_index": 0, "display_ratio": {"num": 1502, "den": 1503}, "file_size": "60927716", "fps": {"num": 60, "den": 1}, "width": 1502, "top_field_first": true, "audio_timebase": {"num": 1, "den": 1}, "pixel_ratio": {"num": 1, "den": 1}, "vcodec": "mjpeg", "has_single_image": false}, "perspective_c3_x": {"Points": [{"interpolation": 2, "co": {"X": 1, "Y": -1}}]}, "gravity": 4, "id": "UL3TS2PDR4", "anchor": 0, "location_x": {"Points": [{"interpolation": 2, "co": {"X": 1, "Y": 0}}]}, "perspective_c1_y": {"Points": [{"interpolation": 2, "co": {"X": 1, "Y": -1}}]}, "file_id": "FC16UD9ZFT", "shear_y": {"Points": [{"interpolation": 2, "co": {"X": 1, "Y": 0}}]}, "location_y": {"Points": [{"interpolation": 2, "co": {"X": 1, "Y": 0}}]}, "scale_y": {"Points": [{"interpolation": 2, "co": {"X": 1, "Y": 1}}]}, "perspective_c4_x": {"Points": [{"interpolation": 2, "co": {"X": 1, "Y": -1}}]}, "shear_x": {"Points": [{"interpolation": 2, "co": {"X": 1, "Y": 0}}]}, "channel_filter": {"Points": [{"interpolation": 2, "co": {"X": 1, "Y": -1}}]}}, {"time": {"Points": [{"interpolation": 2, "co": {"X": 1, "Y": 1}}]}, "display": 0, "perspective_c2_x": {"Points": [{"interpolation": 2, "co": {"X": 1, "Y": -1}}]}, "duration": 86400.0, "end": 4, "scale_x": {"Points": [{"interpolation": 2, "co": {"X": 1, "Y": 1}}]}, "effects": [], "has_audio": {"Points": [{"interpolation": 2, "co": {"X": 1, "Y": -1}}]}, "scale": 1, "perspective_c3_y": {"Points": [{"interpolation": 2, "co": {"X": 1, "Y": -1}}]}, "alpha": {"Points": [{"interpolation": 2, "co": {"X": 1, "Y": 1}}]}, "start": 0, "wave_color": {"blue": {"Points": [{"interpolation": 0, "handle_type": 0, "co": {"X": 1, "Y": 255}, "handle_left": {"X": 0.5, "Y": 1}, "handle_right": {"X": 0.5, "Y": 0}}]}, "green": {"Points": [{"interpolation": 0, "handle_type": 0, "co": {"X": 1, "Y": 123}, "handle_left": {"X": 0.5, "Y": 1}, "handle_right": {"X": 0.5, "Y": 0}}]}, "red": {"Points": [{"interpolation": 0, "handle_type": 0, "co": {"X": 1, "Y": 0}, "handle_left": {"X": 0.5, "Y": 1}, "handle_right": {"X": 0.5, "Y": 0}}]}, "alpha": {"Points": [{"interpolation": 0, "handle_type": 0, "co": {"X": 1, "Y": 255}, "handle_left": {"X": 0.5, "Y": 1}, "handle_right": {"X": 0.5, "Y": 0}}]}}, "crop_x": {"Points": [{"interpolation": 2, "co": {"X": 1, "Y": 0}}]}, "image": "/home/avishai/.openshot_qt/thumbnail/EWEUFI7OUN.png", "layer": 0, "perspective_c1_x": {"Points": [{"interpolation": 2, "co": {"X": 1, "Y": -1}}]}, "position": 103.24166647593182, "rotation": {"Points": [{"interpolation": 2, "co": {"X": 1, "Y": 0}}]}, "mixing": 0, "waveform": false, "crop_width": {"Points": [{"interpolation": 2, "co": {"X": 1, "Y": -1}}]}, "crop_height": {"Points": [{"interpolation": 2, "co": {"X": 1, "Y": -1}}]}, "crop_y": {"Points": [{"interpolation": 2, "co": {"X": 1, "Y": 0}}]}, "volume": {"Points": [{"interpolation": 2, "co": {"X": 1, "Y": 1}}]}, "channel_mapping": {"Points": [{"interpolation": 2, "co": {"X": 1, "Y": -1}}]}, "title": "opening8b.png", "has_video": {"Points": [{"interpolation": 2, "co": {"X": 1, "Y": -1}}]}, "perspective_c4_y": {"Points": [{"interpolation": 2, "co": {"X": 1, "Y": -1}}]}, "perspective_c2_y": {"Points": [{"interpolation": 2, "co": {"X": 1, "Y": -1}}]}, "reader": {"type": "QtImageReader", "height": 720, "video_timebase": {"num": 1, "den": 30}, "audio_stream_index": -1, "video_length": "2592000", "interlaced_frame": false, "duration": 86400.0, "channels": 0, "sample_rate": 0, "video_bit_rate": 0, "channel_layout": 4, "path": "/home/avishai/Documents/workspace/adaptive_hand_model/matlab/video/slides/opening8b.png", "metadata": {}, "audio_bit_rate": 0, "has_video": true, "has_audio": false, "pixel_format": -1, "acodec": "", "video_stream_index": -1, "display_ratio": {"num": 4, "den": 3}, "file_size": "2764800", "fps": {"num": 30, "den": 1}, "width": 960, "top_field_first": true, "audio_timebase": {"num": 1, "den": 1}, "pixel_ratio": {"num": 1, "den": 1}, "vcodec": "", "has_single_image": true}, "perspective_c3_x": {"Points": [{"interpolation": 2, "co": {"X": 1, "Y": -1}}]}, "gravity": 4, "id": "K1HDHMF9R0", "anchor": 0, "location_x": {"Points": [{"interpolation": 2, "co": {"X": 1, "Y": 0}}]}, "perspective_c1_y": {"Points": [{"interpolation": 2, "co": {"X": 1, "Y": -1}}]}, "file_id": "EWEUFI7OUN", "shear_y": {"Points": [{"interpolation": 2, "co": {"X": 1, "Y": 0}}]}, "location_y": {"Points": [{"interpolation": 2, "co": {"X": 1, "Y": 0}}]}, "scale_y": {"Points": [{"interpolation": 2, "co": {"X": 1, "Y": 1}}]}, "perspective_c4_x": {"Points": [{"interpolation": 2, "co": {"X": 1, "Y": -1}}]}, "shear_x": {"Points": [{"interpolation": 2, "co": {"X": 1, "Y": 0}}]}, "channel_filter": {"Points": [{"interpolation": 2, "co": {"X": 1, "Y": -1}}]}}, {"time": {"Points": [{"interpolation": 2, "co": {"X": 1, "Y": 1}}]}, "display": 0, "perspective_c2_x": {"Points": [{"interpolation": 2, "co": {"X": 1, "Y": -1}}]}, "duration": 4.75, "end": 4.75, "scale_x": {"Points": [{"interpolation": 2, "co": {"X": 1, "Y": 1}}]}, "effects": [], "has_audio": {"Points": [{"interpolation": 2, "co": {"X": 1, "Y": -1}}]}, "scale": 1, "perspective_c3_y": {"Points": [{"interpolation": 2, "co": {"X": 1, "Y": -1}}]}, "alpha": {"Points": [{"interpolation": 2, "co": {"X": 1, "Y": 1}}]}, "start": 0, "wave_color": {"blue": {"Points": [{"interpolation": 0, "handle_type": 0, "co": {"X": 1, "Y": 255}, "handle_left": {"X": 0.5, "Y": 1}, "handle_right": {"X": 0.5, "Y": 0}}]}, "green": {"Points": [{"interpolation": 0, "handle_type": 0, "co": {"X": 1, "Y": 123}, "handle_left": {"X": 0.5, "Y": 1}, "handle_right": {"X": 0.5, "Y": 0}}]}, "red": {"Points": [{"interpolation": 0, "handle_type": 0, "co": {"X": 1, "Y": 0}, "handle_left": {"X": 0.5, "Y": 1}, "handle_right": {"X": 0.5, "Y": 0}}]}, "alpha": {"Points": [{"interpolation": 0, "handle_type": 0, "co": {"X": 1, "Y": 255}, "handle_left": {"X": 0.5, "Y": 1}, "handle_right": {"X": 0.5, "Y": 0}}]}}, "crop_x": {"Points": [{"interpolation": 2, "co": {"X": 1, "Y": 0}}]}, "image": "/home/avishai/.openshot_qt/thumbnail/KZLNLAEG7J.png", "layer": 0, "perspective_c1_x": {"Points": [{"interpolation": 2, "co": {"X": 1, "Y": -1}}]}, "position": 107.24166647593182, "rotation": {"Points": [{"interpolation": 2, "co": {"X": 1, "Y": 0}}]}, "mixing": 0, "waveform": false, "crop_width": {"Points": [{"interpolation": 2, "co": {"X": 1, "Y": -1}}]}, "crop_height": {"Points": [{"interpolation": 2, "co": {"X": 1, "Y": -1}}]}, "crop_y": {"Points": [{"interpolation": 2, "co": {"X": 1, "Y": 0}}]}, "volume": {"Points": [{"interpolation": 2, "co": {"X": 1, "Y": 1}}]}, "channel_mapping": {"Points": [{"interpolation": 2, "co": {"X": 1, "Y": -1}}]}, "title": "trajs_fc_1.avi", "has_video": {"Points": [{"interpolation": 2, "co": {"X": 1, "Y": -1}}]}, "perspective_c4_y": {"Points": [{"interpolation": 2, "co": {"X": 1, "Y": -1}}]}, "perspective_c2_y": {"Points": [{"interpolation": 2, "co": {"X": 1, "Y": -1}}]}, "reader": {"type": "FFmpegReader", "height": 1002, "video_timebase": {"num": 1, "den": 60}, "audio_stream_index": -1, "video_length": "285", "interlaced_frame": false, "duration": 4.75, "channels": 0, "sample_rate": 0, "video_bit_rate": 79206750, "channel_layout": 4, "path": "/home/avishai/Documents/workspace/adaptive_hand_model/matlab/video/trajs_fc_1.avi", "metadata": {}, "audio_bit_rate": 0, "has_video": true, "has_audio": false, "pixel_format": 12, "acodec": "", "video_stream_index": 0, "display_ratio": {"num": 2, "den": 1}, "file_size": "47029008", "fps": {"num": 60, "den": 1}, "width": 2004, "top_field_first": true, "audio_timebase": {"num": 1, "den": 1}, "pixel_ratio": {"num": 1, "den": 1}, "vcodec": "mjpeg", "has_single_image": false}, "perspective_c3_x": {"Points": [{"interpolation": 2, "co": {"X": 1, "Y": -1}}]}, "gravity": 4, "id": "E30S9MIQFA", "anchor": 0, "location_x": {"Points": [{"interpolation": 2, "co": {"X": 1, "Y": 0}}]}, "perspective_c1_y": {"Points": [{"interpolation": 2, "co": {"X": 1, "Y": -1}}]}, "file_id": "KZLNLAEG7J", "shear_y": {"Points": [{"interpolation": 2, "co": {"X": 1, "Y": 0}}]}, "location_y": {"Points": [{"interpolation": 2, "co": {"X": 1, "Y": 0}}]}, "scale_y": {"Points": [{"interpolation": 2, "co": {"X": 1, "Y": 1}}]}, "perspective_c4_x": {"Points": [{"interpolation": 2, "co": {"X": 1, "Y": -1}}]}, "shear_x": {"Points": [{"interpolation": 2, "co": {"X": 1, "Y": 0}}]}, "channel_filter": {"Points": [{"interpolation": 2, "co": {"X": 1, "Y": -1}}]}}, {"time": {"Points": [{"interpolation": 2, "co": {"X": 1, "Y": 1}}]}, "display": 0, "perspective_c2_x": {"Points": [{"interpolation": 2, "co": {"X": 1, "Y": -1}}]}, "duration": 4.366666793823242, "end": 4.366666793823242, "scale_x": {"Points": [{"interpolation": 2, "co": {"X": 1, "Y": 1}}]}, "effects": [], "has_audio": {"Points": [{"interpolation": 2, "co": {"X": 1, "Y": -1}}]}, "scale": 1, "perspective_c3_y": {"Points": [{"interpolation": 2, "co": {"X": 1, "Y": -1}}]}, "alpha": {"Points": [{"interpolation": 2, "co": {"X": 1, "Y": 1}}]}, "start": 0, "wave_color": {"blue": {"Points": [{"interpolation": 0, "handle_type": 0, "co": {"X": 1, "Y": 255}, "handle_left": {"X": 0.5, "Y": 1}, "handle_right": {"X": 0.5, "Y": 0}}]}, "green": {"Points": [{"interpolation": 0, "handle_type": 0, "co": {"X": 1, "Y": 123}, "handle_left": {"X": 0.5, "Y": 1}, "handle_right": {"X": 0.5, "Y": 0}}]}, "red": {"Points": [{"interpolation": 0, "handle_type": 0, "co": {"X": 1, "Y": 0}, "handle_left": {"X": 0.5, "Y": 1}, "handle_right": {"X": 0.5, "Y": 0}}]}, "alpha": {"Points": [{"interpolation": 0, "handle_type": 0, "co": {"X": 1, "Y": 255}, "handle_left": {"X": 0.5, "Y": 1}, "handle_right": {"X": 0.5, "Y": 0}}]}}, "crop_x": {"Points": [{"interpolation": 2, "co": {"X": 1, "Y": 0}}]}, "image": "/home/avishai/.openshot_qt/thumbnail/D1DPZWUXYA.png", "layer": 0, "perspective_c1_x": {"Points": [{"interpolation": 2, "co": {"X": 1, "Y": -1}}]}, "position": 111.99166647593182, "rotation": {"Points": [{"interpolation": 2, "co": {"X": 1, "Y": 0}}]}, "mixing": 0, "waveform": false, "crop_width": {"Points": [{"interpolation": 2, "co": {"X": 1, "Y": -1}}]}, "crop_height": {"Points": [{"interpolation": 2, "co": {"X": 1, "Y": -1}}]}, "crop_y": {"Points": [{"interpolation": 2, "co": {"X": 1, "Y": 0}}]}, "volume": {"Points": [{"interpolation": 2, "co": {"X": 1, "Y": 1}}]}, "channel_mapping": {"Points": [{"interpolation": 2, "co": {"X": 1, "Y": -1}}]}, "title": "trajs_fc_2.avi", "has_video": {"Points": [{"interpolation": 2, "co": {"X": 1, "Y": -1}}]}, "perspective_c4_y": {"Points": [{"interpolation": 2, "co": {"X": 1, "Y": -1}}]}, "perspective_c2_y": {"Points": [{"interpolation": 2, "co": {"X": 1, "Y": -1}}]}, "reader": {"type": "FFmpegReader", "height": 1002, "video_timebase": {"num": 1, "den": 60}, "audio_stream_index": -1, "video_length": "262", "interlaced_frame": false, "duration": 4.366666793823242, "channels": 0, "sample_rate": 0, "video_bit_rate": 78925778, "channel_layout": 4, "path": "/home/avishai/Documents/workspace/adaptive_hand_model/matlab/video/trajs_fc_2.avi", "metadata": {}, "audio_bit_rate": 0, "has_video": true, "has_audio": false, "pixel_format": 12, "acodec": "", "video_stream_index": 0, "display_ratio": {"num": 2, "den": 1}, "file_size": "43080324", "fps": {"num": 60, "den": 1}, "width": 2004, "top_field_first": true, "audio_timebase": {"num": 1, "den": 1}, "pixel_ratio": {"num": 1, "den": 1}, "vcodec": "mjpeg", "has_single_image": false}, "perspective_c3_x": {"Points": [{"interpolation": 2, "co": {"X": 1, "Y": -1}}]}, "gravity": 4, "id": "56I4I8MV7U", "anchor": 0, "location_x": {"Points": [{"interpolation": 2, "co": {"X": 1, "Y": 0}}]}, "perspective_c1_y": {"Points": [{"interpolation": 2, "co": {"X": 1, "Y": -1}}]}, "file_id": "D1DPZWUXYA", "shear_y": {"Points": [{"interpolation": 2, "co": {"X": 1, "Y": 0}}]}, "location_y": {"Points": [{"interpolation": 2, "co": {"X": 1, "Y": 0}}]}, "scale_y": {"Points": [{"interpolation": 2, "co": {"X": 1, "Y": 1}}]}, "perspective_c4_x": {"Points": [{"interpolation": 2, "co": {"X": 1, "Y": -1}}]}, "shear_x": {"Points": [{"interpolation": 2, "co": {"X": 1, "Y": 0}}]}, "channel_filter": {"Points": [{"interpolation": 2, "co": {"X": 1, "Y": -1}}]}}, {"time": {"Points": [{"interpolation": 2, "co": {"X": 1, "Y": 1}}]}, "display": 0, "perspective_c2_x": {"Points": [{"interpolation": 2, "co": {"X": 1, "Y": -1}}]}, "duration": 6.949999809265137, "end": 6.949999809265137, "scale_x": {"Points": [{"interpolation": 2, "co": {"X": 1, "Y": 1}}]}, "effects": [], "has_audio": {"Points": [{"interpolation": 2, "co": {"X": 1, "Y": -1}}]}, "scale": 1, "perspective_c3_y": {"Points": [{"interpolation": 2, "co": {"X": 1, "Y": -1}}]}, "alpha": {"Points": [{"interpolation": 2, "co": {"X": 1, "Y": 1}}]}, "start": 0, "wave_color": {"blue": {"Points": [{"interpolation": 0, "handle_type": 0, "co": {"X": 1, "Y": 255}, "handle_left": {"X": 0.5, "Y": 1}, "handle_right": {"X": 0.5, "Y": 0}}]}, "green": {"Points": [{"interpolation": 0, "handle_type": 0, "co": {"X": 1, "Y": 123}, "handle_left": {"X": 0.5, "Y": 1}, "handle_right": {"X": 0.5, "Y": 0}}]}, "red": {"Points": [{"interpolation": 0, "handle_type": 0, "co": {"X": 1, "Y": 0}, "handle_left": {"X": 0.5, "Y": 1}, "handle_right": {"X": 0.5, "Y": 0}}]}, "alpha": {"Points": [{"interpolation": 0, "handle_type": 0, "co": {"X": 1, "Y": 255}, "handle_left": {"X": 0.5, "Y": 1}, "handle_right": {"X": 0.5, "Y": 0}}]}}, "crop_x": {"Points": [{"interpolation": 2, "co": {"X": 1, "Y": 0}}]}, "image": "/home/avishai/.openshot_qt/thumbnail/NNI1FVOBKE.png", "layer": 0, "perspective_c1_x": {"Points": [{"interpolation": 2, "co": {"X": 1, "Y": -1}}]}, "position": 116.35833326975506, "rotation": {"Points": [{"interpolation": 2, "co": {"X": 1, "Y": 0}}]}, "mixing": 0, "waveform": false, "crop_width": {"Points": [{"interpolation": 2, "co": {"X": 1, "Y": -1}}]}, "crop_height": {"Points": [{"interpolation": 2, "co": {"X": 1, "Y": -1}}]}, "crop_y": {"Points": [{"interpolation": 2, "co": {"X": 1, "Y": 0}}]}, "volume": {"Points": [{"interpolation": 2, "co": {"X": 1, "Y": 1}}]}, "channel_mapping": {"Points": [{"interpolation": 2, "co": {"X": 1, "Y": -1}}]}, "title": "trajs_fc_3.avi", "has_video": {"Points": [{"interpolation": 2, "co": {"X": 1, "Y": -1}}]}, "perspective_c4_y": {"Points": [{"interpolation": 2, "co": {"X": 1, "Y": -1}}]}, "perspective_c2_y": {"Points": [{"interpolation": 2, "co": {"X": 1, "Y": -1}}]}, "reader": {"type": "FFmpegReader", "height": 1002, "video_timebase": {"num": 1, "den": 60}, "audio_stream_index": -1, "video_length": "417", "interlaced_frame": false, "duration": 6.949999809265137, "channels": 0, "sample_rate": 0, "video_bit_rate": 79792890, "channel_layout": 4, "path": "/home/avishai/Documents/workspace/adaptive_hand_model/matlab/video/trajs_fc_3.avi", "metadata": {}, "audio_bit_rate": 0, "has_video": true, "has_audio": false, "pixel_format": 12, "acodec": "", "video_stream_index": 0, "display_ratio": {"num": 2, "den": 1}, "file_size": "69320074", "fps": {"num": 60, "den": 1}, "width": 2004, "top_field_first": true, "audio_timebase": {"num": 1, "den": 1}, "pixel_ratio": {"num": 1, "den": 1}, "vcodec": "mjpeg", "has_single_image": false}, "perspective_c3_x": {"Points": [{"interpolation": 2, "co": {"X": 1, "Y": -1}}]}, "gravity": 4, "id": "O2H2SXKGGU", "anchor": 0, "location_x": {"Points": [{"interpolation": 2, "co": {"X": 1, "Y": 0}}]}, "perspective_c1_y": {"Points": [{"interpolation": 2, "co": {"X": 1, "Y": -1}}]}, "file_id": "NNI1FVOBKE", "shear_y": {"Points": [{"interpolation": 2, "co": {"X": 1, "Y": 0}}]}, "location_y": {"Points": [{"interpolation": 2, "co": {"X": 1, "Y": 0}}]}, "scale_y": {"Points": [{"interpolation": 2, "co": {"X": 1, "Y": 1}}]}, "perspective_c4_x": {"Points": [{"interpolation": 2, "co": {"X": 1, "Y": -1}}]}, "shear_x": {"Points": [{"interpolation": 2, "co": {"X": 1, "Y": 0}}]}, "channel_filter": {"Points": [{"interpolation": 2, "co": {"X": 1, "Y": -1}}]}}, {"time": {"Points": [{"interpolation": 2, "co": {"X": 1, "Y": 1}}]}, "display": 0, "perspective_c2_x": {"Points": [{"interpolation": 2, "co": {"X": 1, "Y": -1}}]}, "duration": 86400.0, "end": 10, "scale_x": {"Points": [{"interpolation": 2, "co": {"X": 1, "Y": 1}}]}, "effects": [], "has_audio": {"Points": [{"interpolation": 2, "co": {"X": 1, "Y": -1}}]}, "scale": 1, "perspective_c3_y": {"Points": [{"interpolation": 2, "co": {"X": 1, "Y": -1}}]}, "alpha": {"Points": [{"interpolation": 2, "co": {"X": 1, "Y": 1}}]}, "start": 0, "wave_color": {"blue": {"Points": [{"interpolation": 0, "handle_type": 0, "co": {"X": 1, "Y": 255}, "handle_left": {"X": 0.5, "Y": 1}, "handle_right": {"X": 0.5, "Y": 0}}]}, "green": {"Points": [{"interpolation": 0, "handle_type": 0, "co": {"X": 1, "Y": 123}, "handle_left": {"X": 0.5, "Y": 1}, "handle_right": {"X": 0.5, "Y": 0}}]}, "red": {"Points": [{"interpolation": 0, "handle_type": 0, "co": {"X": 1, "Y": 0}, "handle_left": {"X": 0.5, "Y": 1}, "handle_right": {"X": 0.5, "Y": 0}}]}, "alpha": {"Points": [{"interpolation": 0, "handle_type": 0, "co": {"X": 1, "Y": 255}, "handle_left": {"X": 0.5, "Y": 1}, "handle_right": {"X": 0.5, "Y": 0}}]}}, "crop_x": {"Points": [{"interpolation": 2, "co": {"X": 1, "Y": 0}}]}, "image": "/home/avishai/.openshot_qt/thumbnail/700EU1BLAQ.png", "layer": 0, "perspective_c1_x": {"Points": [{"interpolation": 2, "co": {"X": 1, "Y": -1}}]}, "position": 93.44166647593183, "rotation": {"Points": [{"interpolation": 2, "co": {"X": 1, "Y": 0}}]}, "mixing": 0, "waveform": false, "crop_width": {"Points": [{"interpolation": 2, "co": {"X": 1, "Y": -1}}]}, "crop_height": {"Points": [{"interpolation": 2, "co": {"X": 1, "Y": -1}}]}, "crop_y": {"Points": [{"interpolation": 2, "co": {"X": 1, "Y": 0}}]}, "volume": {"Points": [{"interpolation": 2, "co": {"X": 1, "Y": 1}}]}, "channel_mapping": {"Points": [{"interpolation": 2, "co": {"X": 1, "Y": -1}}]}, "title": "opening8.png", "has_video": {"Points": [{"interpolation": 2, "co": {"X": 1, "Y": -1}}]}, "perspective_c4_y": {"Points": [{"interpolation": 2, "co": {"X": 1, "Y": -1}}]}, "perspective_c2_y": {"Points": [{"interpolation": 2, "co": {"X": 1, "Y": -1}}]}, "reader": {"type": "QtImageReader", "height": 720, "video_timebase": {"num": 1, "den": 30}, "audio_stream_index": -1, "video_length": "2592000", "interlaced_frame": false, "duration": 86400.0, "channels": 0, "sample_rate": 0, "video_bit_rate": 0, "channel_layout": 4, "path": "/home/avishai/Documents/workspace/adaptive_hand_model/matlab/video/slides/opening8.png", "metadata": {}, "audio_bit_rate": 0, "has_video": true, "has_audio": false, "pixel_format": -1, "acodec": "", "video_stream_index": -1, "display_ratio": {"num": 4, "den": 3}, "file_size": "2764800", "fps": {"num": 30, "den": 1}, "width": 960, "top_field_first": true, "audio_timebase": {"num": 1, "den": 1}, "pixel_ratio": {"num": 1, "den": 1}, "vcodec": "", "has_single_image": true}, "perspective_c3_x": {"Points": [{"interpolation": 2, "co": {"X": 1, "Y": -1}}]}, "gravity": 4, "id": "891QVU4B22", "anchor": 0, "location_x": {"Points": [{"interpolation": 2, "co": {"X": 1, "Y": 0}}]}, "perspective_c1_y": {"Points": [{"interpolation": 2, "co": {"X": 1, "Y": -1}}]}, "file_id": "700EU1BLAQ", "shear_y": {"Points": [{"interpolation": 2, "co": {"X": 1, "Y": 0}}]}, "location_y": {"Points": [{"interpolation": 2, "co": {"X": 1, "Y": 0}}]}, "scale_y": {"Points": [{"interpolation": 2, "co": {"X": 1, "Y": 1}}]}, "perspective_c4_x": {"Points": [{"interpolation": 2, "co": {"X": 1, "Y": -1}}]}, "shear_x": {"Points": [{"interpolation": 2, "co": {"X": 1, "Y": 0}}]}, "channel_filter": {"Points": [{"interpolation": 2, "co": {"X": 1, "Y": -1}}]}}, {"time": {"Points": [{"interpolation": 2, "co": {"X": 1, "Y": 1}}]}, "display": 0, "perspective_c2_x": {"Points": [{"interpolation": 2, "co": {"X": 1, "Y": -1}}]}, "duration": 86400.0, "end": 10, "scale_x": {"Points": [{"interpolation": 2, "co": {"X": 1, "Y": 1}}]}, "effects": [], "has_audio": {"Points": [{"interpolation": 2, "co": {"X": 1, "Y": -1}}]}, "scale": 1, "perspective_c3_y": {"Points": [{"interpolation": 2, "co": {"X": 1, "Y": -1}}]}, "alpha": {"Points": [{"interpolation": 2, "co": {"X": 1, "Y": 1}}]}, "start": 0, "wave_color": {"blue": {"Points": [{"interpolation": 0, "handle_type": 0, "co": {"X": 1, "Y": 255}, "handle_left": {"X": 0.5, "Y": 1}, "handle_right": {"X": 0.5, "Y": 0}}]}, "green": {"Points": [{"interpolation": 0, "handle_type": 0, "co": {"X": 1, "Y": 123}, "handle_left": {"X": 0.5, "Y": 1}, "handle_right": {"X": 0.5, "Y": 0}}]}, "red": {"Points": [{"interpolation": 0, "handle_type": 0, "co": {"X": 1, "Y": 0}, "handle_left": {"X": 0.5, "Y": 1}, "handle_right": {"X": 0.5, "Y": 0}}]}, "alpha": {"Points": [{"interpolation": 0, "handle_type": 0, "co": {"X": 1, "Y": 255}, "handle_left": {"X": 0.5, "Y": 1}, "handle_right": {"X": 0.5, "Y": 0}}]}}, "crop_x": {"Points": [{"interpolation": 2, "co": {"X": 1, "Y": 0}}]}, "image": "/home/avishai/.openshot_qt/thumbnail/0S38URN00T.png", "layer": 0, "perspective_c1_x": {"Points": [{"interpolation": 2, "co": {"X": 1, "Y": -1}}]}, "position": 61.15833333333334, "rotation": {"Points": [{"interpolation": 2, "co": {"X": 1, "Y": 0}}]}, "mixing": 0, "waveform": false, "crop_width": {"Points": [{"interpolation": 2, "co": {"X": 1, "Y": -1}}]}, "crop_height": {"Points": [{"interpolation": 2, "co": {"X": 1, "Y": -1}}]}, "crop_y": {"Points": [{"interpolation": 2, "co": {"X": 1, "Y": 0}}]}, "volume": {"Points": [{"interpolation": 2, "co": {"X": 1, "Y": 1}}]}, "channel_mapping": {"Points": [{"interpolation": 2, "co": {"X": 1, "Y": -1}}]}, "title": "opening5.png", "has_video": {"Points": [{"interpolation": 2, "co": {"X": 1, "Y": -1}}]}, "perspective_c4_y": {"Points": [{"interpolation": 2, "co": {"X": 1, "Y": -1}}]}, "perspective_c2_y": {"Points": [{"interpolation": 2, "co": {"X": 1, "Y": -1}}]}, "reader": {"type": "QtImageReader", "height": 720, "video_timebase": {"num": 1, "den": 30}, "audio_stream_index": -1, "video_length": "2592000", "interlaced_frame": false, "duration": 86400.0, "channels": 0, "sample_rate": 0, "video_bit_rate": 0, "channel_layout": 4, "path": "/home/avishai/Documents/workspace/adaptive_hand_model/matlab/video/slides/opening5.png", "metadata": {}, "audio_bit_rate": 0, "has_video": true, "has_audio": false, "pixel_format": -1, "acodec": "", "video_stream_index": -1, "display_ratio": {"num": 4, "den": 3}, "file_size": "2764800", "fps": {"num": 30, "den": 1}, "width": 960, "top_field_first": true, "audio_timebase": {"num": 1, "den": 1}, "pixel_ratio": {"num": 1, "den": 1}, "vcodec": "", "has_single_image": true}, "perspective_c3_x": {"Points": [{"interpolation": 2, "co": {"X": 1, "Y": -1}}]}, "gravity": 4, "id": "Y2Z73X5B3B", "anchor": 0, "location_x": {"Points": [{"interpolation": 2, "co": {"X": 1, "Y": 0}}]}, "perspective_c1_y": {"Points": [{"interpolation": 2, "co": {"X": 1, "Y": -1}}]}, "file_id": "0S38URN00T", "shear_y": {"Points": [{"interpolation": 2, "co": {"X": 1, "Y": 0}}]}, "location_y": {"Points": [{"interpolation": 2, "co": {"X": 1, "Y": 0}}]}, "scale_y": {"Points": [{"interpolation": 2, "co": {"X": 1, "Y": 1}}]}, "perspective_c4_x": {"Points": [{"interpolation": 2, "co": {"X": 1, "Y": -1}}]}, "shear_x": {"Points": [{"interpolation": 2, "co": {"X": 1, "Y": 0}}]}, "channel_filter": {"Points": [{"interpolation": 2, "co": {"X": 1, "Y": -1}}]}}, {"time": {"Points": [{"interpolation": 2, "co": {"X": 1, "Y": 1}}]}, "display": 0, "perspective_c2_x": {"Points": [{"interpolation": 2, "co": {"X": 1, "Y": -1}}]}, "duration": 86400.0, "end": 10, "scale_x": {"Points": [{"interpolation": 2, "co": {"X": 1, "Y": 1}}]}, "effects": [], "has_audio": {"Points": [{"interpolation": 2, "co": {"X": 1, "Y": -1}}]}, "scale": 1, "perspective_c3_y": {"Points": [{"interpolation": 2, "co": {"X": 1, "Y": -1}}]}, "alpha": {"Points": [{"interpolation": 2, "co": {"X": 1, "Y": 1}}]}, "start": 0, "wave_color": {"blue": {"Points": [{"interpolation": 0, "handle_type": 0, "co": {"X": 1, "Y": 255}, "handle_left": {"X": 0.5, "Y": 1}, "handle_right": {"X": 0.5, "Y": 0}}]}, "green": {"Points": [{"interpolation": 0, "handle_type": 0, "co": {"X": 1, "Y": 123}, "handle_left": {"X": 0.5, "Y": 1}, "handle_right": {"X": 0.5, "Y": 0}}]}, "red": {"Points": [{"interpolation": 0, "handle_type": 0, "co": {"X": 1, "Y": 0}, "handle_left": {"X": 0.5, "Y": 1}, "handle_right": {"X": 0.5, "Y": 0}}]}, "alpha": {"Points": [{"interpolation": 0, "handle_type": 0, "co": {"X": 1, "Y": 255}, "handle_left": {"X": 0.5, "Y": 1}, "handle_right": {"X": 0.5, "Y": 0}}]}}, "crop_x": {"Points": [{"interpolation": 2, "co": {"X": 1, "Y": 0}}]}, "image": "/home/avishai/.openshot_qt/thumbnail/H8ZKH85PV1.png", "layer": 0, "perspective_c1_x": {"Points": [{"interpolation": 2, "co": {"X": 1, "Y": -1}}]}, "position": 149.23999999999998, "rotation": {"Points": [{"interpolation": 2, "co": {"X": 1, "Y": 0}}]}, "mixing": 0, "waveform": false, "crop_width": {"Points": [{"interpolation": 2, "co": {"X": 1, "Y": -1}}]}, "crop_height": {"Points": [{"interpolation": 2, "co": {"X": 1, "Y": -1}}]}, "crop_y": {"Points": [{"interpolation": 2, "co": {"X": 1, "Y": 0}}]}, "volume": {"Points": [{"interpolation": 2, "co": {"X": 1, "Y": 1}}]}, "channel_mapping": {"Points": [{"interpolation": 2, "co": {"X": 1, "Y": -1}}]}, "title": "opening_cl.png", "has_video": {"Points": [{"interpolation": 2, "co": {"X": 1, "Y": -1}}]}, "perspective_c4_y": {"Points": [{"interpolation": 2, "co": {"X": 1, "Y": -1}}]}, "perspective_c2_y": {"Points": [{"interpolation": 2, "co": {"X": 1, "Y": -1}}]}, "reader": {"type": "QtImageReader", "height": 720, "video_timebase": {"num": 1, "den": 30}, "audio_stream_index": -1, "video_length": "2592000", "interlaced_frame": false, "duration": 86400.0, "channels": 0, "sample_rate": 0, "video_bit_rate": 0, "channel_layout": 4, "path": "/home/avishai/Documents/workspace/adaptive_hand_model/matlab/video/slides/opening_cl.png", "metadata": {}, "audio_bit_rate": 0, "has_video": true, "has_audio": false, "pixel_format": -1, "acodec": "", "video_stream_index": -1, "display_ratio": {"num": 4, "den": 3}, "file_size": "2764800", "fps": {"num": 30, "den": 1}, "width": 960, "top_field_first": true, "audio_timebase": {"num": 1, "den": 1}, "pixel_ratio": {"num": 1, "den": 1}, "vcodec": "", "has_single_image": true}, "perspective_c3_x": {"Points": [{"interpolation": 2, "co": {"X": 1, "Y": -1}}]}, "gravity": 4, "id": "K90F5T2784", "anchor": 0, "location_x": {"Points": [{"interpolation": 2, "co": {"X": 1, "Y": 0}}]}, "perspective_c1_y": {"Points": [{"interpolation": 2, "co": {"X": 1, "Y": -1}}]}, "file_id": "H8ZKH85PV1", "shear_y": {"Points": [{"interpolation": 2, "co": {"X": 1, "Y": 0}}]}, "location_y": {"Points": [{"interpolation": 2, "co": {"X": 1, "Y": 0}}]}, "scale_y": {"Points": [{"interpolation": 2, "co": {"X": 1, "Y": 1}}]}, "perspective_c4_x": {"Points": [{"interpolation": 2, "co": {"X": 1, "Y": -1}}]}, "shear_x": {"Points": [{"interpolation": 2, "co": {"X": 1, "Y": 0}}]}, "channel_filter": {"Points": [{"interpolation": 2, "co": {"X": 1, "Y": -1}}]}}], "key": ["clips"], "partial": false}, {"value": {"position": 159.23999999999998, "image": "/home/avishai/.openshot_qt/thumbnail/YB9E3Q8R7H.png", "layer": 0, "start": 0, "id": "J7OI1V4JOW", "end": 10.866666793823242}, "type": "update", "old_values": {"time": {"Points": [{"interpolation": 2, "co": {"X": 1, "Y": 1}}]}, "display": 0, "perspective_c2_x": {"Points": [{"interpolation": 2, "co": {"X": 1, "Y": -1}}]}, "duration": 10.866666793823242, "end": 10.866666793823242, "scale_x": {"Points": [{"interpolation": 2, "co": {"X": 1, "Y": 1}}]}, "effects": [], "has_audio": {"Points": [{"interpolation": 2, "co": {"X": 1, "Y": -1}}]}, "scale": 1, "perspective_c3_y": {"Points": [{"interpolation": 2, "co": {"X": 1, "Y": -1}}]}, "alpha": {"Points": [{"interpolation": 2, "co": {"X": 1, "Y": 1}}]}, "start": 0, "wave_color": {"blue": {"Points": [{"interpolation": 0, "handle_type": 0, "co": {"X": 1, "Y": 255}, "handle_left": {"X": 0.5, "Y": 1}, "handle_right": {"X": 0.5, "Y": 0}}]}, "green": {"Points": [{"interpolation": 0, "handle_type": 0, "co": {"X": 1, "Y": 123}, "handle_left": {"X": 0.5, "Y": 1}, "handle_right": {"X": 0.5, "Y": 0}}]}, "red": {"Points": [{"interpolation": 0, "handle_type": 0, "co": {"X": 1, "Y": 0}, "handle_left": {"X": 0.5, "Y": 1}, "handle_right": {"X": 0.5, "Y": 0}}]}, "alpha": {"Points": [{"interpolation": 0, "handle_type": 0, "co": {"X": 1, "Y": 255}, "handle_left": {"X": 0.5, "Y": 1}, "handle_right": {"X": 0.5, "Y": 0}}]}}, "crop_x": {"Points": [{"interpolation": 2, "co": {"X": 1, "Y": 0}}]}, "image": "/home/avishai/.openshot_qt/thumbnail/YB9E3Q8R7H.png", "layer": 1, "perspective_c1_x": {"Points": [{"interpolation": 2, "co": {"X": 1, "Y": -1}}]}, "position": 151.2, "rotation": {"Points": [{"interpolation": 2, "co": {"X": 1, "Y": 0}}]}, "mixing": 0, "waveform": false, "crop_width": {"Points": [{"interpolation": 2, "co": {"X": 1, "Y": -1}}]}, "crop_height": {"Points": [{"interpolation": 2, "co": {"X": 1, "Y": -1}}]}, "crop_y": {"Points": [{"interpolation": 2, "co": {"X": 1, "Y": 0}}]}, "volume": {"Points": [{"interpolation": 2, "co": {"X": 1, "Y": 1}}]}, "channel_mapping": {"Points": [{"interpolation": 2, "co": {"X": 1, "Y": -1}}]}, "title": "rec_04.avi", "has_video": {"Points": [{"interpolation": 2, "co": {"X": 1, "Y": -1}}]}, "perspective_c4_y": {"Points": [{"interpolation": 2, "co": {"X": 1, "Y": -1}}]}, "perspective_c2_y": {"Points": [{"interpolation": 2, "co": {"X": 1, "Y": -1}}]}, "reader": {"type": "FFmpegReader", "height": 331, "video_timebase": {"num": 1, "den": 60}, "audio_stream_index": -1, "video_length": "652", "interlaced_frame": false, "duration": 10.866666793823242, "channels": 0, "sample_rate": 0, "video_bit_rate": 17789133, "channel_layout": 4, "path": "/home/avishai/Documents/workspace/adaptive_hand_model/matlab/video/rec_04.avi", "metadata": {}, "audio_bit_rate": 0, "has_video": true, "has_audio": false, "pixel_format": 12, "acodec": "", "video_stream_index": 0, "display_ratio": {"num": 822, "den": 331}, "file_size": "24163574", "fps": {"num": 60, "den": 1}, "width": 822, "top_field_first": true, "audio_timebase": {"num": 1, "den": 1}, "pixel_ratio": {"num": 1, "den": 1}, "vcodec": "mjpeg", "has_single_image": false}, "perspective_c3_x": {"Points": [{"interpolation": 2, "co": {"X": 1, "Y": -1}}]}, "gravity": 4, "id": "J7OI1V4JOW", "anchor": 0, "location_x": {"Points": [{"interpolation": 2, "co": {"X": 1, "Y": 0}}]}, "perspective_c1_y": {"Points": [{"interpolation": 2, "co": {"X": 1, "Y": -1}}]}, "file_id": "YB9E3Q8R7H", "shear_y": {"Points": [{"interpolation": 2, "co": {"X": 1, "Y": 0}}]}, "location_y": {"Points": [{"interpolation": 2, "co": {"X": 1, "Y": 0}}]}, "scale_y": {"Points": [{"interpolation": 2, "co": {"X": 1, "Y": 1}}]}, "perspective_c4_x": {"Points": [{"interpolation": 2, "co": {"X": 1, "Y": -1}}]}, "shear_x": {"Points": [{"interpolation": 2, "co": {"X": 1, "Y": 0}}]}, "channel_filter": {"Points": [{"interpolation": 2, "co": {"X": 1, "Y": -1}}]}}, "key": ["clips", {"id": "J7OI1V4JOW"}], "partial": false}, {"value": {"position": 149.33333333333334, "image": "/home/avishai/.openshot_qt/thumbnail/H8ZKH85PV1.png", "layer": 0, "start": 0, "id": "K90F5T2784", "end": 10}, "type": "update", "old_values": {"time": {"Points": [{"interpolation": 2, "co": {"X": 1, "Y": 1}}]}, "display": 0, "perspective_c2_x": {"Points": [{"interpolation": 2, "co": {"X": 1, "Y": -1}}]}, "duration": 86400.0, "end": 10, "scale_x": {"Points": [{"interpolation": 2, "co": {"X": 1, "Y": 1}}]}, "effects": [], "has_audio": {"Points": [{"interpolation": 2, "co": {"X": 1, "Y": -1}}]}, "scale": 1, "perspective_c3_y": {"Points": [{"interpolation": 2, "co": {"X": 1, "Y": -1}}]}, "alpha": {"Points": [{"interpolation": 2, "co": {"X": 1, "Y": 1}}]}, "start": 0, "wave_color": {"blue": {"Points": [{"interpolation": 0, "handle_type": 0, "co": {"X": 1, "Y": 255}, "handle_left": {"X": 0.5, "Y": 1}, "handle_right": {"X": 0.5, "Y": 0}}]}, "green": {"Points": [{"interpolation": 0, "handle_type": 0, "co": {"X": 1, "Y": 123}, "handle_left": {"X": 0.5, "Y": 1}, "handle_right": {"X": 0.5, "Y": 0}}]}, "red": {"Points": [{"interpolation": 0, "handle_type": 0, "co": {"X": 1, "Y": 0}, "handle_left": {"X": 0.5, "Y": 1}, "handle_right": {"X": 0.5, "Y": 0}}]}, "alpha": {"Points": [{"interpolation": 0, "handle_type": 0, "co": {"X": 1, "Y": 255}, "handle_left": {"X": 0.5, "Y": 1}, "handle_right": {"X": 0.5, "Y": 0}}]}}, "crop_x": {"Points": [{"interpolation": 2, "co": {"X": 1, "Y": 0}}]}, "image": "/home/avishai/.openshot_qt/thumbnail/H8ZKH85PV1.png", "layer": 0, "perspective_c1_x": {"Points": [{"interpolation": 2, "co": {"X": 1, "Y": -1}}]}, "position": 149.23999999999998, "rotation": {"Points": [{"interpolation": 2, "co": {"X": 1, "Y": 0}}]}, "mixing": 0, "waveform": false, "crop_width": {"Points": [{"interpolation": 2, "co": {"X": 1, "Y": -1}}]}, "crop_height": {"Points": [{"interpolation": 2, "co": {"X": 1, "Y": -1}}]}, "crop_y": {"Points": [{"interpolation": 2, "co": {"X": 1, "Y": 0}}]}, "volume": {"Points": [{"interpolation": 2, "co": {"X": 1, "Y": 1}}]}, "channel_mapping": {"Points": [{"interpolation": 2, "co": {"X": 1, "Y": -1}}]}, "title": "opening_cl.png", "has_video": {"Points": [{"interpolation": 2, "co": {"X": 1, "Y": -1}}]}, "perspective_c4_y": {"Points": [{"interpolation": 2, "co": {"X": 1, "Y": -1}}]}, "perspective_c2_y": {"Points": [{"interpolation": 2, "co": {"X": 1, "Y": -1}}]}, "reader": {"type": "QtImageReader", "height": 720, "video_timebase": {"num": 1, "den": 30}, "audio_stream_index": -1, "video_length": "2592000", "interlaced_frame": false, "duration": 86400.0, "channels": 0, "sample_rate": 0, "video_bit_rate": 0, "channel_layout": 4, "path": "/home/avishai/Documents/workspace/adaptive_hand_model/matlab/video/slides/opening_cl.png", "metadata": {}, "audio_bit_rate": 0, "has_video": true, "has_audio": false, "pixel_format": -1, "acodec": "", "video_stream_index": -1, "display_ratio": {"num": 4, "den": 3}, "file_size": "2764800", "fps": {"num": 30, "den": 1}, "width": 960, "top_field_first": true, "audio_timebase": {"num": 1, "den": 1}, "pixel_ratio": {"num": 1, "den": 1}, "vcodec": "", "has_single_image": true}, "perspective_c3_x": {"Points": [{"interpolation": 2, "co": {"X": 1, "Y": -1}}]}, "gravity": 4, "id": "K90F5T2784", "anchor": 0, "location_x": {"Points": [{"interpolation": 2, "co": {"X": 1, "Y": 0}}]}, "perspective_c1_y": {"Points": [{"interpolation": 2, "co": {"X": 1, "Y": -1}}]}, "file_id": "H8ZKH85PV1", "shear_y": {"Points": [{"interpolation": 2, "co": {"X": 1, "Y": 0}}]}, "location_y": {"Points": [{"interpolation": 2, "co": {"X": 1, "Y": 0}}]}, "scale_y": {"Points": [{"interpolation": 2, "co": {"X": 1, "Y": 1}}]}, "perspective_c4_x": {"Points": [{"interpolation": 2, "co": {"X": 1, "Y": -1}}]}, "shear_x": {"Points": [{"interpolation": 2, "co": {"X": 1, "Y": 0}}]}, "channel_filter": {"Points": [{"interpolation": 2, "co": {"X": 1, "Y": -1}}]}}, "key": ["clips", {"id": "K90F5T2784"}], "partial": false}, {"value": {"position": 159.33333333333334, "image": "/home/avishai/.openshot_qt/thumbnail/YB9E3Q8R7H.png", "layer": 0, "start": 0, "id": "J7OI1V4JOW", "end": 10.866666793823242}, "type": "update", "old_values": {"time": {"Points": [{"interpolation": 2, "co": {"X": 1, "Y": 1}}]}, "display": 0, "perspective_c2_x": {"Points": [{"interpolation": 2, "co": {"X": 1, "Y": -1}}]}, "duration": 10.866666793823242, "end": 10.866666793823242, "scale_x": {"Points": [{"interpolation": 2, "co": {"X": 1, "Y": 1}}]}, "effects": [], "has_audio": {"Points": [{"interpolation": 2, "co": {"X": 1, "Y": -1}}]}, "scale": 1, "perspective_c3_y": {"Points": [{"interpolation": 2, "co": {"X": 1, "Y": -1}}]}, "alpha": {"Points": [{"interpolation": 2, "co": {"X": 1, "Y": 1}}]}, "start": 0, "wave_color": {"blue": {"Points": [{"interpolation": 0, "handle_type": 0, "co": {"X": 1, "Y": 255}, "handle_left": {"X": 0.5, "Y": 1}, "handle_right": {"X": 0.5, "Y": 0}}]}, "green": {"Points": [{"interpolation": 0, "handle_type": 0, "co": {"X": 1, "Y": 123}, "handle_left": {"X": 0.5, "Y": 1}, "handle_right": {"X": 0.5, "Y": 0}}]}, "red": {"Points": [{"interpolation": 0, "handle_type": 0, "co": {"X": 1, "Y": 0}, "handle_left": {"X": 0.5, "Y": 1}, "handle_right": {"X": 0.5, "Y": 0}}]}, "alpha": {"Points": [{"interpolation": 0, "handle_type": 0, "co": {"X": 1, "Y": 255}, "handle_left": {"X": 0.5, "Y": 1}, "handle_right": {"X": 0.5, "Y": 0}}]}}, "crop_x": {"Points": [{"interpolation": 2, "co": {"X": 1, "Y": 0}}]}, "image": "/home/avishai/.openshot_qt/thumbnail/YB9E3Q8R7H.png", "layer": 0, "perspective_c1_x": {"Points": [{"interpolation": 2, "co": {"X": 1, "Y": -1}}]}, "position": 159.23999999999998, "rotation": {"Points": [{"interpolation": 2, "co": {"X": 1, "Y": 0}}]}, "mixing": 0, "waveform": false, "crop_width": {"Points": [{"interpolation": 2, "co": {"X": 1, "Y": -1}}]}, "crop_height": {"Points": [{"interpolation": 2, "co": {"X": 1, "Y": -1}}]}, "crop_y": {"Points": [{"interpolation": 2, "co": {"X": 1, "Y": 0}}]}, "volume": {"Points": [{"interpolation": 2, "co": {"X": 1, "Y": 1}}]}, "channel_mapping": {"Points": [{"interpolation": 2, "co": {"X": 1, "Y": -1}}]}, "title": "rec_04.avi", "has_video": {"Points": [{"interpolation": 2, "co": {"X": 1, "Y": -1}}]}, "perspective_c4_y": {"Points": [{"interpolation": 2, "co": {"X": 1, "Y": -1}}]}, "perspective_c2_y": {"Points": [{"interpolation": 2, "co": {"X": 1, "Y": -1}}]}, "reader": {"type": "FFmpegReader", "height": 331, "video_timebase": {"num": 1, "den": 60}, "audio_stream_index": -1, "video_length": "652", "interlaced_frame": false, "duration": 10.866666793823242, "channels": 0, "sample_rate": 0, "video_bit_rate": 17789133, "channel_layout": 4, "path": "/home/avishai/Documents/workspace/adaptive_hand_model/matlab/video/rec_04.avi", "metadata": {}, "audio_bit_rate": 0, "has_video": true, "has_audio": false, "pixel_format": 12, "acodec": "", "video_stream_index": 0, "display_ratio": {"num": 822, "den": 331}, "file_size": "24163574", "fps": {"num": 60, "den": 1}, "width": 822, "top_field_first": true, "audio_timebase": {"num": 1, "den": 1}, "pixel_ratio": {"num": 1, "den": 1}, "vcodec": "mjpeg", "has_single_image": false}, "perspective_c3_x": {"Points": [{"interpolation": 2, "co": {"X": 1, "Y": -1}}]}, "gravity": 4, "id": "J7OI1V4JOW", "anchor": 0, "location_x": {"Points": [{"interpolation": 2, "co": {"X": 1, "Y": 0}}]}, "perspective_c1_y": {"Points": [{"interpolation": 2, "co": {"X": 1, "Y": -1}}]}, "file_id": "YB9E3Q8R7H", "shear_y": {"Points": [{"interpolation": 2, "co": {"X": 1, "Y": 0}}]}, "location_y": {"Points": [{"interpolation": 2, "co": {"X": 1, "Y": 0}}]}, "scale_y": {"Points": [{"interpolation": 2, "co": {"X": 1, "Y": 1}}]}, "perspective_c4_x": {"Points": [{"interpolation": 2, "co": {"X": 1, "Y": -1}}]}, "shear_x": {"Points": [{"interpolation": 2, "co": {"X": 1, "Y": 0}}]}, "channel_filter": {"Points": [{"interpolation": 2, "co": {"X": 1, "Y": -1}}]}}, "key": ["clips", {"id": "J7OI1V4JOW"}], "partial": false}], "redo": []}, "clips": [{"time": {"Points": [{"interpolation": 2, "co": {"X": 1, "Y": 1}}]}, "display": 0, "perspective_c2_x": {"Points": [{"interpolation": 2, "co": {"X": 1, "Y": -1}}]}, "duration": 10.866666793823242, "end": 10.875, "scale_x": {"Points": [{"interpolation": 2, "co": {"X": 1, "Y": 1}}]}, "effects": [], "has_audio": {"Points": [{"interpolation": 2, "co": {"X": 1, "Y": -1}}]}, "scale": 1, "perspective_c3_y": {"Points": [{"interpolation": 2, "co": {"X": 1, "Y": -1}}]}, "alpha": {"Points": [{"interpolation": 2, "co": {"X": 1, "Y": 1}}]}, "start": 0, "wave_color": {"blue": {"Points": [{"interpolation": 0, "handle_type": 0, "handle_right": {"X": 0.5, "Y": 0}, "handle_left": {"X": 0.5, "Y": 1}, "co": {"X": 1, "Y": 255}}]}, "red": {"Points": [{"interpolation": 0, "handle_type": 0, "handle_right": {"X": 0.5, "Y": 0}, "handle_left": {"X": 0.5, "Y": 1}, "co": {"X": 1, "Y": 0}}]}, "green": {"Points": [{"interpolation": 0, "handle_type": 0, "handle_right": {"X": 0.5, "Y": 0}, "handle_left": {"X": 0.5, "Y": 1}, "co": {"X": 1, "Y": 123}}]}, "alpha": {"Points": [{"interpolation": 0, "handle_type": 0, "handle_right": {"X": 0.5, "Y": 0}, "handle_left": {"X": 0.5, "Y": 1}, "co": {"X": 1, "Y": 255}}]}}, "crop_x": {"Points": [{"interpolation": 2, "co": {"X": 1, "Y": 0}}]}, "image": "../../../../../.openshot_qt/thumbnail/VLL3NDOT0B.png", "layer": 0, "perspective_c1_x": {"Points": [{"interpolation": 2, "co": {"X": 1, "Y": -1}}]}, "channel_filter": {"Points": [{"interpolation": 2, "co": {"X": 1, "Y": -1}}]}, "rotation": {"Points": [{"interpolation": 2, "co": {"X": 1, "Y": 0}}]}, "gravity": 4, "waveform": false, "crop_width": {"Points": [{"interpolation": 2, "co": {"X": 1, "Y": -1}}]}, "crop_height": {"Points": [{"interpolation": 2, "co": {"X": 1, "Y": -1}}]}, "crop_y": {"Points": [{"interpolation": 2, "co": {"X": 1, "Y": 0}}]}, "volume": {"Points": [{"interpolation": 2, "co": {"X": 1, "Y": 1}}]}, "shear_y": {"Points": [{"interpolation": 2, "co": {"X": 1, "Y": 0}}]}, "channel_mapping": {"Points": [{"interpolation": 2, "co": {"X": 1, "Y": -1}}]}, "title": "rec.avi", "has_video": {"Points": [{"interpolation": 2, "co": {"X": 1, "Y": -1}}]}, "perspective_c4_y": {"Points": [{"interpolation": 2, "co": {"X": 1, "Y": -1}}]}, "perspective_c2_y": {"Points": [{"interpolation": 2, "co": {"X": 1, "Y": -1}}]}, "reader": {"type": "FFmpegReader", "height": 451, "interlaced_frame": false, "video_timebase": {"num": 1, "den": 60}, "audio_stream_index": -1, "video_length": "652", "file_size": "18167826", "audio_bit_rate": 0, "channels": 0, "sample_rate": 0, "video_bit_rate": 13375086, "channel_layout": 4, "path": "rec.avi", "metadata": {}, "vcodec": "mjpeg", "has_video": true, "has_audio": false, "pixel_format": 12, "acodec": "", "video_stream_index": 0, "display_ratio": {"num": 531, "den": 451}, "fps": {"num": 60, "den": 1}, "width": 531, "top_field_first": true, "audio_timebase": {"num": 1, "den": 1}, "pixel_ratio": {"num": 1, "den": 1}, "duration": 10.866666793823242, "has_single_image": false}, "perspective_c3_x": {"Points": [{"interpolation": 2, "co": {"X": 1, "Y": -1}}]}, "id": "S1HEPYMO0Q", "anchor": 0, "location_x": {"Points": [{"interpolation": 2, "co": {"X": 1, "Y": 0}}]}, "mixing": 0, "perspective_c1_y": {"Points": [{"interpolation": 2, "co": {"X": 1, "Y": -1}}]}, "file_id": "VLL3NDOT0B", "position": 10, "location_y": {"Points": [{"interpolation": 2, "co": {"X": 1, "Y": 0}}]}, "scale_y": {"Points": [{"interpolation": 2, "co": {"X": 1, "Y": 1}}]}, "shear_x": {"Points": [{"interpolation": 2, "co": {"X": 1, "Y": 0}}]}, "perspective_c4_x": {"Points": [{"interpolation": 2, "co": {"X": 1, "Y": -1}}]}}, {"time": {"Points": [{"interpolation": 2, "co": {"X": 1, "Y": 1}}]}, "display": 0, "perspective_c2_x": {"Points": [{"interpolation": 2, "co": {"X": 1, "Y": -1}}]}, "duration": 86400.0, "end": 10, "scale_x": {"Points": [{"interpolation": 2, "co": {"X": 1, "Y": 1}}]}, "effects": [], "has_audio": {"Points": [{"interpolation": 2, "co": {"X": 1, "Y": -1}}]}, "scale": 1, "perspective_c3_y": {"Points": [{"interpolation": 2, "co": {"X": 1, "Y": -1}}]}, "title": "TitleFileName-2.svg", "alpha": {"Points": [{"interpolation": 2, "co": {"X": 1, "Y": 1}}, {"interpolation": 0, "handle_type": 0, "handle_left": {"X": 0.5, "Y": 1}, "handle_right": {"X": 0.5, "Y": 0}, "co": {"X": 1, "Y": 0}}, {"interpolation": 0, "handle_type": 0, "handle_left": {"X": 0.5, "Y": 1}, "handle_right": {"X": 0.5, "Y": 0}, "co": {"X": 73, "Y": 1}}]}, "start": 0, "wave_color": {"blue": {"Points": [{"interpolation": 0, "handle_type": 0, "handle_left": {"X": 0.5, "Y": 1}, "handle_right": {"X": 0.5, "Y": 0}, "co": {"X": 1, "Y": 255}}]}, "green": {"Points": [{"interpolation": 0, "handle_type": 0, "handle_left": {"X": 0.5, "Y": 1}, "handle_right": {"X": 0.5, "Y": 0}, "co": {"X": 1, "Y": 123}}]}, "red": {"Points": [{"interpolation": 0, "handle_type": 0, "handle_left": {"X": 0.5, "Y": 1}, "handle_right": {"X": 0.5, "Y": 0}, "co": {"X": 1, "Y": 0}}]}, "alpha": {"Points": [{"interpolation": 0, "handle_type": 0, "handle_left": {"X": 0.5, "Y": 1}, "handle_right": {"X": 0.5, "Y": 0}, "co": {"X": 1, "Y": 255}}]}}, "crop_x": {"Points": [{"interpolation": 2, "co": {"X": 1, "Y": 0}}]}, "image": "../../../../../.openshot_qt/thumbnail/SM8I51NPAK.png", "layer": 1, "perspective_c1_x": {"Points": [{"interpolation": 2, "co": {"X": 1, "Y": -1}}]}, "channel_filter": {"Points": [{"interpolation": 2, "co": {"X": 1, "Y": -1}}]}, "rotation": {"Points": [{"interpolation": 2, "co": {"X": 1, "Y": 0}}]}, "gravity": 4, "waveform": false, "crop_width": {"Points": [{"interpolation": 2, "co": {"X": 1, "Y": -1}}]}, "crop_height": {"Points": [{"interpolation": 2, "co": {"X": 1, "Y": -1}}]}, "id": "838ILRLA3L", "volume": {"Points": [{"interpolation": 2, "co": {"X": 1, "Y": 1}}]}, "channel_mapping": {"Points": [{"interpolation": 2, "co": {"X": 1, "Y": -1}}]}, "crop_y": {"Points": [{"interpolation": 2, "co": {"X": 1, "Y": 0}}]}, "has_video": {"Points": [{"interpolation": 2, "co": {"X": 1, "Y": -1}}]}, "perspective_c4_y": {"Points": [{"interpolation": 2, "co": {"X": 1, "Y": -1}}]}, "perspective_c2_y": {"Points": [{"interpolation": 2, "co": {"X": 1, "Y": -1}}]}, "reader": {"type": "QtImageReader", "interlaced_frame": false, "video_timebase": {"num": 1, "den": 30}, "audio_stream_index": -1, "video_length": "2592000", "file_size": "8294400", "audio_bit_rate": 0, "channels": 0, "sample_rate": 0, "video_bit_rate": 0, "channel_layout": 4, "path": "assets/TitleFileName-2.svg", "metadata": {}, "vcodec": "", "has_video": true, "has_audio": false, "pixel_format": -1, "height": 1080, "acodec": "", "video_stream_index": -1, "display_ratio": {"num": 16, "den": 9}, "fps": {"num": 30, "den": 1}, "width": 1920, "top_field_first": true, "audio_timebase": {"num": 1, "den": 1}, "pixel_ratio": {"num": 1, "den": 1}, "duration": 86400.0, "has_single_image": true}, "position": 10.946666793823242, "perspective_c3_x": {"Points": [{"interpolation": 2, "co": {"X": 1, "Y": -1}}]}, "anchor": 0, "location_x": {"Points": [{"interpolation": 2, "co": {"X": 1, "Y": 0}}]}, "mixing": 0, "perspective_c1_y": {"Points": [{"interpolation": 2, "co": {"X": 1, "Y": -1}}]}, "file_id": "SM8I51NPAK", "shear_y": {"Points": [{"interpolation": 2, "co": {"X": 1, "Y": 0}}]}, "location_y": {"Points": [{"interpolation": 2, "co": {"X": 1, "Y": 0}}]}, "scale_y": {"Points": [{"interpolation": 2, "co": {"X": 1, "Y": 1}}]}, "shear_x": {"Points": [{"interpolation": 2, "co": {"X": 1, "Y": 0}}]}, "perspective_c4_x": {"Points": [{"interpolation": 2, "co": {"X": 1, "Y": -1}}]}}, {"time": {"Points": [{"interpolation": 2, "co": {"X": 1, "Y": 1}}]}, "display": 0, "perspective_c2_x": {"Points": [{"interpolation": 2, "co": {"X": 1, "Y": -1}}]}, "duration": 86400.0, "end": 10, "scale_x": {"Points": [{"interpolation": 2, "co": {"X": 1, "Y": 1}}]}, "effects": [], "has_audio": {"Points": [{"interpolation": 2, "co": {"X": 1, "Y": -1}}]}, "scale": 1, "perspective_c3_y": {"Points": [{"interpolation": 2, "co": {"X": 1, "Y": -1}}]}, "title": "opening2.png", "alpha": {"Points": [{"interpolation": 2, "co": {"X": 1, "Y": 1}}, {"interpolation": 0, "handle_type": 0, "handle_left": {"X": 0.5, "Y": 1}, "handle_right": {"X": 0.5, "Y": 0}, "co": {"X": 169, "Y": 1}}, {"interpolation": 0, "handle_type": 0, "handle_left": {"X": 0.5, "Y": 1}, "handle_right": {"X": 0.5, "Y": 0}, "co": {"X": 241, "Y": 0}}]}, "start": 0, "wave_color": {"blue": {"Points": [{"interpolation": 0, "handle_type": 0, "handle_left": {"X": 0.5, "Y": 1}, "handle_right": {"X": 0.5, "Y": 0}, "co": {"X": 1, "Y": 255}}]}, "green": {"Points": [{"interpolation": 0, "handle_type": 0, "handle_left": {"X": 0.5, "Y": 1}, "handle_right": {"X": 0.5, "Y": 0}, "co": {"X": 1, "Y": 123}}]}, "red": {"Points": [{"interpolation": 0, "handle_type": 0, "handle_left": {"X": 0.5, "Y": 1}, "handle_right": {"X": 0.5, "Y": 0}, "co": {"X": 1, "Y": 0}}]}, "alpha": {"Points": [{"interpolation": 0, "handle_type": 0, "handle_left": {"X": 0.5, "Y": 1}, "handle_right": {"X": 0.5, "Y": 0}, "co": {"X": 1, "Y": 255}}]}}, "crop_x": {"Points": [{"interpolation": 2, "co": {"X": 1, "Y": 0}}]}, "image": "../../../../../.openshot_qt/thumbnail/722P7PCEWK.png", "layer": 0, "perspective_c1_x": {"Points": [{"interpolation": 2, "co": {"X": 1, "Y": -1}}]}, "channel_filter": {"Points": [{"interpolation": 2, "co": {"X": 1, "Y": -1}}]}, "rotation": {"Points": [{"interpolation": 2, "co": {"X": 1, "Y": 0}}]}, "gravity": 4, "waveform": false, "crop_width": {"Points": [{"interpolation": 2, "co": {"X": 1, "Y": -1}}]}, "crop_height": {"Points": [{"interpolation": 2, "co": {"X": 1, "Y": -1}}]}, "id": "T71MOBYYIW", "volume": {"Points": [{"interpolation": 2, "co": {"X": 1, "Y": 1}}]}, "channel_mapping": {"Points": [{"interpolation": 2, "co": {"X": 1, "Y": -1}}]}, "crop_y": {"Points": [{"interpolation": 2, "co": {"X": 1, "Y": 0}}]}, "has_video": {"Points": [{"interpolation": 2, "co": {"X": 1, "Y": -1}}]}, "perspective_c4_y": {"Points": [{"interpolation": 2, "co": {"X": 1, "Y": -1}}]}, "perspective_c2_y": {"Points": [{"interpolation": 2, "co": {"X": 1, "Y": -1}}]}, "reader": {"type": "QtImageReader", "interlaced_frame": false, "video_timebase": {"num": 1, "den": 30}, "audio_stream_index": -1, "video_length": "2592000", "file_size": "2764800", "audio_bit_rate": 0, "channels": 0, "sample_rate": 0, "video_bit_rate": 0, "channel_layout": 4, "path": "slides/opening2.png", "metadata": {}, "vcodec": "", "has_video": true, "has_audio": false, "pixel_format": -1, "height": 720, "acodec": "", "video_stream_index": -1, "display_ratio": {"num": 4, "den": 3}, "fps": {"num": 30, "den": 1}, "width": 960, "top_field_first": true, "audio_timebase": {"num": 1, "den": 1}, "pixel_ratio": {"num": 1, "den": 1}, "duration": 86400.0, "has_single_image": true}, "position": 30.94666679382324, "perspective_c3_x": {"Points": [{"interpolation": 2, "co": {"X": 1, "Y": -1}}]}, "anchor": 0, "location_x": {"Points": [{"interpolation": 2, "co": {"X": 1, "Y": 0}}]}, "mixing": 0, "perspective_c1_y": {"Points": [{"interpolation": 2, "co": {"X": 1, "Y": -1}}]}, "file_id": "722P7PCEWK", "shear_y": {"Points": [{"interpolation": 2, "co": {"X": 1, "Y": 0}}]}, "location_y": {"Points": [{"interpolation": 2, "co": {"X": 1, "Y": 0}}]}, "scale_y": {"Points": [{"interpolation": 2, "co": {"X": 1, "Y": 1}}]}, "shear_x": {"Points": [{"interpolation": 2, "co": {"X": 1, "Y": 0}}]}, "perspective_c4_x": {"Points": [{"interpolation": 2, "co": {"X": 1, "Y": -1}}]}}, {"time": {"Points": [{"interpolation": 2, "co": {"X": 1, "Y": 1}}]}, "display": 0, "perspective_c2_x": {"Points": [{"interpolation": 2, "co": {"X": 1, "Y": -1}}]}, "duration": 86400.0, "end": 10, "scale_x": {"Points": [{"interpolation": 2, "co": {"X": 1, "Y": 1}}]}, "channel_filter": {"Points": [{"interpolation": 2, "co": {"X": 1, "Y": -1}}]}, "effects": [], "has_audio": {"Points": [{"interpolation": 2, "co": {"X": 1, "Y": -1}}]}, "scale": 1, "perspective_c3_y": {"Points": [{"interpolation": 2, "co": {"X": 1, "Y": -1}}]}, "alpha": {"Points": [{"interpolation": 2, "co": {"X": 1, "Y": 1}}]}, "start": 0, "wave_color": {"blue": {"Points": [{"interpolation": 0, "handle_type": 0, "co": {"X": 1, "Y": 255}, "handle_right": {"X": 0.5, "Y": 0}, "handle_left": {"X": 0.5, "Y": 1}}]}, "green": {"Points": [{"interpolation": 0, "handle_type": 0, "co": {"X": 1, "Y": 123}, "handle_right": {"X": 0.5, "Y": 0}, "handle_left": {"X": 0.5, "Y": 1}}]}, "red": {"Points": [{"interpolation": 0, "handle_type": 0, "co": {"X": 1, "Y": 0}, "handle_right": {"X": 0.5, "Y": 0}, "handle_left": {"X": 0.5, "Y": 1}}]}, "alpha": {"Points": [{"interpolation": 0, "handle_type": 0, "co": {"X": 1, "Y": 255}, "handle_right": {"X": 0.5, "Y": 0}, "handle_left": {"X": 0.5, "Y": 1}}]}}, "crop_x": {"Points": [{"interpolation": 2, "co": {"X": 1, "Y": 0}}]}, "image": "../../../../../.openshot_qt/thumbnail/FG71JWWOKG.png", "layer": 0, "perspective_c1_x": {"Points": [{"interpolation": 2, "co": {"X": 1, "Y": -1}}]}, "position": 0, "rotation": {"Points": [{"interpolation": 2, "co": {"X": 1, "Y": 0}}]}, "mixing": 0, "waveform": false, "crop_width": {"Points": [{"interpolation": 2, "co": {"X": 1, "Y": -1}}]}, "crop_height": {"Points": [{"interpolation": 2, "co": {"X": 1, "Y": -1}}]}, "title": "opening.png", "volume": {"Points": [{"interpolation": 2, "co": {"X": 1, "Y": 1}}]}, "channel_mapping": {"Points": [{"interpolation": 2, "co": {"X": 1, "Y": -1}}]}, "crop_y": {"Points": [{"interpolation": 2, "co": {"X": 1, "Y": 0}}]}, "has_video": {"Points": [{"interpolation": 2, "co": {"X": 1, "Y": -1}}]}, "perspective_c4_y": {"Points": [{"interpolation": 2, "co": {"X": 1, "Y": -1}}]}, "perspective_c2_y": {"Points": [{"interpolation": 2, "co": {"X": 1, "Y": -1}}]}, "reader": {"type": "QtImageReader", "height": 720, "video_timebase": {"num": 1, "den": 30}, "audio_stream_index": -1, "video_length": "2592000", "interlaced_frame": false, "duration": 86400.0, "channels": 0, "sample_rate": 0, "video_bit_rate": 0, "channel_layout": 4, "path": "slides/opening.png", "metadata": {}, "audio_bit_rate": 0, "has_video": true, "has_audio": false, "pixel_format": -1, "acodec": "", "video_stream_index": -1, "display_ratio": {"num": 4, "den": 3}, "file_size": "2764800", "fps": {"num": 30, "den": 1}, "width": 960, "top_field_first": true, "audio_timebase": {"num": 1, "den": 1}, "pixel_ratio": {"num": 1, "den": 1}, "vcodec": "", "has_single_image": true}, "perspective_c3_x": {"Points": [{"interpolation": 2, "co": {"X": 1, "Y": -1}}]}, "gravity": 4, "id": "VUZXRGBOF5", "anchor": 0, "location_x": {"Points": [{"interpolation": 2, "co": {"X": 1, "Y": 0}}]}, "perspective_c1_y": {"Points": [{"interpolation": 2, "co": {"X": 1, "Y": -1}}]}, "file_id": "FG71JWWOKG", "shear_y": {"Points": [{"interpolation": 2, "co": {"X": 1, "Y": 0}}]}, "location_y": {"Points": [{"interpolation": 2, "co": {"X": 1, "Y": 0}}]}, "scale_y": {"Points": [{"interpolation": 2, "co": {"X": 1, "Y": 1}}]}, "shear_x": {"Points": [{"interpolation": 2, "co": {"X": 1, "Y": 0}}]}, "perspective_c4_x": {"Points": [{"interpolation": 2, "co": {"X": 1, "Y": -1}}]}}, {"time": {"Points": [{"interpolation": 2, "co": {"X": 1, "Y": 1}}]}, "display": 0, "perspective_c2_x": {"Points": [{"interpolation": 2, "co": {"X": 1, "Y": -1}}]}, "duration": 86400.0, "end": 10, "scale_x": {"Points": [{"interpolation": 2, "co": {"X": 1, "Y": 1}}]}, "channel_filter": {"Points": [{"interpolation": 2, "co": {"X": 1, "Y": -1}}]}, "effects": [], "has_audio": {"Points": [{"interpolation": 2, "co": {"X": 1, "Y": -1}}]}, "scale": 1, "perspective_c3_y": {"Points": [{"interpolation": 2, "co": {"X": 1, "Y": -1}}]}, "alpha": {"Points": [{"interpolation": 2, "co": {"X": 1, "Y": 1}}]}, "start": 0, "wave_color": {"blue": {"Points": [{"interpolation": 0, "handle_type": 0, "co": {"X": 1, "Y": 255}, "handle_right": {"X": 0.5, "Y": 0}, "handle_left": {"X": 0.5, "Y": 1}}]}, "green": {"Points": [{"interpolation": 0, "handle_type": 0, "co": {"X": 1, "Y": 123}, "handle_right": {"X": 0.5, "Y": 0}, "handle_left": {"X": 0.5, "Y": 1}}]}, "red": {"Points": [{"interpolation": 0, "handle_type": 0, "co": {"X": 1, "Y": 0}, "handle_right": {"X": 0.5, "Y": 0}, "handle_left": {"X": 0.5, "Y": 1}}]}, "alpha": {"Points": [{"interpolation": 0, "handle_type": 0, "co": {"X": 1, "Y": 255}, "handle_right": {"X": 0.5, "Y": 0}, "handle_left": {"X": 0.5, "Y": 1}}]}}, "crop_x": {"Points": [{"interpolation": 2, "co": {"X": 1, "Y": 0}}]}, "image": "../../../../../.openshot_qt/thumbnail/YIV9WP4V5Q.png", "layer": 0, "perspective_c1_x": {"Points": [{"interpolation": 2, "co": {"X": 1, "Y": -1}}]}, "position": 21.026666793823242, "rotation": {"Points": [{"interpolation": 2, "co": {"X": 1, "Y": 0}}]}, "mixing": 0, "waveform": false, "crop_width": {"Points": [{"interpolation": 2, "co": {"X": 1, "Y": -1}}]}, "crop_height": {"Points": [{"interpolation": 2, "co": {"X": 1, "Y": -1}}]}, "title": "opening1.png", "volume": {"Points": [{"interpolation": 2, "co": {"X": 1, "Y": 1}}]}, "channel_mapping": {"Points": [{"interpolation": 2, "co": {"X": 1, "Y": -1}}]}, "crop_y": {"Points": [{"interpolation": 2, "co": {"X": 1, "Y": 0}}]}, "has_video": {"Points": [{"interpolation": 2, "co": {"X": 1, "Y": -1}}]}, "perspective_c4_y": {"Points": [{"interpolation": 2, "co": {"X": 1, "Y": -1}}]}, "perspective_c2_y": {"Points": [{"interpolation": 2, "co": {"X": 1, "Y": -1}}]}, "reader": {"type": "QtImageReader", "height": 720, "video_timebase": {"num": 1, "den": 30}, "audio_stream_index": -1, "video_length": "2592000", "interlaced_frame": false, "duration": 86400.0, "channels": 0, "sample_rate": 0, "video_bit_rate": 0, "channel_layout": 4, "path": "slides/opening1.png", "metadata": {}, "audio_bit_rate": 0, "has_video": true, "has_audio": false, "pixel_format": -1, "acodec": "", "video_stream_index": -1, "display_ratio": {"num": 4, "den": 3}, "file_size": "2764800", "fps": {"num": 30, "den": 1}, "width": 960, "top_field_first": true, "audio_timebase": {"num": 1, "den": 1}, "pixel_ratio": {"num": 1, "den": 1}, "vcodec": "", "has_single_image": true}, "perspective_c3_x": {"Points": [{"interpolation": 2, "co": {"X": 1, "Y": -1}}]}, "gravity": 4, "id": "3A3QKZGMJB", "anchor": 0, "location_x": {"Points": [{"interpolation": 2, "co": {"X": 1, "Y": 0}}]}, "perspective_c1_y": {"Points": [{"interpolation": 2, "co": {"X": 1, "Y": -1}}]}, "file_id": "YIV9WP4V5Q", "shear_y": {"Points": [{"interpolation": 2, "co": {"X": 1, "Y": 0}}]}, "location_y": {"Points": [{"interpolation": 2, "co": {"X": 1, "Y": 0}}]}, "scale_y": {"Points": [{"interpolation": 2, "co": {"X": 1, "Y": 1}}]}, "shear_x": {"Points": [{"interpolation": 2, "co": {"X": 1, "Y": 0}}]}, "perspective_c4_x": {"Points": [{"interpolation": 2, "co": {"X": 1, "Y": -1}}]}}, {"time": {"Points": [{"interpolation": 2, "co": {"X": 1, "Y": 1}}]}, "display": 0, "perspective_c2_x": {"Points": [{"interpolation": 2, "co": {"X": 1, "Y": -1}}]}, "duration": 86400.0, "end": 10, "scale_x": {"Points": [{"interpolation": 2, "co": {"X": 1, "Y": 1}}]}, "channel_filter": {"Points": [{"interpolation": 2, "co": {"X": 1, "Y": -1}}]}, "effects": [], "has_audio": {"Points": [{"interpolation": 2, "co": {"X": 1, "Y": -1}}]}, "scale": 1, "perspective_c3_y": {"Points": [{"interpolation": 2, "co": {"X": 1, "Y": -1}}]}, "alpha": {"Points": [{"interpolation": 2, "co": {"X": 1, "Y": 1}}]}, "start": 0, "wave_color": {"blue": {"Points": [{"interpolation": 0, "handle_type": 0, "co": {"X": 1, "Y": 255}, "handle_right": {"X": 0.5, "Y": 0}, "handle_left": {"X": 0.5, "Y": 1}}]}, "green": {"Points": [{"interpolation": 0, "handle_type": 0, "co": {"X": 1, "Y": 123}, "handle_right": {"X": 0.5, "Y": 0}, "handle_left": {"X": 0.5, "Y": 1}}]}, "red": {"Points": [{"interpolation": 0, "handle_type": 0, "co": {"X": 1, "Y": 0}, "handle_right": {"X": 0.5, "Y": 0}, "handle_left": {"X": 0.5, "Y": 1}}]}, "alpha": {"Points": [{"interpolation": 0, "handle_type": 0, "co": {"X": 1, "Y": 255}, "handle_right": {"X": 0.5, "Y": 0}, "handle_left": {"X": 0.5, "Y": 1}}]}}, "crop_x": {"Points": [{"interpolation": 2, "co": {"X": 1, "Y": 0}}]}, "image": "../../../../../.openshot_qt/thumbnail/LMEK33J1LA.png", "layer": 0, "perspective_c1_x": {"Points": [{"interpolation": 2, "co": {"X": 1, "Y": -1}}]}, "position": 40.94666679382324, "rotation": {"Points": [{"interpolation": 2, "co": {"X": 1, "Y": 0}}]}, "mixing": 0, "waveform": false, "crop_width": {"Points": [{"interpolation": 2, "co": {"X": 1, "Y": -1}}]}, "crop_height": {"Points": [{"interpolation": 2, "co": {"X": 1, "Y": -1}}]}, "title": "opening3.png", "volume": {"Points": [{"interpolation": 2, "co": {"X": 1, "Y": 1}}]}, "channel_mapping": {"Points": [{"interpolation": 2, "co": {"X": 1, "Y": -1}}]}, "crop_y": {"Points": [{"interpolation": 2, "co": {"X": 1, "Y": 0}}]}, "has_video": {"Points": [{"interpolation": 2, "co": {"X": 1, "Y": -1}}]}, "perspective_c4_y": {"Points": [{"interpolation": 2, "co": {"X": 1, "Y": -1}}]}, "perspective_c2_y": {"Points": [{"interpolation": 2, "co": {"X": 1, "Y": -1}}]}, "reader": {"type": "QtImageReader", "height": 720, "video_timebase": {"num": 1, "den": 30}, "audio_stream_index": -1, "video_length": "2592000", "interlaced_frame": false, "duration": 86400.0, "channels": 0, "sample_rate": 0, "video_bit_rate": 0, "channel_layout": 4, "path": "slides/opening3.png", "metadata": {}, "audio_bit_rate": 0, "has_video": true, "has_audio": false, "pixel_format": -1, "acodec": "", "video_stream_index": -1, "display_ratio": {"num": 4, "den": 3}, "file_size": "2764800", "fps": {"num": 30, "den": 1}, "width": 960, "top_field_first": true, "audio_timebase": {"num": 1, "den": 1}, "pixel_ratio": {"num": 1, "den": 1}, "vcodec": "", "has_single_image": true}, "perspective_c3_x": {"Points": [{"interpolation": 2, "co": {"X": 1, "Y": -1}}]}, "gravity": 4, "id": "X5HE8XP5XU", "anchor": 0, "location_x": {"Points": [{"interpolation": 2, "co": {"X": 1, "Y": 0}}]}, "perspective_c1_y": {"Points": [{"interpolation": 2, "co": {"X": 1, "Y": -1}}]}, "file_id": "LMEK33J1LA", "shear_y": {"Points": [{"interpolation": 2, "co": {"X": 1, "Y": 0}}]}, "location_y": {"Points": [{"interpolation": 2, "co": {"X": 1, "Y": 0}}]}, "scale_y": {"Points": [{"interpolation": 2, "co": {"X": 1, "Y": 1}}]}, "shear_x": {"Points": [{"interpolation": 2, "co": {"X": 1, "Y": 0}}]}, "perspective_c4_x": {"Points": [{"interpolation": 2, "co": {"X": 1, "Y": -1}}]}}, {"time": {"Points": [{"interpolation": 2, "co": {"X": 1, "Y": 1}}]}, "display": 0, "perspective_c2_x": {"Points": [{"interpolation": 2, "co": {"X": 1, "Y": -1}}]}, "duration": 86400.0, "end": 10, "scale_x": {"Points": [{"interpolation": 2, "co": {"X": 1, "Y": 1}}]}, "channel_filter": {"Points": [{"interpolation": 2, "co": {"X": 1, "Y": -1}}]}, "effects": [], "has_audio": {"Points": [{"interpolation": 2, "co": {"X": 1, "Y": -1}}]}, "scale": 1, "perspective_c3_y": {"Points": [{"interpolation": 2, "co": {"X": 1, "Y": -1}}]}, "alpha": {"Points": [{"interpolation": 2, "co": {"X": 1, "Y": 1}}]}, "start": 0, "wave_color": {"blue": {"Points": [{"interpolation": 0, "handle_type": 0, "co": {"X": 1, "Y": 255}, "handle_right": {"X": 0.5, "Y": 0}, "handle_left": {"X": 0.5, "Y": 1}}]}, "green": {"Points": [{"interpolation": 0, "handle_type": 0, "co": {"X": 1, "Y": 123}, "handle_right": {"X": 0.5, "Y": 0}, "handle_left": {"X": 0.5, "Y": 1}}]}, "red": {"Points": [{"interpolation": 0, "handle_type": 0, "co": {"X": 1, "Y": 0}, "handle_right": {"X": 0.5, "Y": 0}, "handle_left": {"X": 0.5, "Y": 1}}]}, "alpha": {"Points": [{"interpolation": 0, "handle_type": 0, "co": {"X": 1, "Y": 255}, "handle_right": {"X": 0.5, "Y": 0}, "handle_left": {"X": 0.5, "Y": 1}}]}}, "crop_x": {"Points": [{"interpolation": 2, "co": {"X": 1, "Y": 0}}]}, "image": "../../../../../.openshot_qt/thumbnail/RHRWX2BT8P.png", "layer": 0, "perspective_c1_x": {"Points": [{"interpolation": 2, "co": {"X": 1, "Y": -1}}]}, "position": 50.94666679382324, "rotation": {"Points": [{"interpolation": 2, "co": {"X": 1, "Y": 0}}]}, "mixing": 0, "waveform": false, "crop_width": {"Points": [{"interpolation": 2, "co": {"X": 1, "Y": -1}}]}, "crop_height": {"Points": [{"interpolation": 2, "co": {"X": 1, "Y": -1}}]}, "title": "opening4.png", "volume": {"Points": [{"interpolation": 2, "co": {"X": 1, "Y": 1}}]}, "channel_mapping": {"Points": [{"interpolation": 2, "co": {"X": 1, "Y": -1}}]}, "crop_y": {"Points": [{"interpolation": 2, "co": {"X": 1, "Y": 0}}]}, "has_video": {"Points": [{"interpolation": 2, "co": {"X": 1, "Y": -1}}]}, "perspective_c4_y": {"Points": [{"interpolation": 2, "co": {"X": 1, "Y": -1}}]}, "perspective_c2_y": {"Points": [{"interpolation": 2, "co": {"X": 1, "Y": -1}}]}, "reader": {"type": "QtImageReader", "height": 720, "video_timebase": {"num": 1, "den": 30}, "audio_stream_index": -1, "video_length": "2592000", "interlaced_frame": false, "duration": 86400.0, "channels": 0, "sample_rate": 0, "video_bit_rate": 0, "channel_layout": 4, "path": "slides/opening4.png", "metadata": {}, "audio_bit_rate": 0, "has_video": true, "has_audio": false, "pixel_format": -1, "acodec": "", "video_stream_index": -1, "display_ratio": {"num": 4, "den": 3}, "file_size": "2764800", "fps": {"num": 30, "den": 1}, "width": 960, "top_field_first": true, "audio_timebase": {"num": 1, "den": 1}, "pixel_ratio": {"num": 1, "den": 1}, "vcodec": "", "has_single_image": true}, "perspective_c3_x": {"Points": [{"interpolation": 2, "co": {"X": 1, "Y": -1}}]}, "gravity": 4, "id": "LYT59N8TPM", "anchor": 0, "location_x": {"Points": [{"interpolation": 2, "co": {"X": 1, "Y": 0}}]}, "perspective_c1_y": {"Points": [{"interpolation": 2, "co": {"X": 1, "Y": -1}}]}, "file_id": "RHRWX2BT8P", "shear_y": {"Points": [{"interpolation": 2, "co": {"X": 1, "Y": 0}}]}, "location_y": {"Points": [{"interpolation": 2, "co": {"X": 1, "Y": 0}}]}, "scale_y": {"Points": [{"interpolation": 2, "co": {"X": 1, "Y": 1}}]}, "shear_x": {"Points": [{"interpolation": 2, "co": {"X": 1, "Y": 0}}]}, "perspective_c4_x": {"Points": [{"interpolation": 2, "co": {"X": 1, "Y": -1}}]}}, {"time": {"Points": [{"interpolation": 2, "co": {"X": 1, "Y": 1}}]}, "display": 0, "perspective_c2_x": {"Points": [{"interpolation": 2, "co": {"X": 1, "Y": -1}}]}, "duration": 86400.0, "end": 10, "scale_x": {"Points": [{"interpolation": 2, "co": {"X": 1, "Y": 1}}]}, "channel_filter": {"Points": [{"interpolation": 2, "co": {"X": 1, "Y": -1}}]}, "effects": [], "has_audio": {"Points": [{"interpolation": 2, "co": {"X": 1, "Y": -1}}]}, "scale": 1, "perspective_c3_y": {"Points": [{"interpolation": 2, "co": {"X": 1, "Y": -1}}]}, "alpha": {"Points": [{"interpolation": 2, "co": {"X": 1, "Y": 1}}, {"interpolation": 0, "handle_type": 0, "co": {"X": 169, "Y": 1}, "handle_right": {"X": 0.5, "Y": 0}, "handle_left": {"X": 0.5, "Y": 1}}, {"interpolation": 0, "handle_type": 0, "co": {"X": 241, "Y": 0}, "handle_right": {"X": 0.5, "Y": 0}, "handle_left": {"X": 0.5, "Y": 1}}, {"interpolation": 0, "handle_type": 0, "handle_right": {"X": 0.5, "Y": 0}, "handle_left": {"X": 0.5, "Y": 1}, "co": {"X": 217, "Y": 1}}, {"interpolation": 0, "handle_type": 0, "handle_right": {"X": 0.5, "Y": 0}, "handle_left": {"X": 0.5, "Y": 1}, "co": {"X": 241, "Y": 0}}]}, "start": 0, "wave_color": {"blue": {"Points": [{"interpolation": 0, "handle_type": 0, "co": {"X": 1, "Y": 255}, "handle_left": {"X": 0.5, "Y": 1}, "handle_right": {"X": 0.5, "Y": 0}}]}, "green": {"Points": [{"interpolation": 0, "handle_type": 0, "co": {"X": 1, "Y": 123}, "handle_left": {"X": 0.5, "Y": 1}, "handle_right": {"X": 0.5, "Y": 0}}]}, "red": {"Points": [{"interpolation": 0, "handle_type": 0, "co": {"X": 1, "Y": 0}, "handle_left": {"X": 0.5, "Y": 1}, "handle_right": {"X": 0.5, "Y": 0}}]}, "alpha": {"Points": [{"interpolation": 0, "handle_type": 0, "co": {"X": 1, "Y": 255}, "handle_left": {"X": 0.5, "Y": 1}, "handle_right": {"X": 0.5, "Y": 0}}]}}, "crop_x": {"Points": [{"interpolation": 2, "co": {"X": 1, "Y": 0}}]}, "image": "../../../../../.openshot_qt/thumbnail/YA8O4MECE1.png", "layer": 0, "perspective_c1_x": {"Points": [{"interpolation": 2, "co": {"X": 1, "Y": -1}}]}, "position": 70.95833333333334, "rotation": {"Points": [{"interpolation": 2, "co": {"X": 1, "Y": 0}}]}, "mixing": 0, "waveform": false, "crop_width": {"Points": [{"interpolation": 2, "co": {"X": 1, "Y": -1}}]}, "crop_height": {"Points": [{"interpolation": 2, "co": {"X": 1, "Y": -1}}]}, "title": "opening6.png", "volume": {"Points": [{"interpolation": 2, "co": {"X": 1, "Y": 1}}]}, "channel_mapping": {"Points": [{"interpolation": 2, "co": {"X": 1, "Y": -1}}]}, "crop_y": {"Points": [{"interpolation": 2, "co": {"X": 1, "Y": 0}}]}, "has_video": {"Points": [{"interpolation": 2, "co": {"X": 1, "Y": -1}}]}, "perspective_c4_y": {"Points": [{"interpolation": 2, "co": {"X": 1, "Y": -1}}]}, "perspective_c2_y": {"Points": [{"interpolation": 2, "co": {"X": 1, "Y": -1}}]}, "reader": {"type": "QtImageReader", "height": 720, "video_timebase": {"num": 1, "den": 30}, "audio_stream_index": -1, "video_length": "2592000", "interlaced_frame": false, "duration": 86400.0, "channels": 0, "sample_rate": 0, "video_bit_rate": 0, "channel_layout": 4, "path": "slides/opening6.png", "metadata": {}, "audio_bit_rate": 0, "has_video": true, "has_audio": false, "pixel_format": -1, "acodec": "", "video_stream_index": -1, "display_ratio": {"num": 4, "den": 3}, "file_size": "2764800", "fps": {"num": 30, "den": 1}, "width": 960, "top_field_first": true, "audio_timebase": {"num": 1, "den": 1}, "pixel_ratio": {"num": 1, "den": 1}, "vcodec": "", "has_single_image": true}, "perspective_c3_x": {"Points": [{"interpolation": 2, "co": {"X": 1, "Y": -1}}]}, "gravity": 4, "id": "LYWGXV5N3L", "anchor": 0, "location_x": {"Points": [{"interpolation": 2, "co": {"X": 1, "Y": 0}}]}, "perspective_c1_y": {"Points": [{"interpolation": 2, "co": {"X": 1, "Y": -1}}]}, "file_id": "YA8O4MECE1", "shear_y": {"Points": [{"interpolation": 2, "co": {"X": 1, "Y": 0}}]}, "location_y": {"Points": [{"interpolation": 2, "co": {"X": 1, "Y": 0}}]}, "scale_y": {"Points": [{"interpolation": 2, "co": {"X": 1, "Y": 1}}]}, "shear_x": {"Points": [{"interpolation": 2, "co": {"X": 1, "Y": 0}}]}, "perspective_c4_x": {"Points": [{"interpolation": 2, "co": {"X": 1, "Y": -1}}]}}, {"time": {"Points": [{"interpolation": 2, "co": {"X": 1, "Y": 1}}]}, "display": 0, "perspective_c2_x": {"Points": [{"interpolation": 2, "co": {"X": 1, "Y": -1}}]}, "duration": 86400.0, "end": 5.333333333333333, "scale_x": {"Points": [{"interpolation": 2, "co": {"X": 1, "Y": 1}}]}, "channel_filter": {"Points": [{"interpolation": 2, "co": {"X": 1, "Y": -1}}]}, "effects": [], "has_audio": {"Points": [{"interpolation": 2, "co": {"X": 1, "Y": -1}}]}, "scale": 1, "perspective_c3_y": {"Points": [{"interpolation": 2, "co": {"X": 1, "Y": -1}}]}, "alpha": {"Points": [{"interpolation": 2, "co": {"X": 1, "Y": 1}}]}, "start": 0, "wave_color": {"blue": {"Points": [{"interpolation": 0, "handle_type": 0, "co": {"X": 1, "Y": 255}, "handle_right": {"X": 0.5, "Y": 0}, "handle_left": {"X": 0.5, "Y": 1}}]}, "green": {"Points": [{"interpolation": 0, "handle_type": 0, "co": {"X": 1, "Y": 123}, "handle_right": {"X": 0.5, "Y": 0}, "handle_left": {"X": 0.5, "Y": 1}}]}, "red": {"Points": [{"interpolation": 0, "handle_type": 0, "co": {"X": 1, "Y": 0}, "handle_right": {"X": 0.5, "Y": 0}, "handle_left": {"X": 0.5, "Y": 1}}]}, "alpha": {"Points": [{"interpolation": 0, "handle_type": 0, "co": {"X": 1, "Y": 255}, "handle_right": {"X": 0.5, "Y": 0}, "handle_left": {"X": 0.5, "Y": 1}}]}}, "crop_x": {"Points": [{"interpolation": 2, "co": {"X": 1, "Y": 0}}]}, "image": "../../../../../.openshot_qt/thumbnail/ULNSBVNSH3.png", "layer": 0, "perspective_c1_x": {"Points": [{"interpolation": 2, "co": {"X": 1, "Y": -1}}]}, "position": 80.95833333333334, "rotation": {"Points": [{"interpolation": 2, "co": {"X": 1, "Y": 0}}]}, "mixing": 0, "waveform": false, "crop_width": {"Points": [{"interpolation": 2, "co": {"X": 1, "Y": -1}}]}, "crop_height": {"Points": [{"interpolation": 2, "co": {"X": 1, "Y": -1}}]}, "title": "opening7.png", "volume": {"Points": [{"interpolation": 2, "co": {"X": 1, "Y": 1}}]}, "channel_mapping": {"Points": [{"interpolation": 2, "co": {"X": 1, "Y": -1}}]}, "crop_y": {"Points": [{"interpolation": 2, "co": {"X": 1, "Y": 0}}]}, "has_video": {"Points": [{"interpolation": 2, "co": {"X": 1, "Y": -1}}]}, "perspective_c4_y": {"Points": [{"interpolation": 2, "co": {"X": 1, "Y": -1}}]}, "perspective_c2_y": {"Points": [{"interpolation": 2, "co": {"X": 1, "Y": -1}}]}, "reader": {"type": "QtImageReader", "height": 720, "video_timebase": {"num": 1, "den": 30}, "audio_stream_index": -1, "video_length": "2592000", "interlaced_frame": false, "duration": 86400.0, "channels": 0, "sample_rate": 0, "video_bit_rate": 0, "channel_layout": 4, "path": "slides/opening7.png", "metadata": {}, "audio_bit_rate": 0, "has_video": true, "has_audio": false, "pixel_format": -1, "acodec": "", "video_stream_index": -1, "display_ratio": {"num": 4, "den": 3}, "file_size": "2764800", "fps": {"num": 30, "den": 1}, "width": 960, "top_field_first": true, "audio_timebase": {"num": 1, "den": 1}, "pixel_ratio": {"num": 1, "den": 1}, "vcodec": "", "has_single_image": true}, "perspective_c3_x": {"Points": [{"interpolation": 2, "co": {"X": 1, "Y": -1}}]}, "gravity": 4, "id": "XC8281YBWR", "anchor": 0, "location_x": {"Points": [{"interpolation": 2, "co": {"X": 1, "Y": 0}}]}, "perspective_c1_y": {"Points": [{"interpolation": 2, "co": {"X": 1, "Y": -1}}]}, "file_id": "ULNSBVNSH3", "shear_y": {"Points": [{"interpolation": 2, "co": {"X": 1, "Y": 0}}]}, "location_y": {"Points": [{"interpolation": 2, "co": {"X": 1, "Y": 0}}]}, "scale_y": {"Points": [{"interpolation": 2, "co": {"X": 1, "Y": 1}}]}, "shear_x": {"Points": [{"interpolation": 2, "co": {"X": 1, "Y": 0}}]}, "perspective_c4_x": {"Points": [{"interpolation": 2, "co": {"X": 1, "Y": -1}}]}}, {"time": {"Points": [{"interpolation": 2, "co": {"X": 1, "Y": 1}}]}, "display": 0, "perspective_c2_x": {"Points": [{"interpolation": 2, "co": {"X": 1, "Y": -1}}]}, "duration": 6.949999809265137, "end": 6.949999809265137, "scale_x": {"Points": [{"interpolation": 2, "co": {"X": 1, "Y": 1}}]}, "channel_filter": {"Points": [{"interpolation": 2, "co": {"X": 1, "Y": -1}}]}, "effects": [], "has_audio": {"Points": [{"interpolation": 2, "co": {"X": 1, "Y": -1}}]}, "scale": 1, "perspective_c3_y": {"Points": [{"interpolation": 2, "co": {"X": 1, "Y": -1}}]}, "alpha": {"Points": [{"interpolation": 2, "co": {"X": 1, "Y": 1}}]}, "start": 0, "wave_color": {"blue": {"Points": [{"interpolation": 0, "handle_type": 0, "co": {"X": 1, "Y": 255}, "handle_right": {"X": 0.5, "Y": 0}, "handle_left": {"X": 0.5, "Y": 1}}]}, "green": {"Points": [{"interpolation": 0, "handle_type": 0, "co": {"X": 1, "Y": 123}, "handle_right": {"X": 0.5, "Y": 0}, "handle_left": {"X": 0.5, "Y": 1}}]}, "red": {"Points": [{"interpolation": 0, "handle_type": 0, "co": {"X": 1, "Y": 0}, "handle_right": {"X": 0.5, "Y": 0}, "handle_left": {"X": 0.5, "Y": 1}}]}, "alpha": {"Points": [{"interpolation": 0, "handle_type": 0, "co": {"X": 1, "Y": 255}, "handle_right": {"X": 0.5, "Y": 0}, "handle_left": {"X": 0.5, "Y": 1}}]}}, "crop_x": {"Points": [{"interpolation": 2, "co": {"X": 1, "Y": 0}}]}, "image": "../../../../../.openshot_qt/thumbnail/FC16UD9ZFT.png", "layer": 0, "perspective_c1_x": {"Points": [{"interpolation": 2, "co": {"X": 1, "Y": -1}}]}, "position": 86.29166666666669, "rotation": {"Points": [{"interpolation": 2, "co": {"X": 1, "Y": 0}}]}, "mixing": 0, "waveform": false, "crop_width": {"Points": [{"interpolation": 2, "co": {"X": 1, "Y": -1}}]}, "crop_height": {"Points": [{"interpolation": 2, "co": {"X": 1, "Y": -1}}]}, "title": "trajs.avi", "volume": {"Points": [{"interpolation": 2, "co": {"X": 1, "Y": 1}}]}, "channel_mapping": {"Points": [{"interpolation": 2, "co": {"X": 1, "Y": -1}}]}, "crop_y": {"Points": [{"interpolation": 2, "co": {"X": 1, "Y": 0}}]}, "has_video": {"Points": [{"interpolation": 2, "co": {"X": 1, "Y": -1}}]}, "perspective_c4_y": {"Points": [{"interpolation": 2, "co": {"X": 1, "Y": -1}}]}, "perspective_c2_y": {"Points": [{"interpolation": 2, "co": {"X": 1, "Y": -1}}]}, "reader": {"type": "FFmpegReader", "height": 1503, "video_timebase": {"num": 1, "den": 60}, "audio_stream_index": -1, "video_length": "417", "interlaced_frame": false, "duration": 6.949999809265137, "channels": 0, "sample_rate": 0, "video_bit_rate": 70132622, "channel_layout": 4, "path": "trajs.avi", "metadata": {}, "audio_bit_rate": 0, "has_video": true, "has_audio": false, "pixel_format": 12, "acodec": "", "video_stream_index": 0, "display_ratio": {"num": 1502, "den": 1503}, "file_size": "60927716", "fps": {"num": 60, "den": 1}, "width": 1502, "top_field_first": true, "audio_timebase": {"num": 1, "den": 1}, "pixel_ratio": {"num": 1, "den": 1}, "vcodec": "mjpeg", "has_single_image": false}, "perspective_c3_x": {"Points": [{"interpolation": 2, "co": {"X": 1, "Y": -1}}]}, "gravity": 4, "id": "UL3TS2PDR4", "anchor": 0, "location_x": {"Points": [{"interpolation": 2, "co": {"X": 1, "Y": 0}}]}, "perspective_c1_y": {"Points": [{"interpolation": 2, "co": {"X": 1, "Y": -1}}]}, "file_id": "FC16UD9ZFT", "shear_y": {"Points": [{"interpolation": 2, "co": {"X": 1, "Y": 0}}]}, "location_y": {"Points": [{"interpolation": 2, "co": {"X": 1, "Y": 0}}]}, "scale_y": {"Points": [{"interpolation": 2, "co": {"X": 1, "Y": 1}}]}, "shear_x": {"Points": [{"interpolation": 2, "co": {"X": 1, "Y": 0}}]}, "perspective_c4_x": {"Points": [{"interpolation": 2, "co": {"X": 1, "Y": -1}}]}}, {"time": {"Points": [{"interpolation": 2, "co": {"X": 1, "Y": 1}}]}, "display": 0, "perspective_c2_x": {"Points": [{"interpolation": 2, "co": {"X": 1, "Y": -1}}]}, "duration": 86400.0, "end": 4, "scale_x": {"Points": [{"interpolation": 2, "co": {"X": 1, "Y": 1}}]}, "channel_filter": {"Points": [{"interpolation": 2, "co": {"X": 1, "Y": -1}}]}, "effects": [], "has_audio": {"Points": [{"interpolation": 2, "co": {"X": 1, "Y": -1}}]}, "scale": 1, "perspective_c3_y": {"Points": [{"interpolation": 2, "co": {"X": 1, "Y": -1}}]}, "alpha": {"Points": [{"interpolation": 2, "co": {"X": 1, "Y": 1}}]}, "start": 0, "wave_color": {"blue": {"Points": [{"interpolation": 0, "handle_type": 0, "co": {"X": 1, "Y": 255}, "handle_right": {"X": 0.5, "Y": 0}, "handle_left": {"X": 0.5, "Y": 1}}]}, "green": {"Points": [{"interpolation": 0, "handle_type": 0, "co": {"X": 1, "Y": 123}, "handle_right": {"X": 0.5, "Y": 0}, "handle_left": {"X": 0.5, "Y": 1}}]}, "red": {"Points": [{"interpolation": 0, "handle_type": 0, "co": {"X": 1, "Y": 0}, "handle_right": {"X": 0.5, "Y": 0}, "handle_left": {"X": 0.5, "Y": 1}}]}, "alpha": {"Points": [{"interpolation": 0, "handle_type": 0, "co": {"X": 1, "Y": 255}, "handle_right": {"X": 0.5, "Y": 0}, "handle_left": {"X": 0.5, "Y": 1}}]}}, "crop_x": {"Points": [{"interpolation": 2, "co": {"X": 1, "Y": 0}}]}, "image": "../../../../../.openshot_qt/thumbnail/EWEUFI7OUN.png", "layer": 0, "perspective_c1_x": {"Points": [{"interpolation": 2, "co": {"X": 1, "Y": -1}}]}, "position": 103.24166647593182, "rotation": {"Points": [{"interpolation": 2, "co": {"X": 1, "Y": 0}}]}, "mixing": 0, "waveform": false, "crop_width": {"Points": [{"interpolation": 2, "co": {"X": 1, "Y": -1}}]}, "crop_height": {"Points": [{"interpolation": 2, "co": {"X": 1, "Y": -1}}]}, "title": "opening8b.png", "volume": {"Points": [{"interpolation": 2, "co": {"X": 1, "Y": 1}}]}, "channel_mapping": {"Points": [{"interpolation": 2, "co": {"X": 1, "Y": -1}}]}, "crop_y": {"Points": [{"interpolation": 2, "co": {"X": 1, "Y": 0}}]}, "has_video": {"Points": [{"interpolation": 2, "co": {"X": 1, "Y": -1}}]}, "perspective_c4_y": {"Points": [{"interpolation": 2, "co": {"X": 1, "Y": -1}}]}, "perspective_c2_y": {"Points": [{"interpolation": 2, "co": {"X": 1, "Y": -1}}]}, "reader": {"type": "QtImageReader", "height": 720, "video_timebase": {"num": 1, "den": 30}, "audio_stream_index": -1, "video_length": "2592000", "interlaced_frame": false, "duration": 86400.0, "channels": 0, "sample_rate": 0, "video_bit_rate": 0, "channel_layout": 4, "path": "slides/opening8b.png", "metadata": {}, "audio_bit_rate": 0, "has_video": true, "has_audio": false, "pixel_format": -1, "acodec": "", "video_stream_index": -1, "display_ratio": {"num": 4, "den": 3}, "file_size": "2764800", "fps": {"num": 30, "den": 1}, "width": 960, "top_field_first": true, "audio_timebase": {"num": 1, "den": 1}, "pixel_ratio": {"num": 1, "den": 1}, "vcodec": "", "has_single_image": true}, "perspective_c3_x": {"Points": [{"interpolation": 2, "co": {"X": 1, "Y": -1}}]}, "gravity": 4, "id": "K1HDHMF9R0", "anchor": 0, "location_x": {"Points": [{"interpolation": 2, "co": {"X": 1, "Y": 0}}]}, "perspective_c1_y": {"Points": [{"interpolation": 2, "co": {"X": 1, "Y": -1}}]}, "file_id": "EWEUFI7OUN", "shear_y": {"Points": [{"interpolation": 2, "co": {"X": 1, "Y": 0}}]}, "location_y": {"Points": [{"interpolation": 2, "co": {"X": 1, "Y": 0}}]}, "scale_y": {"Points": [{"interpolation": 2, "co": {"X": 1, "Y": 1}}]}, "shear_x": {"Points": [{"interpolation": 2, "co": {"X": 1, "Y": 0}}]}, "perspective_c4_x": {"Points": [{"interpolation": 2, "co": {"X": 1, "Y": -1}}]}}, {"time": {"Points": [{"interpolation": 2, "co": {"X": 1, "Y": 1}}]}, "display": 0, "perspective_c2_x": {"Points": [{"interpolation": 2, "co": {"X": 1, "Y": -1}}]}, "duration": 4.75, "end": 4.75, "scale_x": {"Points": [{"interpolation": 2, "co": {"X": 1, "Y": 1}}]}, "channel_filter": {"Points": [{"interpolation": 2, "co": {"X": 1, "Y": -1}}]}, "effects": [], "has_audio": {"Points": [{"interpolation": 2, "co": {"X": 1, "Y": -1}}]}, "scale": 1, "perspective_c3_y": {"Points": [{"interpolation": 2, "co": {"X": 1, "Y": -1}}]}, "alpha": {"Points": [{"interpolation": 2, "co": {"X": 1, "Y": 1}}]}, "start": 0, "wave_color": {"blue": {"Points": [{"interpolation": 0, "handle_type": 0, "co": {"X": 1, "Y": 255}, "handle_right": {"X": 0.5, "Y": 0}, "handle_left": {"X": 0.5, "Y": 1}}]}, "green": {"Points": [{"interpolation": 0, "handle_type": 0, "co": {"X": 1, "Y": 123}, "handle_right": {"X": 0.5, "Y": 0}, "handle_left": {"X": 0.5, "Y": 1}}]}, "red": {"Points": [{"interpolation": 0, "handle_type": 0, "co": {"X": 1, "Y": 0}, "handle_right": {"X": 0.5, "Y": 0}, "handle_left": {"X": 0.5, "Y": 1}}]}, "alpha": {"Points": [{"interpolation": 0, "handle_type": 0, "co": {"X": 1, "Y": 255}, "handle_right": {"X": 0.5, "Y": 0}, "handle_left": {"X": 0.5, "Y": 1}}]}}, "crop_x": {"Points": [{"interpolation": 2, "co": {"X": 1, "Y": 0}}]}, "image": "../../../../../.openshot_qt/thumbnail/KZLNLAEG7J.png", "layer": 0, "perspective_c1_x": {"Points": [{"interpolation": 2, "co": {"X": 1, "Y": -1}}]}, "position": 107.24166647593182, "rotation": {"Points": [{"interpolation": 2, "co": {"X": 1, "Y": 0}}]}, "mixing": 0, "waveform": false, "crop_width": {"Points": [{"interpolation": 2, "co": {"X": 1, "Y": -1}}]}, "crop_height": {"Points": [{"interpolation": 2, "co": {"X": 1, "Y": -1}}]}, "title": "trajs_fc_1.avi", "volume": {"Points": [{"interpolation": 2, "co": {"X": 1, "Y": 1}}]}, "channel_mapping": {"Points": [{"interpolation": 2, "co": {"X": 1, "Y": -1}}]}, "crop_y": {"Points": [{"interpolation": 2, "co": {"X": 1, "Y": 0}}]}, "has_video": {"Points": [{"interpolation": 2, "co": {"X": 1, "Y": -1}}]}, "perspective_c4_y": {"Points": [{"interpolation": 2, "co": {"X": 1, "Y": -1}}]}, "perspective_c2_y": {"Points": [{"interpolation": 2, "co": {"X": 1, "Y": -1}}]}, "reader": {"type": "FFmpegReader", "height": 1002, "video_timebase": {"num": 1, "den": 60}, "audio_stream_index": -1, "video_length": "285", "interlaced_frame": false, "duration": 4.75, "channels": 0, "sample_rate": 0, "video_bit_rate": 79206750, "channel_layout": 4, "path": "trajs_fc_1.avi", "metadata": {}, "audio_bit_rate": 0, "has_video": true, "has_audio": false, "pixel_format": 12, "acodec": "", "video_stream_index": 0, "display_ratio": {"num": 2, "den": 1}, "file_size": "47029008", "fps": {"num": 60, "den": 1}, "width": 2004, "top_field_first": true, "audio_timebase": {"num": 1, "den": 1}, "pixel_ratio": {"num": 1, "den": 1}, "vcodec": "mjpeg", "has_single_image": false}, "perspective_c3_x": {"Points": [{"interpolation": 2, "co": {"X": 1, "Y": -1}}]}, "gravity": 4, "id": "E30S9MIQFA", "anchor": 0, "location_x": {"Points": [{"interpolation": 2, "co": {"X": 1, "Y": 0}}]}, "perspective_c1_y": {"Points": [{"interpolation": 2, "co": {"X": 1, "Y": -1}}]}, "file_id": "KZLNLAEG7J", "shear_y": {"Points": [{"interpolation": 2, "co": {"X": 1, "Y": 0}}]}, "location_y": {"Points": [{"interpolation": 2, "co": {"X": 1, "Y": 0}}]}, "scale_y": {"Points": [{"interpolation": 2, "co": {"X": 1, "Y": 1}}]}, "shear_x": {"Points": [{"interpolation": 2, "co": {"X": 1, "Y": 0}}]}, "perspective_c4_x": {"Points": [{"interpolation": 2, "co": {"X": 1, "Y": -1}}]}}, {"time": {"Points": [{"interpolation": 2, "co": {"X": 1, "Y": 1}}]}, "display": 0, "perspective_c2_x": {"Points": [{"interpolation": 2, "co": {"X": 1, "Y": -1}}]}, "duration": 4.366666793823242, "end": 4.366666793823242, "scale_x": {"Points": [{"interpolation": 2, "co": {"X": 1, "Y": 1}}]}, "channel_filter": {"Points": [{"interpolation": 2, "co": {"X": 1, "Y": -1}}]}, "effects": [], "has_audio": {"Points": [{"interpolation": 2, "co": {"X": 1, "Y": -1}}]}, "scale": 1, "perspective_c3_y": {"Points": [{"interpolation": 2, "co": {"X": 1, "Y": -1}}]}, "alpha": {"Points": [{"interpolation": 2, "co": {"X": 1, "Y": 1}}]}, "start": 0, "wave_color": {"blue": {"Points": [{"interpolation": 0, "handle_type": 0, "co": {"X": 1, "Y": 255}, "handle_right": {"X": 0.5, "Y": 0}, "handle_left": {"X": 0.5, "Y": 1}}]}, "green": {"Points": [{"interpolation": 0, "handle_type": 0, "co": {"X": 1, "Y": 123}, "handle_right": {"X": 0.5, "Y": 0}, "handle_left": {"X": 0.5, "Y": 1}}]}, "red": {"Points": [{"interpolation": 0, "handle_type": 0, "co": {"X": 1, "Y": 0}, "handle_right": {"X": 0.5, "Y": 0}, "handle_left": {"X": 0.5, "Y": 1}}]}, "alpha": {"Points": [{"interpolation": 0, "handle_type": 0, "co": {"X": 1, "Y": 255}, "handle_right": {"X": 0.5, "Y": 0}, "handle_left": {"X": 0.5, "Y": 1}}]}}, "crop_x": {"Points": [{"interpolation": 2, "co": {"X": 1, "Y": 0}}]}, "image": "../../../../../.openshot_qt/thumbnail/D1DPZWUXYA.png", "layer": 0, "perspective_c1_x": {"Points": [{"interpolation": 2, "co": {"X": 1, "Y": -1}}]}, "position": 111.99166647593182, "rotation": {"Points": [{"interpolation": 2, "co": {"X": 1, "Y": 0}}]}, "mixing": 0, "waveform": false, "crop_width": {"Points": [{"interpolation": 2, "co": {"X": 1, "Y": -1}}]}, "crop_height": {"Points": [{"interpolation": 2, "co": {"X": 1, "Y": -1}}]}, "title": "trajs_fc_2.avi", "volume": {"Points": [{"interpolation": 2, "co": {"X": 1, "Y": 1}}]}, "channel_mapping": {"Points": [{"interpolation": 2, "co": {"X": 1, "Y": -1}}]}, "crop_y": {"Points": [{"interpolation": 2, "co": {"X": 1, "Y": 0}}]}, "has_video": {"Points": [{"interpolation": 2, "co": {"X": 1, "Y": -1}}]}, "perspective_c4_y": {"Points": [{"interpolation": 2, "co": {"X": 1, "Y": -1}}]}, "perspective_c2_y": {"Points": [{"interpolation": 2, "co": {"X": 1, "Y": -1}}]}, "reader": {"type": "FFmpegReader", "height": 1002, "video_timebase": {"num": 1, "den": 60}, "audio_stream_index": -1, "video_length": "262", "interlaced_frame": false, "duration": 4.366666793823242, "channels": 0, "sample_rate": 0, "video_bit_rate": 78925778, "channel_layout": 4, "path": "trajs_fc_2.avi", "metadata": {}, "audio_bit_rate": 0, "has_video": true, "has_audio": false, "pixel_format": 12, "acodec": "", "video_stream_index": 0, "display_ratio": {"num": 2, "den": 1}, "file_size": "43080324", "fps": {"num": 60, "den": 1}, "width": 2004, "top_field_first": true, "audio_timebase": {"num": 1, "den": 1}, "pixel_ratio": {"num": 1, "den": 1}, "vcodec": "mjpeg", "has_single_image": false}, "perspective_c3_x": {"Points": [{"interpolation": 2, "co": {"X": 1, "Y": -1}}]}, "gravity": 4, "id": "56I4I8MV7U", "anchor": 0, "location_x": {"Points": [{"interpolation": 2, "co": {"X": 1, "Y": 0}}]}, "perspective_c1_y": {"Points": [{"interpolation": 2, "co": {"X": 1, "Y": -1}}]}, "file_id": "D1DPZWUXYA", "shear_y": {"Points": [{"interpolation": 2, "co": {"X": 1, "Y": 0}}]}, "location_y": {"Points": [{"interpolation": 2, "co": {"X": 1, "Y": 0}}]}, "scale_y": {"Points": [{"interpolation": 2, "co": {"X": 1, "Y": 1}}]}, "shear_x": {"Points": [{"interpolation": 2, "co": {"X": 1, "Y": 0}}]}, "perspective_c4_x": {"Points": [{"interpolation": 2, "co": {"X": 1, "Y": -1}}]}}, {"time": {"Points": [{"interpolation": 2, "co": {"X": 1, "Y": 1}}]}, "display": 0, "perspective_c2_x": {"Points": [{"interpolation": 2, "co": {"X": 1, "Y": -1}}]}, "duration": 6.949999809265137, "end": 6.949999809265137, "scale_x": {"Points": [{"interpolation": 2, "co": {"X": 1, "Y": 1}}]}, "channel_filter": {"Points": [{"interpolation": 2, "co": {"X": 1, "Y": -1}}]}, "effects": [], "has_audio": {"Points": [{"interpolation": 2, "co": {"X": 1, "Y": -1}}]}, "scale": 1, "perspective_c3_y": {"Points": [{"interpolation": 2, "co": {"X": 1, "Y": -1}}]}, "alpha": {"Points": [{"interpolation": 2, "co": {"X": 1, "Y": 1}}]}, "start": 0, "wave_color": {"blue": {"Points": [{"interpolation": 0, "handle_type": 0, "co": {"X": 1, "Y": 255}, "handle_right": {"X": 0.5, "Y": 0}, "handle_left": {"X": 0.5, "Y": 1}}]}, "green": {"Points": [{"interpolation": 0, "handle_type": 0, "co": {"X": 1, "Y": 123}, "handle_right": {"X": 0.5, "Y": 0}, "handle_left": {"X": 0.5, "Y": 1}}]}, "red": {"Points": [{"interpolation": 0, "handle_type": 0, "co": {"X": 1, "Y": 0}, "handle_right": {"X": 0.5, "Y": 0}, "handle_left": {"X": 0.5, "Y": 1}}]}, "alpha": {"Points": [{"interpolation": 0, "handle_type": 0, "co": {"X": 1, "Y": 255}, "handle_right": {"X": 0.5, "Y": 0}, "handle_left": {"X": 0.5, "Y": 1}}]}}, "crop_x": {"Points": [{"interpolation": 2, "co": {"X": 1, "Y": 0}}]}, "image": "../../../../../.openshot_qt/thumbnail/NNI1FVOBKE.png", "layer": 0, "perspective_c1_x": {"Points": [{"interpolation": 2, "co": {"X": 1, "Y": -1}}]}, "position": 116.35833326975506, "rotation": {"Points": [{"interpolation": 2, "co": {"X": 1, "Y": 0}}]}, "mixing": 0, "waveform": false, "crop_width": {"Points": [{"interpolation": 2, "co": {"X": 1, "Y": -1}}]}, "crop_height": {"Points": [{"interpolation": 2, "co": {"X": 1, "Y": -1}}]}, "title": "trajs_fc_3.avi", "volume": {"Points": [{"interpolation": 2, "co": {"X": 1, "Y": 1}}]}, "channel_mapping": {"Points": [{"interpolation": 2, "co": {"X": 1, "Y": -1}}]}, "crop_y": {"Points": [{"interpolation": 2, "co": {"X": 1, "Y": 0}}]}, "has_video": {"Points": [{"interpolation": 2, "co": {"X": 1, "Y": -1}}]}, "perspective_c4_y": {"Points": [{"interpolation": 2, "co": {"X": 1, "Y": -1}}]}, "perspective_c2_y": {"Points": [{"interpolation": 2, "co": {"X": 1, "Y": -1}}]}, "reader": {"type": "FFmpegReader", "height": 1002, "video_timebase": {"num": 1, "den": 60}, "audio_stream_index": -1, "video_length": "417", "interlaced_frame": false, "duration": 6.949999809265137, "channels": 0, "sample_rate": 0, "video_bit_rate": 79792890, "channel_layout": 4, "path": "trajs_fc_3.avi", "metadata": {}, "audio_bit_rate": 0, "has_video": true, "has_audio": false, "pixel_format": 12, "acodec": "", "video_stream_index": 0, "display_ratio": {"num": 2, "den": 1}, "file_size": "69320074", "fps": {"num": 60, "den": 1}, "width": 2004, "top_field_first": true, "audio_timebase": {"num": 1, "den": 1}, "pixel_ratio": {"num": 1, "den": 1}, "vcodec": "mjpeg", "has_single_image": false}, "perspective_c3_x": {"Points": [{"interpolation": 2, "co": {"X": 1, "Y": -1}}]}, "gravity": 4, "id": "O2H2SXKGGU", "anchor": 0, "location_x": {"Points": [{"interpolation": 2, "co": {"X": 1, "Y": 0}}]}, "perspective_c1_y": {"Points": [{"interpolation": 2, "co": {"X": 1, "Y": -1}}]}, "file_id": "NNI1FVOBKE", "shear_y": {"Points": [{"interpolation": 2, "co": {"X": 1, "Y": 0}}]}, "location_y": {"Points": [{"interpolation": 2, "co": {"X": 1, "Y": 0}}]}, "scale_y": {"Points": [{"interpolation": 2, "co": {"X": 1, "Y": 1}}]}, "shear_x": {"Points": [{"interpolation": 2, "co": {"X": 1, "Y": 0}}]}, "perspective_c4_x": {"Points": [{"interpolation": 2, "co": {"X": 1, "Y": -1}}]}}, {"time": {"Points": [{"interpolation": 2, "co": {"X": 1, "Y": 1}}]}, "display": 0, "perspective_c2_x": {"Points": [{"interpolation": 2, "co": {"X": 1, "Y": -1}}]}, "duration": 86400.0, "end": 10, "scale_x": {"Points": [{"interpolation": 2, "co": {"X": 1, "Y": 1}}]}, "channel_filter": {"Points": [{"interpolation": 2, "co": {"X": 1, "Y": -1}}]}, "effects": [], "has_audio": {"Points": [{"interpolation": 2, "co": {"X": 1, "Y": -1}}]}, "scale": 1, "perspective_c3_y": {"Points": [{"interpolation": 2, "co": {"X": 1, "Y": -1}}]}, "alpha": {"Points": [{"interpolation": 2, "co": {"X": 1, "Y": 1}}]}, "start": 0, "wave_color": {"blue": {"Points": [{"interpolation": 0, "handle_type": 0, "co": {"X": 1, "Y": 255}, "handle_right": {"X": 0.5, "Y": 0}, "handle_left": {"X": 0.5, "Y": 1}}]}, "green": {"Points": [{"interpolation": 0, "handle_type": 0, "co": {"X": 1, "Y": 123}, "handle_right": {"X": 0.5, "Y": 0}, "handle_left": {"X": 0.5, "Y": 1}}]}, "red": {"Points": [{"interpolation": 0, "handle_type": 0, "co": {"X": 1, "Y": 0}, "handle_right": {"X": 0.5, "Y": 0}, "handle_left": {"X": 0.5, "Y": 1}}]}, "alpha": {"Points": [{"interpolation": 0, "handle_type": 0, "co": {"X": 1, "Y": 255}, "handle_right": {"X": 0.5, "Y": 0}, "handle_left": {"X": 0.5, "Y": 1}}]}}, "crop_x": {"Points": [{"interpolation": 2, "co": {"X": 1, "Y": 0}}]}, "image": "../../../../../.openshot_qt/thumbnail/700EU1BLAQ.png", "layer": 0, "perspective_c1_x": {"Points": [{"interpolation": 2, "co": {"X": 1, "Y": -1}}]}, "position": 93.44166647593183, "rotation": {"Points": [{"interpolation": 2, "co": {"X": 1, "Y": 0}}]}, "mixing": 0, "waveform": false, "crop_width": {"Points": [{"interpolation": 2, "co": {"X": 1, "Y": -1}}]}, "crop_height": {"Points": [{"interpolation": 2, "co": {"X": 1, "Y": -1}}]}, "title": "opening8.png", "volume": {"Points": [{"interpolation": 2, "co": {"X": 1, "Y": 1}}]}, "channel_mapping": {"Points": [{"interpolation": 2, "co": {"X": 1, "Y": -1}}]}, "crop_y": {"Points": [{"interpolation": 2, "co": {"X": 1, "Y": 0}}]}, "has_video": {"Points": [{"interpolation": 2, "co": {"X": 1, "Y": -1}}]}, "perspective_c4_y": {"Points": [{"interpolation": 2, "co": {"X": 1, "Y": -1}}]}, "perspective_c2_y": {"Points": [{"interpolation": 2, "co": {"X": 1, "Y": -1}}]}, "reader": {"type": "QtImageReader", "height": 720, "video_timebase": {"num": 1, "den": 30}, "audio_stream_index": -1, "video_length": "2592000", "interlaced_frame": false, "duration": 86400.0, "channels": 0, "sample_rate": 0, "video_bit_rate": 0, "channel_layout": 4, "path": "slides/opening8.png", "metadata": {}, "audio_bit_rate": 0, "has_video": true, "has_audio": false, "pixel_format": -1, "acodec": "", "video_stream_index": -1, "display_ratio": {"num": 4, "den": 3}, "file_size": "2764800", "fps": {"num": 30, "den": 1}, "width": 960, "top_field_first": true, "audio_timebase": {"num": 1, "den": 1}, "pixel_ratio": {"num": 1, "den": 1}, "vcodec": "", "has_single_image": true}, "perspective_c3_x": {"Points": [{"interpolation": 2, "co": {"X": 1, "Y": -1}}]}, "gravity": 4, "id": "891QVU4B22", "anchor": 0, "location_x": {"Points": [{"interpolation": 2, "co": {"X": 1, "Y": 0}}]}, "perspective_c1_y": {"Points": [{"interpolation": 2, "co": {"X": 1, "Y": -1}}]}, "file_id": "700EU1BLAQ", "shear_y": {"Points": [{"interpolation": 2, "co": {"X": 1, "Y": 0}}]}, "location_y": {"Points": [{"interpolation": 2, "co": {"X": 1, "Y": 0}}]}, "scale_y": {"Points": [{"interpolation": 2, "co": {"X": 1, "Y": 1}}]}, "shear_x": {"Points": [{"interpolation": 2, "co": {"X": 1, "Y": 0}}]}, "perspective_c4_x": {"Points": [{"interpolation": 2, "co": {"X": 1, "Y": -1}}]}}, {"time": {"Points": [{"interpolation": 2, "co": {"X": 1, "Y": 1}}]}, "display": 0, "perspective_c2_x": {"Points": [{"interpolation": 2, "co": {"X": 1, "Y": -1}}]}, "duration": 86400.0, "end": 10, "scale_x": {"Points": [{"interpolation": 2, "co": {"X": 1, "Y": 1}}]}, "channel_filter": {"Points": [{"interpolation": 2, "co": {"X": 1, "Y": -1}}]}, "effects": [], "has_audio": {"Points": [{"interpolation": 2, "co": {"X": 1, "Y": -1}}]}, "scale": 1, "perspective_c3_y": {"Points": [{"interpolation": 2, "co": {"X": 1, "Y": -1}}]}, "alpha": {"Points": [{"interpolation": 2, "co": {"X": 1, "Y": 1}}]}, "start": 0, "wave_color": {"blue": {"Points": [{"interpolation": 0, "handle_type": 0, "co": {"X": 1, "Y": 255}, "handle_right": {"X": 0.5, "Y": 0}, "handle_left": {"X": 0.5, "Y": 1}}]}, "green": {"Points": [{"interpolation": 0, "handle_type": 0, "co": {"X": 1, "Y": 123}, "handle_right": {"X": 0.5, "Y": 0}, "handle_left": {"X": 0.5, "Y": 1}}]}, "red": {"Points": [{"interpolation": 0, "handle_type": 0, "co": {"X": 1, "Y": 0}, "handle_right": {"X": 0.5, "Y": 0}, "handle_left": {"X": 0.5, "Y": 1}}]}, "alpha": {"Points": [{"interpolation": 0, "handle_type": 0, "co": {"X": 1, "Y": 255}, "handle_right": {"X": 0.5, "Y": 0}, "handle_left": {"X": 0.5, "Y": 1}}]}}, "crop_x": {"Points": [{"interpolation": 2, "co": {"X": 1, "Y": 0}}]}, "image": "../../../../../.openshot_qt/thumbnail/0S38URN00T.png", "layer": 0, "perspective_c1_x": {"Points": [{"interpolation": 2, "co": {"X": 1, "Y": -1}}]}, "position": 61.15833333333334, "rotation": {"Points": [{"interpolation": 2, "co": {"X": 1, "Y": 0}}]}, "mixing": 0, "waveform": false, "crop_width": {"Points": [{"interpolation": 2, "co": {"X": 1, "Y": -1}}]}, "crop_height": {"Points": [{"interpolation": 2, "co": {"X": 1, "Y": -1}}]}, "title": "opening5.png", "volume": {"Points": [{"interpolation": 2, "co": {"X": 1, "Y": 1}}]}, "channel_mapping": {"Points": [{"interpolation": 2, "co": {"X": 1, "Y": -1}}]}, "crop_y": {"Points": [{"interpolation": 2, "co": {"X": 1, "Y": 0}}]}, "has_video": {"Points": [{"interpolation": 2, "co": {"X": 1, "Y": -1}}]}, "perspective_c4_y": {"Points": [{"interpolation": 2, "co": {"X": 1, "Y": -1}}]}, "perspective_c2_y": {"Points": [{"interpolation": 2, "co": {"X": 1, "Y": -1}}]}, "reader": {"type": "QtImageReader", "height": 720, "video_timebase": {"num": 1, "den": 30}, "audio_stream_index": -1, "video_length": "2592000", "interlaced_frame": false, "duration": 86400.0, "channels": 0, "sample_rate": 0, "video_bit_rate": 0, "channel_layout": 4, "path": "slides/opening5.png", "metadata": {}, "audio_bit_rate": 0, "has_video": true, "has_audio": false, "pixel_format": -1, "acodec": "", "video_stream_index": -1, "display_ratio": {"num": 4, "den": 3}, "file_size": "2764800", "fps": {"num": 30, "den": 1}, "width": 960, "top_field_first": true, "audio_timebase": {"num": 1, "den": 1}, "pixel_ratio": {"num": 1, "den": 1}, "vcodec": "", "has_single_image": true}, "perspective_c3_x": {"Points": [{"interpolation": 2, "co": {"X": 1, "Y": -1}}]}, "gravity": 4, "id": "Y2Z73X5B3B", "anchor": 0, "location_x": {"Points": [{"interpolation": 2, "co": {"X": 1, "Y": 0}}]}, "perspective_c1_y": {"Points": [{"interpolation": 2, "co": {"X": 1, "Y": -1}}]}, "file_id": "0S38URN00T", "shear_y": {"Points": [{"interpolation": 2, "co": {"X": 1, "Y": 0}}]}, "location_y": {"Points": [{"interpolation": 2, "co": {"X": 1, "Y": 0}}]}, "scale_y": {"Points": [{"interpolation": 2, "co": {"X": 1, "Y": 1}}]}, "shear_x": {"Points": [{"interpolation": 2, "co": {"X": 1, "Y": 0}}]}, "perspective_c4_x": {"Points": [{"interpolation": 2, "co": {"X": 1, "Y": -1}}]}}, {"time": {"Points": [{"interpolation": 2, "co": {"X": 1, "Y": 1}}]}, "display": 0, "perspective_c2_x": {"Points": [{"interpolation": 2, "co": {"X": 1, "Y": -1}}]}, "duration": 86400.0, "end": 10, "scale_x": {"Points": [{"interpolation": 2, "co": {"X": 1, "Y": 1}}]}, "channel_filter": {"Points": [{"interpolation": 2, "co": {"X": 1, "Y": -1}}]}, "effects": [], "has_audio": {"Points": [{"interpolation": 2, "co": {"X": 1, "Y": -1}}]}, "scale": 1, "perspective_c3_y": {"Points": [{"interpolation": 2, "co": {"X": 1, "Y": -1}}]}, "alpha": {"Points": [{"interpolation": 2, "co": {"X": 1, "Y": 1}}]}, "start": 0, "wave_color": {"blue": {"Points": [{"interpolation": 0, "handle_type": 0, "co": {"X": 1, "Y": 255}, "handle_right": {"X": 0.5, "Y": 0}, "handle_left": {"X": 0.5, "Y": 1}}]}, "green": {"Points": [{"interpolation": 0, "handle_type": 0, "co": {"X": 1, "Y": 123}, "handle_right": {"X": 0.5, "Y": 0}, "handle_left": {"X": 0.5, "Y": 1}}]}, "red": {"Points": [{"interpolation": 0, "handle_type": 0, "co": {"X": 1, "Y": 0}, "handle_right": {"X": 0.5, "Y": 0}, "handle_left": {"X": 0.5, "Y": 1}}]}, "alpha": {"Points": [{"interpolation": 0, "handle_type": 0, "co": {"X": 1, "Y": 255}, "handle_right": {"X": 0.5, "Y": 0}, "handle_left": {"X": 0.5, "Y": 1}}]}}, "crop_x": {"Points": [{"interpolation": 2, "co": {"X": 1, "Y": 0}}]}, "image": "../../../../../.openshot_qt/thumbnail/H8ZKH85PV1.png", "layer": 0, "perspective_c1_x": {"Points": [{"interpolation": 2, "co": {"X": 1, "Y": -1}}]}, "position": 149.33333333333334, "rotation": {"Points": [{"interpolation": 2, "co": {"X": 1, "Y": 0}}]}, "mixing": 0, "waveform": false, "crop_width": {"Points": [{"interpolation": 2, "co": {"X": 1, "Y": -1}}]}, "crop_height": {"Points": [{"interpolation": 2, "co": {"X": 1, "Y": -1}}]}, "title": "opening_cl.png", "volume": {"Points": [{"interpolation": 2, "co": {"X": 1, "Y": 1}}]}, "channel_mapping": {"Points": [{"interpolation": 2, "co": {"X": 1, "Y": -1}}]}, "crop_y": {"Points": [{"interpolation": 2, "co": {"X": 1, "Y": 0}}]}, "has_video": {"Points": [{"interpolation": 2, "co": {"X": 1, "Y": -1}}]}, "perspective_c4_y": {"Points": [{"interpolation": 2, "co": {"X": 1, "Y": -1}}]}, "perspective_c2_y": {"Points": [{"interpolation": 2, "co": {"X": 1, "Y": -1}}]}, "reader": {"type": "QtImageReader", "height": 720, "video_timebase": {"num": 1, "den": 30}, "audio_stream_index": -1, "video_length": "2592000", "interlaced_frame": false, "duration": 86400.0, "channels": 0, "sample_rate": 0, "video_bit_rate": 0, "channel_layout": 4, "path": "slides/opening_cl.png", "metadata": {}, "audio_bit_rate": 0, "has_video": true, "has_audio": false, "pixel_format": -1, "acodec": "", "video_stream_index": -1, "display_ratio": {"num": 4, "den": 3}, "file_size": "2764800", "fps": {"num": 30, "den": 1}, "width": 960, "top_field_first": true, "audio_timebase": {"num": 1, "den": 1}, "pixel_ratio": {"num": 1, "den": 1}, "vcodec": "", "has_single_image": true}, "perspective_c3_x": {"Points": [{"interpolation": 2, "co": {"X": 1, "Y": -1}}]}, "gravity": 4, "id": "K90F5T2784", "anchor": 0, "location_x": {"Points": [{"interpolation": 2, "co": {"X": 1, "Y": 0}}]}, "perspective_c1_y": {"Points": [{"interpolation": 2, "co": {"X": 1, "Y": -1}}]}, "file_id": "H8ZKH85PV1", "shear_y": {"Points": [{"interpolation": 2, "co": {"X": 1, "Y": 0}}]}, "location_y": {"Points": [{"interpolation": 2, "co": {"X": 1, "Y": 0}}]}, "scale_y": {"Points": [{"interpolation": 2, "co": {"X": 1, "Y": 1}}]}, "shear_x": {"Points": [{"interpolation": 2, "co": {"X": 1, "Y": 0}}]}, "perspective_c4_x": {"Points": [{"interpolation": 2, "co": {"X": 1, "Y": -1}}]}}, {"time": {"Points": [{"interpolation": 2, "co": {"X": 1, "Y": 1}}]}, "display": 0, "perspective_c2_x": {"Points": [{"interpolation": 2, "co": {"X": 1, "Y": -1}}]}, "duration": 10.866666793823242, "end": 10.866666793823242, "scale_x": {"Points": [{"interpolation": 2, "co": {"X": 1, "Y": 1}}]}, "channel_filter": {"Points": [{"interpolation": 2, "co": {"X": 1, "Y": -1}}]}, "effects": [], "has_audio": {"Points": [{"interpolation": 2, "co": {"X": 1, "Y": -1}}]}, "scale": 1, "perspective_c3_y": {"Points": [{"interpolation": 2, "co": {"X": 1, "Y": -1}}]}, "alpha": {"Points": [{"interpolation": 2, "co": {"X": 1, "Y": 1}}]}, "start": 0, "wave_color": {"blue": {"Points": [{"interpolation": 0, "handle_type": 0, "co": {"X": 1, "Y": 255}, "handle_right": {"X": 0.5, "Y": 0}, "handle_left": {"X": 0.5, "Y": 1}}]}, "green": {"Points": [{"interpolation": 0, "handle_type": 0, "co": {"X": 1, "Y": 123}, "handle_right": {"X": 0.5, "Y": 0}, "handle_left": {"X": 0.5, "Y": 1}}]}, "red": {"Points": [{"interpolation": 0, "handle_type": 0, "co": {"X": 1, "Y": 0}, "handle_right": {"X": 0.5, "Y": 0}, "handle_left": {"X": 0.5, "Y": 1}}]}, "alpha": {"Points": [{"interpolation": 0, "handle_type": 0, "co": {"X": 1, "Y": 255}, "handle_right": {"X": 0.5, "Y": 0}, "handle_left": {"X": 0.5, "Y": 1}}]}}, "crop_x": {"Points": [{"interpolation": 2, "co": {"X": 1, "Y": 0}}]}, "image": "../../../../../.openshot_qt/thumbnail/YB9E3Q8R7H.png", "layer": 0, "perspective_c1_x": {"Points": [{"interpolation": 2, "co": {"X": 1, "Y": -1}}]}, "position": 159.33333333333334, "rotation": {"Points": [{"interpolation": 2, "co": {"X": 1, "Y": 0}}]}, "mixing": 0, "waveform": false, "crop_width": {"Points": [{"interpolation": 2, "co": {"X": 1, "Y": -1}}]}, "crop_height": {"Points": [{"interpolation": 2, "co": {"X": 1, "Y": -1}}]}, "title": "rec_04.avi", "volume": {"Points": [{"interpolation": 2, "co": {"X": 1, "Y": 1}}]}, "channel_mapping": {"Points": [{"interpolation": 2, "co": {"X": 1, "Y": -1}}]}, "crop_y": {"Points": [{"interpolation": 2, "co": {"X": 1, "Y": 0}}]}, "has_video": {"Points": [{"interpolation": 2, "co": {"X": 1, "Y": -1}}]}, "perspective_c4_y": {"Points": [{"interpolation": 2, "co": {"X": 1, "Y": -1}}]}, "perspective_c2_y": {"Points": [{"interpolation": 2, "co": {"X": 1, "Y": -1}}]}, "reader": {"type": "FFmpegReader", "height": 331, "video_timebase": {"num": 1, "den": 60}, "audio_stream_index": -1, "video_length": "652", "interlaced_frame": false, "duration": 10.866666793823242, "channels": 0, "sample_rate": 0, "video_bit_rate": 17789133, "channel_layout": 4, "path": "rec_04.avi", "metadata": {}, "audio_bit_rate": 0, "has_video": true, "has_audio": false, "pixel_format": 12, "acodec": "", "video_stream_index": 0, "display_ratio": {"num": 822, "den": 331}, "file_size": "24163574", "fps": {"num": 60, "den": 1}, "width": 822, "top_field_first": true, "audio_timebase": {"num": 1, "den": 1}, "pixel_ratio": {"num": 1, "den": 1}, "vcodec": "mjpeg", "has_single_image": false}, "perspective_c3_x": {"Points": [{"interpolation": 2, "co": {"X": 1, "Y": -1}}]}, "gravity": 4, "id": "J7OI1V4JOW", "anchor": 0, "location_x": {"Points": [{"interpolation": 2, "co": {"X": 1, "Y": 0}}]}, "perspective_c1_y": {"Points": [{"interpolation": 2, "co": {"X": 1, "Y": -1}}]}, "file_id": "YB9E3Q8R7H", "shear_y": {"Points": [{"interpolation": 2, "co": {"X": 1, "Y": 0}}]}, "location_y": {"Points": [{"interpolation": 2, "co": {"X": 1, "Y": 0}}]}, "scale_y": {"Points": [{"interpolation": 2, "co": {"X": 1, "Y": 1}}]}, "shear_x": {"Points": [{"interpolation": 2, "co": {"X": 1, "Y": 0}}]}, "perspective_c4_x": {"Points": [{"interpolation": 2, "co": {"X": 1, "Y": -1}}]}}], "files": [{"type": "QtImageReader", "height": 720, "interlaced_frame": false, "display_ratio": {"num": 4, "den": 3}, "video_timebase": {"num": 1, "den": 30}, "audio_stream_index": -1, "video_length": "2592000", "file_size": "2764800", "id": "FG71JWWOKG", "channels": 0, "sample_rate": 0, "video_bit_rate": 0, "channel_layout": 4, "path": "slides/opening.png", "metadata": {}, "audio_bit_rate": 0, "has_video": true, "has_audio": false, "pixel_format": -1, "acodec": "", "video_stream_index": -1, "duration": 86400, "fps": {"num": 30, "den": 1}, "width": 960, "top_field_first": true, "media_type": "image", "audio_timebase": {"num": 1, "den": 1}, "pixel_ratio": {"num": 1, "den": 1}, "vcodec": "", "has_single_image": true}, {"type": "FFmpegReader", "height": 1503, "interlaced_frame": false, "display_ratio": {"num": 1502, "den": 1503}, "video_timebase": {"num": 1, "den": 60}, "audio_stream_index": -1, "video_length": "417", "file_size": "60927716", "id": "FC16UD9ZFT", "channels": 0, "sample_rate": 0, "video_bit_rate": 70132622, "channel_layout": 4, "path": "trajs.avi", "metadata": {}, "audio_bit_rate": 0, "has_video": true, "has_audio": false, "pixel_format": 12, "acodec": "", "video_stream_index": 0, "duration": 6.949999809265137, "fps": {"num": 60, "den": 1}, "width": 1502, "top_field_first": true, "media_type": "video", "audio_timebase": {"num": 1, "den": 1}, "pixel_ratio": {"num": 1, "den": 1}, "vcodec": "mjpeg", "has_single_image": false}, {"type": "FFmpegReader", "height": 451, "interlaced_frame": false, "display_ratio": {"num": 531, "den": 451}, "video_timebase": {"num": 1, "den": 60}, "audio_stream_index": -1, "video_length": "652", "file_size": "18167826", "id": "VLL3NDOT0B", "channels": 0, "sample_rate": 0, "video_bit_rate": 13375086, "channel_layout": 4, "path": "rec.avi", "metadata": {}, "audio_bit_rate": 0, "has_video": true, "has_audio": false, "pixel_format": 12, "acodec": "", "video_stream_index": 0, "duration": 10.866666793823242, "fps": {"num": 60, "den": 1}, "width": 531, "top_field_first": true, "media_type": "video", "audio_timebase": {"num": 1, "den": 1}, "pixel_ratio": {"num": 1, "den": 1}, "vcodec": "mjpeg", "has_single_image": false}, {"type": "QtImageReader", "interlaced_frame": false, "display_ratio": {"num": 16, "den": 9}, "video_timebase": {"num": 1, "den": 30}, "audio_stream_index": -1, "video_length": "2592000", "file_size": "8294400", "id": "SM8I51NPAK", "channels": 0, "sample_rate": 0, "video_bit_rate": 0, "channel_layout": 4, "path": "assets/TitleFileName-2.svg", "metadata": {}, "audio_bit_rate": 0, "has_video": true, "has_audio": false, "pixel_format": -1, "height": 1080, "acodec": "", "video_stream_index": -1, "duration": 86400, "fps": {"num": 30, "den": 1}, "width": 1920, "top_field_first": true, "media_type": "image", "audio_timebase": {"num": 1, "den": 1}, "pixel_ratio": {"num": 1, "den": 1}, "vcodec": "", "has_single_image": true}, {"type": "QtImageReader", "interlaced_frame": false, "display_ratio": {"num": 4, "den": 3}, "video_timebase": {"num": 1, "den": 30}, "audio_stream_index": -1, "video_length": "2592000", "file_size": "2764800", "id": "YIV9WP4V5Q", "channels": 0, "sample_rate": 0, "video_bit_rate": 0, "channel_layout": 4, "path": "slides/opening1.png", "metadata": {}, "audio_bit_rate": 0, "has_video": true, "has_audio": false, "pixel_format": -1, "height": 720, "acodec": "", "video_stream_index": -1, "duration": 86400, "fps": {"num": 30, "den": 1}, "width": 960, "top_field_first": true, "media_type": "image", "audio_timebase": {"num": 1, "den": 1}, "pixel_ratio": {"num": 1, "den": 1}, "vcodec": "", "has_single_image": true}, {"type": "QtImageReader", "interlaced_frame": false, "display_ratio": {"num": 4, "den": 3}, "video_timebase": {"num": 1, "den": 30}, "audio_stream_index": -1, "video_length": "2592000", "file_size": "2764800", "id": "722P7PCEWK", "channels": 0, "sample_rate": 0, "video_bit_rate": 0, "channel_layout": 4, "path": "slides/opening2.png", "metadata": {}, "audio_bit_rate": 0, "has_video": true, "has_audio": false, "pixel_format": -1, "height": 720, "acodec": "", "video_stream_index": -1, "duration": 86400, "fps": {"num": 30, "den": 1}, "width": 960, "top_field_first": true, "media_type": "image", "audio_timebase": {"num": 1, "den": 1}, "pixel_ratio": {"num": 1, "den": 1}, "vcodec": "", "has_single_image": true}, {"type": "QtImageReader", "height": 720, "video_timebase": {"num": 1, "den": 30}, "audio_stream_index": -1, "video_length": "2592000", "interlaced_frame": false, "duration": 86400, "channels": 0, "sample_rate": 0, "video_bit_rate": 0, "channel_layout": 4, "path": "slides/opening4.png", "metadata": {}, "audio_bit_rate": 0, "has_video": true, "has_audio": false, "pixel_format": -1, "acodec": "", "video_stream_index": -1, "display_ratio": {"num": 4, "den": 3}, "file_size": "2764800", "fps": {"num": 30, "den": 1}, "id": "RHRWX2BT8P", "width": 960, "top_field_first": true, "media_type": "image", "audio_timebase": {"num": 1, "den": 1}, "pixel_ratio": {"num": 1, "den": 1}, "vcodec": "", "has_single_image": true}, {"type": "QtImageReader", "height": 720, "video_timebase": {"num": 1, "den": 30}, "audio_stream_index": -1, "video_length": "2592000", "interlaced_frame": false, "duration": 86400, "channels": 0, "sample_rate": 0, "video_bit_rate": 0, "channel_layout": 4, "path": "slides/opening3.png", "metadata": {}, "audio_bit_rate": 0, "has_video": true, "has_audio": false, "pixel_format": -1, "acodec": "", "video_stream_index": -1, "display_ratio": {"num": 4, "den": 3}, "file_size": "2764800", "fps": {"num": 30, "den": 1}, "id": "LMEK33J1LA", "width": 960, "top_field_first": true, "media_type": "image", "audio_timebase": {"num": 1, "den": 1}, "pixel_ratio": {"num": 1, "den": 1}, "vcodec": "", "has_single_image": true}, {"type": "QtImageReader", "height": 720, "video_timebase": {"num": 1, "den": 30}, "audio_stream_index": -1, "video_length": "2592000", "interlaced_frame": false, "duration": 86400, "channels": 0, "sample_rate": 0, "video_bit_rate": 0, "channel_layout": 4, "path": "slides/opening5.png", "metadata": {}, "audio_bit_rate": 0, "has_video": true, "has_audio": false, "pixel_format": -1, "acodec": "", "video_stream_index": -1, "display_ratio": {"num": 4, "den": 3}, "file_size": "2764800", "fps": {"num": 30, "den": 1}, "id": "0S38URN00T", "width": 960, "top_field_first": true, "media_type": "image", "audio_timebase": {"num": 1, "den": 1}, "pixel_ratio": {"num": 1, "den": 1}, "vcodec": "", "has_single_image": true}, {"type": "QtImageReader", "height": 720, "video_timebase": {"num": 1, "den": 30}, "audio_stream_index": -1, "video_length": "2592000", "interlaced_frame": false, "duration": 86400, "channels": 0, "sample_rate": 0, "video_bit_rate": 0, "channel_layout": 4, "path": "slides/opening6.png", "metadata": {}, "audio_bit_rate": 0, "has_video": true, "has_audio": false, "pixel_format": -1, "acodec": "", "video_stream_index": -1, "display_ratio": {"num": 4, "den": 3}, "file_size": "2764800", "fps": {"num": 30, "den": 1}, "id": "YA8O4MECE1", "width": 960, "top_field_first": true, "media_type": "image", "audio_timebase": {"num": 1, "den": 1}, "pixel_ratio": {"num": 1, "den": 1}, "vcodec": "", "has_single_image": true}, {"type": "QtImageReader", "height": 720, "video_timebase": {"num": 1, "den": 30}, "audio_stream_index": -1, "video_length": "2592000", "interlaced_frame": false, "duration": 86400, "channels": 0, "sample_rate": 0, "video_bit_rate": 0, "channel_layout": 4, "path": "slides/opening7.png", "metadata": {}, "audio_bit_rate": 0, "has_video": true, "has_audio": false, "pixel_format": -1, "acodec": "", "video_stream_index": -1, "display_ratio": {"num": 4, "den": 3}, "file_size": "2764800", "fps": {"num": 30, "den": 1}, "id": "ULNSBVNSH3", "width": 960, "top_field_first": true, "media_type": "image", "audio_timebase": {"num": 1, "den": 1}, "pixel_ratio": {"num": 1, "den": 1}, "vcodec": "", "has_single_image": true}, {"type": "QtImageReader", "height": 720, "video_timebase": {"num": 1, "den": 30}, "audio_stream_index": -1, "video_length": "2592000", "interlaced_frame": false, "duration": 86400, "channels": 0, "sample_rate": 0, "video_bit_rate": 0, "channel_layout": 4, "path": "slides/opening8.png", "metadata": {}, "audio_bit_rate": 0, "has_video": true, "has_audio": false, "pixel_format": -1, "acodec": "", "video_stream_index": -1, "display_ratio": {"num": 4, "den": 3}, "file_size": "2764800", "fps": {"num": 30, "den": 1}, "id": "700EU1BLAQ", "width": 960, "top_field_first": true, "media_type": "image", "audio_timebase": {"num": 1, "den": 1}, "pixel_ratio": {"num": 1, "den": 1}, "vcodec": "", "has_single_image": true}, {"type": "QtImageReader", "height": 720, "video_timebase": {"num": 1, "den": 30}, "audio_stream_index": -1, "video_length": "2592000", "interlaced_frame": false, "duration": 86400, "channels": 0, "sample_rate": 0, "video_bit_rate": 0, "channel_layout": 4, "path": "slides/opening8b.png", "metadata": {}, "audio_bit_rate": 0, "has_video": true, "has_audio": false, "pixel_format": -1, "acodec": "", "video_stream_index": -1, "display_ratio": {"num": 4, "den": 3}, "file_size": "2764800", "fps": {"num": 30, "den": 1}, "id": "EWEUFI7OUN", "width": 960, "top_field_first": true, "media_type": "image", "audio_timebase": {"num": 1, "den": 1}, "pixel_ratio": {"num": 1, "den": 1}, "vcodec": "", "has_single_image": true}, {"type": "FFmpegReader", "height": 1002, "video_timebase": {"num": 1, "den": 60}, "audio_stream_index": -1, "video_length": "285", "interlaced_frame": false, "duration": 4.75, "channels": 0, "sample_rate": 0, "video_bit_rate": 79206750, "channel_layout": 4, "path": "trajs_fc_1.avi", "metadata": {}, "audio_bit_rate": 0, "has_video": true, "has_audio": false, "pixel_format": 12, "acodec": "", "video_stream_index": 0, "display_ratio": {"num": 2, "den": 1}, "file_size": "47029008", "fps": {"num": 60, "den": 1}, "id": "KZLNLAEG7J", "width": 2004, "top_field_first": true, "media_type": "video", "audio_timebase": {"num": 1, "den": 1}, "pixel_ratio": {"num": 1, "den": 1}, "vcodec": "mjpeg", "has_single_image": false}, {"type": "FFmpegReader", "height": 1002, "video_timebase": {"num": 1, "den": 60}, "audio_stream_index": -1, "video_length": "262", "interlaced_frame": false, "duration": 4.366666793823242, "channels": 0, "sample_rate": 0, "video_bit_rate": 78925778, "channel_layout": 4, "path": "trajs_fc_2.avi", "metadata": {}, "audio_bit_rate": 0, "has_video": true, "has_audio": false, "pixel_format": 12, "acodec": "", "video_stream_index": 0, "display_ratio": {"num": 2, "den": 1}, "file_size": "43080324", "fps": {"num": 60, "den": 1}, "id": "D1DPZWUXYA", "width": 2004, "top_field_first": true, "media_type": "video", "audio_timebase": {"num": 1, "den": 1}, "pixel_ratio": {"num": 1, "den": 1}, "vcodec": "mjpeg", "has_single_image": false}, {"type": "FFmpegReader", "height": 1002, "video_timebase": {"num": 1, "den": 60}, "audio_stream_index": -1, "video_length": "417", "interlaced_frame": false, "duration": 6.949999809265137, "channels": 0, "sample_rate": 0, "video_bit_rate": 79792890, "channel_layout": 4, "path": "trajs_fc_3.avi", "metadata": {}, "audio_bit_rate": 0, "has_video": true, "has_audio": false, "pixel_format": 12, "acodec": "", "video_stream_index": 0, "display_ratio": {"num": 2, "den": 1}, "file_size": "69320074", "fps": {"num": 60, "den": 1}, "id": "NNI1FVOBKE", "width": 2004, "top_field_first": true, "media_type": "video", "audio_timebase": {"num": 1, "den": 1}, "pixel_ratio": {"num": 1, "den": 1}, "vcodec": "mjpeg", "has_single_image": false}, {"type": "QtImageReader", "height": 720, "video_timebase": {"num": 1, "den": 30}, "audio_stream_index": -1, "video_length": "2592000", "interlaced_frame": false, "duration": 86400, "channels": 0, "sample_rate": 0, "video_bit_rate": 0, "channel_layout": 4, "path": "slides/opening_cl.png", "metadata": {}, "audio_bit_rate": 0, "has_video": true, "has_audio": false, "pixel_format": -1, "acodec": "", "video_stream_index": -1, "display_ratio": {"num": 4, "den": 3}, "file_size": "2764800", "fps": {"num": 30, "den": 1}, "id": "H8ZKH85PV1", "width": 960, "top_field_first": true, "media_type": "image", "audio_timebase": {"num": 1, "den": 1}, "pixel_ratio": {"num": 1, "den": 1}, "vcodec": "", "has_single_image": true}, {"type": "FFmpegReader", "height": 331, "video_timebase": {"num": 1, "den": 60}, "audio_stream_index": -1, "video_length": "652", "interlaced_frame": false, "duration": 10.866666793823242, "channels": 0, "sample_rate": 0, "video_bit_rate": 17789133, "channel_layout": 4, "path": "rec_04.avi", "metadata": {}, "audio_bit_rate": 0, "has_video": true, "has_audio": false, "pixel_format": 12, "acodec": "", "video_stream_index": 0, "display_ratio": {"num": 822, "den": 331}, "file_size": "24163574", "fps": {"num": 60, "den": 1}, "id": "YB9E3Q8R7H", "width": 822, "top_field_first": true, "media_type": "video", "audio_timebase": {"num": 1, "den": 1}, "pixel_ratio": {"num": 1, "den": 1}, "vcodec": "mjpeg", "has_single_image": false}], "version": {"openshot-qt": "2.4.2", "libopenshot": "0.2.0"}, "playhead_position": 0}